<svg xmlns="http://www.w3.org/2000/svg" xmlns:svg="http://www.w3.org/2000/svg" id="svg4531" width="707.987" height="632.948" version="1.1" viewBox="0 0 707.987 632.948" xml:space="preserve"><metadata id="metadata4537"/><defs id="defs4535"><clipPath id="clipPath4549" clipPathUnits="userSpaceOnUse"><path id="path4547" d="M -1,-1 H 66.023 V 21.627 H -1 Z"/></clipPath><clipPath id="clipPath4625" clipPathUnits="userSpaceOnUse"><path id="path4623" d="M -1,-1 H 18.303 V 12.996 H -1 Z"/></clipPath><clipPath id="clipPath4645" clipPathUnits="userSpaceOnUse"><path id="path4643" d="M -1,-1 H 18.303 V 12.996 H -1 Z"/></clipPath><clipPath id="clipPath4665" clipPathUnits="userSpaceOnUse"><path id="path4663" d="M -1,-1 H 18.303 V 12.996 H -1 Z"/></clipPath><clipPath id="clipPath4685" clipPathUnits="userSpaceOnUse"><path id="path4683" d="M -1,-1 H 18.303 V 12.996 H -1 Z"/></clipPath><clipPath id="clipPath4705" clipPathUnits="userSpaceOnUse"><path id="path4703" d="M -1,-1 H 82.094 V 21.627 H -1 Z"/></clipPath><clipPath id="clipPath4737" clipPathUnits="userSpaceOnUse"><path id="path4735" d="M -1,-1 H 98.165 V 21.627 H -1 Z"/></clipPath><clipPath id="clipPath4769" clipPathUnits="userSpaceOnUse"><path id="path4767" d="M -1,-1 H 82.094 V 21.627 H -1 Z"/></clipPath><clipPath id="clipPath4801" clipPathUnits="userSpaceOnUse"><path id="path4799" d="M -1,-1 H 11.606 V 13.914 H -1 Z"/></clipPath><clipPath id="clipPath4817" clipPathUnits="userSpaceOnUse"><path id="path4815" d="M -1,-1 H 12.497 V 9.896 H -1 Z"/></clipPath><pattern id="pattern4829" width="100" height="4" x="0" y="0" patternTransform="rotate(-59.999988)" patternUnits="userSpaceOnUse"><path style="fill:#90ee90;fill-opacity:1;fill-rule:nonzero;stroke:none" id="path4827" d="M 0,0 100,0 100,1 0,1 0,0 Z"/></pattern><pattern id="pattern4843" width="100" height="4" x="0" y="0" patternTransform="rotate(-59.999988)" patternUnits="userSpaceOnUse"><path style="fill:#90ee90;fill-opacity:1;fill-rule:nonzero;stroke:none" id="path4841" d="M 0,0 100,0 100,1 0,1 0,0 Z"/></pattern><pattern id="pattern4857" width="100" height="4" x="0" y="0" patternTransform="rotate(-59.999988)" patternUnits="userSpaceOnUse"><path style="fill:#90ee90;fill-opacity:1;fill-rule:nonzero;stroke:none" id="path4855" d="M 0,0 100,0 100,1 0,1 0,0 Z"/></pattern><clipPath id="clipPath4869" clipPathUnits="userSpaceOnUse"><path id="path4867" d="M -1,-1 H 18.303 V 12.996 H -1 Z"/></clipPath><clipPath id="clipPath4889" clipPathUnits="userSpaceOnUse"><path id="path4887" d="M -1,-1 H 18.303 V 12.996 H -1 Z"/></clipPath><clipPath id="clipPath4909" clipPathUnits="userSpaceOnUse"><path id="path4907" d="M -1,-1 H 18.303 V 12.996 H -1 Z"/></clipPath><clipPath id="clipPath4929" clipPathUnits="userSpaceOnUse"><path id="path4927" d="M -1,-1 H 18.494 V 19.367 H -1 Z"/></clipPath><clipPath id="clipPath4949" clipPathUnits="userSpaceOnUse"><path id="path4947" d="M -1,-1 H 18.494 V 19.367 H -1 Z"/></clipPath><clipPath id="clipPath4969" clipPathUnits="userSpaceOnUse"><path id="path4967" d="M -1,-1 H 18.494 V 19.367 H -1 Z"/></clipPath></defs><g id="g4539" transform="matrix(1.3333333,0,0,-1.3333333,-68.493333,914.08933)"><g id="g4541" transform="translate(500.084,663.94)"><g id="g4543"><g id="g4545" clip-path="url(#clipPath4549)"><g id="g4551" transform="translate(0,-771.373)"><text style="font-variant:normal;font-weight:400;font-size:20.66250038px;font-family:CMR17;-inkscape-font-specification:CMR17;writing-mode:lr-tb;fill:#000;fill-opacity:1;fill-rule:nonzero;stroke:none" id="text4555" transform="matrix(1,0,0,-1,0,776.521)"><tspan id="tspan4553" x="0" y="0">(</tspan></text><text style="font-variant:normal;font-weight:400;font-size:20.66250038px;font-family:CMSY10;-inkscape-font-specification:CMSY10;writing-mode:lr-tb;fill:#000;fill-opacity:1;fill-rule:nonzero;stroke:none" id="text4559" transform="matrix(1,0,0,-1,7.317,776.521)"><tspan id="tspan4557" x="0" y="0">∞</tspan></text><text style="font-variant:normal;font-weight:400;font-size:20.66250038px;font-family:CMMI12;-inkscape-font-specification:CMMI12;writing-mode:lr-tb;fill:#000;fill-opacity:1;fill-rule:nonzero;stroke:none" id="text4563" transform="matrix(1,0,0,-1,27.98,776.521)"><tspan id="tspan4561" x="0" y="0">,</tspan></text><text style="font-variant:normal;font-weight:400;font-size:20.66250038px;font-family:CMSY10;-inkscape-font-specification:CMSY10;writing-mode:lr-tb;fill:#000;fill-opacity:1;fill-rule:nonzero;stroke:none" id="text4567" transform="matrix(1,0,0,-1,37.043,776.521)"><tspan id="tspan4565" x="0" y="0">∞</tspan></text><text style="font-variant:normal;font-weight:400;font-size:20.66250038px;font-family:CMR17;-inkscape-font-specification:CMR17;writing-mode:lr-tb;fill:#000;fill-opacity:1;fill-rule:nonzero;stroke:none" id="text4571" transform="matrix(1,0,0,-1,57.706,776.521)"><tspan id="tspan4569" x="0" y="0">)</tspan></text></g></g></g></g><g id="g4573"><path style="fill:none;stroke:red;stroke-width:1.20000005;stroke-linecap:butt;stroke-linejoin:round;stroke-miterlimit:10;stroke-dasharray:4;stroke-dashoffset:0;stroke-opacity:1" id="path4575" d="M 128,640 V 256 h 384 v 384 z"/></g><g id="g4577"><path style="fill:none;stroke:red;stroke-width:1.20000005;stroke-linecap:butt;stroke-linejoin:round;stroke-miterlimit:10;stroke-dasharray:none;stroke-opacity:1" id="path4579" d="m 112,656 16,-16"/><g id="g4581"><g id="g4583"><path style="fill:red;fill-opacity:1;fill-rule:evenodd;stroke:red;stroke-width:1.20000005;stroke-linecap:butt;stroke-linejoin:round;stroke-miterlimit:10;stroke-dasharray:none;stroke-opacity:1" id="path4585" d="m 112,656 3.301,-6.598 3.297,3.297 z"/></g></g></g><g id="g4587"><path style="fill:none;stroke:red;stroke-width:1.20000005;stroke-linecap:butt;stroke-linejoin:round;stroke-miterlimit:10;stroke-dasharray:none;stroke-opacity:1" id="path4589" d="m 512,256 16,-16"/><g id="g4591"><g id="g4593"><path style="fill:red;fill-opacity:1;fill-rule:evenodd;stroke:red;stroke-width:1.20000005;stroke-linecap:butt;stroke-linejoin:round;stroke-miterlimit:10;stroke-dasharray:none;stroke-opacity:1" id="path4595" d="m 528,240 -3.301,6.598 -3.297,-3.297 z"/></g></g></g><g id="g4597"><path style="fill:none;stroke:red;stroke-width:1.20000005;stroke-linecap:butt;stroke-linejoin:round;stroke-miterlimit:10;stroke-dasharray:none;stroke-opacity:1" id="path4599" d="M 128,256 112,240"/><g id="g4601"><g id="g4603"><path style="fill:red;fill-opacity:1;fill-rule:evenodd;stroke:red;stroke-width:1.20000005;stroke-linecap:butt;stroke-linejoin:round;stroke-miterlimit:10;stroke-dasharray:none;stroke-opacity:1" id="path4605" d="m 112,240 6.598,3.301 -3.297,3.297 z"/></g></g></g><g id="g4607"><path style="fill:none;stroke:red;stroke-width:1.20000005;stroke-linecap:butt;stroke-linejoin:round;stroke-miterlimit:10;stroke-dasharray:none;stroke-opacity:1" id="path4609" d="m 512,640 16,16"/><g id="g4611"><g id="g4613"><path style="fill:red;fill-opacity:1;fill-rule:evenodd;stroke:red;stroke-width:1.20000005;stroke-linecap:butt;stroke-linejoin:round;stroke-miterlimit:10;stroke-dasharray:none;stroke-opacity:1" id="path4615" d="m 528,656 -6.598,-3.301 3.297,-3.297 z"/></g></g></g><g id="g4617" transform="translate(103.617,623.855)"><g id="g4619"><g id="g4621" clip-path="url(#clipPath4625)"><g id="g4627" transform="translate(0,-780.004)"><text style="font-variant:normal;font-weight:400;font-size:20.66250038px;font-family:CMMI12;-inkscape-font-specification:CMMI12;writing-mode:lr-tb;fill:#000;fill-opacity:1;fill-rule:nonzero;stroke:none" id="text4631" transform="matrix(1,0,0,-1,0,783.103)"><tspan id="tspan4629" x="0" y="0">v</tspan></text><text style="font-variant:normal;font-weight:400;font-size:14.34619999px;font-family:CMR12;-inkscape-font-specification:CMR12;writing-mode:lr-tb;fill:#000;fill-opacity:1;fill-rule:nonzero;stroke:none" id="text4635" transform="matrix(1,0,0,-1,9.781,780.004)"><tspan id="tspan4633" x="0" y="0">0</tspan></text></g></g></g></g><g id="g4637" transform="translate(104.333,260.202)"><g id="g4639"><g id="g4641" clip-path="url(#clipPath4645)"><g id="g4647" transform="translate(0,-780.004)"><text style="font-variant:normal;font-weight:400;font-size:20.66250038px;font-family:CMMI12;-inkscape-font-specification:CMMI12;writing-mode:lr-tb;fill:#000;fill-opacity:1;fill-rule:nonzero;stroke:none" id="text4651" transform="matrix(1,0,0,-1,0,783.103)"><tspan id="tspan4649" x="0" y="0">v</tspan></text><text style="font-variant:normal;font-weight:400;font-size:14.34619999px;font-family:CMR12;-inkscape-font-specification:CMR12;writing-mode:lr-tb;fill:#000;fill-opacity:1;fill-rule:nonzero;stroke:none" id="text4655" transform="matrix(1,0,0,-1,9.781,780.004)"><tspan id="tspan4653" x="0" y="0">1</tspan></text></g></g></g></g><g id="g4657" transform="translate(520.02,260.094)"><g id="g4659"><g id="g4661" clip-path="url(#clipPath4665)"><g id="g4667" transform="translate(0,-780.004)"><text style="font-variant:normal;font-weight:400;font-size:20.66250038px;font-family:CMMI12;-inkscape-font-specification:CMMI12;writing-mode:lr-tb;fill:#000;fill-opacity:1;fill-rule:nonzero;stroke:none" id="text4671" transform="matrix(1,0,0,-1,0,783.103)"><tspan id="tspan4669" x="0" y="0">v</tspan></text><text style="font-variant:normal;font-weight:400;font-size:14.34619999px;font-family:CMR12;-inkscape-font-specification:CMR12;writing-mode:lr-tb;fill:#000;fill-opacity:1;fill-rule:nonzero;stroke:none" id="text4675" transform="matrix(1,0,0,-1,9.781,780.004)"><tspan id="tspan4673" x="0" y="0">2</tspan></text></g></g></g></g><g id="g4677" transform="translate(520.188,624.087)"><g id="g4679"><g id="g4681" clip-path="url(#clipPath4685)"><g id="g4687" transform="translate(0,-780.004)"><text style="font-variant:normal;font-weight:400;font-size:20.66250038px;font-family:CMMI12;-inkscape-font-specification:CMMI12;writing-mode:lr-tb;fill:#000;fill-opacity:1;fill-rule:nonzero;stroke:none" id="text4691" transform="matrix(1,0,0,-1,0,783.103)"><tspan id="tspan4689" x="0" y="0">v</tspan></text><text style="font-variant:normal;font-weight:400;font-size:14.34619999px;font-family:CMR12;-inkscape-font-specification:CMR12;writing-mode:lr-tb;fill:#000;fill-opacity:1;fill-rule:nonzero;stroke:none" id="text4695" transform="matrix(1,0,0,-1,9.781,780.004)"><tspan id="tspan4693" x="0" y="0">3</tspan></text></g></g></g></g><g id="g4697" transform="translate(52.37,663.861)"><g id="g4699"><g id="g4701" clip-path="url(#clipPath4705)"><g id="g4707" transform="translate(0,-771.373)"><text style="font-variant:normal;font-weight:400;font-size:20.66250038px;font-family:CMR17;-inkscape-font-specification:CMR17;writing-mode:lr-tb;fill:#000;fill-opacity:1;fill-rule:nonzero;stroke:none" id="text4711" transform="matrix(1,0,0,-1,0,776.521)"><tspan id="tspan4709" x="0" y="0">(</tspan></text><text style="font-variant:normal;font-weight:400;font-size:20.66250038px;font-family:CMSY10;-inkscape-font-specification:CMSY10;writing-mode:lr-tb;fill:#000;fill-opacity:1;fill-rule:nonzero;stroke:none" id="text4715" transform="matrix(1,0,0,-1,7.317,776.521)"><tspan id="tspan4713" x="0 16.071" y="0">−∞</tspan></text><text style="font-variant:normal;font-weight:400;font-size:20.66250038px;font-family:CMMI12;-inkscape-font-specification:CMMI12;writing-mode:lr-tb;fill:#000;fill-opacity:1;fill-rule:nonzero;stroke:none" id="text4719" transform="matrix(1,0,0,-1,44.051,776.521)"><tspan id="tspan4717" x="0" y="0">,</tspan></text><text style="font-variant:normal;font-weight:400;font-size:20.66250038px;font-family:CMSY10;-inkscape-font-specification:CMSY10;writing-mode:lr-tb;fill:#000;fill-opacity:1;fill-rule:nonzero;stroke:none" id="text4723" transform="matrix(1,0,0,-1,53.114,776.521)"><tspan id="tspan4721" x="0" y="0">∞</tspan></text><text style="font-variant:normal;font-weight:400;font-size:20.66250038px;font-family:CMR17;-inkscape-font-specification:CMR17;writing-mode:lr-tb;fill:#000;fill-opacity:1;fill-rule:nonzero;stroke:none" id="text4727" transform="matrix(1,0,0,-1,73.777,776.521)"><tspan id="tspan4725" x="0" y="0">)</tspan></text></g></g></g></g><g id="g4729" transform="translate(68.136,211.856)"><g id="g4731"><g id="g4733" clip-path="url(#clipPath4737)"><g id="g4739" transform="translate(0,-771.373)"><text style="font-variant:normal;font-weight:400;font-size:20.66250038px;font-family:CMR17;-inkscape-font-specification:CMR17;writing-mode:lr-tb;fill:#000;fill-opacity:1;fill-rule:nonzero;stroke:none" id="text4743" transform="matrix(1,0,0,-1,0,776.521)"><tspan id="tspan4741" x="0" y="0">(</tspan></text><text style="font-variant:normal;font-weight:400;font-size:20.66250038px;font-family:CMSY10;-inkscape-font-specification:CMSY10;writing-mode:lr-tb;fill:#000;fill-opacity:1;fill-rule:nonzero;stroke:none" id="text4747" transform="matrix(1,0,0,-1,7.317,776.521)"><tspan id="tspan4745" x="0 16.071" y="0">−∞</tspan></text><text style="font-variant:normal;font-weight:400;font-size:20.66250038px;font-family:CMMI12;-inkscape-font-specification:CMMI12;writing-mode:lr-tb;fill:#000;fill-opacity:1;fill-rule:nonzero;stroke:none" id="text4751" transform="matrix(1,0,0,-1,44.051,776.521)"><tspan id="tspan4749" x="0" y="0">,</tspan></text><text style="font-variant:normal;font-weight:400;font-size:20.66250038px;font-family:CMSY10;-inkscape-font-specification:CMSY10;writing-mode:lr-tb;fill:#000;fill-opacity:1;fill-rule:nonzero;stroke:none" id="text4755" transform="matrix(1,0,0,-1,53.114,776.521)"><tspan id="tspan4753" x="0 16.071" y="0">−∞</tspan></text><text style="font-variant:normal;font-weight:400;font-size:20.66250038px;font-family:CMR17;-inkscape-font-specification:CMR17;writing-mode:lr-tb;fill:#000;fill-opacity:1;fill-rule:nonzero;stroke:none" id="text4759" transform="matrix(1,0,0,-1,89.848,776.521)"><tspan id="tspan4757" x="0" y="0">)</tspan></text></g></g></g></g><g id="g4761" transform="translate(500.266,211.955)"><g id="g4763"><g id="g4765" clip-path="url(#clipPath4769)"><g id="g4771" transform="translate(0,-771.373)"><text style="font-variant:normal;font-weight:400;font-size:20.66250038px;font-family:CMR17;-inkscape-font-specification:CMR17;writing-mode:lr-tb;fill:#000;fill-opacity:1;fill-rule:nonzero;stroke:none" id="text4775" transform="matrix(1,0,0,-1,0,776.521)"><tspan id="tspan4773" x="0" y="0">(</tspan></text><text style="font-variant:normal;font-weight:400;font-size:20.66250038px;font-family:CMSY10;-inkscape-font-specification:CMSY10;writing-mode:lr-tb;fill:#000;fill-opacity:1;fill-rule:nonzero;stroke:none" id="text4779" transform="matrix(1,0,0,-1,7.317,776.521)"><tspan id="tspan4777" x="0" y="0">∞</tspan></text><text style="font-variant:normal;font-weight:400;font-size:20.66250038px;font-family:CMMI12;-inkscape-font-specification:CMMI12;writing-mode:lr-tb;fill:#000;fill-opacity:1;fill-rule:nonzero;stroke:none" id="text4783" transform="matrix(1,0,0,-1,27.98,776.521)"><tspan id="tspan4781" x="0" y="0">,</tspan></text><text style="font-variant:normal;font-weight:400;font-size:20.66250038px;font-family:CMSY10;-inkscape-font-specification:CMSY10;writing-mode:lr-tb;fill:#000;fill-opacity:1;fill-rule:nonzero;stroke:none" id="text4787" transform="matrix(1,0,0,-1,37.043,776.521)"><tspan id="tspan4785" x="0 16.071" y="0">−∞</tspan></text><text style="font-variant:normal;font-weight:400;font-size:20.66250038px;font-family:CMR17;-inkscape-font-specification:CMR17;writing-mode:lr-tb;fill:#000;fill-opacity:1;fill-rule:nonzero;stroke:none" id="text4791" transform="matrix(1,0,0,-1,73.777,776.521)"><tspan id="tspan4789" x="0" y="0">)</tspan></text></g></g></g></g><g id="g4793" transform="translate(301.692,608.288)"><g id="g4795"><g id="g4797" clip-path="url(#clipPath4801)"><g id="g4803" transform="translate(0,-779.086)"><text style="font-variant:normal;font-weight:400;font-size:20.66250038px;font-family:CMMI12;-inkscape-font-specification:CMMI12;writing-mode:lr-tb;fill:#00f;fill-opacity:1;fill-rule:nonzero;stroke:none" id="text4807" transform="matrix(1,0,0,-1,0,783.104)"><tspan id="tspan4805" x="0" y="0">y</tspan></text></g></g></g></g><g id="g4809" transform="translate(471.231,432.769)"><g id="g4811"><g id="g4813" clip-path="url(#clipPath4817)"><g id="g4819" transform="translate(0,-783.104)"><text style="font-variant:normal;font-weight:400;font-size:20.66250038px;font-family:CMMI12;-inkscape-font-specification:CMMI12;writing-mode:lr-tb;fill:#00f;fill-opacity:1;fill-rule:nonzero;stroke:none" id="text4823" transform="matrix(1,0,0,-1,0,783.104)"><tspan id="tspan4821" x="0" y="0">x</tspan></text></g></g></g></g><g id="g4825"><path style="fill:url(#pattern4829);fill-opacity:1;fill-rule:evenodd;stroke:#00f;stroke-width:1.20000005;stroke-linecap:butt;stroke-linejoin:round;stroke-miterlimit:10;stroke-dasharray:none;stroke-opacity:1" id="path4831" d="M 192,448 H 496"/><g id="g4833"><g id="g4835"><path style="fill:#00f;fill-opacity:1;fill-rule:evenodd;stroke:#00f;stroke-width:1.20000005;stroke-linecap:butt;stroke-linejoin:round;stroke-miterlimit:10;stroke-dasharray:none;stroke-opacity:1" id="path4837" d="m 496,448 -7,2.331 v -4.662 z"/></g></g></g><g id="g4839"><path style="fill:url(#pattern4843);fill-opacity:1;fill-rule:evenodd;stroke:#00f;stroke-width:1.20000005;stroke-linecap:butt;stroke-linejoin:round;stroke-miterlimit:10;stroke-dasharray:none;stroke-opacity:1" id="path4845" d="M 320,624 V 320"/><g id="g4847"><g id="g4849"><path style="fill:#00f;fill-opacity:1;fill-rule:evenodd;stroke:#00f;stroke-width:1.20000005;stroke-linecap:butt;stroke-linejoin:round;stroke-miterlimit:10;stroke-dasharray:none;stroke-opacity:1" id="path4851" d="m 320,624 -2.331,-7 h 4.662 z"/></g></g></g><g id="g4853"><path style="fill:url(#pattern4857);fill-opacity:1;fill-rule:evenodd;stroke:#90ee90;stroke-width:1.20000005;stroke-linecap:butt;stroke-linejoin:round;stroke-miterlimit:10;stroke-dasharray:none;stroke-opacity:1" id="path4859" d="M 336,464 H 480 V 608 Z"/></g><g id="g4861" transform="translate(324.501,455.593)"><g id="g4863"><g id="g4865" clip-path="url(#clipPath4869)"><g id="g4871" transform="translate(0,-780.004)"><text style="font-variant:normal;font-weight:400;font-size:20.66250038px;font-family:CMMI12;-inkscape-font-specification:CMMI12;writing-mode:lr-tb;fill:#000;fill-opacity:1;fill-rule:nonzero;stroke:none" id="text4875" transform="matrix(1,0,0,-1,0,783.103)"><tspan id="tspan4873" x="0" y="0">v</tspan></text><text style="font-variant:normal;font-weight:400;font-size:14.34619999px;font-family:CMR12;-inkscape-font-specification:CMR12;writing-mode:lr-tb;fill:#000;fill-opacity:1;fill-rule:nonzero;stroke:none" id="text4879" transform="matrix(1,0,0,-1,9.781,780.004)"><tspan id="tspan4877" x="0" y="0">4</tspan></text></g></g></g></g><g id="g4881" transform="translate(482.194,453.285)"><g id="g4883"><g id="g4885" clip-path="url(#clipPath4889)"><g id="g4891" transform="translate(0,-780.004)"><text style="font-variant:normal;font-weight:400;font-size:20.66250038px;font-family:CMMI12;-inkscape-font-specification:CMMI12;writing-mode:lr-tb;fill:#000;fill-opacity:1;fill-rule:nonzero;stroke:none" id="text4895" transform="matrix(1,0,0,-1,0,783.103)"><tspan id="tspan4893" x="0" y="0">v</tspan></text><text style="font-variant:normal;font-weight:400;font-size:14.34619999px;font-family:CMR12;-inkscape-font-specification:CMR12;writing-mode:lr-tb;fill:#000;fill-opacity:1;fill-rule:nonzero;stroke:none" id="text4899" transform="matrix(1,0,0,-1,9.781,780.004)"><tspan id="tspan4897" x="0" y="0">5</tspan></text></g></g></g></g><g id="g4901" transform="translate(484.501,600.977)"><g id="g4903"><g id="g4905" clip-path="url(#clipPath4909)"><g id="g4911" transform="translate(0,-780.004)"><text style="font-variant:normal;font-weight:400;font-size:20.66250038px;font-family:CMMI12;-inkscape-font-specification:CMMI12;writing-mode:lr-tb;fill:#000;fill-opacity:1;fill-rule:nonzero;stroke:none" id="text4915" transform="matrix(1,0,0,-1,0,783.103)"><tspan id="tspan4913" x="0" y="0">v</tspan></text><text style="font-variant:normal;font-weight:400;font-size:14.34619999px;font-family:CMR12;-inkscape-font-specification:CMR12;writing-mode:lr-tb;fill:#000;fill-opacity:1;fill-rule:nonzero;stroke:none" id="text4919" transform="matrix(1,0,0,-1,9.781,780.004)"><tspan id="tspan4917" x="0" y="0">6</tspan></text></g></g></g></g><g id="g4921" transform="translate(197.578,651.596)"><g id="g4923"><g id="g4925" clip-path="url(#clipPath4929)"><g id="g4931" transform="translate(0,-773.633)"><text style="font-variant:normal;font-weight:400;font-size:20.66250038px;font-family:CMMI12;-inkscape-font-specification:CMMI12;writing-mode:lr-tb;fill:#000;fill-opacity:1;fill-rule:nonzero;stroke:none" id="text4935" transform="matrix(1,0,0,-1,0,777.651)"><tspan id="tspan4933" x="0" y="0">f</tspan></text><text style="font-variant:normal;font-weight:400;font-size:14.34619999px;font-family:CMR12;-inkscape-font-specification:CMR12;writing-mode:lr-tb;fill:#000;fill-opacity:1;fill-rule:nonzero;stroke:none" id="text4939" transform="matrix(1,0,0,-1,9.972,774.551)"><tspan id="tspan4937" x="0" y="0">0</tspan></text></g></g></g></g><g id="g4941" transform="translate(206.04,546.981)"><g id="g4943"><g id="g4945" clip-path="url(#clipPath4949)"><g id="g4951" transform="translate(0,-773.633)"><text style="font-variant:normal;font-weight:400;font-size:20.66250038px;font-family:CMMI12;-inkscape-font-specification:CMMI12;writing-mode:lr-tb;fill:#000;fill-opacity:1;fill-rule:nonzero;stroke:none" id="text4955" transform="matrix(1,0,0,-1,0,777.651)"><tspan id="tspan4953" x="0" y="0">f</tspan></text><text style="font-variant:normal;font-weight:400;font-size:14.34619999px;font-family:CMR12;-inkscape-font-specification:CMR12;writing-mode:lr-tb;fill:#000;fill-opacity:1;fill-rule:nonzero;stroke:none" id="text4959" transform="matrix(1,0,0,-1,9.972,774.551)"><tspan id="tspan4957" x="0" y="0">1</tspan></text></g></g></g></g><g id="g4961" transform="translate(419.117,497.75)"><g id="g4963"><g id="g4965" clip-path="url(#clipPath4969)"><g id="g4971" transform="translate(0,-773.633)"><text style="font-variant:normal;font-weight:400;font-size:20.66250038px;font-family:CMMI12;-inkscape-font-specification:CMMI12;writing-mode:lr-tb;fill:#000;fill-opacity:1;fill-rule:nonzero;stroke:none" id="text4975" transform="matrix(1,0,0,-1,0,777.651)"><tspan id="tspan4973" x="0" y="0">f</tspan></text><text style="font-variant:normal;font-weight:400;font-size:14.34619999px;font-family:CMR12;-inkscape-font-specification:CMR12;writing-mode:lr-tb;fill:#000;fill-opacity:1;fill-rule:nonzero;stroke:none" id="text4979" transform="matrix(1,0,0,-1,9.972,774.551)"><tspan id="tspan4977" x="0" y="0">2</tspan></text></g></g></g></g></g></svg>