<svg xmlns="http://www.w3.org/2000/svg" xmlns:svg="http://www.w3.org/2000/svg" id="svg3699" width="707.987" height="632.948" version="1.1" viewBox="0 0 707.987 632.948" xml:space="preserve"><metadata id="metadata3705"/><defs id="defs3703"><pattern id="pattern3713" width="100" height="4" x="0" y="0" patternTransform="rotate(30.000012)" patternUnits="userSpaceOnUse"><path style="fill:#90ee90;fill-opacity:1;fill-rule:nonzero;stroke:none" id="path3711" d="M 0,0 100,0 100,1 0,1 0,0 Z"/></pattern><clipPath id="clipPath3725" clipPathUnits="userSpaceOnUse"><path id="path3723" d="M -1,-1 H 66.023 V 21.627 H -1 Z"/></clipPath><clipPath id="clipPath3801" clipPathUnits="userSpaceOnUse"><path id="path3799" d="M -1,-1 H 18.303 V 12.996 H -1 Z"/></clipPath><clipPath id="clipPath3821" clipPathUnits="userSpaceOnUse"><path id="path3819" d="M -1,-1 H 18.303 V 12.996 H -1 Z"/></clipPath><clipPath id="clipPath3841" clipPathUnits="userSpaceOnUse"><path id="path3839" d="M -1,-1 H 18.303 V 12.996 H -1 Z"/></clipPath><clipPath id="clipPath3861" clipPathUnits="userSpaceOnUse"><path id="path3859" d="M -1,-1 H 18.303 V 12.996 H -1 Z"/></clipPath><clipPath id="clipPath3881" clipPathUnits="userSpaceOnUse"><path id="path3879" d="M -1,-1 H 18.303 V 12.996 H -1 Z"/></clipPath><clipPath id="clipPath3901" clipPathUnits="userSpaceOnUse"><path id="path3899" d="M -1,-1 H 18.303 V 12.996 H -1 Z"/></clipPath><pattern id="pattern3917" width="100" height="4" x="0" y="0" patternTransform="rotate(-59.999988)" patternUnits="userSpaceOnUse"><path style="fill:#90ee90;fill-opacity:1;fill-rule:nonzero;stroke:none" id="path3915" d="M 0,0 100,0 100,1 0,1 0,0 Z"/></pattern><pattern id="pattern3925" width="100" height="4" x="0" y="0" patternTransform="rotate(-59.999988)" patternUnits="userSpaceOnUse"><path style="fill:#90ee90;fill-opacity:1;fill-rule:nonzero;stroke:none" id="path3923" d="M 0,0 100,0 100,1 0,1 0,0 Z"/></pattern><pattern id="pattern3939" width="100" height="4" x="0" y="0" patternTransform="rotate(-59.999988)" patternUnits="userSpaceOnUse"><path style="fill:#90ee90;fill-opacity:1;fill-rule:nonzero;stroke:none" id="path3937" d="M 0,0 100,0 100,1 0,1 0,0 Z"/></pattern><clipPath id="clipPath3957" clipPathUnits="userSpaceOnUse"><path id="path3955" d="M -1,-1 H 82.094 V 21.627 H -1 Z"/></clipPath><clipPath id="clipPath3989" clipPathUnits="userSpaceOnUse"><path id="path3987" d="M -1,-1 H 98.165 V 21.627 H -1 Z"/></clipPath><clipPath id="clipPath4021" clipPathUnits="userSpaceOnUse"><path id="path4019" d="M -1,-1 H 82.094 V 21.627 H -1 Z"/></clipPath><clipPath id="clipPath4053" clipPathUnits="userSpaceOnUse"><path id="path4051" d="M -1,-1 H 11.606 V 13.914 H -1 Z"/></clipPath><clipPath id="clipPath4069" clipPathUnits="userSpaceOnUse"><path id="path4067" d="M -1,-1 H 12.497 V 9.896 H -1 Z"/></clipPath><pattern id="pattern4081" width="100" height="4" x="0" y="0" patternTransform="rotate(-59.999988)" patternUnits="userSpaceOnUse"><path style="fill:#90ee90;fill-opacity:1;fill-rule:nonzero;stroke:none" id="path4079" d="M 0,0 100,0 100,1 0,1 0,0 Z"/></pattern><pattern id="pattern4095" width="100" height="4" x="0" y="0" patternTransform="rotate(-59.999988)" patternUnits="userSpaceOnUse"><path style="fill:#90ee90;fill-opacity:1;fill-rule:nonzero;stroke:none" id="path4093" d="M 0,0 100,0 100,1 0,1 0,0 Z"/></pattern><clipPath id="clipPath4113" clipPathUnits="userSpaceOnUse"><path id="path4111" d="M -1,-1 H 18.494 V 19.367 H -1 Z"/></clipPath><clipPath id="clipPath4133" clipPathUnits="userSpaceOnUse"><path id="path4131" d="M -1,-1 H 18.494 V 19.367 H -1 Z"/></clipPath><clipPath id="clipPath4153" clipPathUnits="userSpaceOnUse"><path id="path4151" d="M -1,-1 H 18.494 V 19.367 H -1 Z"/></clipPath></defs><g id="g3707" transform="matrix(1.3333333,0,0,-1.3333333,-68.493333,914.08933)"><g id="g3709"><path style="fill:url(#pattern3713);fill-opacity:1;fill-rule:evenodd;stroke:none" id="path3715" d="M 128,640 V 512 h 384 v 128 z"/></g><g id="g3717" transform="translate(500.084,663.94)"><g id="g3719"><g id="g3721" clip-path="url(#clipPath3725)"><g id="g3727" transform="translate(0,-771.373)"><text style="font-variant:normal;font-weight:400;font-size:20.66250038px;font-family:CMR17;-inkscape-font-specification:CMR17;writing-mode:lr-tb;fill:#000;fill-opacity:1;fill-rule:nonzero;stroke:none" id="text3731" transform="matrix(1,0,0,-1,0,776.521)"><tspan id="tspan3729" x="0" y="0">(</tspan></text><text style="font-variant:normal;font-weight:400;font-size:20.66250038px;font-family:CMSY10;-inkscape-font-specification:CMSY10;writing-mode:lr-tb;fill:#000;fill-opacity:1;fill-rule:nonzero;stroke:none" id="text3735" transform="matrix(1,0,0,-1,7.317,776.521)"><tspan id="tspan3733" x="0" y="0">∞</tspan></text><text style="font-variant:normal;font-weight:400;font-size:20.66250038px;font-family:CMMI12;-inkscape-font-specification:CMMI12;writing-mode:lr-tb;fill:#000;fill-opacity:1;fill-rule:nonzero;stroke:none" id="text3739" transform="matrix(1,0,0,-1,27.98,776.521)"><tspan id="tspan3737" x="0" y="0">,</tspan></text><text style="font-variant:normal;font-weight:400;font-size:20.66250038px;font-family:CMSY10;-inkscape-font-specification:CMSY10;writing-mode:lr-tb;fill:#000;fill-opacity:1;fill-rule:nonzero;stroke:none" id="text3743" transform="matrix(1,0,0,-1,37.043,776.521)"><tspan id="tspan3741" x="0" y="0">∞</tspan></text><text style="font-variant:normal;font-weight:400;font-size:20.66250038px;font-family:CMR17;-inkscape-font-specification:CMR17;writing-mode:lr-tb;fill:#000;fill-opacity:1;fill-rule:nonzero;stroke:none" id="text3747" transform="matrix(1,0,0,-1,57.706,776.521)"><tspan id="tspan3745" x="0" y="0">)</tspan></text></g></g></g></g><g id="g3749"><path style="fill:none;stroke:red;stroke-width:1.20000005;stroke-linecap:butt;stroke-linejoin:round;stroke-miterlimit:10;stroke-dasharray:4;stroke-dashoffset:0;stroke-opacity:1" id="path3751" d="M 128,640 V 256 h 384 v 384 z"/></g><g id="g3753"><path style="fill:none;stroke:red;stroke-width:1.20000005;stroke-linecap:butt;stroke-linejoin:round;stroke-miterlimit:10;stroke-dasharray:none;stroke-opacity:1" id="path3755" d="m 112,656 16,-16"/><g id="g3757"><g id="g3759"><path style="fill:red;fill-opacity:1;fill-rule:evenodd;stroke:red;stroke-width:1.20000005;stroke-linecap:butt;stroke-linejoin:round;stroke-miterlimit:10;stroke-dasharray:none;stroke-opacity:1" id="path3761" d="m 112,656 3.301,-6.598 3.297,3.297 z"/></g></g></g><g id="g3763"><path style="fill:none;stroke:red;stroke-width:1.20000005;stroke-linecap:butt;stroke-linejoin:round;stroke-miterlimit:10;stroke-dasharray:none;stroke-opacity:1" id="path3765" d="m 512,256 16,-16"/><g id="g3767"><g id="g3769"><path style="fill:red;fill-opacity:1;fill-rule:evenodd;stroke:red;stroke-width:1.20000005;stroke-linecap:butt;stroke-linejoin:round;stroke-miterlimit:10;stroke-dasharray:none;stroke-opacity:1" id="path3771" d="m 528,240 -3.301,6.598 -3.297,-3.297 z"/></g></g></g><g id="g3773"><path style="fill:none;stroke:red;stroke-width:1.20000005;stroke-linecap:butt;stroke-linejoin:round;stroke-miterlimit:10;stroke-dasharray:none;stroke-opacity:1" id="path3775" d="M 128,256 112,240"/><g id="g3777"><g id="g3779"><path style="fill:red;fill-opacity:1;fill-rule:evenodd;stroke:red;stroke-width:1.20000005;stroke-linecap:butt;stroke-linejoin:round;stroke-miterlimit:10;stroke-dasharray:none;stroke-opacity:1" id="path3781" d="m 112,240 6.598,3.301 -3.297,3.297 z"/></g></g></g><g id="g3783"><path style="fill:none;stroke:red;stroke-width:1.20000005;stroke-linecap:butt;stroke-linejoin:round;stroke-miterlimit:10;stroke-dasharray:none;stroke-opacity:1" id="path3785" d="m 512,640 16,16"/><g id="g3787"><g id="g3789"><path style="fill:red;fill-opacity:1;fill-rule:evenodd;stroke:red;stroke-width:1.20000005;stroke-linecap:butt;stroke-linejoin:round;stroke-miterlimit:10;stroke-dasharray:none;stroke-opacity:1" id="path3791" d="m 528,656 -6.598,-3.301 3.297,-3.297 z"/></g></g></g><g id="g3793" transform="translate(103.617,623.855)"><g id="g3795"><g id="g3797" clip-path="url(#clipPath3801)"><g id="g3803" transform="translate(0,-780.004)"><text style="font-variant:normal;font-weight:400;font-size:20.66250038px;font-family:CMMI12;-inkscape-font-specification:CMMI12;writing-mode:lr-tb;fill:#000;fill-opacity:1;fill-rule:nonzero;stroke:none" id="text3807" transform="matrix(1,0,0,-1,0,783.103)"><tspan id="tspan3805" x="0" y="0">v</tspan></text><text style="font-variant:normal;font-weight:400;font-size:14.34619999px;font-family:CMR12;-inkscape-font-specification:CMR12;writing-mode:lr-tb;fill:#000;fill-opacity:1;fill-rule:nonzero;stroke:none" id="text3811" transform="matrix(1,0,0,-1,9.781,780.004)"><tspan id="tspan3809" x="0" y="0">0</tspan></text></g></g></g></g><g id="g3813" transform="translate(104.333,260.202)"><g id="g3815"><g id="g3817" clip-path="url(#clipPath3821)"><g id="g3823" transform="translate(0,-780.004)"><text style="font-variant:normal;font-weight:400;font-size:20.66250038px;font-family:CMMI12;-inkscape-font-specification:CMMI12;writing-mode:lr-tb;fill:#000;fill-opacity:1;fill-rule:nonzero;stroke:none" id="text3827" transform="matrix(1,0,0,-1,0,783.103)"><tspan id="tspan3825" x="0" y="0">v</tspan></text><text style="font-variant:normal;font-weight:400;font-size:14.34619999px;font-family:CMR12;-inkscape-font-specification:CMR12;writing-mode:lr-tb;fill:#000;fill-opacity:1;fill-rule:nonzero;stroke:none" id="text3831" transform="matrix(1,0,0,-1,9.781,780.004)"><tspan id="tspan3829" x="0" y="0">1</tspan></text></g></g></g></g><g id="g3833" transform="translate(520.02,260.094)"><g id="g3835"><g id="g3837" clip-path="url(#clipPath3841)"><g id="g3843" transform="translate(0,-780.004)"><text style="font-variant:normal;font-weight:400;font-size:20.66250038px;font-family:CMMI12;-inkscape-font-specification:CMMI12;writing-mode:lr-tb;fill:#000;fill-opacity:1;fill-rule:nonzero;stroke:none" id="text3847" transform="matrix(1,0,0,-1,0,783.103)"><tspan id="tspan3845" x="0" y="0">v</tspan></text><text style="font-variant:normal;font-weight:400;font-size:14.34619999px;font-family:CMR12;-inkscape-font-specification:CMR12;writing-mode:lr-tb;fill:#000;fill-opacity:1;fill-rule:nonzero;stroke:none" id="text3851" transform="matrix(1,0,0,-1,9.781,780.004)"><tspan id="tspan3849" x="0" y="0">2</tspan></text></g></g></g></g><g id="g3853" transform="translate(520.188,624.087)"><g id="g3855"><g id="g3857" clip-path="url(#clipPath3861)"><g id="g3863" transform="translate(0,-780.004)"><text style="font-variant:normal;font-weight:400;font-size:20.66250038px;font-family:CMMI12;-inkscape-font-specification:CMMI12;writing-mode:lr-tb;fill:#000;fill-opacity:1;fill-rule:nonzero;stroke:none" id="text3867" transform="matrix(1,0,0,-1,0,783.103)"><tspan id="tspan3865" x="0" y="0">v</tspan></text><text style="font-variant:normal;font-weight:400;font-size:14.34619999px;font-family:CMR12;-inkscape-font-specification:CMR12;writing-mode:lr-tb;fill:#000;fill-opacity:1;fill-rule:nonzero;stroke:none" id="text3871" transform="matrix(1,0,0,-1,9.781,780.004)"><tspan id="tspan3869" x="0" y="0">3</tspan></text></g></g></g></g><g id="g3873" transform="translate(104.159,519.887)"><g id="g3875"><g id="g3877" clip-path="url(#clipPath3881)"><g id="g3883" transform="translate(0,-780.004)"><text style="font-variant:normal;font-weight:400;font-size:20.66250038px;font-family:CMMI12;-inkscape-font-specification:CMMI12;writing-mode:lr-tb;fill:#000;fill-opacity:1;fill-rule:nonzero;stroke:none" id="text3887" transform="matrix(1,0,0,-1,0,783.103)"><tspan id="tspan3885" x="0" y="0">v</tspan></text><text style="font-variant:normal;font-weight:400;font-size:14.34619999px;font-family:CMR12;-inkscape-font-specification:CMR12;writing-mode:lr-tb;fill:#000;fill-opacity:1;fill-rule:nonzero;stroke:none" id="text3891" transform="matrix(1,0,0,-1,9.781,780.004)"><tspan id="tspan3889" x="0" y="0">4</tspan></text></g></g></g></g><g id="g3893" transform="translate(520.158,519.997)"><g id="g3895"><g id="g3897" clip-path="url(#clipPath3901)"><g id="g3903" transform="translate(0,-780.004)"><text style="font-variant:normal;font-weight:400;font-size:20.66250038px;font-family:CMMI12;-inkscape-font-specification:CMMI12;writing-mode:lr-tb;fill:#000;fill-opacity:1;fill-rule:nonzero;stroke:none" id="text3907" transform="matrix(1,0,0,-1,0,783.103)"><tspan id="tspan3905" x="0" y="0">v</tspan></text><text style="font-variant:normal;font-weight:400;font-size:14.34619999px;font-family:CMR12;-inkscape-font-specification:CMR12;writing-mode:lr-tb;fill:#000;fill-opacity:1;fill-rule:nonzero;stroke:none" id="text3911" transform="matrix(1,0,0,-1,9.781,780.004)"><tspan id="tspan3909" x="0" y="0">5</tspan></text></g></g></g></g><g id="g3913"><path style="fill:url(#pattern3917);fill-opacity:1;fill-rule:evenodd;stroke:#90ee90;stroke-width:1.20000005;stroke-linecap:butt;stroke-linejoin:round;stroke-miterlimit:10;stroke-dasharray:none;stroke-opacity:1" id="path3919" d="M 512,512 H 128"/></g><g id="g3921"><path style="fill:url(#pattern3925);fill-opacity:1;fill-rule:evenodd;stroke:red;stroke-width:1.20000005;stroke-linecap:butt;stroke-linejoin:round;stroke-miterlimit:10;stroke-dasharray:none;stroke-opacity:1" id="path3927" d="M 128,512 H 96"/><g id="g3929"><g id="g3931"><path style="fill:red;fill-opacity:1;fill-rule:evenodd;stroke:red;stroke-width:1.20000005;stroke-linecap:butt;stroke-linejoin:round;stroke-miterlimit:10;stroke-dasharray:none;stroke-opacity:1" id="path3933" d="m 96,512 7,-2.331 v 4.662 z"/></g></g></g><g id="g3935"><path style="fill:url(#pattern3939);fill-opacity:1;fill-rule:evenodd;stroke:red;stroke-width:1.20000005;stroke-linecap:butt;stroke-linejoin:round;stroke-miterlimit:10;stroke-dasharray:none;stroke-opacity:1" id="path3941" d="m 512,512 h 32"/><g id="g3943"><g id="g3945"><path style="fill:red;fill-opacity:1;fill-rule:evenodd;stroke:red;stroke-width:1.20000005;stroke-linecap:butt;stroke-linejoin:round;stroke-miterlimit:10;stroke-dasharray:none;stroke-opacity:1" id="path3947" d="m 544,512 -7,2.331 v -4.662 z"/></g></g></g><g id="g3949" transform="translate(52.37,663.861)"><g id="g3951"><g id="g3953" clip-path="url(#clipPath3957)"><g id="g3959" transform="translate(0,-771.373)"><text style="font-variant:normal;font-weight:400;font-size:20.66250038px;font-family:CMR17;-inkscape-font-specification:CMR17;writing-mode:lr-tb;fill:#000;fill-opacity:1;fill-rule:nonzero;stroke:none" id="text3963" transform="matrix(1,0,0,-1,0,776.521)"><tspan id="tspan3961" x="0" y="0">(</tspan></text><text style="font-variant:normal;font-weight:400;font-size:20.66250038px;font-family:CMSY10;-inkscape-font-specification:CMSY10;writing-mode:lr-tb;fill:#000;fill-opacity:1;fill-rule:nonzero;stroke:none" id="text3967" transform="matrix(1,0,0,-1,7.317,776.521)"><tspan id="tspan3965" x="0 16.071" y="0">−∞</tspan></text><text style="font-variant:normal;font-weight:400;font-size:20.66250038px;font-family:CMMI12;-inkscape-font-specification:CMMI12;writing-mode:lr-tb;fill:#000;fill-opacity:1;fill-rule:nonzero;stroke:none" id="text3971" transform="matrix(1,0,0,-1,44.051,776.521)"><tspan id="tspan3969" x="0" y="0">,</tspan></text><text style="font-variant:normal;font-weight:400;font-size:20.66250038px;font-family:CMSY10;-inkscape-font-specification:CMSY10;writing-mode:lr-tb;fill:#000;fill-opacity:1;fill-rule:nonzero;stroke:none" id="text3975" transform="matrix(1,0,0,-1,53.114,776.521)"><tspan id="tspan3973" x="0" y="0">∞</tspan></text><text style="font-variant:normal;font-weight:400;font-size:20.66250038px;font-family:CMR17;-inkscape-font-specification:CMR17;writing-mode:lr-tb;fill:#000;fill-opacity:1;fill-rule:nonzero;stroke:none" id="text3979" transform="matrix(1,0,0,-1,73.777,776.521)"><tspan id="tspan3977" x="0" y="0">)</tspan></text></g></g></g></g><g id="g3981" transform="translate(68.136,211.856)"><g id="g3983"><g id="g3985" clip-path="url(#clipPath3989)"><g id="g3991" transform="translate(0,-771.373)"><text style="font-variant:normal;font-weight:400;font-size:20.66250038px;font-family:CMR17;-inkscape-font-specification:CMR17;writing-mode:lr-tb;fill:#000;fill-opacity:1;fill-rule:nonzero;stroke:none" id="text3995" transform="matrix(1,0,0,-1,0,776.521)"><tspan id="tspan3993" x="0" y="0">(</tspan></text><text style="font-variant:normal;font-weight:400;font-size:20.66250038px;font-family:CMSY10;-inkscape-font-specification:CMSY10;writing-mode:lr-tb;fill:#000;fill-opacity:1;fill-rule:nonzero;stroke:none" id="text3999" transform="matrix(1,0,0,-1,7.317,776.521)"><tspan id="tspan3997" x="0 16.071" y="0">−∞</tspan></text><text style="font-variant:normal;font-weight:400;font-size:20.66250038px;font-family:CMMI12;-inkscape-font-specification:CMMI12;writing-mode:lr-tb;fill:#000;fill-opacity:1;fill-rule:nonzero;stroke:none" id="text4003" transform="matrix(1,0,0,-1,44.051,776.521)"><tspan id="tspan4001" x="0" y="0">,</tspan></text><text style="font-variant:normal;font-weight:400;font-size:20.66250038px;font-family:CMSY10;-inkscape-font-specification:CMSY10;writing-mode:lr-tb;fill:#000;fill-opacity:1;fill-rule:nonzero;stroke:none" id="text4007" transform="matrix(1,0,0,-1,53.114,776.521)"><tspan id="tspan4005" x="0 16.071" y="0">−∞</tspan></text><text style="font-variant:normal;font-weight:400;font-size:20.66250038px;font-family:CMR17;-inkscape-font-specification:CMR17;writing-mode:lr-tb;fill:#000;fill-opacity:1;fill-rule:nonzero;stroke:none" id="text4011" transform="matrix(1,0,0,-1,89.848,776.521)"><tspan id="tspan4009" x="0" y="0">)</tspan></text></g></g></g></g><g id="g4013" transform="translate(500.266,211.955)"><g id="g4015"><g id="g4017" clip-path="url(#clipPath4021)"><g id="g4023" transform="translate(0,-771.373)"><text style="font-variant:normal;font-weight:400;font-size:20.66250038px;font-family:CMR17;-inkscape-font-specification:CMR17;writing-mode:lr-tb;fill:#000;fill-opacity:1;fill-rule:nonzero;stroke:none" id="text4027" transform="matrix(1,0,0,-1,0,776.521)"><tspan id="tspan4025" x="0" y="0">(</tspan></text><text style="font-variant:normal;font-weight:400;font-size:20.66250038px;font-family:CMSY10;-inkscape-font-specification:CMSY10;writing-mode:lr-tb;fill:#000;fill-opacity:1;fill-rule:nonzero;stroke:none" id="text4031" transform="matrix(1,0,0,-1,7.317,776.521)"><tspan id="tspan4029" x="0" y="0">∞</tspan></text><text style="font-variant:normal;font-weight:400;font-size:20.66250038px;font-family:CMMI12;-inkscape-font-specification:CMMI12;writing-mode:lr-tb;fill:#000;fill-opacity:1;fill-rule:nonzero;stroke:none" id="text4035" transform="matrix(1,0,0,-1,27.98,776.521)"><tspan id="tspan4033" x="0" y="0">,</tspan></text><text style="font-variant:normal;font-weight:400;font-size:20.66250038px;font-family:CMSY10;-inkscape-font-specification:CMSY10;writing-mode:lr-tb;fill:#000;fill-opacity:1;fill-rule:nonzero;stroke:none" id="text4039" transform="matrix(1,0,0,-1,37.043,776.521)"><tspan id="tspan4037" x="0 16.071" y="0">−∞</tspan></text><text style="font-variant:normal;font-weight:400;font-size:20.66250038px;font-family:CMR17;-inkscape-font-specification:CMR17;writing-mode:lr-tb;fill:#000;fill-opacity:1;fill-rule:nonzero;stroke:none" id="text4043" transform="matrix(1,0,0,-1,73.777,776.521)"><tspan id="tspan4041" x="0" y="0">)</tspan></text></g></g></g></g><g id="g4045" transform="translate(304,555.98)"><g id="g4047"><g id="g4049" clip-path="url(#clipPath4053)"><g id="g4055" transform="translate(0,-779.086)"><text style="font-variant:normal;font-weight:400;font-size:20.66250038px;font-family:CMMI12;-inkscape-font-specification:CMMI12;writing-mode:lr-tb;fill:#00f;fill-opacity:1;fill-rule:nonzero;stroke:none" id="text4059" transform="matrix(1,0,0,-1,0,783.104)"><tspan id="tspan4057" x="0" y="0">y</tspan></text></g></g></g></g><g id="g4061" transform="translate(432,432)"><g id="g4063"><g id="g4065" clip-path="url(#clipPath4069)"><g id="g4071" transform="translate(0,-783.104)"><text style="font-variant:normal;font-weight:400;font-size:20.66250038px;font-family:CMMI12;-inkscape-font-specification:CMMI12;writing-mode:lr-tb;fill:#00f;fill-opacity:1;fill-rule:nonzero;stroke:none" id="text4075" transform="matrix(1,0,0,-1,0,783.104)"><tspan id="tspan4073" x="0" y="0">x</tspan></text></g></g></g></g><g id="g4077"><path style="fill:url(#pattern4081);fill-opacity:1;fill-rule:evenodd;stroke:#00f;stroke-width:1.20000005;stroke-linecap:butt;stroke-linejoin:round;stroke-miterlimit:10;stroke-dasharray:none;stroke-opacity:1" id="path4083" d="M 192,448 H 448"/><g id="g4085"><g id="g4087"><path style="fill:#00f;fill-opacity:1;fill-rule:evenodd;stroke:#00f;stroke-width:1.20000005;stroke-linecap:butt;stroke-linejoin:round;stroke-miterlimit:10;stroke-dasharray:none;stroke-opacity:1" id="path4089" d="m 448,448 -7,2.331 v -4.662 z"/></g></g></g><g id="g4091"><path style="fill:url(#pattern4095);fill-opacity:1;fill-rule:evenodd;stroke:#00f;stroke-width:1.20000005;stroke-linecap:butt;stroke-linejoin:round;stroke-miterlimit:10;stroke-dasharray:none;stroke-opacity:1" id="path4097" d="M 320,576 V 320"/><g id="g4099"><g id="g4101"><path style="fill:#00f;fill-opacity:1;fill-rule:evenodd;stroke:#00f;stroke-width:1.20000005;stroke-linecap:butt;stroke-linejoin:round;stroke-miterlimit:10;stroke-dasharray:none;stroke-opacity:1" id="path4103" d="m 320,576 -2.331,-7 h 4.662 z"/></g></g></g><g id="g4105" transform="translate(206.655,656.634)"><g id="g4107"><g id="g4109" clip-path="url(#clipPath4113)"><g id="g4115" transform="translate(0,-773.633)"><text style="font-variant:normal;font-weight:400;font-size:20.66250038px;font-family:CMMI12;-inkscape-font-specification:CMMI12;writing-mode:lr-tb;fill:#000;fill-opacity:1;fill-rule:nonzero;stroke:none" id="text4119" transform="matrix(1,0,0,-1,0,777.651)"><tspan id="tspan4117" x="0" y="0">f</tspan></text><text style="font-variant:normal;font-weight:400;font-size:14.34619999px;font-family:CMR12;-inkscape-font-specification:CMR12;writing-mode:lr-tb;fill:#000;fill-opacity:1;fill-rule:nonzero;stroke:none" id="text4123" transform="matrix(1,0,0,-1,9.972,774.551)"><tspan id="tspan4121" x="0" y="0">0</tspan></text></g></g></g></g><g id="g4125" transform="translate(208.655,558.634)"><g id="g4127"><g id="g4129" clip-path="url(#clipPath4133)"><g id="g4135" transform="translate(0,-773.633)"><text style="font-variant:normal;font-weight:400;font-size:20.66250038px;font-family:CMMI12;-inkscape-font-specification:CMMI12;writing-mode:lr-tb;fill:#000;fill-opacity:1;fill-rule:nonzero;stroke:none" id="text4139" transform="matrix(1,0,0,-1,0,777.651)"><tspan id="tspan4137" x="0" y="0">f</tspan></text><text style="font-variant:normal;font-weight:400;font-size:14.34619999px;font-family:CMR12;-inkscape-font-specification:CMR12;writing-mode:lr-tb;fill:#000;fill-opacity:1;fill-rule:nonzero;stroke:none" id="text4143" transform="matrix(1,0,0,-1,9.972,774.551)"><tspan id="tspan4141" x="0" y="0">1</tspan></text></g></g></g></g><g id="g4145" transform="translate(209.655,382.634)"><g id="g4147"><g id="g4149" clip-path="url(#clipPath4153)"><g id="g4155" transform="translate(0,-773.633)"><text style="font-variant:normal;font-weight:400;font-size:20.66250038px;font-family:CMMI12;-inkscape-font-specification:CMMI12;writing-mode:lr-tb;fill:#000;fill-opacity:1;fill-rule:nonzero;stroke:none" id="text4159" transform="matrix(1,0,0,-1,0,777.651)"><tspan id="tspan4157" x="0" y="0">f</tspan></text><text style="font-variant:normal;font-weight:400;font-size:14.34619999px;font-family:CMR12;-inkscape-font-specification:CMR12;writing-mode:lr-tb;fill:#000;fill-opacity:1;fill-rule:nonzero;stroke:none" id="text4163" transform="matrix(1,0,0,-1,9.972,774.551)"><tspan id="tspan4161" x="0" y="0">2</tspan></text></g></g></g></g></g></svg>