<svg xmlns="http://www.w3.org/2000/svg" xmlns:svg="http://www.w3.org/2000/svg" id="svg4165" width="707.987" height="632.948" version="1.1" viewBox="0 0 707.987 632.948" xml:space="preserve"><metadata id="metadata4171"/><defs id="defs4169"><clipPath id="clipPath4183" clipPathUnits="userSpaceOnUse"><path id="path4181" d="M -1,-1 H 66.023 V 21.627 H -1 Z"/></clipPath><pattern id="pattern4211" width="100" height="4" x="0" y="0" patternTransform="rotate(30.000012)" patternUnits="userSpaceOnUse"><path style="fill:#90ee90;fill-opacity:1;fill-rule:nonzero;stroke:none" id="path4209" d="M 0,0 100,0 100,1 0,1 0,0 Z"/></pattern><clipPath id="clipPath4263" clipPathUnits="userSpaceOnUse"><path id="path4261" d="M -1,-1 H 18.303 V 12.996 H -1 Z"/></clipPath><clipPath id="clipPath4283" clipPathUnits="userSpaceOnUse"><path id="path4281" d="M -1,-1 H 18.303 V 12.996 H -1 Z"/></clipPath><clipPath id="clipPath4303" clipPathUnits="userSpaceOnUse"><path id="path4301" d="M -1,-1 H 18.303 V 12.996 H -1 Z"/></clipPath><clipPath id="clipPath4323" clipPathUnits="userSpaceOnUse"><path id="path4321" d="M -1,-1 H 18.303 V 12.996 H -1 Z"/></clipPath><clipPath id="clipPath4343" clipPathUnits="userSpaceOnUse"><path id="path4341" d="M -1,-1 H 82.094 V 21.627 H -1 Z"/></clipPath><clipPath id="clipPath4375" clipPathUnits="userSpaceOnUse"><path id="path4373" d="M -1,-1 H 98.165 V 21.627 H -1 Z"/></clipPath><clipPath id="clipPath4407" clipPathUnits="userSpaceOnUse"><path id="path4405" d="M -1,-1 H 82.094 V 21.627 H -1 Z"/></clipPath><clipPath id="clipPath4439" clipPathUnits="userSpaceOnUse"><path id="path4437" d="M -1,-1 H 11.606 V 13.914 H -1 Z"/></clipPath><clipPath id="clipPath4455" clipPathUnits="userSpaceOnUse"><path id="path4453" d="M -1,-1 H 12.497 V 9.896 H -1 Z"/></clipPath><pattern id="pattern4467" width="100" height="4" x="0" y="0" patternTransform="rotate(-59.999988)" patternUnits="userSpaceOnUse"><path style="fill:#90ee90;fill-opacity:1;fill-rule:nonzero;stroke:none" id="path4465" d="M 0,0 100,0 100,1 0,1 0,0 Z"/></pattern><pattern id="pattern4481" width="100" height="4" x="0" y="0" patternTransform="rotate(-59.999988)" patternUnits="userSpaceOnUse"><path style="fill:#90ee90;fill-opacity:1;fill-rule:nonzero;stroke:none" id="path4479" d="M 0,0 100,0 100,1 0,1 0,0 Z"/></pattern><clipPath id="clipPath4499" clipPathUnits="userSpaceOnUse"><path id="path4497" d="M -1,-1 H 18.494 V 19.367 H -1 Z"/></clipPath><clipPath id="clipPath4519" clipPathUnits="userSpaceOnUse"><path id="path4517" d="M -1,-1 H 18.494 V 19.367 H -1 Z"/></clipPath></defs><g id="g4173" transform="matrix(1.3333333,0,0,-1.3333333,-68.493333,914.08933)"><g id="g4175" transform="translate(500.084,663.94)"><g id="g4177"><g id="g4179" clip-path="url(#clipPath4183)"><g id="g4185" transform="translate(0,-771.373)"><text style="font-variant:normal;font-weight:400;font-size:20.66250038px;font-family:CMR17;-inkscape-font-specification:CMR17;writing-mode:lr-tb;fill:#000;fill-opacity:1;fill-rule:nonzero;stroke:none" id="text4189" transform="matrix(1,0,0,-1,0,776.521)"><tspan id="tspan4187" x="0" y="0">(</tspan></text><text style="font-variant:normal;font-weight:400;font-size:20.66250038px;font-family:CMSY10;-inkscape-font-specification:CMSY10;writing-mode:lr-tb;fill:#000;fill-opacity:1;fill-rule:nonzero;stroke:none" id="text4193" transform="matrix(1,0,0,-1,7.317,776.521)"><tspan id="tspan4191" x="0" y="0">∞</tspan></text><text style="font-variant:normal;font-weight:400;font-size:20.66250038px;font-family:CMMI12;-inkscape-font-specification:CMMI12;writing-mode:lr-tb;fill:#000;fill-opacity:1;fill-rule:nonzero;stroke:none" id="text4197" transform="matrix(1,0,0,-1,27.98,776.521)"><tspan id="tspan4195" x="0" y="0">,</tspan></text><text style="font-variant:normal;font-weight:400;font-size:20.66250038px;font-family:CMSY10;-inkscape-font-specification:CMSY10;writing-mode:lr-tb;fill:#000;fill-opacity:1;fill-rule:nonzero;stroke:none" id="text4201" transform="matrix(1,0,0,-1,37.043,776.521)"><tspan id="tspan4199" x="0" y="0">∞</tspan></text><text style="font-variant:normal;font-weight:400;font-size:20.66250038px;font-family:CMR17;-inkscape-font-specification:CMR17;writing-mode:lr-tb;fill:#000;fill-opacity:1;fill-rule:nonzero;stroke:none" id="text4205" transform="matrix(1,0,0,-1,57.706,776.521)"><tspan id="tspan4203" x="0" y="0">)</tspan></text></g></g></g></g><g id="g4207"><path style="fill:url(#pattern4211);fill-opacity:1;fill-rule:evenodd;stroke:red;stroke-width:1.20000005;stroke-linecap:butt;stroke-linejoin:round;stroke-miterlimit:10;stroke-dasharray:4;stroke-dashoffset:0;stroke-opacity:1" id="path4213" d="M 128,640 V 256 h 384 v 384 z"/></g><g id="g4215"><path style="fill:none;stroke:red;stroke-width:1.20000005;stroke-linecap:butt;stroke-linejoin:round;stroke-miterlimit:10;stroke-dasharray:none;stroke-opacity:1" id="path4217" d="m 112,656 16,-16"/><g id="g4219"><g id="g4221"><path style="fill:red;fill-opacity:1;fill-rule:evenodd;stroke:red;stroke-width:1.20000005;stroke-linecap:butt;stroke-linejoin:round;stroke-miterlimit:10;stroke-dasharray:none;stroke-opacity:1" id="path4223" d="m 112,656 3.301,-6.598 3.297,3.297 z"/></g></g></g><g id="g4225"><path style="fill:none;stroke:red;stroke-width:1.20000005;stroke-linecap:butt;stroke-linejoin:round;stroke-miterlimit:10;stroke-dasharray:none;stroke-opacity:1" id="path4227" d="m 512,256 16,-16"/><g id="g4229"><g id="g4231"><path style="fill:red;fill-opacity:1;fill-rule:evenodd;stroke:red;stroke-width:1.20000005;stroke-linecap:butt;stroke-linejoin:round;stroke-miterlimit:10;stroke-dasharray:none;stroke-opacity:1" id="path4233" d="m 528,240 -3.301,6.598 -3.297,-3.297 z"/></g></g></g><g id="g4235"><path style="fill:none;stroke:red;stroke-width:1.20000005;stroke-linecap:butt;stroke-linejoin:round;stroke-miterlimit:10;stroke-dasharray:none;stroke-opacity:1" id="path4237" d="M 128,256 112,240"/><g id="g4239"><g id="g4241"><path style="fill:red;fill-opacity:1;fill-rule:evenodd;stroke:red;stroke-width:1.20000005;stroke-linecap:butt;stroke-linejoin:round;stroke-miterlimit:10;stroke-dasharray:none;stroke-opacity:1" id="path4243" d="m 112,240 6.598,3.301 -3.297,3.297 z"/></g></g></g><g id="g4245"><path style="fill:none;stroke:red;stroke-width:1.20000005;stroke-linecap:butt;stroke-linejoin:round;stroke-miterlimit:10;stroke-dasharray:none;stroke-opacity:1" id="path4247" d="m 512,640 16,16"/><g id="g4249"><g id="g4251"><path style="fill:red;fill-opacity:1;fill-rule:evenodd;stroke:red;stroke-width:1.20000005;stroke-linecap:butt;stroke-linejoin:round;stroke-miterlimit:10;stroke-dasharray:none;stroke-opacity:1" id="path4253" d="m 528,656 -6.598,-3.301 3.297,-3.297 z"/></g></g></g><g id="g4255" transform="translate(103.617,623.855)"><g id="g4257"><g id="g4259" clip-path="url(#clipPath4263)"><g id="g4265" transform="translate(0,-780.004)"><text style="font-variant:normal;font-weight:400;font-size:20.66250038px;font-family:CMMI12;-inkscape-font-specification:CMMI12;writing-mode:lr-tb;fill:#000;fill-opacity:1;fill-rule:nonzero;stroke:none" id="text4269" transform="matrix(1,0,0,-1,0,783.103)"><tspan id="tspan4267" x="0" y="0">v</tspan></text><text style="font-variant:normal;font-weight:400;font-size:14.34619999px;font-family:CMR12;-inkscape-font-specification:CMR12;writing-mode:lr-tb;fill:#000;fill-opacity:1;fill-rule:nonzero;stroke:none" id="text4273" transform="matrix(1,0,0,-1,9.781,780.004)"><tspan id="tspan4271" x="0" y="0">0</tspan></text></g></g></g></g><g id="g4275" transform="translate(104.333,260.202)"><g id="g4277"><g id="g4279" clip-path="url(#clipPath4283)"><g id="g4285" transform="translate(0,-780.004)"><text style="font-variant:normal;font-weight:400;font-size:20.66250038px;font-family:CMMI12;-inkscape-font-specification:CMMI12;writing-mode:lr-tb;fill:#000;fill-opacity:1;fill-rule:nonzero;stroke:none" id="text4289" transform="matrix(1,0,0,-1,0,783.103)"><tspan id="tspan4287" x="0" y="0">v</tspan></text><text style="font-variant:normal;font-weight:400;font-size:14.34619999px;font-family:CMR12;-inkscape-font-specification:CMR12;writing-mode:lr-tb;fill:#000;fill-opacity:1;fill-rule:nonzero;stroke:none" id="text4293" transform="matrix(1,0,0,-1,9.781,780.004)"><tspan id="tspan4291" x="0" y="0">1</tspan></text></g></g></g></g><g id="g4295" transform="translate(520.02,260.094)"><g id="g4297"><g id="g4299" clip-path="url(#clipPath4303)"><g id="g4305" transform="translate(0,-780.004)"><text style="font-variant:normal;font-weight:400;font-size:20.66250038px;font-family:CMMI12;-inkscape-font-specification:CMMI12;writing-mode:lr-tb;fill:#000;fill-opacity:1;fill-rule:nonzero;stroke:none" id="text4309" transform="matrix(1,0,0,-1,0,783.103)"><tspan id="tspan4307" x="0" y="0">v</tspan></text><text style="font-variant:normal;font-weight:400;font-size:14.34619999px;font-family:CMR12;-inkscape-font-specification:CMR12;writing-mode:lr-tb;fill:#000;fill-opacity:1;fill-rule:nonzero;stroke:none" id="text4313" transform="matrix(1,0,0,-1,9.781,780.004)"><tspan id="tspan4311" x="0" y="0">2</tspan></text></g></g></g></g><g id="g4315" transform="translate(520.188,624.087)"><g id="g4317"><g id="g4319" clip-path="url(#clipPath4323)"><g id="g4325" transform="translate(0,-780.004)"><text style="font-variant:normal;font-weight:400;font-size:20.66250038px;font-family:CMMI12;-inkscape-font-specification:CMMI12;writing-mode:lr-tb;fill:#000;fill-opacity:1;fill-rule:nonzero;stroke:none" id="text4329" transform="matrix(1,0,0,-1,0,783.103)"><tspan id="tspan4327" x="0" y="0">v</tspan></text><text style="font-variant:normal;font-weight:400;font-size:14.34619999px;font-family:CMR12;-inkscape-font-specification:CMR12;writing-mode:lr-tb;fill:#000;fill-opacity:1;fill-rule:nonzero;stroke:none" id="text4333" transform="matrix(1,0,0,-1,9.781,780.004)"><tspan id="tspan4331" x="0" y="0">3</tspan></text></g></g></g></g><g id="g4335" transform="translate(52.37,663.861)"><g id="g4337"><g id="g4339" clip-path="url(#clipPath4343)"><g id="g4345" transform="translate(0,-771.373)"><text style="font-variant:normal;font-weight:400;font-size:20.66250038px;font-family:CMR17;-inkscape-font-specification:CMR17;writing-mode:lr-tb;fill:#000;fill-opacity:1;fill-rule:nonzero;stroke:none" id="text4349" transform="matrix(1,0,0,-1,0,776.521)"><tspan id="tspan4347" x="0" y="0">(</tspan></text><text style="font-variant:normal;font-weight:400;font-size:20.66250038px;font-family:CMSY10;-inkscape-font-specification:CMSY10;writing-mode:lr-tb;fill:#000;fill-opacity:1;fill-rule:nonzero;stroke:none" id="text4353" transform="matrix(1,0,0,-1,7.317,776.521)"><tspan id="tspan4351" x="0 16.071" y="0">−∞</tspan></text><text style="font-variant:normal;font-weight:400;font-size:20.66250038px;font-family:CMMI12;-inkscape-font-specification:CMMI12;writing-mode:lr-tb;fill:#000;fill-opacity:1;fill-rule:nonzero;stroke:none" id="text4357" transform="matrix(1,0,0,-1,44.051,776.521)"><tspan id="tspan4355" x="0" y="0">,</tspan></text><text style="font-variant:normal;font-weight:400;font-size:20.66250038px;font-family:CMSY10;-inkscape-font-specification:CMSY10;writing-mode:lr-tb;fill:#000;fill-opacity:1;fill-rule:nonzero;stroke:none" id="text4361" transform="matrix(1,0,0,-1,53.114,776.521)"><tspan id="tspan4359" x="0" y="0">∞</tspan></text><text style="font-variant:normal;font-weight:400;font-size:20.66250038px;font-family:CMR17;-inkscape-font-specification:CMR17;writing-mode:lr-tb;fill:#000;fill-opacity:1;fill-rule:nonzero;stroke:none" id="text4365" transform="matrix(1,0,0,-1,73.777,776.521)"><tspan id="tspan4363" x="0" y="0">)</tspan></text></g></g></g></g><g id="g4367" transform="translate(68.136,211.856)"><g id="g4369"><g id="g4371" clip-path="url(#clipPath4375)"><g id="g4377" transform="translate(0,-771.373)"><text style="font-variant:normal;font-weight:400;font-size:20.66250038px;font-family:CMR17;-inkscape-font-specification:CMR17;writing-mode:lr-tb;fill:#000;fill-opacity:1;fill-rule:nonzero;stroke:none" id="text4381" transform="matrix(1,0,0,-1,0,776.521)"><tspan id="tspan4379" x="0" y="0">(</tspan></text><text style="font-variant:normal;font-weight:400;font-size:20.66250038px;font-family:CMSY10;-inkscape-font-specification:CMSY10;writing-mode:lr-tb;fill:#000;fill-opacity:1;fill-rule:nonzero;stroke:none" id="text4385" transform="matrix(1,0,0,-1,7.317,776.521)"><tspan id="tspan4383" x="0 16.071" y="0">−∞</tspan></text><text style="font-variant:normal;font-weight:400;font-size:20.66250038px;font-family:CMMI12;-inkscape-font-specification:CMMI12;writing-mode:lr-tb;fill:#000;fill-opacity:1;fill-rule:nonzero;stroke:none" id="text4389" transform="matrix(1,0,0,-1,44.051,776.521)"><tspan id="tspan4387" x="0" y="0">,</tspan></text><text style="font-variant:normal;font-weight:400;font-size:20.66250038px;font-family:CMSY10;-inkscape-font-specification:CMSY10;writing-mode:lr-tb;fill:#000;fill-opacity:1;fill-rule:nonzero;stroke:none" id="text4393" transform="matrix(1,0,0,-1,53.114,776.521)"><tspan id="tspan4391" x="0 16.071" y="0">−∞</tspan></text><text style="font-variant:normal;font-weight:400;font-size:20.66250038px;font-family:CMR17;-inkscape-font-specification:CMR17;writing-mode:lr-tb;fill:#000;fill-opacity:1;fill-rule:nonzero;stroke:none" id="text4397" transform="matrix(1,0,0,-1,89.848,776.521)"><tspan id="tspan4395" x="0" y="0">)</tspan></text></g></g></g></g><g id="g4399" transform="translate(500.266,211.955)"><g id="g4401"><g id="g4403" clip-path="url(#clipPath4407)"><g id="g4409" transform="translate(0,-771.373)"><text style="font-variant:normal;font-weight:400;font-size:20.66250038px;font-family:CMR17;-inkscape-font-specification:CMR17;writing-mode:lr-tb;fill:#000;fill-opacity:1;fill-rule:nonzero;stroke:none" id="text4413" transform="matrix(1,0,0,-1,0,776.521)"><tspan id="tspan4411" x="0" y="0">(</tspan></text><text style="font-variant:normal;font-weight:400;font-size:20.66250038px;font-family:CMSY10;-inkscape-font-specification:CMSY10;writing-mode:lr-tb;fill:#000;fill-opacity:1;fill-rule:nonzero;stroke:none" id="text4417" transform="matrix(1,0,0,-1,7.317,776.521)"><tspan id="tspan4415" x="0" y="0">∞</tspan></text><text style="font-variant:normal;font-weight:400;font-size:20.66250038px;font-family:CMMI12;-inkscape-font-specification:CMMI12;writing-mode:lr-tb;fill:#000;fill-opacity:1;fill-rule:nonzero;stroke:none" id="text4421" transform="matrix(1,0,0,-1,27.98,776.521)"><tspan id="tspan4419" x="0" y="0">,</tspan></text><text style="font-variant:normal;font-weight:400;font-size:20.66250038px;font-family:CMSY10;-inkscape-font-specification:CMSY10;writing-mode:lr-tb;fill:#000;fill-opacity:1;fill-rule:nonzero;stroke:none" id="text4425" transform="matrix(1,0,0,-1,37.043,776.521)"><tspan id="tspan4423" x="0 16.071" y="0">−∞</tspan></text><text style="font-variant:normal;font-weight:400;font-size:20.66250038px;font-family:CMR17;-inkscape-font-specification:CMR17;writing-mode:lr-tb;fill:#000;fill-opacity:1;fill-rule:nonzero;stroke:none" id="text4429" transform="matrix(1,0,0,-1,73.777,776.521)"><tspan id="tspan4427" x="0" y="0">)</tspan></text></g></g></g></g><g id="g4431" transform="translate(304,555.98)"><g id="g4433"><g id="g4435" clip-path="url(#clipPath4439)"><g id="g4441" transform="translate(0,-779.086)"><text style="font-variant:normal;font-weight:400;font-size:20.66250038px;font-family:CMMI12;-inkscape-font-specification:CMMI12;writing-mode:lr-tb;fill:#00f;fill-opacity:1;fill-rule:nonzero;stroke:none" id="text4445" transform="matrix(1,0,0,-1,0,783.104)"><tspan id="tspan4443" x="0" y="0">y</tspan></text></g></g></g></g><g id="g4447" transform="translate(432,432)"><g id="g4449"><g id="g4451" clip-path="url(#clipPath4455)"><g id="g4457" transform="translate(0,-783.104)"><text style="font-variant:normal;font-weight:400;font-size:20.66250038px;font-family:CMMI12;-inkscape-font-specification:CMMI12;writing-mode:lr-tb;fill:#00f;fill-opacity:1;fill-rule:nonzero;stroke:none" id="text4461" transform="matrix(1,0,0,-1,0,783.104)"><tspan id="tspan4459" x="0" y="0">x</tspan></text></g></g></g></g><g id="g4463"><path style="fill:url(#pattern4467);fill-opacity:1;fill-rule:evenodd;stroke:#00f;stroke-width:1.20000005;stroke-linecap:butt;stroke-linejoin:round;stroke-miterlimit:10;stroke-dasharray:none;stroke-opacity:1" id="path4469" d="M 192,448 H 448"/><g id="g4471"><g id="g4473"><path style="fill:#00f;fill-opacity:1;fill-rule:evenodd;stroke:#00f;stroke-width:1.20000005;stroke-linecap:butt;stroke-linejoin:round;stroke-miterlimit:10;stroke-dasharray:none;stroke-opacity:1" id="path4475" d="m 448,448 -7,2.331 v -4.662 z"/></g></g></g><g id="g4477"><path style="fill:url(#pattern4481);fill-opacity:1;fill-rule:evenodd;stroke:#00f;stroke-width:1.20000005;stroke-linecap:butt;stroke-linejoin:round;stroke-miterlimit:10;stroke-dasharray:none;stroke-opacity:1" id="path4483" d="M 320,576 V 320"/><g id="g4485"><g id="g4487"><path style="fill:#00f;fill-opacity:1;fill-rule:evenodd;stroke:#00f;stroke-width:1.20000005;stroke-linecap:butt;stroke-linejoin:round;stroke-miterlimit:10;stroke-dasharray:none;stroke-opacity:1" id="path4489" d="m 320,576 -2.331,-7 h 4.662 z"/></g></g></g><g id="g4491" transform="translate(198.655,657.634)"><g id="g4493"><g id="g4495" clip-path="url(#clipPath4499)"><g id="g4501" transform="translate(0,-773.633)"><text style="font-variant:normal;font-weight:400;font-size:20.66250038px;font-family:CMMI12;-inkscape-font-specification:CMMI12;writing-mode:lr-tb;fill:#000;fill-opacity:1;fill-rule:nonzero;stroke:none" id="text4505" transform="matrix(1,0,0,-1,0,777.651)"><tspan id="tspan4503" x="0" y="0">f</tspan></text><text style="font-variant:normal;font-weight:400;font-size:14.34619999px;font-family:CMR12;-inkscape-font-specification:CMR12;writing-mode:lr-tb;fill:#000;fill-opacity:1;fill-rule:nonzero;stroke:none" id="text4509" transform="matrix(1,0,0,-1,9.972,774.551)"><tspan id="tspan4507" x="0" y="0">0</tspan></text></g></g></g></g><g id="g4511" transform="translate(231.655,521.634)"><g id="g4513"><g id="g4515" clip-path="url(#clipPath4519)"><g id="g4521" transform="translate(0,-773.633)"><text style="font-variant:normal;font-weight:400;font-size:20.66250038px;font-family:CMMI12;-inkscape-font-specification:CMMI12;writing-mode:lr-tb;fill:#000;fill-opacity:1;fill-rule:nonzero;stroke:none" id="text4525" transform="matrix(1,0,0,-1,0,777.651)"><tspan id="tspan4523" x="0" y="0">f</tspan></text><text style="font-variant:normal;font-weight:400;font-size:14.34619999px;font-family:CMR12;-inkscape-font-specification:CMR12;writing-mode:lr-tb;fill:#000;fill-opacity:1;fill-rule:nonzero;stroke:none" id="text4529" transform="matrix(1,0,0,-1,9.972,774.551)"><tspan id="tspan4527" x="0" y="0">1</tspan></text></g></g></g></g></g></svg>