<svg xmlns="http://www.w3.org/2000/svg" xmlns:svg="http://www.w3.org/2000/svg" id="svg4981" width="707.987" height="632.948" version="1.1" viewBox="0 0 707.987 632.948" xml:space="preserve"><metadata id="metadata4987"/><defs id="defs4985"><clipPath id="clipPath4999" clipPathUnits="userSpaceOnUse"><path id="path4997" d="M -1,-1 H 66.023 V 21.627 H -1 Z"/></clipPath><clipPath id="clipPath5075" clipPathUnits="userSpaceOnUse"><path id="path5073" d="M -1,-1 H 18.303 V 12.996 H -1 Z"/></clipPath><clipPath id="clipPath5095" clipPathUnits="userSpaceOnUse"><path id="path5093" d="M -1,-1 H 18.303 V 12.996 H -1 Z"/></clipPath><clipPath id="clipPath5115" clipPathUnits="userSpaceOnUse"><path id="path5113" d="M -1,-1 H 18.303 V 12.996 H -1 Z"/></clipPath><clipPath id="clipPath5135" clipPathUnits="userSpaceOnUse"><path id="path5133" d="M -1,-1 H 18.303 V 12.996 H -1 Z"/></clipPath><clipPath id="clipPath5155" clipPathUnits="userSpaceOnUse"><path id="path5153" d="M -1,-1 H 82.094 V 21.627 H -1 Z"/></clipPath><clipPath id="clipPath5187" clipPathUnits="userSpaceOnUse"><path id="path5185" d="M -1,-1 H 98.165 V 21.627 H -1 Z"/></clipPath><clipPath id="clipPath5219" clipPathUnits="userSpaceOnUse"><path id="path5217" d="M -1,-1 H 82.094 V 21.627 H -1 Z"/></clipPath><clipPath id="clipPath5251" clipPathUnits="userSpaceOnUse"><path id="path5249" d="M -1,-1 H 11.606 V 13.914 H -1 Z"/></clipPath><clipPath id="clipPath5267" clipPathUnits="userSpaceOnUse"><path id="path5265" d="M -1,-1 H 12.497 V 9.896 H -1 Z"/></clipPath><pattern id="pattern5279" width="100" height="4" x="0" y="0" patternTransform="rotate(-59.999988)" patternUnits="userSpaceOnUse"><path style="fill:#90ee90;fill-opacity:1;fill-rule:nonzero;stroke:none" id="path5277" d="M 0,0 100,0 100,1 0,1 0,0 Z"/></pattern><pattern id="pattern5293" width="100" height="4" x="0" y="0" patternTransform="rotate(-59.999988)" patternUnits="userSpaceOnUse"><path style="fill:#90ee90;fill-opacity:1;fill-rule:nonzero;stroke:none" id="path5291" d="M 0,0 100,0 100,1 0,1 0,0 Z"/></pattern><pattern id="pattern5307" width="100" height="4" x="0" y="0" patternTransform="rotate(-59.999988)" patternUnits="userSpaceOnUse"><path style="fill:#90ee90;fill-opacity:1;fill-rule:nonzero;stroke:none" id="path5305" d="M 0,0 100,0 100,1 0,1 0,0 Z"/></pattern><pattern id="pattern5315" width="100" height="4" x="0" y="0" patternTransform="rotate(-59.999988)" patternUnits="userSpaceOnUse"><path style="fill:#fff;fill-opacity:1;fill-rule:nonzero;stroke:none" id="path5313" d="M 0,0 100,0 100,1 0,1 0,0 Z"/></pattern><pattern id="pattern5323" width="100" height="4" x="0" y="0" patternTransform="rotate(-59.999988)" patternUnits="userSpaceOnUse"><path style="fill:#fff;fill-opacity:1;fill-rule:nonzero;stroke:none" id="path5321" d="M 0,0 100,0 100,1 0,1 0,0 Z"/></pattern><clipPath id="clipPath5335" clipPathUnits="userSpaceOnUse"><path id="path5333" d="M -1,-1 H 18.303 V 12.996 H -1 Z"/></clipPath><clipPath id="clipPath5355" clipPathUnits="userSpaceOnUse"><path id="path5353" d="M -1,-1 H 18.303 V 12.996 H -1 Z"/></clipPath><clipPath id="clipPath5375" clipPathUnits="userSpaceOnUse"><path id="path5373" d="M -1,-1 H 18.303 V 12.996 H -1 Z"/></clipPath><clipPath id="clipPath5395" clipPathUnits="userSpaceOnUse"><path id="path5393" d="M -1,-1 H 18.303 V 12.996 H -1 Z"/></clipPath><clipPath id="clipPath5415" clipPathUnits="userSpaceOnUse"><path id="path5413" d="M -1,-1 H 18.303 V 12.996 H -1 Z"/></clipPath><clipPath id="clipPath5435" clipPathUnits="userSpaceOnUse"><path id="path5433" d="M -1,-1 H 18.303 V 12.996 H -1 Z"/></clipPath><clipPath id="clipPath5455" clipPathUnits="userSpaceOnUse"><path id="path5453" d="M -1,-1 H 25.326 V 12.996 H -1 Z"/></clipPath><clipPath id="clipPath5475" clipPathUnits="userSpaceOnUse"><path id="path5473" d="M -1,-1 H 25.326 V 12.996 H -1 Z"/></clipPath><clipPath id="clipPath5495" clipPathUnits="userSpaceOnUse"><path id="path5493" d="M -1,-1 H 25.326 V 12.996 H -1 Z"/></clipPath><clipPath id="clipPath5515" clipPathUnits="userSpaceOnUse"><path id="path5513" d="M -1,-1 H 18.494 V 19.367 H -1 Z"/></clipPath><clipPath id="clipPath5535" clipPathUnits="userSpaceOnUse"><path id="path5533" d="M -1,-1 H 18.494 V 19.367 H -1 Z"/></clipPath><clipPath id="clipPath5555" clipPathUnits="userSpaceOnUse"><path id="path5553" d="M -1,-1 H 18.494 V 19.367 H -1 Z"/></clipPath><clipPath id="clipPath5575" clipPathUnits="userSpaceOnUse"><path id="path5573" d="M -1,-1 H 18.494 V 19.367 H -1 Z"/></clipPath><clipPath id="clipPath5595" clipPathUnits="userSpaceOnUse"><path id="path5593" d="M -1,-1 H 18.494 V 19.367 H -1 Z"/></clipPath></defs><g id="g4989" transform="matrix(1.3333333,0,0,-1.3333333,-68.493333,914.08933)"><g id="g4991" transform="translate(500.084,663.94)"><g id="g4993"><g id="g4995" clip-path="url(#clipPath4999)"><g id="g5001" transform="translate(0,-771.373)"><text style="font-variant:normal;font-weight:400;font-size:20.66250038px;font-family:CMR17;-inkscape-font-specification:CMR17;writing-mode:lr-tb;fill:#000;fill-opacity:1;fill-rule:nonzero;stroke:none" id="text5005" transform="matrix(1,0,0,-1,0,776.521)"><tspan id="tspan5003" x="0" y="0">(</tspan></text><text style="font-variant:normal;font-weight:400;font-size:20.66250038px;font-family:CMSY10;-inkscape-font-specification:CMSY10;writing-mode:lr-tb;fill:#000;fill-opacity:1;fill-rule:nonzero;stroke:none" id="text5009" transform="matrix(1,0,0,-1,7.317,776.521)"><tspan id="tspan5007" x="0" y="0">∞</tspan></text><text style="font-variant:normal;font-weight:400;font-size:20.66250038px;font-family:CMMI12;-inkscape-font-specification:CMMI12;writing-mode:lr-tb;fill:#000;fill-opacity:1;fill-rule:nonzero;stroke:none" id="text5013" transform="matrix(1,0,0,-1,27.98,776.521)"><tspan id="tspan5011" x="0" y="0">,</tspan></text><text style="font-variant:normal;font-weight:400;font-size:20.66250038px;font-family:CMSY10;-inkscape-font-specification:CMSY10;writing-mode:lr-tb;fill:#000;fill-opacity:1;fill-rule:nonzero;stroke:none" id="text5017" transform="matrix(1,0,0,-1,37.043,776.521)"><tspan id="tspan5015" x="0" y="0">∞</tspan></text><text style="font-variant:normal;font-weight:400;font-size:20.66250038px;font-family:CMR17;-inkscape-font-specification:CMR17;writing-mode:lr-tb;fill:#000;fill-opacity:1;fill-rule:nonzero;stroke:none" id="text5021" transform="matrix(1,0,0,-1,57.706,776.521)"><tspan id="tspan5019" x="0" y="0">)</tspan></text></g></g></g></g><g id="g5023"><path style="fill:none;stroke:red;stroke-width:1.20000005;stroke-linecap:butt;stroke-linejoin:round;stroke-miterlimit:10;stroke-dasharray:4;stroke-dashoffset:0;stroke-opacity:1" id="path5025" d="M 128,640 V 256 h 384 v 384 z"/></g><g id="g5027"><path style="fill:none;stroke:red;stroke-width:1.20000005;stroke-linecap:butt;stroke-linejoin:round;stroke-miterlimit:10;stroke-dasharray:none;stroke-opacity:1" id="path5029" d="m 112,656 16,-16"/><g id="g5031"><g id="g5033"><path style="fill:red;fill-opacity:1;fill-rule:evenodd;stroke:red;stroke-width:1.20000005;stroke-linecap:butt;stroke-linejoin:round;stroke-miterlimit:10;stroke-dasharray:none;stroke-opacity:1" id="path5035" d="m 112,656 3.301,-6.598 3.297,3.297 z"/></g></g></g><g id="g5037"><path style="fill:none;stroke:red;stroke-width:1.20000005;stroke-linecap:butt;stroke-linejoin:round;stroke-miterlimit:10;stroke-dasharray:none;stroke-opacity:1" id="path5039" d="m 512,256 16,-16"/><g id="g5041"><g id="g5043"><path style="fill:red;fill-opacity:1;fill-rule:evenodd;stroke:red;stroke-width:1.20000005;stroke-linecap:butt;stroke-linejoin:round;stroke-miterlimit:10;stroke-dasharray:none;stroke-opacity:1" id="path5045" d="m 528,240 -3.301,6.598 -3.297,-3.297 z"/></g></g></g><g id="g5047"><path style="fill:none;stroke:red;stroke-width:1.20000005;stroke-linecap:butt;stroke-linejoin:round;stroke-miterlimit:10;stroke-dasharray:none;stroke-opacity:1" id="path5049" d="M 128,256 112,240"/><g id="g5051"><g id="g5053"><path style="fill:red;fill-opacity:1;fill-rule:evenodd;stroke:red;stroke-width:1.20000005;stroke-linecap:butt;stroke-linejoin:round;stroke-miterlimit:10;stroke-dasharray:none;stroke-opacity:1" id="path5055" d="m 112,240 6.598,3.301 -3.297,3.297 z"/></g></g></g><g id="g5057"><path style="fill:none;stroke:red;stroke-width:1.20000005;stroke-linecap:butt;stroke-linejoin:round;stroke-miterlimit:10;stroke-dasharray:none;stroke-opacity:1" id="path5059" d="m 512,640 16,16"/><g id="g5061"><g id="g5063"><path style="fill:red;fill-opacity:1;fill-rule:evenodd;stroke:red;stroke-width:1.20000005;stroke-linecap:butt;stroke-linejoin:round;stroke-miterlimit:10;stroke-dasharray:none;stroke-opacity:1" id="path5065" d="m 528,656 -6.598,-3.301 3.297,-3.297 z"/></g></g></g><g id="g5067" transform="translate(103.617,623.855)"><g id="g5069"><g id="g5071" clip-path="url(#clipPath5075)"><g id="g5077" transform="translate(0,-780.004)"><text style="font-variant:normal;font-weight:400;font-size:20.66250038px;font-family:CMMI12;-inkscape-font-specification:CMMI12;writing-mode:lr-tb;fill:#000;fill-opacity:1;fill-rule:nonzero;stroke:none" id="text5081" transform="matrix(1,0,0,-1,0,783.103)"><tspan id="tspan5079" x="0" y="0">v</tspan></text><text style="font-variant:normal;font-weight:400;font-size:14.34619999px;font-family:CMR12;-inkscape-font-specification:CMR12;writing-mode:lr-tb;fill:#000;fill-opacity:1;fill-rule:nonzero;stroke:none" id="text5085" transform="matrix(1,0,0,-1,9.781,780.004)"><tspan id="tspan5083" x="0" y="0">0</tspan></text></g></g></g></g><g id="g5087" transform="translate(104.333,260.202)"><g id="g5089"><g id="g5091" clip-path="url(#clipPath5095)"><g id="g5097" transform="translate(0,-780.004)"><text style="font-variant:normal;font-weight:400;font-size:20.66250038px;font-family:CMMI12;-inkscape-font-specification:CMMI12;writing-mode:lr-tb;fill:#000;fill-opacity:1;fill-rule:nonzero;stroke:none" id="text5101" transform="matrix(1,0,0,-1,0,783.103)"><tspan id="tspan5099" x="0" y="0">v</tspan></text><text style="font-variant:normal;font-weight:400;font-size:14.34619999px;font-family:CMR12;-inkscape-font-specification:CMR12;writing-mode:lr-tb;fill:#000;fill-opacity:1;fill-rule:nonzero;stroke:none" id="text5105" transform="matrix(1,0,0,-1,9.781,780.004)"><tspan id="tspan5103" x="0" y="0">1</tspan></text></g></g></g></g><g id="g5107" transform="translate(520.02,260.094)"><g id="g5109"><g id="g5111" clip-path="url(#clipPath5115)"><g id="g5117" transform="translate(0,-780.004)"><text style="font-variant:normal;font-weight:400;font-size:20.66250038px;font-family:CMMI12;-inkscape-font-specification:CMMI12;writing-mode:lr-tb;fill:#000;fill-opacity:1;fill-rule:nonzero;stroke:none" id="text5121" transform="matrix(1,0,0,-1,0,783.103)"><tspan id="tspan5119" x="0" y="0">v</tspan></text><text style="font-variant:normal;font-weight:400;font-size:14.34619999px;font-family:CMR12;-inkscape-font-specification:CMR12;writing-mode:lr-tb;fill:#000;fill-opacity:1;fill-rule:nonzero;stroke:none" id="text5125" transform="matrix(1,0,0,-1,9.781,780.004)"><tspan id="tspan5123" x="0" y="0">2</tspan></text></g></g></g></g><g id="g5127" transform="translate(520.188,624.087)"><g id="g5129"><g id="g5131" clip-path="url(#clipPath5135)"><g id="g5137" transform="translate(0,-780.004)"><text style="font-variant:normal;font-weight:400;font-size:20.66250038px;font-family:CMMI12;-inkscape-font-specification:CMMI12;writing-mode:lr-tb;fill:#000;fill-opacity:1;fill-rule:nonzero;stroke:none" id="text5141" transform="matrix(1,0,0,-1,0,783.103)"><tspan id="tspan5139" x="0" y="0">v</tspan></text><text style="font-variant:normal;font-weight:400;font-size:14.34619999px;font-family:CMR12;-inkscape-font-specification:CMR12;writing-mode:lr-tb;fill:#000;fill-opacity:1;fill-rule:nonzero;stroke:none" id="text5145" transform="matrix(1,0,0,-1,9.781,780.004)"><tspan id="tspan5143" x="0" y="0">3</tspan></text></g></g></g></g><g id="g5147" transform="translate(52.37,663.861)"><g id="g5149"><g id="g5151" clip-path="url(#clipPath5155)"><g id="g5157" transform="translate(0,-771.373)"><text style="font-variant:normal;font-weight:400;font-size:20.66250038px;font-family:CMR17;-inkscape-font-specification:CMR17;writing-mode:lr-tb;fill:#000;fill-opacity:1;fill-rule:nonzero;stroke:none" id="text5161" transform="matrix(1,0,0,-1,0,776.521)"><tspan id="tspan5159" x="0" y="0">(</tspan></text><text style="font-variant:normal;font-weight:400;font-size:20.66250038px;font-family:CMSY10;-inkscape-font-specification:CMSY10;writing-mode:lr-tb;fill:#000;fill-opacity:1;fill-rule:nonzero;stroke:none" id="text5165" transform="matrix(1,0,0,-1,7.317,776.521)"><tspan id="tspan5163" x="0 16.071" y="0">−∞</tspan></text><text style="font-variant:normal;font-weight:400;font-size:20.66250038px;font-family:CMMI12;-inkscape-font-specification:CMMI12;writing-mode:lr-tb;fill:#000;fill-opacity:1;fill-rule:nonzero;stroke:none" id="text5169" transform="matrix(1,0,0,-1,44.051,776.521)"><tspan id="tspan5167" x="0" y="0">,</tspan></text><text style="font-variant:normal;font-weight:400;font-size:20.66250038px;font-family:CMSY10;-inkscape-font-specification:CMSY10;writing-mode:lr-tb;fill:#000;fill-opacity:1;fill-rule:nonzero;stroke:none" id="text5173" transform="matrix(1,0,0,-1,53.114,776.521)"><tspan id="tspan5171" x="0" y="0">∞</tspan></text><text style="font-variant:normal;font-weight:400;font-size:20.66250038px;font-family:CMR17;-inkscape-font-specification:CMR17;writing-mode:lr-tb;fill:#000;fill-opacity:1;fill-rule:nonzero;stroke:none" id="text5177" transform="matrix(1,0,0,-1,73.777,776.521)"><tspan id="tspan5175" x="0" y="0">)</tspan></text></g></g></g></g><g id="g5179" transform="translate(68.136,211.856)"><g id="g5181"><g id="g5183" clip-path="url(#clipPath5187)"><g id="g5189" transform="translate(0,-771.373)"><text style="font-variant:normal;font-weight:400;font-size:20.66250038px;font-family:CMR17;-inkscape-font-specification:CMR17;writing-mode:lr-tb;fill:#000;fill-opacity:1;fill-rule:nonzero;stroke:none" id="text5193" transform="matrix(1,0,0,-1,0,776.521)"><tspan id="tspan5191" x="0" y="0">(</tspan></text><text style="font-variant:normal;font-weight:400;font-size:20.66250038px;font-family:CMSY10;-inkscape-font-specification:CMSY10;writing-mode:lr-tb;fill:#000;fill-opacity:1;fill-rule:nonzero;stroke:none" id="text5197" transform="matrix(1,0,0,-1,7.317,776.521)"><tspan id="tspan5195" x="0 16.071" y="0">−∞</tspan></text><text style="font-variant:normal;font-weight:400;font-size:20.66250038px;font-family:CMMI12;-inkscape-font-specification:CMMI12;writing-mode:lr-tb;fill:#000;fill-opacity:1;fill-rule:nonzero;stroke:none" id="text5201" transform="matrix(1,0,0,-1,44.051,776.521)"><tspan id="tspan5199" x="0" y="0">,</tspan></text><text style="font-variant:normal;font-weight:400;font-size:20.66250038px;font-family:CMSY10;-inkscape-font-specification:CMSY10;writing-mode:lr-tb;fill:#000;fill-opacity:1;fill-rule:nonzero;stroke:none" id="text5205" transform="matrix(1,0,0,-1,53.114,776.521)"><tspan id="tspan5203" x="0 16.071" y="0">−∞</tspan></text><text style="font-variant:normal;font-weight:400;font-size:20.66250038px;font-family:CMR17;-inkscape-font-specification:CMR17;writing-mode:lr-tb;fill:#000;fill-opacity:1;fill-rule:nonzero;stroke:none" id="text5209" transform="matrix(1,0,0,-1,89.848,776.521)"><tspan id="tspan5207" x="0" y="0">)</tspan></text></g></g></g></g><g id="g5211" transform="translate(500.266,211.955)"><g id="g5213"><g id="g5215" clip-path="url(#clipPath5219)"><g id="g5221" transform="translate(0,-771.373)"><text style="font-variant:normal;font-weight:400;font-size:20.66250038px;font-family:CMR17;-inkscape-font-specification:CMR17;writing-mode:lr-tb;fill:#000;fill-opacity:1;fill-rule:nonzero;stroke:none" id="text5225" transform="matrix(1,0,0,-1,0,776.521)"><tspan id="tspan5223" x="0" y="0">(</tspan></text><text style="font-variant:normal;font-weight:400;font-size:20.66250038px;font-family:CMSY10;-inkscape-font-specification:CMSY10;writing-mode:lr-tb;fill:#000;fill-opacity:1;fill-rule:nonzero;stroke:none" id="text5229" transform="matrix(1,0,0,-1,7.317,776.521)"><tspan id="tspan5227" x="0" y="0">∞</tspan></text><text style="font-variant:normal;font-weight:400;font-size:20.66250038px;font-family:CMMI12;-inkscape-font-specification:CMMI12;writing-mode:lr-tb;fill:#000;fill-opacity:1;fill-rule:nonzero;stroke:none" id="text5233" transform="matrix(1,0,0,-1,27.98,776.521)"><tspan id="tspan5231" x="0" y="0">,</tspan></text><text style="font-variant:normal;font-weight:400;font-size:20.66250038px;font-family:CMSY10;-inkscape-font-specification:CMSY10;writing-mode:lr-tb;fill:#000;fill-opacity:1;fill-rule:nonzero;stroke:none" id="text5237" transform="matrix(1,0,0,-1,37.043,776.521)"><tspan id="tspan5235" x="0 16.071" y="0">−∞</tspan></text><text style="font-variant:normal;font-weight:400;font-size:20.66250038px;font-family:CMR17;-inkscape-font-specification:CMR17;writing-mode:lr-tb;fill:#000;fill-opacity:1;fill-rule:nonzero;stroke:none" id="text5241" transform="matrix(1,0,0,-1,73.777,776.521)"><tspan id="tspan5239" x="0" y="0">)</tspan></text></g></g></g></g><g id="g5243" transform="translate(301.692,608.288)"><g id="g5245"><g id="g5247" clip-path="url(#clipPath5251)"><g id="g5253" transform="translate(0,-779.086)"><text style="font-variant:normal;font-weight:400;font-size:20.66250038px;font-family:CMMI12;-inkscape-font-specification:CMMI12;writing-mode:lr-tb;fill:#00f;fill-opacity:1;fill-rule:nonzero;stroke:none" id="text5257" transform="matrix(1,0,0,-1,0,783.104)"><tspan id="tspan5255" x="0" y="0">y</tspan></text></g></g></g></g><g id="g5259" transform="translate(471.231,432.769)"><g id="g5261"><g id="g5263" clip-path="url(#clipPath5267)"><g id="g5269" transform="translate(0,-783.104)"><text style="font-variant:normal;font-weight:400;font-size:20.66250038px;font-family:CMMI12;-inkscape-font-specification:CMMI12;writing-mode:lr-tb;fill:#00f;fill-opacity:1;fill-rule:nonzero;stroke:none" id="text5273" transform="matrix(1,0,0,-1,0,783.104)"><tspan id="tspan5271" x="0" y="0">x</tspan></text></g></g></g></g><g id="g5275"><path style="fill:url(#pattern5279);fill-opacity:1;fill-rule:evenodd;stroke:#00f;stroke-width:1.20000005;stroke-linecap:butt;stroke-linejoin:round;stroke-miterlimit:10;stroke-dasharray:none;stroke-opacity:1" id="path5281" d="M 190,449 H 494"/><g id="g5283"><g id="g5285"><path style="fill:#00f;fill-opacity:1;fill-rule:evenodd;stroke:#00f;stroke-width:1.20000005;stroke-linecap:butt;stroke-linejoin:round;stroke-miterlimit:10;stroke-dasharray:none;stroke-opacity:1" id="path5287" d="m 494,449 -7,2.331 v -4.662 z"/></g></g></g><g id="g5289"><path style="fill:url(#pattern5293);fill-opacity:1;fill-rule:evenodd;stroke:#00f;stroke-width:1.20000005;stroke-linecap:butt;stroke-linejoin:round;stroke-miterlimit:10;stroke-dasharray:none;stroke-opacity:1" id="path5295" d="M 320,624 V 320"/><g id="g5297"><g id="g5299"><path style="fill:#00f;fill-opacity:1;fill-rule:evenodd;stroke:#00f;stroke-width:1.20000005;stroke-linecap:butt;stroke-linejoin:round;stroke-miterlimit:10;stroke-dasharray:none;stroke-opacity:1" id="path5301" d="m 320,624 -2.331,-7 h 4.662 z"/></g></g></g><g id="g5303"><path style="fill:url(#pattern5307);fill-opacity:1;fill-rule:evenodd;stroke:#90ee90;stroke-width:1.20000005;stroke-linecap:butt;stroke-linejoin:round;stroke-miterlimit:10;stroke-dasharray:none;stroke-opacity:1" id="path5309" d="M 336,464 H 480 V 608 Z"/></g><g id="g5311"><path style="fill:url(#pattern5315);fill-opacity:1;fill-rule:evenodd;stroke:#90ee90;stroke-width:1.20000005;stroke-linecap:butt;stroke-linejoin:round;stroke-miterlimit:10;stroke-dasharray:none;stroke-opacity:1" id="path5317" d="m 384,480 h 32 v 32 z"/></g><g id="g5319"><path style="fill:url(#pattern5323);fill-opacity:1;fill-rule:evenodd;stroke:#90ee90;stroke-width:1.20000005;stroke-linecap:butt;stroke-linejoin:round;stroke-miterlimit:10;stroke-dasharray:none;stroke-opacity:1" id="path5325" d="m 432,480 h 32 v 64 z"/></g><g id="g5327" transform="translate(322.589,450.653)"><g id="g5329"><g id="g5331" clip-path="url(#clipPath5335)"><g id="g5337" transform="translate(0,-780.004)"><text style="font-variant:normal;font-weight:400;font-size:20.66250038px;font-family:CMMI12;-inkscape-font-specification:CMMI12;writing-mode:lr-tb;fill:#000;fill-opacity:1;fill-rule:nonzero;stroke:none" id="text5341" transform="matrix(1,0,0,-1,0,783.103)"><tspan id="tspan5339" x="0" y="0">v</tspan></text><text style="font-variant:normal;font-weight:400;font-size:14.34619999px;font-family:CMR12;-inkscape-font-specification:CMR12;writing-mode:lr-tb;fill:#000;fill-opacity:1;fill-rule:nonzero;stroke:none" id="text5345" transform="matrix(1,0,0,-1,9.781,780.004)"><tspan id="tspan5343" x="0" y="0">4</tspan></text></g></g></g></g><g id="g5347" transform="translate(481.238,450.576)"><g id="g5349"><g id="g5351" clip-path="url(#clipPath5355)"><g id="g5357" transform="translate(0,-780.004)"><text style="font-variant:normal;font-weight:400;font-size:20.66250038px;font-family:CMMI12;-inkscape-font-specification:CMMI12;writing-mode:lr-tb;fill:#000;fill-opacity:1;fill-rule:nonzero;stroke:none" id="text5361" transform="matrix(1,0,0,-1,0,783.103)"><tspan id="tspan5359" x="0" y="0">v</tspan></text><text style="font-variant:normal;font-weight:400;font-size:14.34619999px;font-family:CMR12;-inkscape-font-specification:CMR12;writing-mode:lr-tb;fill:#000;fill-opacity:1;fill-rule:nonzero;stroke:none" id="text5365" transform="matrix(1,0,0,-1,9.781,780.004)"><tspan id="tspan5363" x="0" y="0">5</tspan></text></g></g></g></g><g id="g5367" transform="translate(477.768,609.043)"><g id="g5369"><g id="g5371" clip-path="url(#clipPath5375)"><g id="g5377" transform="translate(0,-780.004)"><text style="font-variant:normal;font-weight:400;font-size:20.66250038px;font-family:CMMI12;-inkscape-font-specification:CMMI12;writing-mode:lr-tb;fill:#000;fill-opacity:1;fill-rule:nonzero;stroke:none" id="text5381" transform="matrix(1,0,0,-1,0,783.103)"><tspan id="tspan5379" x="0" y="0">v</tspan></text><text style="font-variant:normal;font-weight:400;font-size:14.34619999px;font-family:CMR12;-inkscape-font-specification:CMR12;writing-mode:lr-tb;fill:#000;fill-opacity:1;fill-rule:nonzero;stroke:none" id="text5385" transform="matrix(1,0,0,-1,9.781,780.004)"><tspan id="tspan5383" x="0" y="0">6</tspan></text></g></g></g></g><g id="g5387" transform="translate(368.251,465.697)"><g id="g5389"><g id="g5391" clip-path="url(#clipPath5395)"><g id="g5397" transform="translate(0,-780.004)"><text style="font-variant:normal;font-weight:400;font-size:20.66250038px;font-family:CMMI12;-inkscape-font-specification:CMMI12;writing-mode:lr-tb;fill:#000;fill-opacity:1;fill-rule:nonzero;stroke:none" id="text5401" transform="matrix(1,0,0,-1,0,783.103)"><tspan id="tspan5399" x="0" y="0">v</tspan></text><text style="font-variant:normal;font-weight:400;font-size:14.34619999px;font-family:CMR12;-inkscape-font-specification:CMR12;writing-mode:lr-tb;fill:#000;fill-opacity:1;fill-rule:nonzero;stroke:none" id="text5405" transform="matrix(1,0,0,-1,9.781,780.004)"><tspan id="tspan5403" x="0" y="0">7</tspan></text></g></g></g></g><g id="g5407" transform="translate(405.784,465.77)"><g id="g5409"><g id="g5411" clip-path="url(#clipPath5415)"><g id="g5417" transform="translate(0,-780.004)"><text style="font-variant:normal;font-weight:400;font-size:20.66250038px;font-family:CMMI12;-inkscape-font-specification:CMMI12;writing-mode:lr-tb;fill:#000;fill-opacity:1;fill-rule:nonzero;stroke:none" id="text5421" transform="matrix(1,0,0,-1,0,783.103)"><tspan id="tspan5419" x="0" y="0">v</tspan></text><text style="font-variant:normal;font-weight:400;font-size:14.34619999px;font-family:CMR12;-inkscape-font-specification:CMR12;writing-mode:lr-tb;fill:#000;fill-opacity:1;fill-rule:nonzero;stroke:none" id="text5425" transform="matrix(1,0,0,-1,9.781,780.004)"><tspan id="tspan5423" x="0" y="0">8</tspan></text></g></g></g></g><g id="g5427" transform="translate(408.513,511.875)"><g id="g5429"><g id="g5431" clip-path="url(#clipPath5435)"><g id="g5437" transform="translate(0,-780.004)"><text style="font-variant:normal;font-weight:400;font-size:20.66250038px;font-family:CMMI12;-inkscape-font-specification:CMMI12;writing-mode:lr-tb;fill:#000;fill-opacity:1;fill-rule:nonzero;stroke:none" id="text5441" transform="matrix(1,0,0,-1,0,783.103)"><tspan id="tspan5439" x="0" y="0">v</tspan></text><text style="font-variant:normal;font-weight:400;font-size:14.34619999px;font-family:CMR12;-inkscape-font-specification:CMR12;writing-mode:lr-tb;fill:#000;fill-opacity:1;fill-rule:nonzero;stroke:none" id="text5445" transform="matrix(1,0,0,-1,9.781,780.004)"><tspan id="tspan5443" x="0" y="0">9</tspan></text></g></g></g></g><g id="g5447" transform="translate(428.553,465.783)"><g id="g5449"><g id="g5451" clip-path="url(#clipPath5455)"><g id="g5457" transform="translate(0,-780.004)"><text style="font-variant:normal;font-weight:400;font-size:20.66250038px;font-family:CMMI12;-inkscape-font-specification:CMMI12;writing-mode:lr-tb;fill:#000;fill-opacity:1;fill-rule:nonzero;stroke:none" id="text5461" transform="matrix(1,0,0,-1,0,783.103)"><tspan id="tspan5459" x="0" y="0">v</tspan></text><text style="font-variant:normal;font-weight:400;font-size:14.34619999px;font-family:CMR12;-inkscape-font-specification:CMR12;writing-mode:lr-tb;fill:#000;fill-opacity:1;fill-rule:nonzero;stroke:none" id="text5465" transform="matrix(1,0,0,-1,9.781,780.004)"><tspan id="tspan5463" x="0 7.024" y="0">10</tspan></text></g></g></g></g><g id="g5467" transform="translate(464.227,465.654)"><g id="g5469"><g id="g5471" clip-path="url(#clipPath5475)"><g id="g5477" transform="translate(0,-780.004)"><text style="font-variant:normal;font-weight:400;font-size:20.66250038px;font-family:CMMI12;-inkscape-font-specification:CMMI12;writing-mode:lr-tb;fill:#000;fill-opacity:1;fill-rule:nonzero;stroke:none" id="text5481" transform="matrix(1,0,0,-1,0,783.103)"><tspan id="tspan5479" x="0" y="0">v</tspan></text><text style="font-variant:normal;font-weight:400;font-size:14.34619999px;font-family:CMR12;-inkscape-font-specification:CMR12;writing-mode:lr-tb;fill:#000;fill-opacity:1;fill-rule:nonzero;stroke:none" id="text5485" transform="matrix(1,0,0,-1,9.781,780.004)"><tspan id="tspan5483" x="0 7.024" y="0">11</tspan></text></g></g></g></g><g id="g5487" transform="translate(454.115,545.39)"><g id="g5489"><g id="g5491" clip-path="url(#clipPath5495)"><g id="g5497" transform="translate(0,-780.004)"><text style="font-variant:normal;font-weight:400;font-size:20.66250038px;font-family:CMMI12;-inkscape-font-specification:CMMI12;writing-mode:lr-tb;fill:#000;fill-opacity:1;fill-rule:nonzero;stroke:none" id="text5501" transform="matrix(1,0,0,-1,0,783.103)"><tspan id="tspan5499" x="0" y="0">v</tspan></text><text style="font-variant:normal;font-weight:400;font-size:14.34619999px;font-family:CMR12;-inkscape-font-specification:CMR12;writing-mode:lr-tb;fill:#000;fill-opacity:1;fill-rule:nonzero;stroke:none" id="text5505" transform="matrix(1,0,0,-1,9.781,780.004)"><tspan id="tspan5503" x="0 7.024" y="0">12</tspan></text></g></g></g></g><g id="g5507" transform="translate(211.655,656.634)"><g id="g5509"><g id="g5511" clip-path="url(#clipPath5515)"><g id="g5517" transform="translate(0,-773.633)"><text style="font-variant:normal;font-weight:400;font-size:20.66250038px;font-family:CMMI12;-inkscape-font-specification:CMMI12;writing-mode:lr-tb;fill:#000;fill-opacity:1;fill-rule:nonzero;stroke:none" id="text5521" transform="matrix(1,0,0,-1,0,777.651)"><tspan id="tspan5519" x="0" y="0">f</tspan></text><text style="font-variant:normal;font-weight:400;font-size:14.34619999px;font-family:CMR12;-inkscape-font-specification:CMR12;writing-mode:lr-tb;fill:#000;fill-opacity:1;fill-rule:nonzero;stroke:none" id="text5525" transform="matrix(1,0,0,-1,9.972,774.551)"><tspan id="tspan5523" x="0" y="0">0</tspan></text></g></g></g></g><g id="g5527" transform="translate(210.655,542.634)"><g id="g5529"><g id="g5531" clip-path="url(#clipPath5535)"><g id="g5537" transform="translate(0,-773.633)"><text style="font-variant:normal;font-weight:400;font-size:20.66250038px;font-family:CMMI12;-inkscape-font-specification:CMMI12;writing-mode:lr-tb;fill:#000;fill-opacity:1;fill-rule:nonzero;stroke:none" id="text5541" transform="matrix(1,0,0,-1,0,777.651)"><tspan id="tspan5539" x="0" y="0">f</tspan></text><text style="font-variant:normal;font-weight:400;font-size:14.34619999px;font-family:CMR12;-inkscape-font-specification:CMR12;writing-mode:lr-tb;fill:#000;fill-opacity:1;fill-rule:nonzero;stroke:none" id="text5545" transform="matrix(1,0,0,-1,9.972,774.551)"><tspan id="tspan5543" x="0" y="0">1</tspan></text></g></g></g></g><g id="g5547" transform="translate(424.471,535.534)"><g id="g5549"><g id="g5551" clip-path="url(#clipPath5555)"><g id="g5557" transform="translate(0,-773.633)"><text style="font-variant:normal;font-weight:400;font-size:20.66250038px;font-family:CMMI12;-inkscape-font-specification:CMMI12;writing-mode:lr-tb;fill:#000;fill-opacity:1;fill-rule:nonzero;stroke:none" id="text5561" transform="matrix(1,0,0,-1,0,777.651)"><tspan id="tspan5559" x="0" y="0">f</tspan></text><text style="font-variant:normal;font-weight:400;font-size:14.34619999px;font-family:CMR12;-inkscape-font-specification:CMR12;writing-mode:lr-tb;fill:#000;fill-opacity:1;fill-rule:nonzero;stroke:none" id="text5565" transform="matrix(1,0,0,-1,9.972,774.551)"><tspan id="tspan5563" x="0" y="0">2</tspan></text></g></g></g></g><g id="g5567" transform="translate(398.504,481.713)"><g id="g5569"><g id="g5571" clip-path="url(#clipPath5575)"><g id="g5577" transform="translate(0,-773.633)"><text style="font-variant:normal;font-weight:400;font-size:20.66250038px;font-family:CMMI12;-inkscape-font-specification:CMMI12;writing-mode:lr-tb;fill:#000;fill-opacity:1;fill-rule:nonzero;stroke:none" id="text5581" transform="matrix(1,0,0,-1,0,777.651)"><tspan id="tspan5579" x="0" y="0">f</tspan></text><text style="font-variant:normal;font-weight:400;font-size:14.34619999px;font-family:CMR12;-inkscape-font-specification:CMR12;writing-mode:lr-tb;fill:#000;fill-opacity:1;fill-rule:nonzero;stroke:none" id="text5585" transform="matrix(1,0,0,-1,9.972,774.551)"><tspan id="tspan5583" x="0" y="0">3</tspan></text></g></g></g></g><g id="g5587" transform="translate(445.13,481.254)"><g id="g5589"><g id="g5591" clip-path="url(#clipPath5595)"><g id="g5597" transform="translate(0,-773.633)"><text style="font-variant:normal;font-weight:400;font-size:20.66250038px;font-family:CMMI12;-inkscape-font-specification:CMMI12;writing-mode:lr-tb;fill:#000;fill-opacity:1;fill-rule:nonzero;stroke:none" id="text5601" transform="matrix(1,0,0,-1,0,777.651)"><tspan id="tspan5599" x="0" y="0">f</tspan></text><text style="font-variant:normal;font-weight:400;font-size:14.34619999px;font-family:CMR12;-inkscape-font-specification:CMR12;writing-mode:lr-tb;fill:#000;fill-opacity:1;fill-rule:nonzero;stroke:none" id="text5605" transform="matrix(1,0,0,-1,9.972,774.551)"><tspan id="tspan5603" x="0" y="0">4</tspan></text></g></g></g></g></g></svg>