<svg xmlns="http://www.w3.org/2000/svg" xmlns:svg="http://www.w3.org/2000/svg" id="svg10" width="707.987" height="747.792" version="1.1" viewBox="0 0 707.987 747.792" xml:space="preserve"><metadata id="metadata16"/><defs id="defs14"><pattern id="pattern24" width="100" height="4" x="0" y="0" patternTransform="rotate(-59.999988)" patternUnits="userSpaceOnUse"><path style="fill:#90ee90;fill-opacity:1;fill-rule:nonzero;stroke:none" id="path22" d="M 0,0 100,0 100,1 0,1 0,0 Z"/></pattern><clipPath id="clipPath36" clipPathUnits="userSpaceOnUse"><path id="path34" d="M -1,-1 H 66.023 V 21.627 H -1 Z"/></clipPath><clipPath id="clipPath112" clipPathUnits="userSpaceOnUse"><path id="path110" d="M -1,-1 H 18.303 V 12.996 H -1 Z"/></clipPath><clipPath id="clipPath132" clipPathUnits="userSpaceOnUse"><path id="path130" d="M -1,-1 H 18.303 V 12.996 H -1 Z"/></clipPath><clipPath id="clipPath152" clipPathUnits="userSpaceOnUse"><path id="path150" d="M -1,-1 H 18.303 V 12.996 H -1 Z"/></clipPath><clipPath id="clipPath172" clipPathUnits="userSpaceOnUse"><path id="path170" d="M -1,-1 H 18.303 V 12.996 H -1 Z"/></clipPath><clipPath id="clipPath192" clipPathUnits="userSpaceOnUse"><path id="path190" d="M -1,-1 H 82.094 V 21.627 H -1 Z"/></clipPath><clipPath id="clipPath224" clipPathUnits="userSpaceOnUse"><path id="path222" d="M -1,-1 H 98.165 V 21.627 H -1 Z"/></clipPath><clipPath id="clipPath256" clipPathUnits="userSpaceOnUse"><path id="path254" d="M -1,-1 H 82.094 V 21.627 H -1 Z"/></clipPath><clipPath id="clipPath288" clipPathUnits="userSpaceOnUse"><path id="path286" d="M -1,-1 H 11.606 V 13.914 H -1 Z"/></clipPath><clipPath id="clipPath304" clipPathUnits="userSpaceOnUse"><path id="path302" d="M -1,-1 H 12.497 V 9.896 H -1 Z"/></clipPath><pattern id="pattern316" width="100" height="4" x="0" y="0" patternTransform="rotate(-59.999988)" patternUnits="userSpaceOnUse"><path style="fill:#90ee90;fill-opacity:1;fill-rule:nonzero;stroke:none" id="path314" d="M 0,0 100,0 100,1 0,1 0,0 Z"/></pattern><pattern id="pattern330" width="100" height="4" x="0" y="0" patternTransform="rotate(-59.999988)" patternUnits="userSpaceOnUse"><path style="fill:#90ee90;fill-opacity:1;fill-rule:nonzero;stroke:none" id="path328" d="M 0,0 100,0 100,1 0,1 0,0 Z"/></pattern><clipPath id="clipPath348" clipPathUnits="userSpaceOnUse"><path id="path346" d="M -1,-1 H 18.303 V 12.996 H -1 Z"/></clipPath><clipPath id="clipPath368" clipPathUnits="userSpaceOnUse"><path id="path366" d="M -1,-1 H 18.303 V 12.996 H -1 Z"/></clipPath><clipPath id="clipPath388" clipPathUnits="userSpaceOnUse"><path id="path386" d="M -1,-1 H 18.494 V 19.367 H -1 Z"/></clipPath><clipPath id="clipPath408" clipPathUnits="userSpaceOnUse"><path id="path406" d="M -1,-1 H 18.494 V 19.367 H -1 Z"/></clipPath><clipPath id="clipPath428" clipPathUnits="userSpaceOnUse"><path id="path426" d="M -1,-1 H 18.494 V 19.367 H -1 Z"/></clipPath><pattern id="pattern448" width="100" height="4" x="0" y="0" patternTransform="rotate(-59.999988)" patternUnits="userSpaceOnUse"><path style="fill:#90ee90;fill-opacity:1;fill-rule:nonzero;stroke:none" id="path446" d="M 0,0 100,0 100,1 0,1 0,0 Z"/></pattern><clipPath id="clipPath486" clipPathUnits="userSpaceOnUse"><path id="path484" d="M -1,-1 H 18.303 V 12.996 H -1 Z"/></clipPath><clipPath id="clipPath506" clipPathUnits="userSpaceOnUse"><path id="path504" d="M -1,-1 H 18.303 V 12.996 H -1 Z"/></clipPath><clipPath id="clipPath526" clipPathUnits="userSpaceOnUse"><path id="path524" d="M -1,-1 H 18.303 V 12.996 H -1 Z"/></clipPath><clipPath id="clipPath546" clipPathUnits="userSpaceOnUse"><path id="path544" d="M -1,-1 H 18.303 V 12.996 H -1 Z"/></clipPath><clipPath id="clipPath566" clipPathUnits="userSpaceOnUse"><path id="path564" d="M -1,-1 H 25.326 V 12.996 H -1 Z"/></clipPath><clipPath id="clipPath586" clipPathUnits="userSpaceOnUse"><path id="path584" d="M -1,-1 H 25.326 V 12.996 H -1 Z"/></clipPath><clipPath id="clipPath606" clipPathUnits="userSpaceOnUse"><path id="path604" d="M -1,-1 H 25.326 V 12.996 H -1 Z"/></clipPath><clipPath id="clipPath626" clipPathUnits="userSpaceOnUse"><path id="path624" d="M -1,-1 H 25.326 V 12.996 H -1 Z"/></clipPath><clipPath id="clipPath646" clipPathUnits="userSpaceOnUse"><path id="path644" d="M -1,-1 H 25.326 V 12.996 H -1 Z"/></clipPath><clipPath id="clipPath666" clipPathUnits="userSpaceOnUse"><path id="path664" d="M -1,-1 H 25.326 V 12.996 H -1 Z"/></clipPath><clipPath id="clipPath686" clipPathUnits="userSpaceOnUse"><path id="path684" d="M -1,-1 H 25.326 V 12.996 H -1 Z"/></clipPath><clipPath id="clipPath706" clipPathUnits="userSpaceOnUse"><path id="path704" d="M -1,-1 H 25.326 V 12.996 H -1 Z"/></clipPath><clipPath id="clipPath726" clipPathUnits="userSpaceOnUse"><path id="path724" d="M -1,-1 H 18.494 V 19.367 H -1 Z"/></clipPath></defs><g id="g18" transform="matrix(1.3333333,0,0,-1.3333333,-68.493333,1028.9333)"><g id="g20"><path style="fill:url(#pattern24);fill-opacity:1;fill-rule:evenodd;stroke:none" id="path26" d="m 336.769,464.769 h 144 v 144 z"/></g><g id="g28" transform="translate(500.084,663.94)"><g id="g30"><g id="g32" clip-path="url(#clipPath36)"><g id="g38" transform="translate(0,-771.373)"><text style="font-variant:normal;font-weight:400;font-size:20.66250038px;font-family:CMR17;-inkscape-font-specification:CMR17;writing-mode:lr-tb;fill:#000;fill-opacity:1;fill-rule:nonzero;stroke:none" id="text42" transform="matrix(1,0,0,-1,0,776.521)"><tspan id="tspan40" x="0" y="0">(</tspan></text><text style="font-variant:normal;font-weight:400;font-size:20.66250038px;font-family:CMSY10;-inkscape-font-specification:CMSY10;writing-mode:lr-tb;fill:#000;fill-opacity:1;fill-rule:nonzero;stroke:none" id="text46" transform="matrix(1,0,0,-1,7.317,776.521)"><tspan id="tspan44" x="0" y="0">∞</tspan></text><text style="font-variant:normal;font-weight:400;font-size:20.66250038px;font-family:CMMI12;-inkscape-font-specification:CMMI12;writing-mode:lr-tb;fill:#000;fill-opacity:1;fill-rule:nonzero;stroke:none" id="text50" transform="matrix(1,0,0,-1,27.98,776.521)"><tspan id="tspan48" x="0" y="0">,</tspan></text><text style="font-variant:normal;font-weight:400;font-size:20.66250038px;font-family:CMSY10;-inkscape-font-specification:CMSY10;writing-mode:lr-tb;fill:#000;fill-opacity:1;fill-rule:nonzero;stroke:none" id="text54" transform="matrix(1,0,0,-1,37.043,776.521)"><tspan id="tspan52" x="0" y="0">∞</tspan></text><text style="font-variant:normal;font-weight:400;font-size:20.66250038px;font-family:CMR17;-inkscape-font-specification:CMR17;writing-mode:lr-tb;fill:#000;fill-opacity:1;fill-rule:nonzero;stroke:none" id="text58" transform="matrix(1,0,0,-1,57.706,776.521)"><tspan id="tspan56" x="0" y="0">)</tspan></text></g></g></g></g><g id="g60"><path style="fill:none;stroke:red;stroke-width:1.20000005;stroke-linecap:butt;stroke-linejoin:round;stroke-miterlimit:10;stroke-dasharray:4;stroke-dashoffset:0;stroke-opacity:1" id="path62" d="m 128.769,640.769 v -384 h 384 v 384 z"/></g><g id="g64"><path style="fill:none;stroke:red;stroke-width:1.20000005;stroke-linecap:butt;stroke-linejoin:round;stroke-miterlimit:10;stroke-dasharray:none;stroke-opacity:1" id="path66" d="m 112,656 16,-16"/><g id="g68"><g id="g70"><path style="fill:red;fill-opacity:1;fill-rule:evenodd;stroke:red;stroke-width:1.20000005;stroke-linecap:butt;stroke-linejoin:round;stroke-miterlimit:10;stroke-dasharray:none;stroke-opacity:1" id="path72" d="m 112,656 3.301,-6.598 3.297,3.297 z"/></g></g></g><g id="g74"><path style="fill:none;stroke:red;stroke-width:1.20000005;stroke-linecap:butt;stroke-linejoin:round;stroke-miterlimit:10;stroke-dasharray:none;stroke-opacity:1" id="path76" d="m 512,256 16,-16"/><g id="g78"><g id="g80"><path style="fill:red;fill-opacity:1;fill-rule:evenodd;stroke:red;stroke-width:1.20000005;stroke-linecap:butt;stroke-linejoin:round;stroke-miterlimit:10;stroke-dasharray:none;stroke-opacity:1" id="path82" d="m 528,240 -3.301,6.598 -3.297,-3.297 z"/></g></g></g><g id="g84"><path style="fill:none;stroke:red;stroke-width:1.20000005;stroke-linecap:butt;stroke-linejoin:round;stroke-miterlimit:10;stroke-dasharray:none;stroke-opacity:1" id="path86" d="M 128,256 112,240"/><g id="g88"><g id="g90"><path style="fill:red;fill-opacity:1;fill-rule:evenodd;stroke:red;stroke-width:1.20000005;stroke-linecap:butt;stroke-linejoin:round;stroke-miterlimit:10;stroke-dasharray:none;stroke-opacity:1" id="path92" d="m 112,240 6.598,3.301 -3.297,3.297 z"/></g></g></g><g id="g94"><path style="fill:none;stroke:red;stroke-width:1.20000005;stroke-linecap:butt;stroke-linejoin:round;stroke-miterlimit:10;stroke-dasharray:none;stroke-opacity:1" id="path96" d="m 512,640 16,16"/><g id="g98"><g id="g100"><path style="fill:red;fill-opacity:1;fill-rule:evenodd;stroke:red;stroke-width:1.20000005;stroke-linecap:butt;stroke-linejoin:round;stroke-miterlimit:10;stroke-dasharray:none;stroke-opacity:1" id="path102" d="m 528,656 -6.598,-3.301 3.297,-3.297 z"/></g></g></g><g id="g104" transform="translate(103.617,623.855)"><g id="g106"><g id="g108" clip-path="url(#clipPath112)"><g id="g114" transform="translate(0,-780.004)"><text style="font-variant:normal;font-weight:400;font-size:20.66250038px;font-family:CMMI12;-inkscape-font-specification:CMMI12;writing-mode:lr-tb;fill:#000;fill-opacity:1;fill-rule:nonzero;stroke:none" id="text118" transform="matrix(1,0,0,-1,0,783.103)"><tspan id="tspan116" x="0" y="0">v</tspan></text><text style="font-variant:normal;font-weight:400;font-size:14.34619999px;font-family:CMR12;-inkscape-font-specification:CMR12;writing-mode:lr-tb;fill:#000;fill-opacity:1;fill-rule:nonzero;stroke:none" id="text122" transform="matrix(1,0,0,-1,9.781,780.004)"><tspan id="tspan120" x="0" y="0">0</tspan></text></g></g></g></g><g id="g124" transform="translate(104.333,260.202)"><g id="g126"><g id="g128" clip-path="url(#clipPath132)"><g id="g134" transform="translate(0,-780.004)"><text style="font-variant:normal;font-weight:400;font-size:20.66250038px;font-family:CMMI12;-inkscape-font-specification:CMMI12;writing-mode:lr-tb;fill:#000;fill-opacity:1;fill-rule:nonzero;stroke:none" id="text138" transform="matrix(1,0,0,-1,0,783.103)"><tspan id="tspan136" x="0" y="0">v</tspan></text><text style="font-variant:normal;font-weight:400;font-size:14.34619999px;font-family:CMR12;-inkscape-font-specification:CMR12;writing-mode:lr-tb;fill:#000;fill-opacity:1;fill-rule:nonzero;stroke:none" id="text142" transform="matrix(1,0,0,-1,9.781,780.004)"><tspan id="tspan140" x="0" y="0">1</tspan></text></g></g></g></g><g id="g144" transform="translate(520.02,260.094)"><g id="g146"><g id="g148" clip-path="url(#clipPath152)"><g id="g154" transform="translate(0,-780.004)"><text style="font-variant:normal;font-weight:400;font-size:20.66250038px;font-family:CMMI12;-inkscape-font-specification:CMMI12;writing-mode:lr-tb;fill:#000;fill-opacity:1;fill-rule:nonzero;stroke:none" id="text158" transform="matrix(1,0,0,-1,0,783.103)"><tspan id="tspan156" x="0" y="0">v</tspan></text><text style="font-variant:normal;font-weight:400;font-size:14.34619999px;font-family:CMR12;-inkscape-font-specification:CMR12;writing-mode:lr-tb;fill:#000;fill-opacity:1;fill-rule:nonzero;stroke:none" id="text162" transform="matrix(1,0,0,-1,9.781,780.004)"><tspan id="tspan160" x="0" y="0">2</tspan></text></g></g></g></g><g id="g164" transform="translate(520.188,624.087)"><g id="g166"><g id="g168" clip-path="url(#clipPath172)"><g id="g174" transform="translate(0,-780.004)"><text style="font-variant:normal;font-weight:400;font-size:20.66250038px;font-family:CMMI12;-inkscape-font-specification:CMMI12;writing-mode:lr-tb;fill:#000;fill-opacity:1;fill-rule:nonzero;stroke:none" id="text178" transform="matrix(1,0,0,-1,0,783.103)"><tspan id="tspan176" x="0" y="0">v</tspan></text><text style="font-variant:normal;font-weight:400;font-size:14.34619999px;font-family:CMR12;-inkscape-font-specification:CMR12;writing-mode:lr-tb;fill:#000;fill-opacity:1;fill-rule:nonzero;stroke:none" id="text182" transform="matrix(1,0,0,-1,9.781,780.004)"><tspan id="tspan180" x="0" y="0">3</tspan></text></g></g></g></g><g id="g184" transform="translate(52.37,663.861)"><g id="g186"><g id="g188" clip-path="url(#clipPath192)"><g id="g194" transform="translate(0,-771.373)"><text style="font-variant:normal;font-weight:400;font-size:20.66250038px;font-family:CMR17;-inkscape-font-specification:CMR17;writing-mode:lr-tb;fill:#000;fill-opacity:1;fill-rule:nonzero;stroke:none" id="text198" transform="matrix(1,0,0,-1,0,776.521)"><tspan id="tspan196" x="0" y="0">(</tspan></text><text style="font-variant:normal;font-weight:400;font-size:20.66250038px;font-family:CMSY10;-inkscape-font-specification:CMSY10;writing-mode:lr-tb;fill:#000;fill-opacity:1;fill-rule:nonzero;stroke:none" id="text202" transform="matrix(1,0,0,-1,7.317,776.521)"><tspan id="tspan200" x="0 16.071" y="0">−∞</tspan></text><text style="font-variant:normal;font-weight:400;font-size:20.66250038px;font-family:CMMI12;-inkscape-font-specification:CMMI12;writing-mode:lr-tb;fill:#000;fill-opacity:1;fill-rule:nonzero;stroke:none" id="text206" transform="matrix(1,0,0,-1,44.051,776.521)"><tspan id="tspan204" x="0" y="0">,</tspan></text><text style="font-variant:normal;font-weight:400;font-size:20.66250038px;font-family:CMSY10;-inkscape-font-specification:CMSY10;writing-mode:lr-tb;fill:#000;fill-opacity:1;fill-rule:nonzero;stroke:none" id="text210" transform="matrix(1,0,0,-1,53.114,776.521)"><tspan id="tspan208" x="0" y="0">∞</tspan></text><text style="font-variant:normal;font-weight:400;font-size:20.66250038px;font-family:CMR17;-inkscape-font-specification:CMR17;writing-mode:lr-tb;fill:#000;fill-opacity:1;fill-rule:nonzero;stroke:none" id="text214" transform="matrix(1,0,0,-1,73.777,776.521)"><tspan id="tspan212" x="0" y="0">)</tspan></text></g></g></g></g><g id="g216" transform="translate(68.136,211.856)"><g id="g218"><g id="g220" clip-path="url(#clipPath224)"><g id="g226" transform="translate(0,-771.373)"><text style="font-variant:normal;font-weight:400;font-size:20.66250038px;font-family:CMR17;-inkscape-font-specification:CMR17;writing-mode:lr-tb;fill:#000;fill-opacity:1;fill-rule:nonzero;stroke:none" id="text230" transform="matrix(1,0,0,-1,0,776.521)"><tspan id="tspan228" x="0" y="0">(</tspan></text><text style="font-variant:normal;font-weight:400;font-size:20.66250038px;font-family:CMSY10;-inkscape-font-specification:CMSY10;writing-mode:lr-tb;fill:#000;fill-opacity:1;fill-rule:nonzero;stroke:none" id="text234" transform="matrix(1,0,0,-1,7.317,776.521)"><tspan id="tspan232" x="0 16.071" y="0">−∞</tspan></text><text style="font-variant:normal;font-weight:400;font-size:20.66250038px;font-family:CMMI12;-inkscape-font-specification:CMMI12;writing-mode:lr-tb;fill:#000;fill-opacity:1;fill-rule:nonzero;stroke:none" id="text238" transform="matrix(1,0,0,-1,44.051,776.521)"><tspan id="tspan236" x="0" y="0">,</tspan></text><text style="font-variant:normal;font-weight:400;font-size:20.66250038px;font-family:CMSY10;-inkscape-font-specification:CMSY10;writing-mode:lr-tb;fill:#000;fill-opacity:1;fill-rule:nonzero;stroke:none" id="text242" transform="matrix(1,0,0,-1,53.114,776.521)"><tspan id="tspan240" x="0 16.071" y="0">−∞</tspan></text><text style="font-variant:normal;font-weight:400;font-size:20.66250038px;font-family:CMR17;-inkscape-font-specification:CMR17;writing-mode:lr-tb;fill:#000;fill-opacity:1;fill-rule:nonzero;stroke:none" id="text246" transform="matrix(1,0,0,-1,89.848,776.521)"><tspan id="tspan244" x="0" y="0">)</tspan></text></g></g></g></g><g id="g248" transform="translate(500.266,211.955)"><g id="g250"><g id="g252" clip-path="url(#clipPath256)"><g id="g258" transform="translate(0,-771.373)"><text style="font-variant:normal;font-weight:400;font-size:20.66250038px;font-family:CMR17;-inkscape-font-specification:CMR17;writing-mode:lr-tb;fill:#000;fill-opacity:1;fill-rule:nonzero;stroke:none" id="text262" transform="matrix(1,0,0,-1,0,776.521)"><tspan id="tspan260" x="0" y="0">(</tspan></text><text style="font-variant:normal;font-weight:400;font-size:20.66250038px;font-family:CMSY10;-inkscape-font-specification:CMSY10;writing-mode:lr-tb;fill:#000;fill-opacity:1;fill-rule:nonzero;stroke:none" id="text266" transform="matrix(1,0,0,-1,7.317,776.521)"><tspan id="tspan264" x="0" y="0">∞</tspan></text><text style="font-variant:normal;font-weight:400;font-size:20.66250038px;font-family:CMMI12;-inkscape-font-specification:CMMI12;writing-mode:lr-tb;fill:#000;fill-opacity:1;fill-rule:nonzero;stroke:none" id="text270" transform="matrix(1,0,0,-1,27.98,776.521)"><tspan id="tspan268" x="0" y="0">,</tspan></text><text style="font-variant:normal;font-weight:400;font-size:20.66250038px;font-family:CMSY10;-inkscape-font-specification:CMSY10;writing-mode:lr-tb;fill:#000;fill-opacity:1;fill-rule:nonzero;stroke:none" id="text274" transform="matrix(1,0,0,-1,37.043,776.521)"><tspan id="tspan272" x="0 16.071" y="0">−∞</tspan></text><text style="font-variant:normal;font-weight:400;font-size:20.66250038px;font-family:CMR17;-inkscape-font-specification:CMR17;writing-mode:lr-tb;fill:#000;fill-opacity:1;fill-rule:nonzero;stroke:none" id="text278" transform="matrix(1,0,0,-1,73.777,776.521)"><tspan id="tspan276" x="0" y="0">)</tspan></text></g></g></g></g><g id="g280" transform="translate(301.692,608.288)"><g id="g282"><g id="g284" clip-path="url(#clipPath288)"><g id="g290" transform="translate(0,-779.086)"><text style="font-variant:normal;font-weight:400;font-size:20.66250038px;font-family:CMMI12;-inkscape-font-specification:CMMI12;writing-mode:lr-tb;fill:#00f;fill-opacity:1;fill-rule:nonzero;stroke:none" id="text294" transform="matrix(1,0,0,-1,0,783.104)"><tspan id="tspan292" x="0" y="0">y</tspan></text></g></g></g></g><g id="g296" transform="translate(471.231,432.769)"><g id="g298"><g id="g300" clip-path="url(#clipPath304)"><g id="g306" transform="translate(0,-783.104)"><text style="font-variant:normal;font-weight:400;font-size:20.66250038px;font-family:CMMI12;-inkscape-font-specification:CMMI12;writing-mode:lr-tb;fill:#00f;fill-opacity:1;fill-rule:nonzero;stroke:none" id="text310" transform="matrix(1,0,0,-1,0,783.104)"><tspan id="tspan308" x="0" y="0">x</tspan></text></g></g></g></g><g id="g312"><path style="fill:url(#pattern316);fill-opacity:1;fill-rule:evenodd;stroke:#00f;stroke-width:1.20000005;stroke-linecap:butt;stroke-linejoin:round;stroke-miterlimit:10;stroke-dasharray:none;stroke-opacity:1" id="path318" d="M 192,448 H 496"/><g id="g320"><g id="g322"><path style="fill:#00f;fill-opacity:1;fill-rule:evenodd;stroke:#00f;stroke-width:1.20000005;stroke-linecap:butt;stroke-linejoin:round;stroke-miterlimit:10;stroke-dasharray:none;stroke-opacity:1" id="path324" d="m 496,448 -7,2.331 v -4.662 z"/></g></g></g><g id="g326"><path style="fill:url(#pattern330);fill-opacity:1;fill-rule:evenodd;stroke:#00f;stroke-width:1.20000005;stroke-linecap:butt;stroke-linejoin:round;stroke-miterlimit:10;stroke-dasharray:none;stroke-opacity:1" id="path332" d="M 320,624 V 320"/><g id="g334"><g id="g336"><path style="fill:#00f;fill-opacity:1;fill-rule:evenodd;stroke:#00f;stroke-width:1.20000005;stroke-linecap:butt;stroke-linejoin:round;stroke-miterlimit:10;stroke-dasharray:none;stroke-opacity:1" id="path338" d="m 320,624 -2.331,-7 h 4.662 z"/></g></g></g><g id="g340" transform="translate(324.342,451.768)"><g id="g342"><g id="g344" clip-path="url(#clipPath348)"><g id="g350" transform="translate(0,-780.004)"><text style="font-variant:normal;font-weight:400;font-size:20.66250038px;font-family:CMMI12;-inkscape-font-specification:CMMI12;writing-mode:lr-tb;fill:#000;fill-opacity:1;fill-rule:nonzero;stroke:none" id="text354" transform="matrix(1,0,0,-1,0,783.103)"><tspan id="tspan352" x="0" y="0">v</tspan></text><text style="font-variant:normal;font-weight:400;font-size:14.34619999px;font-family:CMR12;-inkscape-font-specification:CMR12;writing-mode:lr-tb;fill:#000;fill-opacity:1;fill-rule:nonzero;stroke:none" id="text358" transform="matrix(1,0,0,-1,9.781,780.004)"><tspan id="tspan356" x="0" y="0">4</tspan></text></g></g></g></g><g id="g360" transform="translate(484.584,451.851)"><g id="g362"><g id="g364" clip-path="url(#clipPath368)"><g id="g370" transform="translate(0,-780.004)"><text style="font-variant:normal;font-weight:400;font-size:20.66250038px;font-family:CMMI12;-inkscape-font-specification:CMMI12;writing-mode:lr-tb;fill:#000;fill-opacity:1;fill-rule:nonzero;stroke:none" id="text374" transform="matrix(1,0,0,-1,0,783.103)"><tspan id="tspan372" x="0" y="0">v</tspan></text><text style="font-variant:normal;font-weight:400;font-size:14.34619999px;font-family:CMR12;-inkscape-font-specification:CMR12;writing-mode:lr-tb;fill:#000;fill-opacity:1;fill-rule:nonzero;stroke:none" id="text378" transform="matrix(1,0,0,-1,9.781,780.004)"><tspan id="tspan376" x="0" y="0">5</tspan></text></g></g></g></g><g id="g380" transform="translate(197.578,651.596)"><g id="g382"><g id="g384" clip-path="url(#clipPath388)"><g id="g390" transform="translate(0,-773.633)"><text style="font-variant:normal;font-weight:400;font-size:20.66250038px;font-family:CMMI12;-inkscape-font-specification:CMMI12;writing-mode:lr-tb;fill:#000;fill-opacity:1;fill-rule:nonzero;stroke:none" id="text394" transform="matrix(1,0,0,-1,0,777.651)"><tspan id="tspan392" x="0" y="0">f</tspan></text><text style="font-variant:normal;font-weight:400;font-size:14.34619999px;font-family:CMR12;-inkscape-font-specification:CMR12;writing-mode:lr-tb;fill:#000;fill-opacity:1;fill-rule:nonzero;stroke:none" id="text398" transform="matrix(1,0,0,-1,9.972,774.551)"><tspan id="tspan396" x="0" y="0">0</tspan></text></g></g></g></g><g id="g400" transform="translate(206.04,546.981)"><g id="g402"><g id="g404" clip-path="url(#clipPath408)"><g id="g410" transform="translate(0,-773.633)"><text style="font-variant:normal;font-weight:400;font-size:20.66250038px;font-family:CMMI12;-inkscape-font-specification:CMMI12;writing-mode:lr-tb;fill:#000;fill-opacity:1;fill-rule:nonzero;stroke:none" id="text414" transform="matrix(1,0,0,-1,0,777.651)"><tspan id="tspan412" x="0" y="0">f</tspan></text><text style="font-variant:normal;font-weight:400;font-size:14.34619999px;font-family:CMR12;-inkscape-font-specification:CMR12;writing-mode:lr-tb;fill:#000;fill-opacity:1;fill-rule:nonzero;stroke:none" id="text418" transform="matrix(1,0,0,-1,9.972,774.551)"><tspan id="tspan416" x="0" y="0">1</tspan></text></g></g></g></g><g id="g420" transform="translate(407.579,489.288)"><g id="g422"><g id="g424" clip-path="url(#clipPath428)"><g id="g430" transform="translate(0,-773.633)"><text style="font-variant:normal;font-weight:400;font-size:20.66250038px;font-family:CMMI12;-inkscape-font-specification:CMMI12;writing-mode:lr-tb;fill:#000;fill-opacity:1;fill-rule:nonzero;stroke:none" id="text434" transform="matrix(1,0,0,-1,0,777.651)"><tspan id="tspan432" x="0" y="0">f</tspan></text><text style="font-variant:normal;font-weight:400;font-size:14.34619999px;font-family:CMR12;-inkscape-font-specification:CMR12;writing-mode:lr-tb;fill:#000;fill-opacity:1;fill-rule:nonzero;stroke:none" id="text438" transform="matrix(1,0,0,-1,9.972,774.551)"><tspan id="tspan436" x="0" y="0">2</tspan></text></g></g></g></g><g id="g440"><path style="fill:none;stroke:#90ee90;stroke-width:2;stroke-linecap:butt;stroke-linejoin:round;stroke-miterlimit:10;stroke-dasharray:none;stroke-opacity:1" id="path442" d="m 208,416 v -64 h 64"/></g><g id="g444"><path style="fill:url(#pattern448);fill-opacity:1;fill-rule:evenodd;stroke:#90ee90;stroke-width:2;stroke-linecap:butt;stroke-linejoin:round;stroke-miterlimit:10;stroke-dasharray:none;stroke-opacity:1" id="path450" d="m 352,384 v -32 h 32 v 32 z"/></g><g id="g452"><path style="fill:#90ee90;fill-opacity:1;fill-rule:evenodd;stroke:#90ee90;stroke-width:2;stroke-linecap:butt;stroke-linejoin:round;stroke-miterlimit:10;stroke-dasharray:none;stroke-opacity:1" id="path454" d="m 384,352 h 64"/></g><g id="g456"><g id="g458"><path style="fill:#90ee90;fill-opacity:1;fill-rule:evenodd;stroke:none" id="path460" d="m 195,768 c 0,1.657 -1.343,3 -3,3 -1.657,0 -3,-1.343 -3,-3 0,-1.657 1.343,-3 3,-3 1.657,0 3,1.343 3,3 m -1,0 c 0,1.105 -0.895,2 -2,2 -1.105,0 -2,-0.895 -2,-2 0,-1.105 0.895,-2 2,-2 1.105,0 2,0.895 2,2"/></g></g><g id="g462"><g id="g464"><path style="fill:#90ee90;fill-opacity:1;fill-rule:evenodd;stroke:none" id="path466" d="m 387,576 c 0,1.657 -1.343,3 -3,3 -1.657,0 -3,-1.343 -3,-3 0,-1.657 1.343,-3 3,-3 1.657,0 3,1.343 3,3"/></g></g><g id="g468"><g id="g470"><path style="fill:#fff;fill-opacity:1;fill-rule:evenodd;stroke:none" id="path472" d="m 450.5,512 c 0,1.381 -1.119,2.5 -2.5,2.5 -1.381,0 -2.5,-1.119 -2.5,-2.5 0,-1.381 1.119,-2.5 2.5,-2.5 1.381,0 2.5,1.119 2.5,2.5"/></g><g id="g474"><path style="fill:#90ee90;fill-opacity:1;fill-rule:evenodd;stroke:none" id="path476" d="m 451,512 c 0,1.657 -1.343,3 -3,3 -1.657,0 -3,-1.343 -3,-3 0,-1.657 1.343,-3 3,-3 1.657,0 3,1.343 3,3 m -1,0 c 0,1.105 -0.895,2 -2,2 -1.105,0 -2,-0.895 -2,-2 0,-1.105 0.895,-2 2,-2 1.105,0 2,0.895 2,2"/></g></g><g id="g478" transform="translate(376.056,579.721)"><g id="g480"><g id="g482" clip-path="url(#clipPath486)"><g id="g488" transform="translate(0,-780.004)"><text style="font-variant:normal;font-weight:400;font-size:20.66250038px;font-family:CMMI12;-inkscape-font-specification:CMMI12;writing-mode:lr-tb;fill:#000;fill-opacity:1;fill-rule:nonzero;stroke:none" id="text492" transform="matrix(1,0,0,-1,0,783.103)"><tspan id="tspan490" x="0" y="0">v</tspan></text><text style="font-variant:normal;font-weight:400;font-size:14.34619999px;font-family:CMR12;-inkscape-font-specification:CMR12;writing-mode:lr-tb;fill:#000;fill-opacity:1;fill-rule:nonzero;stroke:none" id="text496" transform="matrix(1,0,0,-1,9.781,780.004)"><tspan id="tspan494" x="0" y="0">7</tspan></text></g></g></g></g><g id="g498" transform="translate(390.457,536.214)"><g id="g500"><g id="g502" clip-path="url(#clipPath506)"><g id="g508" transform="translate(0,-780.004)"><text style="font-variant:normal;font-weight:400;font-size:20.66250038px;font-family:CMMI12;-inkscape-font-specification:CMMI12;writing-mode:lr-tb;fill:#000;fill-opacity:1;fill-rule:nonzero;stroke:none" id="text512" transform="matrix(1,0,0,-1,0,783.103)"><tspan id="tspan510" x="0" y="0">v</tspan></text><text style="font-variant:normal;font-weight:400;font-size:14.34619999px;font-family:CMR12;-inkscape-font-specification:CMR12;writing-mode:lr-tb;fill:#000;fill-opacity:1;fill-rule:nonzero;stroke:none" id="text516" transform="matrix(1,0,0,-1,9.781,780.004)"><tspan id="tspan514" x="0" y="0">8</tspan></text></g></g></g></g><g id="g518" transform="translate(446.611,516.214)"><g id="g520"><g id="g522" clip-path="url(#clipPath526)"><g id="g528" transform="translate(0,-780.004)"><text style="font-variant:normal;font-weight:400;font-size:20.66250038px;font-family:CMMI12;-inkscape-font-specification:CMMI12;writing-mode:lr-tb;fill:#000;fill-opacity:1;fill-rule:nonzero;stroke:none" id="text532" transform="matrix(1,0,0,-1,0,783.103)"><tspan id="tspan530" x="0" y="0">v</tspan></text><text style="font-variant:normal;font-weight:400;font-size:14.34619999px;font-family:CMR12;-inkscape-font-specification:CMR12;writing-mode:lr-tb;fill:#000;fill-opacity:1;fill-rule:nonzero;stroke:none" id="text536" transform="matrix(1,0,0,-1,9.781,780.004)"><tspan id="tspan534" x="0" y="0">9</tspan></text></g></g></g></g><g id="g538" transform="translate(483.925,607.868)"><g id="g540"><g id="g542" clip-path="url(#clipPath546)"><g id="g548" transform="translate(0,-780.004)"><text style="font-variant:normal;font-weight:400;font-size:20.66250038px;font-family:CMMI12;-inkscape-font-specification:CMMI12;writing-mode:lr-tb;fill:#000;fill-opacity:1;fill-rule:nonzero;stroke:none" id="text552" transform="matrix(1,0,0,-1,0,783.103)"><tspan id="tspan550" x="0" y="0">v</tspan></text><text style="font-variant:normal;font-weight:400;font-size:14.34619999px;font-family:CMR12;-inkscape-font-specification:CMR12;writing-mode:lr-tb;fill:#000;fill-opacity:1;fill-rule:nonzero;stroke:none" id="text556" transform="matrix(1,0,0,-1,9.781,780.004)"><tspan id="tspan554" x="0" y="0">6</tspan></text></g></g></g></g><g id="g558" transform="translate(196.468,419.704)"><g id="g560"><g id="g562" clip-path="url(#clipPath566)"><g id="g568" transform="translate(0,-780.004)"><text style="font-variant:normal;font-weight:400;font-size:20.66250038px;font-family:CMMI12;-inkscape-font-specification:CMMI12;writing-mode:lr-tb;fill:#000;fill-opacity:1;fill-rule:nonzero;stroke:none" id="text572" transform="matrix(1,0,0,-1,0,783.103)"><tspan id="tspan570" x="0" y="0">v</tspan></text><text style="font-variant:normal;font-weight:400;font-size:14.34619999px;font-family:CMR12;-inkscape-font-specification:CMR12;writing-mode:lr-tb;fill:#000;fill-opacity:1;fill-rule:nonzero;stroke:none" id="text576" transform="matrix(1,0,0,-1,9.781,780.004)"><tspan id="tspan574" x="0 7.024" y="0">10</tspan></text></g></g></g></g><g id="g578" transform="translate(196.153,335.805)"><g id="g580"><g id="g582" clip-path="url(#clipPath586)"><g id="g588" transform="translate(0,-780.004)"><text style="font-variant:normal;font-weight:400;font-size:20.66250038px;font-family:CMMI12;-inkscape-font-specification:CMMI12;writing-mode:lr-tb;fill:#000;fill-opacity:1;fill-rule:nonzero;stroke:none" id="text592" transform="matrix(1,0,0,-1,0,783.103)"><tspan id="tspan590" x="0" y="0">v</tspan></text><text style="font-variant:normal;font-weight:400;font-size:14.34619999px;font-family:CMR12;-inkscape-font-specification:CMR12;writing-mode:lr-tb;fill:#000;fill-opacity:1;fill-rule:nonzero;stroke:none" id="text596" transform="matrix(1,0,0,-1,9.781,780.004)"><tspan id="tspan594" x="0 7.024" y="0">11</tspan></text></g></g></g></g><g id="g598" transform="translate(272.49,335.915)"><g id="g600"><g id="g602" clip-path="url(#clipPath606)"><g id="g608" transform="translate(0,-780.004)"><text style="font-variant:normal;font-weight:400;font-size:20.66250038px;font-family:CMMI12;-inkscape-font-specification:CMMI12;writing-mode:lr-tb;fill:#000;fill-opacity:1;fill-rule:nonzero;stroke:none" id="text612" transform="matrix(1,0,0,-1,0,783.103)"><tspan id="tspan610" x="0" y="0">v</tspan></text><text style="font-variant:normal;font-weight:400;font-size:14.34619999px;font-family:CMR12;-inkscape-font-specification:CMR12;writing-mode:lr-tb;fill:#000;fill-opacity:1;fill-rule:nonzero;stroke:none" id="text616" transform="matrix(1,0,0,-1,9.781,780.004)"><tspan id="tspan614" x="0 7.024" y="0">12</tspan></text></g></g></g></g><g id="g618" transform="translate(339.914,387.61)"><g id="g620"><g id="g622" clip-path="url(#clipPath626)"><g id="g628" transform="translate(0,-780.004)"><text style="font-variant:normal;font-weight:400;font-size:20.66250038px;font-family:CMMI12;-inkscape-font-specification:CMMI12;writing-mode:lr-tb;fill:#000;fill-opacity:1;fill-rule:nonzero;stroke:none" id="text632" transform="matrix(1,0,0,-1,0,783.103)"><tspan id="tspan630" x="0" y="0">v</tspan></text><text style="font-variant:normal;font-weight:400;font-size:14.34619999px;font-family:CMR12;-inkscape-font-specification:CMR12;writing-mode:lr-tb;fill:#000;fill-opacity:1;fill-rule:nonzero;stroke:none" id="text636" transform="matrix(1,0,0,-1,9.781,780.004)"><tspan id="tspan634" x="0 7.024" y="0">13</tspan></text></g></g></g></g><g id="g638" transform="translate(340.178,336.044)"><g id="g640"><g id="g642" clip-path="url(#clipPath646)"><g id="g648" transform="translate(0,-780.004)"><text style="font-variant:normal;font-weight:400;font-size:20.66250038px;font-family:CMMI12;-inkscape-font-specification:CMMI12;writing-mode:lr-tb;fill:#000;fill-opacity:1;fill-rule:nonzero;stroke:none" id="text652" transform="matrix(1,0,0,-1,0,783.103)"><tspan id="tspan650" x="0" y="0">v</tspan></text><text style="font-variant:normal;font-weight:400;font-size:14.34619999px;font-family:CMR12;-inkscape-font-specification:CMR12;writing-mode:lr-tb;fill:#000;fill-opacity:1;fill-rule:nonzero;stroke:none" id="text656" transform="matrix(1,0,0,-1,9.781,780.004)"><tspan id="tspan654" x="0 7.024" y="0">14</tspan></text></g></g></g></g><g id="g658" transform="translate(376.117,335.885)"><g id="g660"><g id="g662" clip-path="url(#clipPath666)"><g id="g668" transform="translate(0,-780.004)"><text style="font-variant:normal;font-weight:400;font-size:20.66250038px;font-family:CMMI12;-inkscape-font-specification:CMMI12;writing-mode:lr-tb;fill:#000;fill-opacity:1;fill-rule:nonzero;stroke:none" id="text672" transform="matrix(1,0,0,-1,0,783.103)"><tspan id="tspan670" x="0" y="0">v</tspan></text><text style="font-variant:normal;font-weight:400;font-size:14.34619999px;font-family:CMR12;-inkscape-font-specification:CMR12;writing-mode:lr-tb;fill:#000;fill-opacity:1;fill-rule:nonzero;stroke:none" id="text676" transform="matrix(1,0,0,-1,9.781,780.004)"><tspan id="tspan674" x="0 7.024" y="0">15</tspan></text></g></g></g></g><g id="g678" transform="translate(440.297,335.927)"><g id="g680"><g id="g682" clip-path="url(#clipPath686)"><g id="g688" transform="translate(0,-780.004)"><text style="font-variant:normal;font-weight:400;font-size:20.66250038px;font-family:CMMI12;-inkscape-font-specification:CMMI12;writing-mode:lr-tb;fill:#000;fill-opacity:1;fill-rule:nonzero;stroke:none" id="text692" transform="matrix(1,0,0,-1,0,783.103)"><tspan id="tspan690" x="0" y="0">v</tspan></text><text style="font-variant:normal;font-weight:400;font-size:14.34619999px;font-family:CMR12;-inkscape-font-specification:CMR12;writing-mode:lr-tb;fill:#000;fill-opacity:1;fill-rule:nonzero;stroke:none" id="text696" transform="matrix(1,0,0,-1,9.781,780.004)"><tspan id="tspan694" x="0 7.024" y="0">16</tspan></text></g></g></g></g><g id="g698" transform="translate(379.985,387.984)"><g id="g700"><g id="g702" clip-path="url(#clipPath706)"><g id="g708" transform="translate(0,-780.004)"><text style="font-variant:normal;font-weight:400;font-size:20.66250038px;font-family:CMMI12;-inkscape-font-specification:CMMI12;writing-mode:lr-tb;fill:#000;fill-opacity:1;fill-rule:nonzero;stroke:none" id="text712" transform="matrix(1,0,0,-1,0,783.103)"><tspan id="tspan710" x="0" y="0">v</tspan></text><text style="font-variant:normal;font-weight:400;font-size:14.34619999px;font-family:CMR12;-inkscape-font-specification:CMR12;writing-mode:lr-tb;fill:#000;fill-opacity:1;fill-rule:nonzero;stroke:none" id="text716" transform="matrix(1,0,0,-1,9.781,780.004)"><tspan id="tspan714" x="0 7.024" y="0">17</tspan></text></g></g></g></g><g id="g718" transform="translate(359.407,358.177)"><g id="g720"><g id="g722" clip-path="url(#clipPath726)"><g id="g728" transform="translate(0,-773.633)"><text style="font-variant:normal;font-weight:400;font-size:20.66250038px;font-family:CMMI12;-inkscape-font-specification:CMMI12;writing-mode:lr-tb;fill:#000;fill-opacity:1;fill-rule:nonzero;stroke:none" id="text732" transform="matrix(1,0,0,-1,0,777.651)"><tspan id="tspan730" x="0" y="0">f</tspan></text><text style="font-variant:normal;font-weight:400;font-size:14.34619999px;font-family:CMR12;-inkscape-font-specification:CMR12;writing-mode:lr-tb;fill:#000;fill-opacity:1;fill-rule:nonzero;stroke:none" id="text736" transform="matrix(1,0,0,-1,9.972,774.551)"><tspan id="tspan734" x="0" y="0">3</tspan></text></g></g></g></g><g id="g738"><path style="fill:#90ee90;fill-opacity:1;fill-rule:evenodd;stroke:#90ee90;stroke-width:2;stroke-linecap:butt;stroke-linejoin:round;stroke-miterlimit:10;stroke-dasharray:none;stroke-opacity:1" id="path740" d="M 336,464 480,608"/></g><g id="g742"><path style="fill:#90ee90;fill-opacity:1;fill-rule:evenodd;stroke:#90ee90;stroke-width:2;stroke-linecap:butt;stroke-linejoin:round;stroke-miterlimit:10;stroke-dasharray:none;stroke-opacity:1" id="path744" d="M 480,464 H 336"/></g><g id="g746"><g id="g748"><path style="fill:#fff;fill-opacity:1;fill-rule:evenodd;stroke:none" id="path750" d="m 418.5,544 c 0,1.381 -1.119,2.5 -2.5,2.5 -1.381,0 -2.5,-1.119 -2.5,-2.5 0,-1.381 1.119,-2.5 2.5,-2.5 1.381,0 2.5,1.119 2.5,2.5"/></g><g id="g752"><path style="fill:#90ee90;fill-opacity:1;fill-rule:evenodd;stroke:none" id="path754" d="m 419,544 c 0,1.657 -1.343,3 -3,3 -1.657,0 -3,-1.343 -3,-3 0,-1.657 1.343,-3 3,-3 1.657,0 3,1.343 3,3 m -1,0 c 0,1.105 -0.895,2 -2,2 -1.105,0 -2,-0.895 -2,-2 0,-1.105 0.895,-2 2,-2 1.105,0 2,0.895 2,2"/></g></g><g id="g756"><g id="g758"><path style="fill:#fff;fill-opacity:1;fill-rule:evenodd;stroke:none" id="path760" d="m 450.5,352 c 0,1.381 -1.119,2.5 -2.5,2.5 -1.381,0 -2.5,-1.119 -2.5,-2.5 0,-1.381 1.119,-2.5 2.5,-2.5 1.381,0 2.5,1.119 2.5,2.5"/></g><g id="g762"><path style="fill:#90ee90;fill-opacity:1;fill-rule:evenodd;stroke:none" id="path764" d="m 451,352 c 0,1.657 -1.343,3 -3,3 -1.657,0 -3,-1.343 -3,-3 0,-1.657 1.343,-3 3,-3 1.657,0 3,1.343 3,3 m -1,0 c 0,1.105 -0.895,2 -2,2 -1.105,0 -2,-0.895 -2,-2 0,-1.105 0.895,-2 2,-2 1.105,0 2,0.895 2,2"/></g></g></g></svg>