<svg xmlns="http://www.w3.org/2000/svg" xmlns:svg="http://www.w3.org/2000/svg" id="svg4357" width="822.511" height="405.453" version="1.1"><metadata id="metadata4362"/><g id="layer1" transform="translate(-155.24425,-327.7485)"><path style="fill:none;stroke:#999;stroke-width:3.75;stroke-linecap:butt;stroke-linejoin:miter;stroke-miterlimit:10;stroke-opacity:1;stroke-dasharray:none" id="path4401-0-1" d="m 777.08296,630.37516 95.96774,1.94333"/><path style="fill:none;stroke:#999;stroke-width:3.75;stroke-linecap:butt;stroke-linejoin:miter;stroke-miterlimit:10;stroke-opacity:1;stroke-dasharray:none" id="path4395-0-5" d="m 627.36702,530.89748 96.20608,0.89868"/><path style="fill:none;stroke:#999;stroke-width:3.75;stroke-linecap:butt;stroke-linejoin:miter;stroke-miterlimit:10;stroke-opacity:1;stroke-dasharray:none" id="path4379" d="M 158.99425,530.36225 208.71012,331.4985"/><path style="fill:none;stroke:#999;stroke-width:3.75;stroke-linecap:butt;stroke-linejoin:miter;stroke-miterlimit:10;stroke-opacity:1;stroke-dasharray:none" id="path4381" d="m 208.71012,430.931 0,-99.4325"/><path style="fill:none;stroke:#00f;stroke-width:3.75;stroke-linecap:butt;stroke-linejoin:miter;stroke-miterlimit:10;stroke-opacity:1;stroke-dasharray:none" id="path4383" d="M 158.99425,530.36225 208.71012,430.931"/><path style="fill:none;stroke:#999;stroke-width:3.75;stroke-linecap:butt;stroke-linejoin:miter;stroke-miterlimit:10;stroke-opacity:1;stroke-dasharray:none" id="path4385" d="m 208.71012,430.931 0,198.86312"/><path style="fill:none;stroke:#00f;stroke-width:3.75;stroke-linecap:butt;stroke-linejoin:miter;stroke-miterlimit:10;stroke-opacity:1;stroke-dasharray:none" id="path4387" d="m 258.42575,530.36225 -49.71563,99.43187"/><path style="fill:none;stroke:#00f;stroke-width:3.75;stroke-linecap:butt;stroke-linejoin:miter;stroke-miterlimit:10;stroke-opacity:1;stroke-dasharray:none" id="path4389" d="m 208.71012,430.931 49.71563,99.43125"/><path style="fill:none;stroke:#00f;stroke-width:3.75;stroke-linecap:butt;stroke-linejoin:miter;stroke-miterlimit:10;stroke-opacity:1;stroke-dasharray:none" id="path4391" d="m 208.71012,331.4985 49.71563,198.86375"/><path style="fill:none;stroke:#00f;stroke-width:3.75;stroke-linecap:butt;stroke-linejoin:miter;stroke-miterlimit:10;stroke-opacity:1;stroke-dasharray:none" id="path4393" d="M 258.42575,530.36225 208.71012,729.22587"/><path style="fill:none;stroke:#999;stroke-width:3.75;stroke-linecap:butt;stroke-linejoin:miter;stroke-miterlimit:10;stroke-opacity:1;stroke-dasharray:none" id="path4395" d="M 208.71012,729.22587 308.142,430.931"/><path style="fill:none;stroke:#999;stroke-width:3.75;stroke-linecap:butt;stroke-linejoin:miter;stroke-miterlimit:10;stroke-opacity:1;stroke-dasharray:none" id="path4397" d="m 308.142,430.931 -49.71625,99.43125"/><path style="fill:none;stroke:#00f;stroke-width:3.75;stroke-linecap:butt;stroke-linejoin:miter;stroke-miterlimit:10;stroke-opacity:1;stroke-dasharray:none" id="path4399" d="M 208.71012,729.22587 308.142,629.79412"/><path style="fill:none;stroke:#999;stroke-width:3.75;stroke-linecap:butt;stroke-linejoin:miter;stroke-miterlimit:10;stroke-opacity:1;stroke-dasharray:none" id="path4401" d="m 308.142,629.79412 0,-198.86312"/><path style="fill:none;stroke:#00f;stroke-width:3.75;stroke-linecap:butt;stroke-linejoin:miter;stroke-miterlimit:10;stroke-opacity:1;stroke-dasharray:none" id="path4403" d="M 407.57325,729.22587 308.142,629.79412"/><path style="fill:none;stroke:#00f;stroke-width:3.75;stroke-linecap:butt;stroke-linejoin:miter;stroke-miterlimit:10;stroke-opacity:1;stroke-dasharray:none" id="path4405" d="M 208.71012,331.4985 308.142,430.931"/><path style="fill:none;stroke:#00f;stroke-width:3.75;stroke-linecap:butt;stroke-linejoin:miter;stroke-miterlimit:10;stroke-opacity:1;stroke-dasharray:none" id="path4407" d="m 308.142,430.931 99.43125,-99.4325"/><path style="fill:none;stroke:#999;stroke-width:3.75;stroke-linecap:butt;stroke-linejoin:miter;stroke-miterlimit:10;stroke-opacity:1;stroke-dasharray:none" id="path4409" d="m 407.57325,331.4985 -198.86313,0"/><path style="fill:none;stroke:#999;stroke-width:3.75;stroke-linecap:butt;stroke-linejoin:miter;stroke-miterlimit:10;stroke-opacity:1;stroke-dasharray:none" id="path4411" d="M 308.142,629.79412 407.57325,331.4985"/><path style="fill:none;stroke:#999;stroke-width:3.75;stroke-linecap:butt;stroke-linejoin:miter;stroke-miterlimit:10;stroke-opacity:1;stroke-dasharray:none" id="path4413" d="m 308.142,629.79412 49.71625,-99.43187"/><path style="fill:none;stroke:#999;stroke-width:3.75;stroke-linecap:butt;stroke-linejoin:miter;stroke-miterlimit:10;stroke-opacity:1;stroke-dasharray:none" id="path4415" d="m 357.85825,530.36225 49.715,-198.86375"/><path style="fill:none;stroke:#999;stroke-width:3.75;stroke-linecap:butt;stroke-linejoin:miter;stroke-miterlimit:10;stroke-opacity:1;stroke-dasharray:none" id="path4417" d="m 407.57325,729.22587 -49.715,-198.86362"/><path style="fill:none;stroke:#00f;stroke-width:3.75;stroke-linecap:butt;stroke-linejoin:miter;stroke-miterlimit:10;stroke-opacity:1;stroke-dasharray:none" id="path4419" d="m 407.57325,629.79412 -49.715,-99.43187"/><path style="fill:none;stroke:#999;stroke-width:3.75;stroke-linecap:butt;stroke-linejoin:miter;stroke-miterlimit:10;stroke-opacity:1;stroke-dasharray:none" id="path4421" d="m 407.57325,729.22587 0,-99.43175"/><path style="fill:none;stroke:#00f;stroke-width:3.75;stroke-linecap:butt;stroke-linejoin:miter;stroke-miterlimit:10;stroke-opacity:1;stroke-dasharray:none" id="path4423" d="m 357.85825,530.36225 49.715,-99.43125"/><path style="fill:none;stroke:#999;stroke-width:3.75;stroke-linecap:butt;stroke-linejoin:miter;stroke-miterlimit:10;stroke-opacity:1;stroke-dasharray:none" id="path4425" d="m 407.57325,430.931 0,-99.4325"/><path style="fill:none;stroke:#999;stroke-width:3.75;stroke-linecap:butt;stroke-linejoin:miter;stroke-miterlimit:10;stroke-opacity:1;stroke-dasharray:none" id="path4427" d="m 407.57325,629.79412 0,-198.86312"/><path style="fill:none;stroke:#00f;stroke-width:3.75;stroke-linecap:butt;stroke-linejoin:miter;stroke-miterlimit:10;stroke-opacity:1;stroke-dasharray:none" id="path4429" d="M 407.57325,629.79412 457.2895,530.36225"/><path style="fill:none;stroke:#00f;stroke-width:3.75;stroke-linecap:butt;stroke-linejoin:miter;stroke-miterlimit:10;stroke-opacity:1;stroke-dasharray:none" id="path4431" d="M 457.2895,530.36225 407.57325,430.931"/><path style="fill:none;stroke:#999;stroke-width:3.75;stroke-linecap:butt;stroke-linejoin:miter;stroke-miterlimit:10;stroke-opacity:1;stroke-dasharray:none" id="path4435" d="m 507.00575,530.36225 -99.4325,99.43187"/><path style="fill:none;stroke:#999;stroke-width:3.75;stroke-linecap:butt;stroke-linejoin:miter;stroke-miterlimit:10;stroke-opacity:1;stroke-dasharray:none" id="path4437" d="m 407.57325,430.931 99.4325,99.43125"/><path style="fill:none;stroke:#00f;stroke-width:3.75;stroke-linecap:butt;stroke-linejoin:miter;stroke-miterlimit:10;stroke-opacity:1;stroke-dasharray:none" id="path4439" d="m 407.57325,331.4985 99.4325,198.86375"/><path style="fill:none;stroke:#00f;stroke-width:3.75;stroke-linecap:butt;stroke-linejoin:miter;stroke-miterlimit:10;stroke-opacity:1;stroke-dasharray:none" id="path4441" d="m 507.00575,530.36225 -99.4325,198.86362"/><path style="fill:#000;stroke:#999;stroke-width:3.75;stroke-linecap:butt;stroke-linejoin:miter;stroke-miterlimit:10;stroke-opacity:1;stroke-dasharray:none" id="path4443" d="m 407.57325,729.22587 -198.86313,0"/><path style="fill:none;stroke:#999;stroke-width:3.75;stroke-linecap:butt;stroke-linejoin:miter;stroke-miterlimit:10;stroke-opacity:1;stroke-dasharray:none" id="path4445" d="m 158.99425,530.36225 49.71587,198.86362"/><path style="fill:none;stroke:#999;stroke-width:3.75;stroke-linecap:butt;stroke-linejoin:miter;stroke-miterlimit:10;stroke-opacity:1;stroke-dasharray:none" id="path4447" d="m 208.71012,729.22587 0,-99.43175"/><path style="fill:none;stroke:#00f;stroke-width:3.75;stroke-linecap:butt;stroke-linejoin:miter;stroke-miterlimit:10;stroke-opacity:1;stroke-dasharray:none" id="path4449" d="M 208.71012,629.79412 158.99425,530.36225"/><path style="fill:none;stroke:#333;stroke-width:3.75;stroke-linecap:butt;stroke-linejoin:miter;stroke-miterlimit:10;stroke-opacity:1;stroke-dasharray:none" id="path4481" d="M 258.42575,530.36225 208.71012,331.4985"/><path style="fill:none;stroke:#333;stroke-width:3.75;stroke-linecap:butt;stroke-linejoin:miter;stroke-miterlimit:10;stroke-opacity:1;stroke-dasharray:none" id="path4483" d="M 258.42575,530.36225 208.71012,729.22587"/><path style="fill:none;stroke:#333;stroke-width:3.75;stroke-linecap:butt;stroke-linejoin:miter;stroke-miterlimit:10;stroke-opacity:1;stroke-dasharray:none" id="path4485" d="M 208.71012,331.4985 308.142,430.931"/><path style="fill:none;stroke:#333;stroke-width:3.75;stroke-linecap:butt;stroke-linejoin:miter;stroke-miterlimit:10;stroke-opacity:1;stroke-dasharray:none" id="path4487" d="M 208.71012,729.22587 308.142,629.79412"/><path style="fill:none;stroke:#333;stroke-width:3.75;stroke-linecap:butt;stroke-linejoin:miter;stroke-miterlimit:10;stroke-opacity:1;stroke-dasharray:none" id="path4489" d="m 308.142,430.931 99.43125,-99.4325"/><path style="fill:none;stroke:#333;stroke-width:3.75;stroke-linecap:butt;stroke-linejoin:miter;stroke-miterlimit:10;stroke-opacity:1;stroke-dasharray:none" id="path4491" d="m 308.142,629.79412 99.43125,99.43175"/><path style="fill:none;stroke:#333;stroke-width:3.75;stroke-linecap:butt;stroke-linejoin:miter;stroke-miterlimit:10;stroke-opacity:1;stroke-dasharray:none" id="path4493" d="m 407.57325,331.4985 99.4325,198.86375"/><path style="fill:none;stroke:#333;stroke-width:3.75;stroke-linecap:butt;stroke-linejoin:miter;stroke-miterlimit:10;stroke-opacity:1;stroke-dasharray:none" id="path4495" d="m 407.57325,729.22587 99.4325,-198.86362"/><path style="fill:none;stroke:#333;stroke-width:3.75;stroke-linecap:butt;stroke-linejoin:miter;stroke-miterlimit:10;stroke-opacity:1;stroke-dasharray:none" id="path4497" d="m 357.85825,530.36225 49.715,-99.43125"/><path style="fill:none;stroke:#333;stroke-width:3.75;stroke-linecap:butt;stroke-linejoin:miter;stroke-miterlimit:10;stroke-opacity:1;stroke-dasharray:none" id="path4499" d="m 357.85825,530.36225 49.715,99.43187"/><path style="fill:none;stroke:#333;stroke-width:3.75;stroke-linecap:butt;stroke-linejoin:miter;stroke-miterlimit:10;stroke-opacity:1;stroke-dasharray:none" id="path4501" d="m 407.57325,430.931 49.71625,99.43125"/><path style="fill:none;stroke:#333;stroke-width:3.75;stroke-linecap:butt;stroke-linejoin:miter;stroke-miterlimit:10;stroke-opacity:1;stroke-dasharray:none" id="path4503" d="M 407.57325,629.79412 457.2895,530.36225"/><path style="fill:none;stroke:#333;stroke-width:3.75;stroke-linecap:butt;stroke-linejoin:miter;stroke-miterlimit:10;stroke-opacity:1;stroke-dasharray:none" id="path4505" d="M 258.42575,530.36225 208.71012,430.931"/><path style="fill:none;stroke:#333;stroke-width:3.75;stroke-linecap:butt;stroke-linejoin:miter;stroke-miterlimit:10;stroke-opacity:1;stroke-dasharray:none" id="path4507" d="m 258.42575,530.36225 -49.71563,99.43187"/><path style="fill:none;stroke:#333;stroke-width:3.75;stroke-linecap:butt;stroke-linejoin:miter;stroke-miterlimit:10;stroke-opacity:1;stroke-dasharray:none" id="path4509" d="m 208.71012,430.931 -49.71587,99.43125"/><path style="fill:none;stroke:#333;stroke-width:3.75;stroke-linecap:butt;stroke-linejoin:miter;stroke-miterlimit:10;stroke-opacity:1;stroke-dasharray:none" id="path4511" d="M 208.71012,629.79412 158.99425,530.36225"/><path style="fill:#000;fill-opacity:1;fill-rule:nonzero;stroke:none" id="path4455" d="m 212.46012,432.931 c 0,-2.07125 -1.679,-3.75 -3.75,-3.75 -2.071,0 -3.75,1.67875 -3.75,3.75 0,2.07125 1.679,3.75 3.75,3.75 2.071,0 3.75,-1.67875 3.75,-3.75"/><path style="fill:#000;fill-opacity:1;fill-rule:nonzero;stroke:none" id="path4461" d="m 311.892,430.931 c 0,-2.07125 -1.67875,-3.75 -3.75,-3.75 -2.07125,0 -3.75,1.67875 -3.75,3.75 0,2.07125 1.67875,3.75 3.75,3.75 2.07125,0 3.75,-1.67875 3.75,-3.75"/><path style="fill:#000;fill-opacity:1;fill-rule:nonzero;stroke:none" id="path4471" d="m 411.32325,432.931 c 0,-2.07125 -1.67875,-3.75 -3.75,-3.75 -2.07125,0 -3.75,1.67875 -3.75,3.75 0,2.07125 1.67875,3.75 3.75,3.75 2.07125,0 3.75,-1.67875 3.75,-3.75"/><path style="fill:#000;stroke:#999;stroke-width:3.75;stroke-linecap:butt;stroke-linejoin:miter;stroke-miterlimit:10;stroke-opacity:1;stroke-dasharray:none" id="path4433" d="m 507.00575,530.36225 -49.71625,0"/><path style="fill:#000;fill-opacity:1;fill-rule:nonzero;stroke:none" id="path4459" d="m 262.17575,530.36225 c 0,-2.07125 -1.67875,-3.75 -3.75,-3.75 -2.07125,0 -3.75,1.67875 -3.75,3.75 0,2.07125 1.67875,3.75 3.75,3.75 2.07125,0 3.75,-1.67875 3.75,-3.75"/><path style="fill:#000;fill-opacity:1;fill-rule:nonzero;stroke:none" id="path4467" d="m 361.60825,530.36225 c 0,-2.07125 -1.67875,-3.75 -3.75,-3.75 -2.07125,0 -3.75,1.67875 -3.75,3.75 0,2.07125 1.67875,3.75 3.75,3.75 2.07125,0 3.75,-1.67875 3.75,-3.75"/><path style="fill:#000;fill-opacity:1;fill-rule:nonzero;stroke:none" id="path4475" d="m 461.0395,530.36225 c 0,-2.07125 -1.67875,-3.75 -3.75,-3.75 -2.07125,0 -3.75,1.67875 -3.75,3.75 0,2.07125 1.67875,3.75 3.75,3.75 2.07125,0 3.75,-1.67875 3.75,-3.75"/><path style="fill:#000;fill-opacity:1;fill-rule:nonzero;stroke:none" id="path4477" d="m 510.75575,530.36225 c 0,-2.07125 -1.67875,-3.75 -3.75,-3.75 -2.07125,0 -3.75,1.67875 -3.75,3.75 0,2.07125 1.67875,3.75 3.75,3.75 2.07125,0 3.75,-1.67875 3.75,-3.75"/><path style="fill:#000;fill-opacity:1;fill-rule:nonzero;stroke:none" id="path4453" d="m 162.74425,530.36225 c 0,-2.07125 -1.679,-3.75 -3.75,-3.75 -2.071,0 -3.75,1.67875 -3.75,3.75 0,2.07125 1.679,3.75 3.75,3.75 2.071,0 3.75,-1.67875 3.75,-3.75"/><path style="fill:#000;fill-opacity:1;fill-rule:nonzero;stroke:none" id="path4457" d="m 212.46012,629.79412 c 0,-2.071 -1.679,-3.75 -3.75,-3.75 -2.071,0 -3.75,1.679 -3.75,3.75 0,2.07101 1.679,3.75 3.75,3.75 2.071,0 3.75,-1.67899 3.75,-3.75"/><path style="fill:#000;fill-opacity:1;fill-rule:nonzero;stroke:none" id="path4463" d="m 311.892,629.79412 c 0,-2.071 -1.67875,-3.75 -3.75,-3.75 -2.07125,0 -3.75,1.679 -3.75,3.75 0,2.07101 1.67875,3.75 3.75,3.75 2.07125,0 3.75,-1.67899 3.75,-3.75"/><path style="fill:#000;fill-opacity:1;fill-rule:nonzero;stroke:none" id="path4473" d="m 411.32325,629.79412 c 0,-2.071 -1.67875,-3.75 -3.75,-3.75 -2.07125,0 -3.75,1.679 -3.75,3.75 0,2.07101 1.67875,3.75 3.75,3.75 2.07125,0 3.75,-1.67899 3.75,-3.75"/><path style="fill:#000;fill-opacity:1;fill-rule:nonzero;stroke:none" id="path4479" d="m 212.46012,729.22587 c 0,-2.07099 -1.679,-3.75 -3.75,-3.75 -2.071,0 -3.75,1.67901 -3.75,3.75 0,2.07113 1.679,3.75 3.75,3.75 2.071,0 3.75,-1.67887 3.75,-3.75"/><path style="fill:#000;fill-opacity:1;fill-rule:nonzero;stroke:none" id="path4451" d="m 212.46012,331.4985 c 0,-2.07125 -1.679,-3.75 -3.75,-3.75 -2.071,0 -3.75,1.67875 -3.75,3.75 0,2.07125 1.679,3.75 3.75,3.75 2.071,0 3.75,-1.67875 3.75,-3.75"/><path style="fill:#000;fill-opacity:1;fill-rule:nonzero;stroke:none" id="path4465" d="m 411.32325,331.4985 c 0,-2.07125 -1.67875,-3.75 -3.75,-3.75 -2.07125,0 -3.75,1.67875 -3.75,3.75 0,2.07125 1.67875,3.75 3.75,3.75 2.07125,0 3.75,-1.67875 3.75,-3.75"/><path style="fill:#000;fill-opacity:1;fill-rule:nonzero;stroke:none" id="path4469" d="m 411.32325,729.22587 c 0,-2.07099 -1.67875,-3.75 -3.75,-3.75 -2.07125,0 -3.75,1.67901 -3.75,3.75 0,2.07113 1.67875,3.75 3.75,3.75 2.07125,0 3.75,-1.67887 3.75,-3.75"/><path style="fill:none;stroke:#999;stroke-width:3.75;stroke-linecap:butt;stroke-linejoin:miter;stroke-miterlimit:10;stroke-opacity:1;stroke-dasharray:none" id="path4379-2" d="M 625.99425,530.58805 675.71012,331.7243"/><path style="fill:none;stroke:#999;stroke-width:3.75;stroke-linecap:butt;stroke-linejoin:miter;stroke-miterlimit:10;stroke-opacity:1;stroke-dasharray:none" id="path4381-7" d="m 675.71012,431.1568 0,-99.4325"/><path style="fill:none;stroke:#00f;stroke-width:3.75;stroke-linecap:butt;stroke-linejoin:miter;stroke-miterlimit:10;stroke-opacity:1;stroke-dasharray:none" id="path4383-8" d="M 625.99425,530.58805 675.71012,431.1568"/><path style="fill:none;stroke:#00f;stroke-width:3.75;stroke-linecap:butt;stroke-linejoin:miter;stroke-miterlimit:10;stroke-opacity:1;stroke-dasharray:none" id="path4387-0" d="m 725.42575,530.58805 -49.71563,99.43187"/><path style="fill:none;stroke:#00f;stroke-width:3.75;stroke-linecap:butt;stroke-linejoin:miter;stroke-miterlimit:10;stroke-opacity:1;stroke-dasharray:none" id="path4389-3" d="m 675.71012,431.1568 49.71563,99.43125"/><path style="fill:none;stroke:#00f;stroke-width:3.75;stroke-linecap:butt;stroke-linejoin:miter;stroke-miterlimit:10;stroke-opacity:1;stroke-dasharray:none" id="path4391-3" d="m 675.71012,331.7243 49.71563,198.86375"/><path style="fill:none;stroke:#00f;stroke-width:3.75;stroke-linecap:butt;stroke-linejoin:miter;stroke-miterlimit:10;stroke-opacity:1;stroke-dasharray:none" id="path4393-6" d="M 725.42575,530.58805 675.71012,729.45167"/><path style="fill:none;stroke:#999;stroke-width:3.75;stroke-linecap:butt;stroke-linejoin:miter;stroke-miterlimit:10;stroke-opacity:1;stroke-dasharray:none" id="path4395-0" d="M 823.29077,529.45167 775.142,431.1568"/><path style="fill:none;stroke:#999;stroke-width:3.75;stroke-linecap:butt;stroke-linejoin:miter;stroke-miterlimit:10;stroke-opacity:1;stroke-dasharray:none" id="path4397-8" d="m 775.142,431.1568 -49.71625,99.43125"/><path style="fill:none;stroke:#00f;stroke-width:3.75;stroke-linecap:butt;stroke-linejoin:miter;stroke-miterlimit:10;stroke-opacity:1;stroke-dasharray:none" id="path4399-9" d="M 675.71012,729.45167 775.142,630.01992"/><path style="fill:none;stroke:#999;stroke-width:3.75;stroke-linecap:butt;stroke-linejoin:miter;stroke-miterlimit:10;stroke-opacity:1;stroke-dasharray:none" id="path4401-0" d="m 725.94846,530.82637 96.77419,-1.28247"/><path style="fill:none;stroke:#00f;stroke-width:3.75;stroke-linecap:butt;stroke-linejoin:miter;stroke-miterlimit:10;stroke-opacity:1;stroke-dasharray:none" id="path4403-0" d="M 874.57325,729.45167 775.142,630.01992"/><path style="fill:none;stroke:#00f;stroke-width:3.75;stroke-linecap:butt;stroke-linejoin:miter;stroke-miterlimit:10;stroke-opacity:1;stroke-dasharray:none" id="path4405-3" d="M 675.71012,331.7243 775.142,431.1568"/><path style="fill:none;stroke:#00f;stroke-width:3.75;stroke-linecap:butt;stroke-linejoin:miter;stroke-miterlimit:10;stroke-opacity:1;stroke-dasharray:none" id="path4407-1" d="m 775.142,431.1568 99.43125,-99.4325"/><path style="fill:none;stroke:#999;stroke-width:3.75;stroke-linecap:butt;stroke-linejoin:miter;stroke-miterlimit:10;stroke-opacity:1;stroke-dasharray:none" id="path4409-8" d="m 874.57325,331.7243 -198.86313,0"/><path style="fill:none;stroke:#999;stroke-width:3.75;stroke-linecap:butt;stroke-linejoin:miter;stroke-miterlimit:10;stroke-opacity:1;stroke-dasharray:none" id="path4413-4" d="m 775.142,630.01992 49.71625,-99.43187"/><path style="fill:none;stroke:#999;stroke-width:3.75;stroke-linecap:butt;stroke-linejoin:miter;stroke-miterlimit:10;stroke-opacity:1;stroke-dasharray:none" id="path4415-9" d="m 774.85825,430.58805 98.90855,2.74915"/><path style="fill:none;stroke:#00f;stroke-width:3.75;stroke-linecap:butt;stroke-linejoin:miter;stroke-miterlimit:10;stroke-opacity:1;stroke-dasharray:none" id="path4419-7" d="m 874.57325,630.01992 -49.715,-99.43187"/><path style="fill:none;stroke:#999;stroke-width:3.75;stroke-linecap:butt;stroke-linejoin:miter;stroke-miterlimit:10;stroke-opacity:1;stroke-dasharray:none" id="path4421-1" d="m 874.57325,729.45167 0,-99.43175"/><path style="fill:none;stroke:#00f;stroke-width:3.75;stroke-linecap:butt;stroke-linejoin:miter;stroke-miterlimit:10;stroke-opacity:1;stroke-dasharray:none" id="path4423-7" d="m 824.85825,530.58805 49.715,-99.43125"/><path style="fill:none;stroke:#999;stroke-width:3.75;stroke-linecap:butt;stroke-linejoin:miter;stroke-miterlimit:10;stroke-opacity:1;stroke-dasharray:none" id="path4425-5" d="m 874.57325,431.1568 0,-99.4325"/><path style="fill:none;stroke:#999;stroke-width:3.75;stroke-linecap:butt;stroke-linejoin:miter;stroke-miterlimit:10;stroke-opacity:1;stroke-dasharray:none" id="path4427-5" d="m 826.18615,530.01992 97.58065,0.33043"/><path style="fill:none;stroke:#00f;stroke-width:3.75;stroke-linecap:butt;stroke-linejoin:miter;stroke-miterlimit:10;stroke-opacity:1;stroke-dasharray:none" id="path4429-5" d="M 874.57325,630.01992 924.2895,530.58805"/><path style="fill:none;stroke:#00f;stroke-width:3.75;stroke-linecap:butt;stroke-linejoin:miter;stroke-miterlimit:10;stroke-opacity:1;stroke-dasharray:none" id="path4431-7" d="M 924.2895,530.58805 874.57325,431.1568"/><path style="fill:none;stroke:#999;stroke-width:3.75;stroke-linecap:butt;stroke-linejoin:miter;stroke-miterlimit:10;stroke-opacity:1;stroke-dasharray:none" id="path4435-7" d="m 974.00575,530.58805 -99.4325,99.43187"/><path style="fill:none;stroke:#999;stroke-width:3.75;stroke-linecap:butt;stroke-linejoin:miter;stroke-miterlimit:10;stroke-opacity:1;stroke-dasharray:none" id="path4437-0" d="m 874.57325,431.1568 99.4325,99.43125"/><path style="fill:none;stroke:#00f;stroke-width:3.75;stroke-linecap:butt;stroke-linejoin:miter;stroke-miterlimit:10;stroke-opacity:1;stroke-dasharray:none" id="path4439-2" d="m 874.57325,331.7243 99.4325,198.86375"/><path style="fill:none;stroke:#00f;stroke-width:3.75;stroke-linecap:butt;stroke-linejoin:miter;stroke-miterlimit:10;stroke-opacity:1;stroke-dasharray:none" id="path4441-1" d="m 974.00575,530.58805 -99.4325,198.86362"/><path style="fill:#000;stroke:#999;stroke-width:3.75;stroke-linecap:butt;stroke-linejoin:miter;stroke-miterlimit:10;stroke-opacity:1;stroke-dasharray:none" id="path4443-4" d="m 874.57325,729.45167 -198.86313,0"/><path style="fill:none;stroke:#999;stroke-width:3.75;stroke-linecap:butt;stroke-linejoin:miter;stroke-miterlimit:10;stroke-opacity:1;stroke-dasharray:none" id="path4445-3" d="m 625.99425,530.58805 49.71587,198.86362"/><path style="fill:none;stroke:#999;stroke-width:3.75;stroke-linecap:butt;stroke-linejoin:miter;stroke-miterlimit:10;stroke-opacity:1;stroke-dasharray:none" id="path4447-8" d="m 675.71012,729.45167 0,-99.43175"/><path style="fill:none;stroke:#00f;stroke-width:3.75;stroke-linecap:butt;stroke-linejoin:miter;stroke-miterlimit:10;stroke-opacity:1;stroke-dasharray:none" id="path4449-6" d="M 675.71012,630.01992 625.99425,530.58805"/><path style="fill:none;stroke:#333;stroke-width:3.75;stroke-linecap:butt;stroke-linejoin:miter;stroke-miterlimit:10;stroke-opacity:1;stroke-dasharray:none" id="path4481-5" d="M 725.42575,530.58805 675.71012,331.7243"/><path style="fill:none;stroke:#333;stroke-width:3.75;stroke-linecap:butt;stroke-linejoin:miter;stroke-miterlimit:10;stroke-opacity:1;stroke-dasharray:none" id="path4483-7" d="M 725.42575,530.58805 675.71012,729.45167"/><path style="fill:none;stroke:#333;stroke-width:3.75;stroke-linecap:butt;stroke-linejoin:miter;stroke-miterlimit:10;stroke-opacity:1;stroke-dasharray:none" id="path4485-5" d="M 675.71012,331.7243 775.142,431.1568"/><path style="fill:none;stroke:#333;stroke-width:3.75;stroke-linecap:butt;stroke-linejoin:miter;stroke-miterlimit:10;stroke-opacity:1;stroke-dasharray:none" id="path4487-6" d="M 675.71012,729.45167 775.142,630.01992"/><path style="fill:none;stroke:#333;stroke-width:3.75;stroke-linecap:butt;stroke-linejoin:miter;stroke-miterlimit:10;stroke-opacity:1;stroke-dasharray:none" id="path4489-7" d="m 775.142,431.1568 99.43125,-99.4325"/><path style="fill:none;stroke:#333;stroke-width:3.75;stroke-linecap:butt;stroke-linejoin:miter;stroke-miterlimit:10;stroke-opacity:1;stroke-dasharray:none" id="path4491-4" d="m 775.142,630.01992 99.43125,99.43175"/><path style="fill:none;stroke:#333;stroke-width:3.75;stroke-linecap:butt;stroke-linejoin:miter;stroke-miterlimit:10;stroke-opacity:1;stroke-dasharray:none" id="path4493-3" d="m 874.57325,331.7243 99.4325,198.86375"/><path style="fill:none;stroke:#333;stroke-width:3.75;stroke-linecap:butt;stroke-linejoin:miter;stroke-miterlimit:10;stroke-opacity:1;stroke-dasharray:none" id="path4495-4" d="m 874.57325,729.45167 99.4325,-198.86362"/><path style="fill:none;stroke:#333;stroke-width:3.75;stroke-linecap:butt;stroke-linejoin:miter;stroke-miterlimit:10;stroke-opacity:1;stroke-dasharray:none" id="path4497-4" d="m 824.85825,530.58805 49.715,-99.43125"/><path style="fill:none;stroke:#333;stroke-width:3.75;stroke-linecap:butt;stroke-linejoin:miter;stroke-miterlimit:10;stroke-opacity:1;stroke-dasharray:none" id="path4499-5" d="m 824.85825,530.58805 49.715,99.43187"/><path style="fill:none;stroke:#333;stroke-width:3.75;stroke-linecap:butt;stroke-linejoin:miter;stroke-miterlimit:10;stroke-opacity:1;stroke-dasharray:none" id="path4501-3" d="m 874.57325,431.1568 49.71625,99.43125"/><path style="fill:none;stroke:#333;stroke-width:3.75;stroke-linecap:butt;stroke-linejoin:miter;stroke-miterlimit:10;stroke-opacity:1;stroke-dasharray:none" id="path4503-9" d="M 874.57325,630.01992 924.2895,530.58805"/><path style="fill:none;stroke:#333;stroke-width:3.75;stroke-linecap:butt;stroke-linejoin:miter;stroke-miterlimit:10;stroke-opacity:1;stroke-dasharray:none" id="path4505-6" d="M 725.42575,530.58805 675.71012,431.1568"/><path style="fill:none;stroke:#333;stroke-width:3.75;stroke-linecap:butt;stroke-linejoin:miter;stroke-miterlimit:10;stroke-opacity:1;stroke-dasharray:none" id="path4507-5" d="m 725.42575,530.58805 -49.71563,99.43187"/><path style="fill:none;stroke:#333;stroke-width:3.75;stroke-linecap:butt;stroke-linejoin:miter;stroke-miterlimit:10;stroke-opacity:1;stroke-dasharray:none" id="path4509-0" d="m 675.71012,431.1568 -49.71587,99.43125"/><path style="fill:none;stroke:#333;stroke-width:3.75;stroke-linecap:butt;stroke-linejoin:miter;stroke-miterlimit:10;stroke-opacity:1;stroke-dasharray:none" id="path4511-0" d="M 675.71012,630.01992 625.99425,530.58805"/><path style="fill:#000;fill-opacity:1;fill-rule:nonzero;stroke:none" id="path4455-7" d="m 679.46012,433.1568 c 0,-2.07125 -1.679,-3.75 -3.75,-3.75 -2.071,0 -3.75,1.67875 -3.75,3.75 0,2.07125 1.679,3.75 3.75,3.75 2.071,0 3.75,-1.67875 3.75,-3.75"/><path style="fill:#000;fill-opacity:1;fill-rule:nonzero;stroke:none" id="path4461-2" d="m 778.892,431.1568 c 0,-2.07125 -1.67875,-3.75 -3.75,-3.75 -2.07125,0 -3.75,1.67875 -3.75,3.75 0,2.07125 1.67875,3.75 3.75,3.75 2.07125,0 3.75,-1.67875 3.75,-3.75"/><path style="fill:#000;fill-opacity:1;fill-rule:nonzero;stroke:none" id="path4471-0" d="m 878.32325,433.1568 c 0,-2.07125 -1.67875,-3.75 -3.75,-3.75 -2.07125,0 -3.75,1.67875 -3.75,3.75 0,2.07125 1.67875,3.75 3.75,3.75 2.07125,0 3.75,-1.67875 3.75,-3.75"/><path style="fill:#000;stroke:#999;stroke-width:3.75;stroke-linecap:butt;stroke-linejoin:miter;stroke-miterlimit:10;stroke-opacity:1;stroke-dasharray:none" id="path4433-3" d="m 974.00575,530.58805 -49.71625,0"/><path style="fill:#000;fill-opacity:1;fill-rule:nonzero;stroke:none" id="path4459-9" d="m 729.17575,530.58805 c 0,-2.07125 -1.67875,-3.75 -3.75,-3.75 -2.07125,0 -3.75,1.67875 -3.75,3.75 0,2.07125 1.67875,3.75 3.75,3.75 2.07125,0 3.75,-1.67875 3.75,-3.75"/><path style="fill:#000;fill-opacity:1;fill-rule:nonzero;stroke:none" id="path4467-3" d="m 828.60825,530.58805 c 0,-2.07125 -1.67875,-3.75 -3.75,-3.75 -2.07125,0 -3.75,1.67875 -3.75,3.75 0,2.07125 1.67875,3.75 3.75,3.75 2.07125,0 3.75,-1.67875 3.75,-3.75"/><path style="fill:#000;fill-opacity:1;fill-rule:nonzero;stroke:none" id="path4475-3" d="m 928.0395,530.58805 c 0,-2.07125 -1.67875,-3.75 -3.75,-3.75 -2.07125,0 -3.75,1.67875 -3.75,3.75 0,2.07125 1.67875,3.75 3.75,3.75 2.07125,0 3.75,-1.67875 3.75,-3.75"/><path style="fill:#000;fill-opacity:1;fill-rule:nonzero;stroke:none" id="path4477-6" d="m 977.75575,530.58805 c 0,-2.07125 -1.67875,-3.75 -3.75,-3.75 -2.07125,0 -3.75,1.67875 -3.75,3.75 0,2.07125 1.67875,3.75 3.75,3.75 2.07125,0 3.75,-1.67875 3.75,-3.75"/><path style="fill:#000;fill-opacity:1;fill-rule:nonzero;stroke:none" id="path4453-3" d="m 629.74425,530.58805 c 0,-2.07125 -1.679,-3.75 -3.75,-3.75 -2.071,0 -3.75,1.67875 -3.75,3.75 0,2.07125 1.679,3.75 3.75,3.75 2.071,0 3.75,-1.67875 3.75,-3.75"/><path style="fill:#000;fill-opacity:1;fill-rule:nonzero;stroke:none" id="path4457-8" d="m 679.46012,630.01992 c 0,-2.071 -1.679,-3.75 -3.75,-3.75 -2.071,0 -3.75,1.679 -3.75,3.75 0,2.07101 1.679,3.75 3.75,3.75 2.071,0 3.75,-1.67899 3.75,-3.75"/><path style="fill:#000;fill-opacity:1;fill-rule:nonzero;stroke:none" id="path4473-0" d="m 878.32325,630.01992 c 0,-2.071 -1.67875,-3.75 -3.75,-3.75 -2.07125,0 -3.75,1.679 -3.75,3.75 0,2.07101 1.67875,3.75 3.75,3.75 2.07125,0 3.75,-1.67899 3.75,-3.75"/><path style="fill:#000;fill-opacity:1;fill-rule:nonzero;stroke:none" id="path4479-6" d="m 679.46012,729.45167 c 0,-2.07099 -1.679,-3.75 -3.75,-3.75 -2.071,0 -3.75,1.67901 -3.75,3.75 0,2.07113 1.679,3.75 3.75,3.75 2.071,0 3.75,-1.67887 3.75,-3.75"/><path style="fill:#000;fill-opacity:1;fill-rule:nonzero;stroke:none" id="path4451-5" d="m 679.46012,331.7243 c 0,-2.07125 -1.679,-3.75 -3.75,-3.75 -2.071,0 -3.75,1.67875 -3.75,3.75 0,2.07125 1.679,3.75 3.75,3.75 2.071,0 3.75,-1.67875 3.75,-3.75"/><path style="fill:#000;fill-opacity:1;fill-rule:nonzero;stroke:none" id="path4465-0" d="m 878.32325,331.7243 c 0,-2.07125 -1.67875,-3.75 -3.75,-3.75 -2.07125,0 -3.75,1.67875 -3.75,3.75 0,2.07125 1.67875,3.75 3.75,3.75 2.07125,0 3.75,-1.67875 3.75,-3.75"/><path style="fill:#000;fill-opacity:1;fill-rule:nonzero;stroke:none" id="path4469-3" d="m 878.32325,729.45167 c 0,-2.07099 -1.67875,-3.75 -3.75,-3.75 -2.07125,0 -3.75,1.67901 -3.75,3.75 0,2.07113 1.67875,3.75 3.75,3.75 2.07125,0 3.75,-1.67887 3.75,-3.75"/><path style="fill:none;stroke:#999;stroke-width:3.75;stroke-linecap:butt;stroke-linejoin:miter;stroke-miterlimit:10;stroke-opacity:1;stroke-dasharray:none" id="path4401-0-1-6" d="M 774.6636,627.9558 728.69586,533.12494"/><path style="fill:#000;fill-opacity:1;fill-rule:nonzero;stroke:none" id="path4463-2" d="m 778.892,630.01992 c 0,-2.071 -1.67875,-3.75 -3.75,-3.75 -2.07125,0 -3.75,1.679 -3.75,3.75 0,2.07101 1.67875,3.75 3.75,3.75 2.07125,0 3.75,-1.67899 3.75,-3.75"/><path style="color:#000;fill:none;stroke:red;stroke-width:1.00802243;stroke-linecap:butt;stroke-linejoin:miter;stroke-miterlimit:4;stroke-opacity:1;stroke-dasharray:none;stroke-dashoffset:0;marker:none;visibility:visible;display:inline;overflow:visible;enable-background:accumulate" id="path5184" d="m 33.870964,193.6951 c 0,35.40858 -28.7043229,64.1129 -64.1129,64.1129 -35.408577,0 -64.1129,-28.70432 -64.1129,-64.1129 0,-35.40858 28.704323,-64.1129 64.1129,-64.1129 35.4085771,0 64.1129,28.70432 64.1129,64.1129 z" transform="matrix(1.6864704,0,0,1.6864704,717.23024,294.2019)"/><path style="color:#000;fill:none;stroke:red;stroke-width:1.83158123;stroke-linecap:butt;stroke-linejoin:miter;stroke-miterlimit:4;stroke-opacity:1;stroke-dasharray:none;stroke-dashoffset:0;marker:none;visibility:visible;display:inline;overflow:visible;enable-background:accumulate" id="path5184-7" d="m 33.870964,193.6951 c 0,35.40858 -28.7043229,64.1129 -64.1129,64.1129 -35.408577,0 -64.1129,-28.70432 -64.1129,-64.1129 0,-35.40858 28.704323,-64.1129 64.1129,-64.1129 35.4085771,0 64.1129,28.70432 64.1129,64.1129 z" transform="matrix(0.96255627,0,0,0.96255627,904.35382,307.40439)"/></g></svg>