<svg xmlns="http://www.w3.org/2000/svg" xmlns:svg="http://www.w3.org/2000/svg" id="svg2" width="744.094" height="1052.362" version="1.1"><metadata id="metadata7"/><g id="layer1"><path style="fill:#333;stroke:#333;stroke-width:5;stroke-linecap:butt;stroke-linejoin:miter;stroke-miterlimit:10;stroke-opacity:1;stroke-dasharray:none" id="path2999" d="m 419.073,335.48718 127.5,107.5"/><path style="fill:none;stroke:#333;stroke-width:5;stroke-linecap:butt;stroke-linejoin:miter;stroke-miterlimit:10;stroke-opacity:1;stroke-dasharray:none" id="path3001" d="m 582.823,725.48718 -201.25,3.75"/><path style="fill:none;stroke:#333;stroke-width:5;stroke-linecap:butt;stroke-linejoin:miter;stroke-miterlimit:10;stroke-opacity:1;stroke-dasharray:none" id="path3003" d="m 381.573,729.23718 -167.5,-55"/><path style="fill:none;stroke:#333;stroke-width:5;stroke-linecap:butt;stroke-linejoin:miter;stroke-miterlimit:10;stroke-opacity:1;stroke-dasharray:none" id="path3005" d="m 214.073,674.23718 -38.75,-187.5"/><path style="fill:none;stroke:#333;stroke-width:5;stroke-linecap:butt;stroke-linejoin:miter;stroke-miterlimit:10;stroke-opacity:1;stroke-dasharray:none" id="path3007" d="m 214.073,674.23718 52.5,-87.5"/><path style="fill:none;stroke:#333;stroke-width:5;stroke-linecap:butt;stroke-linejoin:miter;stroke-miterlimit:10;stroke-opacity:1;stroke-dasharray:none" id="path3009" d="m 330.323,654.23718 -116.25,20"/><path style="fill:none;stroke:#333;stroke-width:5;stroke-linecap:butt;stroke-linejoin:miter;stroke-miterlimit:10;stroke-opacity:1;stroke-dasharray:none" id="path3011" d="m 381.573,729.23718 107.5,-58.75"/><path style="fill:none;stroke:#333;stroke-width:5;stroke-linecap:butt;stroke-linejoin:miter;stroke-miterlimit:10;stroke-opacity:1;stroke-dasharray:none" id="path3013" d="m 489.073,670.48718 -158.75,-16.25"/><path style="fill:none;stroke:#333;stroke-width:5;stroke-linecap:butt;stroke-linejoin:miter;stroke-miterlimit:10;stroke-opacity:1;stroke-dasharray:none" id="path3015" d="m 330.323,654.23718 51.25,75"/><path style="fill:none;stroke:#333;stroke-width:5;stroke-linecap:butt;stroke-linejoin:miter;stroke-miterlimit:10;stroke-opacity:1;stroke-dasharray:none" id="path3017" d="m 325.323,507.98718 -150,-21.25"/><path style="fill:none;stroke:#333;stroke-width:5;stroke-linecap:butt;stroke-linejoin:miter;stroke-miterlimit:10;stroke-opacity:1;stroke-dasharray:none" id="path3019" d="m 175.323,486.73718 91.25,100"/><path style="fill:none;stroke:#333;stroke-width:5;stroke-linecap:butt;stroke-linejoin:miter;stroke-miterlimit:10;stroke-opacity:1;stroke-dasharray:none" id="path3021" d="m 266.573,586.73718 58.75,-78.75"/><path style="fill:none;stroke:#333;stroke-width:5;stroke-linecap:butt;stroke-linejoin:miter;stroke-miterlimit:10;stroke-opacity:1;stroke-dasharray:none" id="path3023" d="m 385.323,551.73718 -118.75,35"/><path style="fill:none;stroke:#333;stroke-width:5;stroke-linecap:butt;stroke-linejoin:miter;stroke-miterlimit:10;stroke-opacity:1;stroke-dasharray:none" id="path3025" d="m 266.573,586.73718 63.75,67.5"/><path style="fill:none;stroke:#333;stroke-width:5;stroke-linecap:butt;stroke-linejoin:miter;stroke-miterlimit:10;stroke-opacity:1;stroke-dasharray:none" id="path3027" d="m 330.323,654.23718 55,-102.5"/><path style="fill:none;stroke:#333;stroke-width:5;stroke-linecap:butt;stroke-linejoin:miter;stroke-miterlimit:10;stroke-opacity:1;stroke-dasharray:none" id="path3029" d="m 175.323,486.73718 96.25,-140"/><path style="fill:none;stroke:#333;stroke-width:5;stroke-linecap:butt;stroke-linejoin:miter;stroke-miterlimit:10;stroke-opacity:1;stroke-dasharray:none" id="path3031" d="m 325.323,507.98718 -53.75,-161.25"/><path style="fill:none;stroke:#333;stroke-width:5;stroke-linecap:butt;stroke-linejoin:miter;stroke-miterlimit:10;stroke-opacity:1;stroke-dasharray:none" id="path3033" d="m 384.073,416.73718 -112.5,-70"/><path style="fill:none;stroke:#333;stroke-width:5;stroke-linecap:butt;stroke-linejoin:miter;stroke-miterlimit:10;stroke-opacity:1;stroke-dasharray:none" id="path3035" d="m 325.323,507.98718 58.75,-91.25"/><path style="fill:none;stroke:#333;stroke-width:5;stroke-linecap:butt;stroke-linejoin:miter;stroke-miterlimit:10;stroke-opacity:1;stroke-dasharray:none" id="path3037" d="m 385.323,551.73718 -1.25,-135"/><path style="fill:none;stroke:#333;stroke-width:5;stroke-linecap:butt;stroke-linejoin:miter;stroke-miterlimit:10;stroke-opacity:1;stroke-dasharray:none" id="path3039" d="m 325.323,507.98718 60,43.75"/><path style="fill:#333;stroke:#333;stroke-width:5;stroke-linecap:butt;stroke-linejoin:miter;stroke-miterlimit:10;stroke-opacity:1;stroke-dasharray:none" id="path3041" d="m 487.823,474.23718 -103.75,-57.5"/><path style="fill:none;stroke:#333;stroke-width:5;stroke-linecap:butt;stroke-linejoin:miter;stroke-miterlimit:10;stroke-opacity:1;stroke-dasharray:none" id="path3043" d="m 489.073,670.48718 -1.25,-196.25"/><path style="fill:none;stroke:#333;stroke-width:5;stroke-linecap:butt;stroke-linejoin:miter;stroke-miterlimit:10;stroke-opacity:1;stroke-dasharray:none" id="path3045" d="m 487.823,474.23718 -102.5,77.5"/><path style="fill:none;stroke:#333;stroke-width:5;stroke-linecap:butt;stroke-linejoin:miter;stroke-miterlimit:10;stroke-opacity:1;stroke-dasharray:none" id="path3047" d="m 385.323,551.73718 103.75,118.75"/><path style="fill:none;stroke:#333;stroke-width:5;stroke-linecap:butt;stroke-linejoin:miter;stroke-miterlimit:10;stroke-opacity:1;stroke-dasharray:none" id="path3049" d="m 271.573,346.73718 147.5,-11.25"/><path style="fill:none;stroke:#333;stroke-width:5;stroke-linecap:butt;stroke-linejoin:miter;stroke-miterlimit:10;stroke-opacity:1;stroke-dasharray:none" id="path3051" d="m 384.073,416.73718 35,-81.25"/><path style="fill:#333;stroke:#333;stroke-width:5;stroke-linecap:butt;stroke-linejoin:miter;stroke-miterlimit:10;stroke-opacity:1;stroke-dasharray:none" id="path3053" d="m 487.823,474.23718 -68.75,-138.75"/><path style="fill:none;stroke:#333;stroke-width:5;stroke-linecap:butt;stroke-linejoin:miter;stroke-miterlimit:10;stroke-opacity:1;stroke-dasharray:none" id="path3055" d="m 487.823,474.23718 58.75,-31.25"/><path style="fill:none;stroke:#333;stroke-width:5;stroke-linecap:butt;stroke-linejoin:miter;stroke-miterlimit:10;stroke-opacity:1;stroke-dasharray:none" id="path3057" d="m 582.823,725.48718 -36.25,-282.5"/><path style="fill:#333;stroke:#333;stroke-width:5;stroke-linecap:butt;stroke-linejoin:miter;stroke-miterlimit:10;stroke-opacity:1;stroke-dasharray:none" id="path3059" d="m 546.573,442.98718 -57.5,227.5"/><path style="fill:none;stroke:#333;stroke-width:5;stroke-linecap:butt;stroke-linejoin:miter;stroke-miterlimit:10;stroke-opacity:1;stroke-dasharray:none" id="path3061" d="m 489.073,670.48718 93.75,55"/><path style="fill:#000;fill-opacity:1;fill-rule:nonzero;stroke:none" id="path3063" d="m 551.573,442.98718 c 0,-2.76125 -2.23875,-5 -5,-5 -2.76125,0 -5,2.23875 -5,5 0,2.76125 2.23875,5 5,5 2.76125,0 5,-2.23875 5,-5"/><path style="fill:#000;fill-opacity:1;fill-rule:nonzero;stroke:none" id="path3065" d="m 386.573,729.23718 c 0,-2.76138 -2.23875,-5 -5,-5 -2.76125,0 -5,2.23862 -5,5 0,2.76137 2.23875,5 5,5 2.76125,0 5,-2.23863 5,-5"/><path style="fill:#000;fill-opacity:1;fill-rule:nonzero;stroke:none" id="path3067" d="m 219.073,674.23718 c 0,-2.76138 -2.23863,-5 -5,-5 -2.76138,0 -5,2.23862 -5,5 0,2.76137 2.23862,5 5,5 2.76137,0 5,-2.23863 5,-5"/><path style="fill:#1a1a1a;fill-opacity:1;fill-rule:nonzero;stroke:none" id="path3069" d="m 180.323,486.73718 c 0,-2.76125 -2.23863,-5 -5,-5 -2.76138,0 -5,2.23875 -5,5 0,2.76125 2.23862,5 5,5 2.76137,0 5,-2.23875 5,-5"/><path style="fill:#000;fill-opacity:1;fill-rule:nonzero;stroke:none" id="path3071" d="m 271.573,586.73718 c 0,-2.76125 -2.23875,-5 -5,-5 -2.76125,0 -5,2.23875 -5,5 0,2.76125 2.23875,5 5,5 2.76125,0 5,-2.23875 5,-5"/><path style="fill:#000;fill-opacity:1;fill-rule:nonzero;stroke:none" id="path3073" d="m 330.323,507.98718 c 0,-2.76125 -2.23875,-5 -5,-5 -2.76125,0 -5,2.23875 -5,5 0,2.76125 2.23875,5 5,5 2.76125,0 5,-2.23875 5,-5"/><path style="fill:#000;fill-opacity:1;fill-rule:nonzero;stroke:none" id="path3075" d="m 335.323,654.23718 c 0,-2.76125 -2.23875,-5 -5,-5 -2.76125,0 -5,2.23875 -5,5 0,2.76137 2.23875,5 5,5 2.76125,0 5,-2.23863 5,-5"/><path style="fill:#000;fill-opacity:1;fill-rule:nonzero;stroke:none" id="path3077" d="m 276.573,346.73718 c 0,-2.76125 -2.23875,-5 -5,-5 -2.76125,0 -5,2.23875 -5,5 0,2.76125 2.23875,5 5,5 2.76125,0 5,-2.23875 5,-5"/><path style="fill:#000;fill-opacity:1;fill-rule:nonzero;stroke:none" id="path3079" d="m 389.073,416.73718 c 0,-2.76125 -2.23875,-5 -5,-5 -2.76125,0 -5,2.23875 -5,5 0,2.76125 2.23875,5 5,5 2.76125,0 5,-2.23875 5,-5"/><path style="fill:#000;fill-opacity:1;fill-rule:nonzero;stroke:none" id="path3081" d="m 390.323,551.73718 c 0,-2.76125 -2.23875,-5 -5,-5 -2.76125,0 -5,2.23875 -5,5 0,2.76125 2.23875,5 5,5 2.76125,0 5,-2.23875 5,-5"/><path style="fill:#000;fill-opacity:1;fill-rule:nonzero;stroke:none" id="path3083" d="m 424.073,335.48718 c 0,-2.76125 -2.23875,-5 -5,-5 -2.76125,0 -5,2.23875 -5,5 0,2.76125 2.23875,5 5,5 2.76125,0 5,-2.23875 5,-5"/><path style="fill:#000;fill-opacity:1;fill-rule:nonzero;stroke:none" id="path3085" d="m 492.823,474.23718 c 0,-2.76125 -2.23875,-5 -5,-5 -2.76125,0 -5,2.23875 -5,5 0,2.76125 2.23875,5 5,5 2.76125,0 5,-2.23875 5,-5"/><path style="fill:#000;fill-opacity:1;fill-rule:nonzero;stroke:none" id="path3087" d="m 494.073,670.48718 c 0,-2.76138 -2.23875,-5 -5,-5 -2.76125,0 -5,2.23862 -5,5 0,2.76137 2.23875,5 5,5 2.76125,0 5,-2.23863 5,-5"/><path style="fill:#000;fill-opacity:1;fill-rule:nonzero;stroke:none" id="path3089" d="m 587.823,725.48718 c 0,-2.76138 -2.23875,-5 -5,-5 -2.76125,0 -5,2.23862 -5,5 0,2.76137 2.23875,5 5,5 2.76125,0 5,-2.23863 5,-5"/><path style="fill:none;stroke:red;stroke-width:2.5;stroke-linecap:butt;stroke-linejoin:miter;stroke-miterlimit:10;stroke-opacity:1;stroke-dasharray:none" id="path3091" d="m 353.26425,440.72968 c 0,-52.4225 -42.49625,-94.91875 -94.91875,-94.91875 -52.422,0 -94.9185,42.49625 -94.9185,94.91875 0,52.4225 42.4965,94.91875 94.9185,94.91875 52.4225,0 94.91875,-42.49625 94.91875,-94.91875"/><path style="fill:none;stroke:red;stroke-width:2.5;stroke-linecap:butt;stroke-linejoin:miter;stroke-miterlimit:10;stroke-opacity:1;stroke-dasharray:none" id="path3093" d="m 330.648,647.92843 c 0,-33.83125 -27.425,-61.25625 -61.25625,-61.25625 -33.831,0 -61.2565,27.425 -61.2565,61.25625 0,33.831 27.4255,61.2565 61.2565,61.2565 33.83125,0 61.25625,-27.4255 61.25625,-61.2565"/><path style="fill:none;stroke:red;stroke-width:2.5;stroke-linecap:butt;stroke-linejoin:miter;stroke-miterlimit:10;stroke-opacity:1;stroke-dasharray:none" id="path3095" d="m 579.87175,572.40593 c 0,-54.33 -44.0425,-98.3725 -98.3725,-98.3725 -54.33,0 -98.3725,44.0425 -98.3725,98.3725 0,54.33 44.0425,98.37275 98.3725,98.37275 54.33,0 98.3725,-44.04275 98.3725,-98.37275"/></g></svg>