<svg xmlns="http://www.w3.org/2000/svg" xmlns:xlink="http://www.w3.org/1999/xlink" width="1008" height="4.4in" viewBox="-560 -371 12587 5333"><g style="stroke-width:.025in;fill:none"><polyline points="915 1701 2493 2039" style="stroke:#000;stroke-width:8;stroke-linejoin:round;stroke-linecap:butt"/><polyline points="2379 2078 2515 2044 2405 1955" style="stroke:#000;stroke-width:8;stroke-miterlimit:8"/><polyline points="7110 681 7166 2298" style="stroke:#000;stroke-width:16;stroke-linejoin:round;stroke-linecap:butt"/><polyline points="7066 2193 7167 2347 7255 2186" style="stroke:#000;stroke-width:16;stroke-miterlimit:8"/><polyline points="2476 2176 913 1835" style="stroke:#000;stroke-width:16;stroke-linejoin:round;stroke-linecap:butt"/><polyline points="1038 1765 865 1824 998 1949" style="stroke:#000;stroke-width:16;stroke-miterlimit:8"/><polyline points="7039 2343 6976 721" style="stroke:#000;stroke-width:16;stroke-linejoin:round;stroke-linecap:butt"/><polyline points="7075 825 6975 671 6886 832" style="stroke:#000;stroke-width:16;stroke-miterlimit:8"/><polyline points="7167 2332 8597 2582" style="stroke:#000;stroke-width:16;stroke-linejoin:round;stroke-linecap:butt"/><polyline points="8474 2656 8646 2591 8507 2470" style="stroke:#000;stroke-width:16;stroke-miterlimit:8"/><polyline points="8585 2709 7150 2449" style="stroke:#000;stroke-width:16;stroke-linejoin:round;stroke-linecap:butt"/><polyline points="7273 2375 7102 2440 7239 2561" style="stroke:#000;stroke-width:16;stroke-miterlimit:8"/><polyline points="779 135 914 1685" style="stroke:#000;stroke-width:8;stroke-linejoin:round;stroke-linecap:butt"/><polyline points="840 1586 915 1707 966 1575" style="stroke:#000;stroke-width:8;stroke-miterlimit:8"/><polyline points="788 1732 640 195" style="stroke:#000;stroke-width:16;stroke-linejoin:round;stroke-linecap:butt"/><polyline points="744 292 636 145 556 310" style="stroke:#000;stroke-width:16;stroke-miterlimit:8"/><polyline points="5953 2838 7007 2356" style="stroke:#000;stroke-width:16;stroke-linejoin:round;stroke-linecap:butt"/><polyline points="6948 2487 7053 2335 6870 2314" style="stroke:#000;stroke-width:16;stroke-miterlimit:8"/><polyline points="880 1828 47 2806" style="stroke:#000;stroke-width:16;stroke-linejoin:round;stroke-linecap:butt"/><polyline points="45 2661 15 2843 188 2784" style="stroke:#000;stroke-width:16;stroke-miterlimit:8"/><polyline points="7118 2444 6073 2939" style="stroke:#000;stroke-width:16;stroke-linejoin:round;stroke-linecap:butt"/><polyline points="6130 2806 6028 2959 6211 2977" style="stroke:#000;stroke-width:16;stroke-miterlimit:8"/><polyline points="-80 2726 765 1757" style="stroke:#000;stroke-width:16;stroke-linejoin:round;stroke-linecap:butt"/><polyline points="765 1901 797 1720 622 1776" style="stroke:#000;stroke-width:16;stroke-miterlimit:8"/><polyline points="2906 2128 4664 2504" style="stroke:#000;stroke-width:16;stroke-linejoin:round;stroke-linecap:butt"/><polyline points="4538 2574 4712 2515 4578 2389" style="stroke:#000;stroke-width:16;stroke-miterlimit:8"/><polyline points="4665 2654 2904 2269" style="stroke:#000;stroke-width:16;stroke-linejoin:round;stroke-linecap:butt"/><polyline points="3029 2200 2856 2259 2990 2384" style="stroke:#000;stroke-width:16;stroke-miterlimit:8"/><polyline points="8657 819 7144 683" style="stroke:#000;stroke-width:16;stroke-linejoin:round;stroke-linecap:butt"/><polyline points="7259 598 7095 679 7243 787" style="stroke:#000;stroke-width:16;stroke-miterlimit:8"/><polyline points="8632 2588 8657 853" style="stroke:#000;stroke-width:16;stroke-linejoin:round;stroke-linecap:butt"/><polyline points="8748 962 8657 804 8559 959" style="stroke:#000;stroke-width:16;stroke-miterlimit:8"/><polyline points="7051 597 8576 726" style="stroke:#000;stroke-width:16;stroke-linejoin:round;stroke-linecap:butt"/><polyline points="8459 811 8625 730 8476 622" style="stroke:#000;stroke-width:16;stroke-miterlimit:8"/><polyline points="8734 832 8705 2543" style="stroke:#5050ff;stroke-width:48;stroke-linejoin:round;stroke-linecap:butt"/><polyline points="8612 2499 8704 2659 8801 2502" style="stroke:#5050ff;stroke-width:16;stroke-miterlimit:8"/><polyline points="2510 2043 2544 449" style="stroke:#000;stroke-width:8;stroke-linejoin:round;stroke-linecap:butt"/><polyline points="2604 554 2544 427 2478 551" style="stroke:#000;stroke-width:8;stroke-miterlimit:8"/><polyline points="8892 2645 8931 918" style="stroke:#5050ff;stroke-width:48;stroke-linejoin:round;stroke-linecap:butt"/><polyline points="9024 961 8934 803 8835 957" style="stroke:#5050ff;stroke-width:16;stroke-miterlimit:8"/><polyline points="9044 854 8997 2617" style="stroke:#000;stroke-width:16;stroke-linejoin:round;stroke-linecap:butt"/><polyline points="8904 2506 8996 2666 9093 2511" style="stroke:#000;stroke-width:16;stroke-miterlimit:8"/><polyline points="2613 497 2572 2047" style="stroke:#ff5050;stroke-width:48;stroke-linejoin:round;stroke-linecap:butt"/><polyline points="2477 2002 2569 2162 2666 2007" style="stroke:#ff5050;stroke-width:16;stroke-miterlimit:8"/><polyline points="2985 508 2907 2093" style="stroke:#000;stroke-width:16;stroke-linejoin:round;stroke-linecap:butt"/><polyline points="2817 1980 2904 2142 3006 1989" style="stroke:#000;stroke-width:16;stroke-miterlimit:8"/><polyline points="1803 3285 2458 2204" style="stroke:#000;stroke-width:16;stroke-linejoin:round;stroke-linecap:butt"/><polyline points="2482 2345 2483 2162 2321 2247" style="stroke:#000;stroke-width:16;stroke-miterlimit:8"/><polyline points="2781 2161 2844 605" style="stroke:#5050ff;stroke-width:48;stroke-linejoin:round;stroke-linecap:butt"/><polyline points="2935 650 2848 490 2747 643" style="stroke:#5050ff;stroke-width:16;stroke-miterlimit:8"/><polyline points="6976 687 5845 948" style="stroke:#000;stroke-width:16;stroke-linejoin:round;stroke-linecap:butt"/><polyline points="5929 830 5797 958 5971 1015" style="stroke:#000;stroke-width:16;stroke-miterlimit:8"/><polyline points="8997 2651 10731 2955" style="stroke:#000;stroke-width:16;stroke-linejoin:round;stroke-linecap:butt"/><polyline points="10608 3028 10781 2963 10641 2843" style="stroke:#000;stroke-width:16;stroke-miterlimit:8"/><polyline points="8705 2613 8319 2017" style="stroke:#5050ff;stroke-width:48;stroke-linejoin:round;stroke-linecap:butt"/><polyline points="8420 2001 8256 1921 8262 2103" style="stroke:#5050ff;stroke-width:16;stroke-miterlimit:8"/><polyline points="8246 2049 8636 2636" style="stroke:#5050ff;stroke-width:48;stroke-linejoin:round;stroke-linecap:butt"/><polyline points="8533 2651 8700 2731 8690 2548" style="stroke:#5050ff;stroke-width:16;stroke-miterlimit:8"/><polyline points="10726 3097 8984 2781" style="stroke:#000;stroke-width:16;stroke-linejoin:round;stroke-linecap:butt"/><polyline points="9107 2707 8936 2772 9074 2893" style="stroke:#000;stroke-width:16;stroke-miterlimit:8"/><polyline points="2571 2116 1941 3166" style="stroke:#5050ff;stroke-width:48;stroke-linejoin:round;stroke-linecap:butt"/><polyline points="1881 3082 1882 3266 2044 3179" style="stroke:#5050ff;stroke-width:16;stroke-miterlimit:8"/><polyline points="5890 852 7018 603" style="stroke:#000;stroke-width:16;stroke-linejoin:round;stroke-linecap:butt"/><polyline points="6932 719 7066 593 6892 534" style="stroke:#000;stroke-width:16;stroke-miterlimit:8"/><polyline points="2544 433 794 137" style="stroke:#000;stroke-width:8;stroke-linejoin:round;stroke-linecap:butt"/><polyline points="907 91 772 133 886 216" style="stroke:#000;stroke-width:8;stroke-miterlimit:8"/><polyline points="2872 2263 2264 3366" style="stroke:#000;stroke-width:16;stroke-linejoin:round;stroke-linecap:butt"/><polyline points="2233 3227 2240 3411 2398 3318" style="stroke:#000;stroke-width:16;stroke-miterlimit:8"/><polyline points="8485 1990 8855 2586" style="stroke:#5050ff;stroke-width:48;stroke-linejoin:round;stroke-linecap:butt"/><polyline points="8752 2600 8916 2684 8913 2500" style="stroke:#5050ff;stroke-width:16;stroke-miterlimit:8"/><polyline points="2141 3286 2746 2220" style="stroke:#5050ff;stroke-width:48;stroke-linejoin:round;stroke-linecap:butt"/><polyline points="2807 2302 2803 2119 2642 2209" style="stroke:#5050ff;stroke-width:16;stroke-miterlimit:8"/><polyline points="8823 2795 8447 2205" style="stroke:#5050ff;stroke-width:48;stroke-linejoin:round;stroke-linecap:butt"/><polyline points="8549 2190 8385 2108 8389 2290" style="stroke:#5050ff;stroke-width:16;stroke-miterlimit:8"/><polyline points="7650 3308 8556 2727" style="stroke:#000;stroke-width:16;stroke-linejoin:round;stroke-linecap:butt"/><polyline points="8516 2864 8598 2700 8414 2705" style="stroke:#000;stroke-width:16;stroke-miterlimit:8"/><polyline points="723 80 2476 374" style="stroke:#000;stroke-width:16;stroke-linejoin:round;stroke-linecap:butt"/><polyline points="2354 448 2525 381 2385 261" style="stroke:#000;stroke-width:16;stroke-miterlimit:8"/><polyline points="8282 1961 8708 895" style="stroke:#ff5050;stroke-width:48;stroke-linejoin:round;stroke-linecap:butt"/><polyline points="8780 969 8751 788 8604 898" style="stroke:#ff5050;stroke-width:16;stroke-miterlimit:8"/><polyline points="8675 2693 7803 3255" style="stroke:#5050ff;stroke-width:48;stroke-linejoin:round;stroke-linecap:butt"/><polyline points="7787 3153 7707 3318 7889 3312" style="stroke:#5050ff;stroke-width:16;stroke-miterlimit:8"/><polyline points="8664 782 8248 1824" style="stroke:#5050ff;stroke-width:48;stroke-linejoin:round;stroke-linecap:butt"/><polyline points="8176 1750 8206 1931 8352 1819" style="stroke:#5050ff;stroke-width:16;stroke-miterlimit:8"/><polyline points="8933 850 8509 1926" style="stroke:#5050ff;stroke-width:48;stroke-linejoin:round;stroke-linecap:butt"/><polyline points="8437 1851 8468 2033 8613 1921" style="stroke:#5050ff;stroke-width:16;stroke-miterlimit:8"/><polyline points="7955 3339 8748 2801" style="stroke:#5050ff;stroke-width:48;stroke-linejoin:round;stroke-linecap:butt"/><polyline points="8766 2902 8844 2737 8660 2746" style="stroke:#5050ff;stroke-width:16;stroke-miterlimit:8"/><polyline points="5813 955 5951 2804" style="stroke:#000;stroke-width:16;stroke-linejoin:round;stroke-linecap:butt"/><polyline points="5848 2703 5954 2853 6036 2688" style="stroke:#000;stroke-width:16;stroke-miterlimit:8"/><polyline points="26 2832 1770 3276" style="stroke:#000;stroke-width:16;stroke-linejoin:round;stroke-linecap:butt"/><polyline points="1641 3340 1818 3288 1688 3156" style="stroke:#000;stroke-width:16;stroke-miterlimit:8"/><polyline points="8952 2775 8083 3377" style="stroke:#000;stroke-width:16;stroke-linejoin:round;stroke-linecap:butt"/><polyline points="8118 3237 8044 3405 8226 3393" style="stroke:#000;stroke-width:16;stroke-miterlimit:8"/><polyline points="8403 1877 8792 868" style="stroke:#5050ff;stroke-width:48;stroke-linejoin:round;stroke-linecap:butt"/><polyline points="8864 940 8833 760 8688 872" style="stroke:#5050ff;stroke-width:16;stroke-miterlimit:8"/><polyline points="4698 2512 4990 879" style="stroke:#000;stroke-width:16;stroke-linejoin:round;stroke-linecap:butt"/><polyline points="5063 1002 4998 831 4876 969" style="stroke:#000;stroke-width:16;stroke-miterlimit:8"/><polyline points="5966 2888 5824 1016" style="stroke:#000;stroke-width:16;stroke-linejoin:round;stroke-linecap:butt"/><polyline points="5927 1116 5821 966 5738 1130" style="stroke:#000;stroke-width:16;stroke-miterlimit:8"/><polyline points="6043 2954 7616 3300" style="stroke:#000;stroke-width:16;stroke-linejoin:round;stroke-linecap:butt"/><polyline points="7490 3369 7665 3311 7530 3184" style="stroke:#000;stroke-width:16;stroke-miterlimit:8"/><polyline points="1757 3270 -9 2820" style="stroke:#000;stroke-width:16;stroke-linejoin:round;stroke-linecap:butt"/><polyline points="118 2755 -56 2809 72 2939" style="stroke:#000;stroke-width:16;stroke-miterlimit:8"/><polyline points="5097 920 4796 2527" style="stroke:#5050ff;stroke-width:48;stroke-linejoin:round;stroke-linecap:butt"/><polyline points="4711 2468 4776 2640 4897 2502" style="stroke:#5050ff;stroke-width:16;stroke-miterlimit:8"/><polyline points="10932 1022 9078 856" style="stroke:#000;stroke-width:16;stroke-linejoin:round;stroke-linecap:butt"/><polyline points="9193 771 9028 852 9176 959" style="stroke:#000;stroke-width:16;stroke-miterlimit:8"/><polyline points="7587 3239 5998 2894" style="stroke:#000;stroke-width:16;stroke-linejoin:round;stroke-linecap:butt"/><polyline points="6123 2824 5950 2883 6083 3008" style="stroke:#000;stroke-width:16;stroke-miterlimit:8"/><polyline points="638 161 -334 1015" style="stroke:#000;stroke-width:16;stroke-linejoin:round;stroke-linecap:butt"/><polyline points="-313 872 -370 1047 -188 1014" style="stroke:#000;stroke-width:16;stroke-miterlimit:8"/><polyline points="4279 3913 4655 2686" style="stroke:#000;stroke-width:16;stroke-linejoin:round;stroke-linecap:butt"/><polyline points="4712 2816 4668 2639 4532 2762" style="stroke:#000;stroke-width:16;stroke-miterlimit:8"/><polyline points="10766 2961 10929 1056" style="stroke:#000;stroke-width:16;stroke-linejoin:round;stroke-linecap:butt"/><polyline points="11013 1171 10933 1006 10825 1154" style="stroke:#000;stroke-width:16;stroke-miterlimit:8"/><polyline points="9002 762 10876 921" style="stroke:#000;stroke-width:16;stroke-linejoin:round;stroke-linecap:butt"/><polyline points="10760 1005 10925 925 10776 817" style="stroke:#000;stroke-width:16;stroke-miterlimit:8"/><polyline points="-272 953 697 102" style="stroke:#000;stroke-width:16;stroke-linejoin:round;stroke-linecap:butt"/><polyline points="677 244 733 70 552 102" style="stroke:#000;stroke-width:16;stroke-miterlimit:8"/><polyline points="7746 3293 8220 2112" style="stroke:#5050ff;stroke-width:48;stroke-linejoin:round;stroke-linecap:butt"/><polyline points="8291 2185 8263 2005 8116 2115" style="stroke:#5050ff;stroke-width:16;stroke-miterlimit:8"/><polyline points="4785 2595 4433 3791" style="stroke:#5050ff;stroke-width:48;stroke-linejoin:round;stroke-linecap:butt"/><polyline points="4353 3722 4401 3901 4535 3776" style="stroke:#5050ff;stroke-width:16;stroke-miterlimit:8"/><polyline points="-360 1038 -86 2691" style="stroke:#000;stroke-width:16;stroke-linejoin:round;stroke-linecap:butt"/><polyline points="-197 2600 -78 2741 -10 2570" style="stroke:#000;stroke-width:16;stroke-miterlimit:8"/><polyline points="11056 1175 10869 2921" style="stroke:#5050ff;stroke-width:48;stroke-linejoin:round;stroke-linecap:butt"/><polyline points="10780 2870 10857 3037 10967 2890" style="stroke:#5050ff;stroke-width:16;stroke-miterlimit:8"/><polyline points="4996 847 3019 512" style="stroke:#000;stroke-width:16;stroke-linejoin:round;stroke-linecap:butt"/><polyline points="3140 438 2970 506 3108 624" style="stroke:#000;stroke-width:16;stroke-miterlimit:8"/><polyline points="8211 1995 7731 3184" style="stroke:#5050ff;stroke-width:48;stroke-linejoin:round;stroke-linecap:butt"/><polyline points="7658 3109 7688 3291 7834 3180" style="stroke:#5050ff;stroke-width:16;stroke-miterlimit:8"/><polyline points="8424 2145 7980 3275" style="stroke:#5050ff;stroke-width:48;stroke-linejoin:round;stroke-linecap:butt"/><polyline points="7908 3201 7939 3382 8083 3270" style="stroke:#5050ff;stroke-width:16;stroke-miterlimit:8"/><polyline points="-41 2813 -316 1150" style="stroke:#000;stroke-width:16;stroke-linejoin:round;stroke-linecap:butt"/><polyline points="-202 1240 -322 1101 -389 1271" style="stroke:#000;stroke-width:16;stroke-miterlimit:8"/><polyline points="8611 729 7639 1022" style="stroke:#000;stroke-width:16;stroke-linejoin:round;stroke-linecap:butt"/><polyline points="7715 900 7592 1037 7770 1081" style="stroke:#000;stroke-width:16;stroke-miterlimit:8"/><polyline points="2958 454 4961 790" style="stroke:#000;stroke-width:16;stroke-linejoin:round;stroke-linecap:butt"/><polyline points="4839 864 5011 796 4870 677" style="stroke:#000;stroke-width:16;stroke-miterlimit:8"/><polyline points="7877 3201 8333 2051" style="stroke:#5050ff;stroke-width:48;stroke-linejoin:round;stroke-linecap:butt"/><polyline points="8405 2124 8375 1944 8228 2055" style="stroke:#5050ff;stroke-width:16;stroke-miterlimit:8"/><polyline points="7713 1084 8590 809" style="stroke:#5050ff;stroke-width:48;stroke-linejoin:round;stroke-linecap:butt"/><polyline points="8577 912 8700 775 8520 731" style="stroke:#5050ff;stroke-width:16;stroke-miterlimit:8"/><polyline points="10862 2991 10726 2404" style="stroke:#5050ff;stroke-width:48;stroke-linejoin:round;stroke-linecap:butt"/><polyline points="10827 2423 10700 2291 10643 2466" style="stroke:#5050ff;stroke-width:16;stroke-miterlimit:8"/><polyline points="8810 822 8002 1086" style="stroke:#5050ff;stroke-width:48;stroke-linejoin:round;stroke-linecap:butt"/><polyline points="8011 982 7891 1122 8070 1162" style="stroke:#5050ff;stroke-width:16;stroke-miterlimit:8"/><polyline points="10617 2552 10787 3099" style="stroke:#5050ff;stroke-width:48;stroke-linejoin:round;stroke-linecap:butt"/><polyline points="10683 3086 10820 3209 10864 3030" style="stroke:#5050ff;stroke-width:16;stroke-miterlimit:8"/><polyline points="2248 3397 4245 3905" style="stroke:#000;stroke-width:16;stroke-linejoin:round;stroke-linecap:butt"/><polyline points="4117 3969 4293 3917 4163 3785" style="stroke:#000;stroke-width:16;stroke-miterlimit:8"/><polyline points="8045 1078 8970 771" style="stroke:#000;stroke-width:16;stroke-linejoin:round;stroke-linecap:butt"/><polyline points="8895 895 9016 756 8836 716" style="stroke:#000;stroke-width:16;stroke-miterlimit:8"/><polyline points="8236 1884 7750 1141" style="stroke:#5050ff;stroke-width:48;stroke-linejoin:round;stroke-linecap:butt"/><polyline points="7851 1124 7687 1044 7693 1227" style="stroke:#5050ff;stroke-width:16;stroke-miterlimit:8"/><polyline points="7671 1180 8173 1938" style="stroke:#5050ff;stroke-width:48;stroke-linejoin:round;stroke-linecap:butt"/><polyline points="8071 1954 8237 2034 8228 1850" style="stroke:#5050ff;stroke-width:16;stroke-miterlimit:8"/><polyline points="7607 1033 5924 854" style="stroke:#000;stroke-width:16;stroke-linejoin:round;stroke-linecap:butt"/><polyline points="6040 772 5875 850 6020 960" style="stroke:#000;stroke-width:16;stroke-miterlimit:8"/><polyline points="7937 1108 8382 1823" style="stroke:#5050ff;stroke-width:48;stroke-linejoin:round;stroke-linecap:butt"/><polyline points="8279 1837 8443 1921 8439 1737" style="stroke:#5050ff;stroke-width:16;stroke-miterlimit:8"/><polyline points="4268 3908 2241 3392" style="stroke:#000;stroke-width:16;stroke-linejoin:round;stroke-linecap:butt"/><polyline points="2368 3327 2193 3380 2322 3510" style="stroke:#000;stroke-width:16;stroke-miterlimit:8"/><polyline points="5823 982 7509 1171" style="stroke:#000;stroke-width:16;stroke-linejoin:round;stroke-linecap:butt"/><polyline points="7391 1252 7559 1176 7412 1064" style="stroke:#000;stroke-width:16;stroke-miterlimit:8"/><polyline points="10060 3837 10703 3122" style="stroke:#000;stroke-width:16;stroke-linejoin:round;stroke-linecap:butt"/><polyline points="10701 3264 10737 3084 10560 3138" style="stroke:#000;stroke-width:16;stroke-miterlimit:8"/><polyline points="8367 2014 7920 1310" style="stroke:#5050ff;stroke-width:48;stroke-linejoin:round;stroke-linecap:butt"/><polyline points="8022 1294 7858 1212 7862 1395" style="stroke:#5050ff;stroke-width:16;stroke-miterlimit:8"/><polyline points="1867 1489 2571 552" style="stroke:#5050ff;stroke-width:48;stroke-linejoin:round;stroke-linecap:butt"/><polyline points="2621 641 2641 459 2470 528" style="stroke:#5050ff;stroke-width:16;stroke-miterlimit:8"/><polyline points="10688 2376 11036 1219" style="stroke:#5050ff;stroke-width:48;stroke-linejoin:round;stroke-linecap:butt"/><polyline points="11114 1287 11069 1109 10933 1232" style="stroke:#5050ff;stroke-width:16;stroke-miterlimit:8"/><polyline points="2511 380 1765 1328" style="stroke:#000;stroke-width:16;stroke-linejoin:round;stroke-linecap:butt"/><polyline points="1758 1184 1736 1366 1907 1300" style="stroke:#000;stroke-width:16;stroke-miterlimit:8"/><polyline points="10795 3125 10285 3725" style="stroke:#5050ff;stroke-width:48;stroke-linejoin:round;stroke-linecap:butt"/><polyline points="10240 3631 10211 3813 10384 3754" style="stroke:#5050ff;stroke-width:16;stroke-miterlimit:8"/><polyline points="2847 537 2173 1486" style="stroke:#5050ff;stroke-width:48;stroke-linejoin:round;stroke-linecap:butt"/><polyline points="2120 1396 2107 1580 2275 1505" style="stroke:#5050ff;stroke-width:16;stroke-miterlimit:8"/><polyline points="7544 1175 7586 3205" style="stroke:#000;stroke-width:16;stroke-linejoin:round;stroke-linecap:butt"/><polyline points="7488 3098 7587 3254 7677 3095" style="stroke:#000;stroke-width:16;stroke-miterlimit:8"/><polyline points="7706 3248 7671 1248" style="stroke:#5050ff;stroke-width:48;stroke-linejoin:round;stroke-linecap:butt"/><polyline points="7765 1288 7669 1132 7576 1291" style="stroke:#5050ff;stroke-width:16;stroke-miterlimit:8"/><polyline points="10986 984 10648 2184" style="stroke:#5050ff;stroke-width:48;stroke-linejoin:round;stroke-linecap:butt"/><polyline points="10569 2118 10617 2296 10750 2170" style="stroke:#5050ff;stroke-width:16;stroke-miterlimit:8"/><polyline points="1906 3226 1867 1558" style="stroke:#5050ff;stroke-width:48;stroke-linejoin:round;stroke-linecap:butt"/><polyline points="1963 1596 1865 1442 1774 1602" style="stroke:#5050ff;stroke-width:16;stroke-miterlimit:8"/><polyline points="2256 1457 2938 481" style="stroke:#000;stroke-width:16;stroke-linejoin:round;stroke-linecap:butt"/><polyline points="2953 624 2966 441 2798 516" style="stroke:#000;stroke-width:16;stroke-miterlimit:8"/><polyline points="1699 1529 1756 3235" style="stroke:#000;stroke-width:16;stroke-linejoin:round;stroke-linecap:butt"/><polyline points="1656 3130 1756 3285 1845 3124" style="stroke:#000;stroke-width:16;stroke-miterlimit:8"/><polyline points="7899 1275 7878 3107" style="stroke:#5050ff;stroke-width:48;stroke-linejoin:round;stroke-linecap:butt"/><polyline points="7783 3063 7877 3223 7972 3066" style="stroke:#5050ff;stroke-width:16;stroke-miterlimit:8"/><polyline points="2134 1543 2141 3216" style="stroke:#5050ff;stroke-width:48;stroke-linejoin:round;stroke-linecap:butt"/><polyline points="2046 3174 2141 3332 2235 3173" style="stroke:#5050ff;stroke-width:16;stroke-miterlimit:8"/><polyline points="7997 3329 7983 1258" style="stroke:#000;stroke-width:16;stroke-linejoin:round;stroke-linecap:butt"/><polyline points="8077 1365 7982 1209 7888 1366" style="stroke:#000;stroke-width:16;stroke-miterlimit:8"/><polyline points="8056 3397 10027 3829" style="stroke:#000;stroke-width:16;stroke-linejoin:round;stroke-linecap:butt"/><polyline points="9901 3898 10075 3840 9941 3713" style="stroke:#000;stroke-width:16;stroke-miterlimit:8"/><polyline points="2208 3384 2209 1667" style="stroke:#000;stroke-width:16;stroke-linejoin:round;stroke-linecap:butt"/><polyline points="2303 1775 2209 1617 2114 1774" style="stroke:#000;stroke-width:16;stroke-miterlimit:8"/><polyline points="10024 3769 8030 3335" style="stroke:#000;stroke-width:16;stroke-linejoin:round;stroke-linecap:butt"/><polyline points="8155 3265 7982 3324 8115 3449" style="stroke:#000;stroke-width:16;stroke-miterlimit:8"/><polyline points="1745 1355 -240 958" style="stroke:#000;stroke-width:16;stroke-linejoin:round;stroke-linecap:butt"/><polyline points="-114 888 -287 950 -151 1072" style="stroke:#000;stroke-width:16;stroke-miterlimit:8"/><polyline points="-320 1117 1666 1522" style="stroke:#000;stroke-width:16;stroke-linejoin:round;stroke-linecap:butt"/><polyline points="1541 1593 1714 1532 1579 1407" style="stroke:#000;stroke-width:16;stroke-miterlimit:8"/><polyline points="10239 3780 10592 2624" style="stroke:#5050ff;stroke-width:48;stroke-linejoin:round;stroke-linecap:butt"/><polyline points="10669 2691 10625 2514 10489 2637" style="stroke:#5050ff;stroke-width:16;stroke-miterlimit:8"/><polyline points="10566 2437 10181 3713" style="stroke:#ff5050;stroke-width:48;stroke-linejoin:round;stroke-linecap:butt"/><polyline points="10102 3645 10148 3823 10283 3699" style="stroke:#ff5050;stroke-width:16;stroke-miterlimit:8"/><polyline points="10911 924 10251 1290" style="stroke:#000;stroke-width:16;stroke-linejoin:round;stroke-linecap:butt"/><polyline points="10299 1154 10207 1314 10390 1320" style="stroke:#000;stroke-width:16;stroke-miterlimit:8"/><polyline points="4728 2068 5076 985" style="stroke:#5050ff;stroke-width:48;stroke-linejoin:round;stroke-linecap:butt"/><polyline points="5151 1054 5110 875 4972 996" style="stroke:#5050ff;stroke-width:16;stroke-miterlimit:8"/><polyline points="10353 1366 10913 1020" style="stroke:#5050ff;stroke-width:48;stroke-linejoin:round;stroke-linecap:butt"/><polyline points="10927 1122 11012 959 10828 961" style="stroke:#5050ff;stroke-width:16;stroke-miterlimit:8"/><polyline points="4996 795 4619 1892" style="stroke:#000;stroke-width:16;stroke-linejoin:round;stroke-linecap:butt"/><polyline points="4564 1758 4603 1939 4743 1820" style="stroke:#000;stroke-width:16;stroke-miterlimit:8"/><polyline points="4414 3857 4717 2135" style="stroke:#ff5050;stroke-width:48;stroke-linejoin:round;stroke-linecap:butt"/><polyline points="4801 2192 4735 2020 4615 2159" style="stroke:#ff5050;stroke-width:16;stroke-miterlimit:8"/><polyline points="4563 2115 4272 3874" style="stroke:#000;stroke-width:16;stroke-linejoin:round;stroke-linecap:butt"/><polyline points="4198 3752 4266 3923 4385 3782" style="stroke:#000;stroke-width:16;stroke-miterlimit:8"/><polyline points="10630 2251 10373 1432" style="stroke:#5050ff;stroke-width:48;stroke-linejoin:round;stroke-linecap:butt"/><polyline points="10476 1443 10340 1321 10296 1500" style="stroke:#5050ff;stroke-width:16;stroke-miterlimit:8"/><polyline points="10293 1595 10555 2404" style="stroke:#5050ff;stroke-width:48;stroke-linejoin:round;stroke-linecap:butt"/><polyline points="10451 2392 10590 2514 10630 2334" style="stroke:#5050ff;stroke-width:16;stroke-miterlimit:8"/><polyline points="10222 1307 8078 1080" style="stroke:#000;stroke-width:16;stroke-linejoin:round;stroke-linecap:butt"/><polyline points="8195 998 8029 1076 8175 1186" style="stroke:#000;stroke-width:16;stroke-miterlimit:8"/><polyline points="7983 1225 10133 1466" style="stroke:#000;stroke-width:16;stroke-linejoin:round;stroke-linecap:butt"/><polyline points="10014 1547 10182 1471 10035 1359" style="stroke:#000;stroke-width:16;stroke-miterlimit:8"/><polyline points="10167 1470 10025 3734" style="stroke:#000;stroke-width:16;stroke-linejoin:round;stroke-linecap:butt"/><polyline points="9938 3619 10023 3783 10127 3631" style="stroke:#000;stroke-width:16;stroke-miterlimit:8"/><polyline points="10162 3779 10302 1672" style="stroke:#5050ff;stroke-width:48;stroke-linejoin:round;stroke-linecap:butt"/><polyline points="10391 1719 10308 1556 10203 1707" style="stroke:#5050ff;stroke-width:16;stroke-miterlimit:8"/><polyline points="4608 1925 2288 1462" style="stroke:#000;stroke-width:16;stroke-linejoin:round;stroke-linecap:butt"/><polyline points="2412 1392 2240 1454 2375 1576" style="stroke:#000;stroke-width:16;stroke-miterlimit:8"/><polyline points="2209 1633 4530 2108" style="stroke:#000;stroke-width:16;stroke-linejoin:round;stroke-linecap:butt"/><polyline points="4404 2179 4578 2118 4443 1993" style="stroke:#000;stroke-width:16;stroke-miterlimit:8"/><polyline points="6878 708 6900 659 7077 648" style="stroke:red;stroke-width:8;stroke-linejoin:miter;stroke-linecap:butt"/><polyline points="7106 795 7044 668" style="stroke:red;stroke-width:8;stroke-linejoin:miter;stroke-linecap:butt"/><polyline points="7153 604 7091 676" style="stroke:red;stroke-width:8;stroke-linejoin:miter;stroke-linecap:butt"/><polyline points="7560 1023 7587 1072 7797 1127" style="stroke:red;stroke-width:8;stroke-linejoin:miter;stroke-linecap:butt"/><polyline points="7913 1020 7864 1095" style="stroke:red;stroke-width:8;stroke-linejoin:miter;stroke-linecap:butt"/><polyline points="7770 1330 7822 1159" style="stroke:red;stroke-width:8;stroke-linejoin:miter;stroke-linecap:butt"/><polyline points="7973 1176 7854 1120" style="stroke:red;stroke-width:8;stroke-linejoin:miter;stroke-linecap:butt"/><polyline points="7899 1297 7835 1156" style="stroke:red;stroke-width:8;stroke-linejoin:miter;stroke-linecap:butt"/><polyline points="8104 1240 8015 1137 7869 1117" style="stroke:red;stroke-width:8;stroke-linejoin:miter;stroke-linecap:butt"/><polyline points="8169 1038 7842 1102" style="stroke:red;stroke-width:8;stroke-linejoin:miter;stroke-linecap:butt"/><polyline points="7549 1266 7822 1134" style="stroke:red;stroke-width:8;stroke-linejoin:miter;stroke-linecap:butt"/><polyline points="8480 802 8710 712" style="stroke:red;stroke-width:8;stroke-linejoin:miter;stroke-linecap:butt"/><polyline points="9047 765 8969 696 8785 692" style="stroke:red;stroke-width:8;stroke-linejoin:miter;stroke-linecap:butt"/><polyline points="8800 814 8758 725" style="stroke:red;stroke-width:8;stroke-linejoin:miter;stroke-linecap:butt"/><polyline points="8639 832 8735 743" style="stroke:red;stroke-width:8;stroke-linejoin:miter;stroke-linecap:butt"/><polyline points="8733 990 8768 893 8748 756" style="stroke:red;stroke-width:8;stroke-linejoin:miter;stroke-linecap:butt"/><polyline points="8899 935 8839 771 8768 720" style="stroke:red;stroke-width:8;stroke-linejoin:miter;stroke-linecap:butt"/><polyline points="9053 928 8936 729 8758 712" style="stroke:red;stroke-width:8;stroke-linejoin:miter;stroke-linecap:butt"/><polyline points="8478 766 8478 695 8730 682" style="stroke:red;stroke-width:8;stroke-linejoin:miter;stroke-linecap:butt"/><polyline points="8191 1814 8208 1906 8258 1943" style="stroke:red;stroke-width:8;stroke-linejoin:miter;stroke-linecap:butt"/><polyline points="8183 2041 8267 1995" style="stroke:red;stroke-width:8;stroke-linejoin:miter;stroke-linecap:butt"/><polyline points="8280 2096 8285 1997" style="stroke:red;stroke-width:8;stroke-linejoin:miter;stroke-linecap:butt"/><polyline points="8396 1963 8320 1958" style="stroke:red;stroke-width:8;stroke-linejoin:miter;stroke-linecap:butt"/><polyline points="8482 1864 8322 1933" style="stroke:red;stroke-width:8;stroke-linejoin:miter;stroke-linecap:butt"/><polyline points="8508 2037 8332 1990" style="stroke:red;stroke-width:8;stroke-linejoin:miter;stroke-linecap:butt"/><polyline points="8404 2213 8298 1992" style="stroke:red;stroke-width:8;stroke-linejoin:miter;stroke-linecap:butt"/><polyline points="8298 1880 8250 1890 8270 1930" style="stroke:red;stroke-width:8;stroke-linejoin:miter;stroke-linecap:butt"/><polyline points="7518 3222 7512 3321 7738 3383" style="stroke:red;stroke-width:8;stroke-linejoin:miter;stroke-linecap:butt"/><polyline points="7698 3192 7673 3245 7750 3331" style="stroke:red;stroke-width:8;stroke-linejoin:miter;stroke-linecap:butt"/><polyline points="7665 3298 7750 3375" style="stroke:red;stroke-width:8;stroke-linejoin:miter;stroke-linecap:butt"/><polyline points="8139 3418 8017 3445 7782 3383" style="stroke:red;stroke-width:8;stroke-linejoin:miter;stroke-linecap:butt"/><polyline points="7762 3220 7782 3334" style="stroke:red;stroke-width:8;stroke-linejoin:miter;stroke-linecap:butt"/><polyline points="7953 3198 7939 3319 7800 3337" style="stroke:red;stroke-width:8;stroke-linejoin:miter;stroke-linecap:butt"/><polyline points="8023 3292 7995 3379 7809 3378" style="stroke:red;stroke-width:8;stroke-linejoin:miter;stroke-linecap:butt"/><polyline points="7997 3289 7946 3345 7807 3355" style="stroke:red;stroke-width:8;stroke-linejoin:miter;stroke-linecap:butt"/><polyline points="7044 2274 7101 2338" style="stroke:red;stroke-width:8;stroke-linejoin:miter;stroke-linecap:butt"/><polyline points="7272 2347 7128 2363" style="stroke:red;stroke-width:8;stroke-linejoin:miter;stroke-linecap:butt"/><polyline points="7039 2486 7079 2394" style="stroke:red;stroke-width:8;stroke-linejoin:miter;stroke-linecap:butt"/><polyline points="5964 2843 5897 2934" style="stroke:red;stroke-width:8;stroke-linejoin:miter;stroke-linecap:butt"/><polyline points="6122 2972 6033 3001 5907 2969" style="stroke:red;stroke-width:8;stroke-linejoin:miter;stroke-linecap:butt"/><polyline points="6006 2815 6018 2847 5917 2943" style="stroke:red;stroke-width:8;stroke-linejoin:miter;stroke-linecap:butt"/><polyline points="5815 975 5681 916" style="stroke:red;stroke-width:8;stroke-linejoin:miter;stroke-linecap:butt"/><polyline points="5885 990 5823 918 5723 903" style="stroke:red;stroke-width:8;stroke-linejoin:miter;stroke-linecap:butt"/><polyline points="6043 814 5793 836 5736 876" style="stroke:red;stroke-width:8;stroke-linejoin:miter;stroke-linecap:butt"/><polyline points="10822 975 11055 898" style="stroke:red;stroke-width:8;stroke-linejoin:miter;stroke-linecap:butt"/><polyline points="10871 1015 11059 903" style="stroke:red;stroke-width:8;stroke-linejoin:miter;stroke-linecap:butt"/><polyline points="11013 1033 11055 1002 11059 916" style="stroke:red;stroke-width:8;stroke-linejoin:miter;stroke-linecap:butt"/><polyline points="11029 1224 11106 1164 11082 909" style="stroke:red;stroke-width:8;stroke-linejoin:miter;stroke-linecap:butt"/><polyline points="10123 1300 10202 1362" style="stroke:red;stroke-width:8;stroke-linejoin:miter;stroke-linecap:butt"/><polyline points="10165 1523 10198 1513 10237 1404" style="stroke:red;stroke-width:8;stroke-linejoin:miter;stroke-linecap:butt"/><polyline points="10393 1335 10319 1328 10260 1362" style="stroke:red;stroke-width:8;stroke-linejoin:miter;stroke-linecap:butt"/><polyline points="10341 1523 10333 1426 10257 1384" style="stroke:red;stroke-width:8;stroke-linejoin:miter;stroke-linecap:butt"/><polyline points="10772 2867 10962 3001" style="stroke:red;stroke-width:8;stroke-linejoin:miter;stroke-linecap:butt"/><polyline points="10824 2845 10962 2897 10955 3016" style="stroke:red;stroke-width:8;stroke-linejoin:miter;stroke-linecap:butt"/><polyline points="10807 3142 10886 3147 10936 3085" style="stroke:red;stroke-width:8;stroke-linejoin:miter;stroke-linecap:butt"/><polyline points="10639 3090 10725 3060 10958 3050" style="stroke:red;stroke-width:8;stroke-linejoin:miter;stroke-linecap:butt"/><polyline points="10111 3778 10136 3843" style="stroke:red;stroke-width:8;stroke-linejoin:miter;stroke-linecap:butt"/><polyline points="9916 3741 9960 3907 10111 3882" style="stroke:red;stroke-width:8;stroke-linejoin:miter;stroke-linecap:butt"/><polyline points="10165 3681 10123 3723 10160 3838" style="stroke:red;stroke-width:8;stroke-linejoin:miter;stroke-linecap:butt"/><polyline points="10255 3711 10173 3835" style="stroke:red;stroke-width:8;stroke-linejoin:miter;stroke-linecap:butt"/><polyline points="10579 2422 10732 2295" style="stroke:red;stroke-width:8;stroke-linejoin:miter;stroke-linecap:butt"/><polyline points="10683 2564 10727 2332" style="stroke:red;stroke-width:8;stroke-linejoin:miter;stroke-linecap:butt"/><polyline points="10678 2200 10754 2287" style="stroke:red;stroke-width:8;stroke-linejoin:miter;stroke-linecap:butt"/><polyline points="10603 2145 10698 2287" style="stroke:red;stroke-width:8;stroke-linejoin:miter;stroke-linecap:butt"/><polyline points="8529 2696 8574 2672 8709 2681" style="stroke:red;stroke-width:8;stroke-linejoin:miter;stroke-linecap:butt"/><polyline points="8591 2741 8698 2739" style="stroke:red;stroke-width:8;stroke-linejoin:miter;stroke-linecap:butt"/><polyline points="8807 2644 8751 2671" style="stroke:red;stroke-width:8;stroke-linejoin:miter;stroke-linecap:butt"/><polyline points="8843 2851 8745 2719" style="stroke:red;stroke-width:8;stroke-linejoin:miter;stroke-linecap:butt"/><polyline points="8896 2592 8952 2666 8767 2699" style="stroke:red;stroke-width:8;stroke-linejoin:miter;stroke-linecap:butt"/><polyline points="9062 2664 8920 2732 8759 2720" style="stroke:red;stroke-width:8;stroke-linejoin:miter;stroke-linecap:butt"/><polyline points="8629 2553 8726 2704" style="stroke:red;stroke-width:8;stroke-linejoin:miter;stroke-linecap:butt"/><polyline points="8693 2592 8732 2686" style="stroke:red;stroke-width:8;stroke-linejoin:miter;stroke-linecap:butt"/><polyline points="-340 1120 -468 1058" style="stroke:red;stroke-width:8;stroke-linejoin:miter;stroke-linecap:butt"/><polyline points="-171 876 -265 856 -479 1007" style="stroke:red;stroke-width:8;stroke-linejoin:miter;stroke-linecap:butt"/><polyline points="-248 1125 -277 1067 -471 1033" style="stroke:red;stroke-width:8;stroke-linejoin:miter;stroke-linecap:butt"/><polyline points="-56 2751 -131 2888" style="stroke:red;stroke-width:8;stroke-linejoin:miter;stroke-linecap:butt"/><polyline points="-34 2668 -149 2771 -151 2871" style="stroke:red;stroke-width:8;stroke-linejoin:miter;stroke-linecap:butt"/><polyline points="154 2866 -117 2914" style="stroke:red;stroke-width:8;stroke-linejoin:miter;stroke-linecap:butt"/><polyline points="826 1900 806 1858 819 1786" style="stroke:red;stroke-width:8;stroke-linejoin:miter;stroke-linecap:butt"/><polyline points="774 1620 871 1729" style="stroke:red;stroke-width:8;stroke-linejoin:miter;stroke-linecap:butt"/><polyline points="1017 1732 843 1763" style="stroke:red;stroke-width:8;stroke-linejoin:miter;stroke-linecap:butt"/><polyline points="819 98 731 2" style="stroke:red;stroke-width:8;stroke-linejoin:miter;stroke-linecap:butt"/><polyline points="791 227 751 201 714 22" style="stroke:red;stroke-width:8;stroke-linejoin:miter;stroke-linecap:butt"/><polyline points="557 213 677 10" style="stroke:red;stroke-width:8;stroke-linejoin:miter;stroke-linecap:butt"/><polyline points="2452 439 2763 396" style="stroke:red;stroke-width:8;stroke-linejoin:miter;stroke-linecap:butt"/><polyline points="2638 605 2761 376" style="stroke:red;stroke-width:8;stroke-linejoin:miter;stroke-linecap:butt"/><polyline points="2777 630 2741 396" style="stroke:red;stroke-width:8;stroke-linejoin:miter;stroke-linecap:butt"/><polyline points="3023 465 2960 400 2789 390" style="stroke:red;stroke-width:8;stroke-linejoin:miter;stroke-linecap:butt"/><polyline points="1682 1346 1740 1424 2009 1516" style="stroke:red;stroke-width:8;stroke-linejoin:miter;stroke-linecap:butt"/><polyline points="1946 1378 2009 1501" style="stroke:red;stroke-width:8;stroke-linejoin:miter;stroke-linecap:butt"/><polyline points="2135 1678 2046 1516" style="stroke:red;stroke-width:8;stroke-linejoin:miter;stroke-linecap:butt"/><polyline points="1702 1691 1974 1665 2011 1545" style="stroke:red;stroke-width:8;stroke-linejoin:miter;stroke-linecap:butt"/><polyline points="2512 1908 2663 2106" style="stroke:red;stroke-width:8;stroke-linejoin:miter;stroke-linecap:butt"/><polyline points="2774 1943 2681 2122" style="stroke:red;stroke-width:8;stroke-linejoin:miter;stroke-linecap:butt"/><polyline points="2955 2152 2883 2177 2698 2142" style="stroke:red;stroke-width:8;stroke-linejoin:miter;stroke-linecap:butt"/><polyline points="2527 2197 2666 2142" style="stroke:red;stroke-width:8;stroke-linejoin:miter;stroke-linecap:butt"/><polyline points="1846 3219 1969 3329" style="stroke:red;stroke-width:8;stroke-linejoin:miter;stroke-linecap:butt"/><polyline points="1891 3140 1991 3208 1986 3342" style="stroke:red;stroke-width:8;stroke-linejoin:miter;stroke-linecap:butt"/><polyline points="2180 3226 2172 3349 2029 3342" style="stroke:red;stroke-width:8;stroke-linejoin:miter;stroke-linecap:butt"/><polyline points="2338 3414 2009 3374" style="stroke:red;stroke-width:8;stroke-linejoin:miter;stroke-linecap:butt"/><polyline points="4924 836 5110 791" style="stroke:red;stroke-width:8;stroke-linejoin:miter;stroke-linecap:butt"/><polyline points="4950 911 5099 839" style="stroke:red;stroke-width:8;stroke-linejoin:miter;stroke-linecap:butt"/><polyline points="5072 1117 5159 991 5135 854" style="stroke:red;stroke-width:8;stroke-linejoin:miter;stroke-linecap:butt"/><polyline points="4498 1898 4507 1958 4619 2015" style="stroke:red;stroke-width:8;stroke-linejoin:miter;stroke-linecap:butt"/><polyline points="4556 2183 4596 2109 4624 2035" style="stroke:red;stroke-width:8;stroke-linejoin:miter;stroke-linecap:butt"/><polyline points="4767 1966 4604 1989" style="stroke:red;stroke-width:8;stroke-linejoin:miter;stroke-linecap:butt"/><polyline points="4712 2432 4893 2541 4898 2658" style="stroke:red;stroke-width:8;stroke-linejoin:miter;stroke-linecap:butt"/><polyline points="4753 2721 4913 2666" style="stroke:red;stroke-width:8;stroke-linejoin:miter;stroke-linecap:butt"/><polyline points="4516 2624 4553 2581 4904 2641" style="stroke:red;stroke-width:8;stroke-linejoin:miter;stroke-linecap:butt"/><polyline points="4121 3871 4350 4009" style="stroke:red;stroke-width:8;stroke-linejoin:miter;stroke-linecap:butt"/><polyline points="4324 3754 4362 3977" style="stroke:red;stroke-width:8;stroke-linejoin:miter;stroke-linecap:butt"/><polyline points="4430 3815 4373 3954" style="stroke:red;stroke-width:8;stroke-linejoin:miter;stroke-linecap:butt"/><circle cx="8739" cy="703" r="62" style="fill:#787878;stroke:#787878;stroke-width:8"/><circle cx="11063" cy="887" r="62" style="fill:#787878;stroke:#787878;stroke-width:8"/><circle cx="10243" cy="1387" r="62" style="fill:#787878;stroke:#787878;stroke-width:8"/><circle cx="7840" cy="1125" r="62" style="fill:#787878;stroke:#787878;stroke-width:8"/><circle cx="8287" cy="1965" r="62" style="fill:#787878;stroke:#787878;stroke-width:8"/><circle cx="7059" cy="670" r="62" style="fill:#787878;stroke:#787878;stroke-width:8"/><circle cx="5709" cy="914" r="62" style="fill:#787878;stroke:#787878;stroke-width:8"/><circle cx="7110" cy="2365" r="62" style="fill:#787878;stroke:#787878;stroke-width:8"/><circle cx="5882" cy="2942" r="62" style="fill:#787878;stroke:#787878;stroke-width:8"/><circle cx="8727" cy="2700" r="62" style="fill:#787878;stroke:#787878;stroke-width:8"/><circle cx="7776" cy="3362" r="62" style="fill:#787878;stroke:#787878;stroke-width:8"/><circle cx="10741" cy="2291" r="62" style="fill:#787878;stroke:#787878;stroke-width:8"/><circle cx="10960" cy="3039" r="62" style="fill:#787878;stroke:#787878;stroke-width:8"/><circle cx="10133" cy="3870" r="62" style="fill:#787878;stroke:#787878;stroke-width:8"/><circle cx="2762" cy="402" r="62" style="fill:#787878;stroke:#787878;stroke-width:8"/><circle cx="5131" cy="815" r="62" style="fill:#787878;stroke:#787878;stroke-width:8"/><circle cx="4622" cy="2016" r="62" style="fill:#787878;stroke:#787878;stroke-width:8"/><circle cx="4897" cy="2646" r="62" style="fill:#787878;stroke:#787878;stroke-width:8"/><circle cx="4370" cy="3983" r="62" style="fill:#787878;stroke:#787878;stroke-width:8"/><circle cx="1994" cy="3366" r="62" style="fill:#787878;stroke:#787878;stroke-width:8"/><circle cx="2679" cy="2133" r="62" style="fill:#787878;stroke:#787878;stroke-width:8"/><circle cx="860" cy="1760" r="62" style="fill:#787878;stroke:#787878;stroke-width:8"/><circle cx="-141" cy="2912" r="62" style="fill:#787878;stroke:#787878;stroke-width:8"/><circle cx="712" cy="-10" r="62" style="fill:#787878;stroke:#787878;stroke-width:8"/><circle cx="-489" cy="1042" r="62" style="fill:#787878;stroke:#787878;stroke-width:8"/><circle cx="2014" cy="1527" r="62" style="fill:#787878;stroke:#787878;stroke-width:8"/><path style="stroke:#000;stroke-width:32;stroke-linecap:butt" d="M 4065,508 A 6242 6242 0 0 1 7637 554"/><polygon points="7331 579 7627 551 7393 367 7415 489 7331 579" style="stroke:#000;stroke-width:8;stroke-miterlimit:8;fill:#fff"/><path style="stroke:#000;stroke-width:32;stroke-linecap:butt" d="M 7879,3504 A 6128 6128 0 0 1 4544 3717"/><polygon points="4846 3664 4555 3719 4804 3880 4771 3761 4846 3664" style="stroke:#000;stroke-width:8;stroke-miterlimit:8;fill:#fff"/><text x="4458" y="4140" fill="#000" font-family="Times" font-size="227" font-style="normal" font-weight="normal" text-anchor="start" xml:space="preserve">Vector&lt;Dart_handle&gt;v1 = {Dart_of_cell_range&lt;0,2&gt;(dh3)}</text><text x="9937" y="2755" fill="#000" font-family="Times" font-size="278" font-style="normal" font-weight="normal" text-anchor="start" xml:space="preserve">dh4</text><text x="4368" y="183" fill="#000" font-family="Times" font-size="227" font-style="normal" font-weight="normal" text-anchor="start" xml:space="preserve">dh4=lcc.insert_barycenter_in_cell&lt;2&gt;(dh2)</text><text x="3968" y="-141" fill="#000" font-family="Times" font-size="227" font-style="normal" font-weight="normal" text-anchor="start" xml:space="preserve">dh3=lcc.insert_barycenter_in_cell&lt;2&gt;(dh1)</text><text x="5149" y="4866" fill="#000" font-family="Times" font-size="227" font-style="italic" font-weight="normal" text-anchor="start" xml:space="preserve">dh in v1 U v2: CGAL::remove_cell&lt;LCC,1&gt;(lcc,dh)</text><text x="4866" y="4866" fill="#000" font-family="Times,Symbol" font-size="240" font-style="normal" font-weight="normal" text-anchor="start" xml:space="preserve">∀</text><text x="4582" y="4488" fill="#000" font-family="Times" font-size="227" font-style="normal" font-weight="normal" text-anchor="start" xml:space="preserve">Vector&lt;Dart_handle&gt;v2 = {Dart_of_cell_range&lt;0,2&gt;(dh4)}</text><text x="2551" y="283" fill="#000" font-family="Times" font-size="278" font-style="normal" font-weight="normal" text-anchor="start" xml:space="preserve">dh1</text><text x="4629" y="3448" fill="#000" font-family="Times" font-size="278" font-style="normal" font-weight="normal" text-anchor="start" xml:space="preserve">dh2</text><text x="8267" y="661" fill="#000" font-family="Times" font-size="278" font-style="normal" font-weight="normal" text-anchor="start" xml:space="preserve">dh3</text></g></svg>