<svg xmlns="http://www.w3.org/2000/svg" xmlns:svg="http://www.w3.org/2000/svg" id="svg2" width="266.404" height="145.213" version="1.1"><metadata id="metadata7"/><g id="layer1" transform="translate(-246.79778,-242.65937)"><g id="g2995" transform="matrix(1.25,0,0,-1.25,97.13439,1171.175)"><g id="g2997"><path style="fill:#000;fill-opacity:1;fill-rule:evenodd;stroke:none" id="path2999" d="m 129.8,640 c 0,0.994 -0.806,1.8 -1.8,1.8 -0.994,0 -1.8,-0.806 -1.8,-1.8 0,-0.994 0.806,-1.8 1.8,-1.8 0.994,0 1.8,0.806 1.8,1.8"/></g></g><g id="g3001" transform="matrix(1.25,0,0,-1.25,97.13439,1171.175)"><g id="g3003"><path style="fill:#000;fill-opacity:1;fill-rule:evenodd;stroke:none" id="path3005" d="m 321.8,640 c 0,0.994 -0.806,1.8 -1.8,1.8 -0.994,0 -1.8,-0.806 -1.8,-1.8 0,-0.994 0.806,-1.8 1.8,-1.8 0.994,0 1.8,0.806 1.8,1.8"/></g></g><g id="g3007" transform="matrix(1.25,0,0,-1.25,97.13439,1171.175)"><path style="fill:none;stroke:#000;stroke-width:.40000001;stroke-linecap:butt;stroke-linejoin:round;stroke-miterlimit:10;stroke-opacity:1;stroke-dasharray:1,3;stroke-dashoffset:0" id="path3009" d="m 128,640 192,0"/></g><g id="g3011" transform="matrix(1.25,0,0,-1.25,97.13439,1171.175)"><path style="fill:none;stroke:#000;stroke-width:.40000001;stroke-linecap:butt;stroke-linejoin:round;stroke-miterlimit:10;stroke-opacity:1;stroke-dasharray:1,3;stroke-dashoffset:0" id="path3013" d="m 128,640 49.871,84.191"/><g id="g3015"><g id="g3017"><path style="fill:#000;fill-opacity:1;fill-rule:evenodd;stroke:#000;stroke-width:.40000001;stroke-linecap:butt;stroke-linejoin:round;stroke-miterlimit:10;stroke-opacity:1;stroke-dasharray:none" id="path3019" d="m 177.871,724.191 -5.573,-4.835 4.011,-2.376 1.562,7.211 z"/></g></g><g id="g3021"><g id="g3023"><path style="fill:#000;fill-opacity:1;fill-rule:evenodd;stroke:#000;stroke-width:.40000001;stroke-linecap:butt;stroke-linejoin:round;stroke-miterlimit:10;stroke-opacity:1;stroke-dasharray:none" id="path3025" d="m 128,640 5.573,4.835 -4.011,2.376 L 128,640 z"/></g></g></g><g id="g3027" transform="matrix(1.25,0,0,-1.25,97.13439,1171.175)"><path style="fill:none;stroke:#000;stroke-width:.40000001;stroke-linecap:butt;stroke-linejoin:round;stroke-miterlimit:10;stroke-opacity:1;stroke-dasharray:1,3;stroke-dashoffset:0" id="path3029" d="M 177.871,724.191 320,640"/><g id="g3031"><g id="g3033"><path style="fill:#000;fill-opacity:1;fill-rule:evenodd;stroke:#000;stroke-width:.40000001;stroke-linecap:butt;stroke-linejoin:round;stroke-miterlimit:10;stroke-opacity:1;stroke-dasharray:none" id="path3035" d="m 320,640 -4.835,5.573 -2.376,-4.011 L 320,640 z"/></g></g><g id="g3037"><g id="g3039"><path style="fill:#000;fill-opacity:1;fill-rule:evenodd;stroke:#000;stroke-width:.40000001;stroke-linecap:butt;stroke-linejoin:round;stroke-miterlimit:10;stroke-opacity:1;stroke-dasharray:none" id="path3041" d="m 177.871,724.191 4.835,-5.573 2.376,4.011 -7.211,1.562 z"/></g></g></g><g id="g3043" transform="matrix(1.25,0,0,-1.25,97.13439,1171.175)"><path style="fill:none;stroke:#000;stroke-width:.40000001;stroke-linecap:butt;stroke-linejoin:round;stroke-miterlimit:10;stroke-opacity:1;stroke-dasharray:none" id="path3045" d="m 190.601,742.687 c -15.758,-19.856 -26.734,-43.073 -32.08,-67.853"/></g><g id="g3047" transform="matrix(1.25,0,0,-1.25,97.13439,1171.175)"><path style="fill:none;stroke:#000;stroke-width:.40000001;stroke-linecap:butt;stroke-linejoin:round;stroke-miterlimit:10;stroke-opacity:1;stroke-dasharray:none" id="path3049" d="m 219.218,675.418 c -12.147,31.284 -39.477,54.16 -72.41,60.61"/></g><g id="g3051" transform="matrix(1.25,0,0,-1.25,97.13439,1171.175)"><path style="fill:none;stroke:#000;stroke-width:.40000001;stroke-linecap:butt;stroke-linejoin:round;stroke-miterlimit:10;stroke-opacity:1;stroke-dasharray:none" id="path3053" d="m 186.01,718.804 -5.254,-9.578 -8.503,4.664 0,0"/></g><g id="g3055" transform="matrix(1.25,0,0,-1.25,507.24314,383.81375)"><g id="g3057" transform="translate(0,-787.711)"><text id="text3059" transform="matrix(1,0,0,-1,0,787.711)"><tspan style="font-size:9.96259975px;font-variant:normal;font-weight:400;writing-mode:lr-tb;fill:#000;fill-opacity:1;fill-rule:nonzero;stroke:none;font-family:CMMI10;-inkscape-font-specification:CMMI10" id="tspan3061" x="0" y="0">z</tspan></text></g></g><g id="g3063" transform="matrix(1.25,0,0,-1.25,245.97689,387.81875)"><g id="g3065" transform="translate(0,-785.773)"><text id="text3067" transform="matrix(1,0,0,-1,0,787.71)"><tspan style="font-size:9.96259975px;font-variant:normal;font-weight:400;writing-mode:lr-tb;fill:#000;fill-opacity:1;fill-rule:nonzero;stroke:none;font-family:CMMI10;-inkscape-font-specification:CMMI10" id="tspan3069" x="0" y="0">p</tspan></text></g></g><text id="text3075" x="408.404" y="310.756" style="font-size:15px"><tspan style="font-size:12.45324993px;font-variant:normal;font-weight:400;writing-mode:lr-tb;fill:#000;fill-opacity:1;fill-rule:nonzero;stroke:none;font-family:CMSY10;-inkscape-font-specification:CMSY10" id="tspan3077" x="408.404" y="310.756">√</tspan></text><g id="g3079" transform="matrix(1.25,0,0,-1.25,414.86689,299.85)"><path style="fill:none;stroke:#000;stroke-width:.398;stroke-linecap:butt;stroke-linejoin:round;stroke-miterlimit:10;stroke-opacity:1;stroke-dasharray:none" id="path3081" d="M 0,0 11.723,0"/></g><text id="text3083" x="416.867" y="308.135" style="font-size:15px"><tspan style="font-size:12.45324993px;font-variant:normal;font-weight:400;writing-mode:lr-tb;fill:#000;fill-opacity:1;fill-rule:nonzero;stroke:none;font-family:CMMI10;-inkscape-font-specification:CMMI10" id="tspan3085" x="416.867" y="308.135">w</tspan></text><text id="text3087" x="425.783" y="312.002" style="font-size:15px"><tspan style="font-size:8.71724987px;font-variant:normal;font-weight:400;writing-mode:lr-tb;fill:#000;fill-opacity:1;fill-rule:nonzero;stroke:none;font-family:CMMI7;-inkscape-font-specification:CMMI7" id="tspan3089" x="425.783" y="312.002">z</tspan></text><text id="text3095" x="266.028" y="313.136" style="font-size:15px"><tspan style="font-size:12.45324993px;font-variant:normal;font-weight:400;writing-mode:lr-tb;fill:#000;fill-opacity:1;fill-rule:nonzero;stroke:none;font-family:CMSY10;-inkscape-font-specification:CMSY10" id="tspan3097" x="266.028" y="313.136">√</tspan></text><g id="g3099" transform="matrix(1.25,0,0,-1.25,272.28564,302.157)"><path style="fill:none;stroke:#000;stroke-width:.398;stroke-linecap:butt;stroke-linejoin:round;stroke-miterlimit:10;stroke-opacity:1;stroke-dasharray:none" id="path3101" d="M 0,0 11.737,0"/></g><text id="text3103" x="274.286" y="311.595" style="font-size:15px"><tspan style="font-size:12.45324993px;font-variant:normal;font-weight:400;writing-mode:lr-tb;fill:#000;fill-opacity:1;fill-rule:nonzero;stroke:none;font-family:CMMI10;-inkscape-font-specification:CMMI10" id="tspan3105" x="274.286" y="311.595">w</tspan></text><text id="text3107" x="283.202" y="313.462" style="font-size:15px"><tspan style="font-size:8.71724987px;font-variant:normal;font-weight:400;writing-mode:lr-tb;fill:#000;fill-opacity:1;fill-rule:nonzero;stroke:none;font-family:CMMI7;-inkscape-font-specification:CMMI7" id="tspan3109" x="283.202" y="313.462">p</tspan></text></g></svg>