<svg xmlns="http://www.w3.org/2000/svg" xmlns:svg="http://www.w3.org/2000/svg" id="svg2" width="550.162" height="169.27" version="1.1"><metadata id="metadata7"/><g id="layer1" transform="translate(-84.91879,-116.29867)"><g id="g2993" transform="matrix(1.25,0,0,-1.25,356.50754,328.95409)"><g id="g2995"><path id="path2997" d="M -31.0962,133.009 -43.112,106.876" style="fill:none;stroke:#000;stroke-width:.40000001;stroke-linecap:butt;stroke-linejoin:miter;stroke-miterlimit:10;stroke-opacity:1;stroke-dasharray:1,3;stroke-dashoffset:0"/><g id="g2999"><path id="path3001" d="m -43.112,106.876 5.0442,5.385 -4.2399,1.95 -0.8043,-7.335 z" style="fill:#000;fill-opacity:1;fill-rule:evenodd;stroke:#000;stroke-width:.40000001;stroke-linecap:butt;stroke-linejoin:miter;stroke-miterlimit:10;stroke-opacity:1;stroke-dasharray:none"/></g><g id="g3003"><path id="path3005" d="m -31.0962,133.009 -5.0442,-5.385 4.2399,-1.95 0.8043,7.335 z" style="fill:#000;fill-opacity:1;fill-rule:evenodd;stroke:#000;stroke-width:.40000001;stroke-linecap:butt;stroke-linejoin:miter;stroke-miterlimit:10;stroke-opacity:1;stroke-dasharray:none"/></g></g><g id="g3007"><path id="path3009" d="M -31.0962,133.009 6.06326,106.6" style="fill:none;stroke:#000;stroke-width:.40000001;stroke-linecap:butt;stroke-linejoin:miter;stroke-miterlimit:10;stroke-opacity:1;stroke-dasharray:1,3;stroke-dashoffset:0"/><g id="g3011"><path id="path3013" d="M 6.06326,106.6 1.70914,112.557 -0.994247,108.753 6.06326,106.6 z" style="fill:#000;fill-opacity:1;fill-rule:evenodd;stroke:#000;stroke-width:.40000001;stroke-linecap:butt;stroke-linejoin:miter;stroke-miterlimit:10;stroke-opacity:1;stroke-dasharray:none"/></g><g id="g3015"><path id="path3017" d="m -31.0962,133.009 4.3541,-5.957 2.7034,3.804 -7.0575,2.153 z" style="fill:#000;fill-opacity:1;fill-rule:evenodd;stroke:#000;stroke-width:.40000001;stroke-linecap:butt;stroke-linejoin:miter;stroke-miterlimit:10;stroke-opacity:1;stroke-dasharray:none"/></g></g><g id="g3019"><path id="path3021" d="M -43.112,106.876 6.06326,106.6" style="fill:none;stroke:#000;stroke-width:.40000001;stroke-linecap:butt;stroke-linejoin:miter;stroke-miterlimit:10;stroke-opacity:1;stroke-dasharray:1,3;stroke-dashoffset:0"/></g><g id="g3023"><path id="path3025" d="m 27.9852,53.9124 -9.6928,8.2851" style="fill:none;stroke:#000;stroke-width:.40000001;stroke-linecap:butt;stroke-linejoin:miter;stroke-miterlimit:10;stroke-opacity:1;stroke-dasharray:1,3;stroke-dashoffset:0"/><g id="g3027"><path id="path3029" d="m 18.2924,62.1975 3.8049,-6.3219 3.0322,3.5473 -6.8371,2.7746 z" style="fill:#000;fill-opacity:1;fill-rule:evenodd;stroke:#000;stroke-width:.40000001;stroke-linecap:butt;stroke-linejoin:miter;stroke-miterlimit:10;stroke-opacity:1;stroke-dasharray:none"/></g></g><g id="g3031" transform="translate(31.6777,53.548)"><g id="g3033" transform="translate(0,-785.081)"><text id="text3035" transform="matrix(1,0,0,-1,0,785.081)"><tspan id="tspan3037" x="0 4.982 8.887 12.763 18.292 23.553 27.976 30.746 34.651 39.075 41.845 49.596 54.577" y="0" style="font-size:9.9630003px;font-variant:normal;font-weight:400;writing-mode:lr-tb;fill:#000;fill-opacity:1;fill-rule:nonzero;stroke:none;font-family:CMR10;-inkscape-font-specification:CMR10">orthocircleof</tspan></text><text id="text3039" transform="matrix(1,0,0,-1,60.938,785.081)"><tspan id="tspan3041" x="0" y="0" style="font-size:9.9630003px;font-variant:normal;font-weight:400;writing-mode:lr-tb;fill:#000;fill-opacity:1;fill-rule:nonzero;stroke:none;font-family:CMMI10;-inkscape-font-specification:CMMI10">f</tspan></text></g></g><g id="g3043"><g id="g3045"><path id="path3047" d="m -42.112,106.876 c 0,0.552 -0.4477,1 -1,1 -0.5523,0 -1,-0.448 -1,-1 0,-0.552 0.4477,-1 1,-1 0.5523,0 1,0.448 1,1 z" style="fill:#000;fill-opacity:1;fill-rule:evenodd;stroke:#000;stroke-width:.40000001;stroke-linecap:butt;stroke-linejoin:miter;stroke-miterlimit:10;stroke-opacity:1;stroke-dasharray:none"/></g><g id="g3049" transform="translate(-55.6534,98.1483)"><g id="g3051" transform="translate(0,-787.71)"><text id="text3053" transform="matrix(1,0,0,-1,0,787.71)"><tspan id="tspan3055" x="0" y="0" style="font-size:9.9630003px;font-variant:normal;font-weight:400;writing-mode:lr-tb;fill:#000;fill-opacity:1;fill-rule:nonzero;stroke:none;font-family:CMMI10;-inkscape-font-specification:CMMI10">p</tspan></text></g></g><g id="g3057" transform="translate(-59.99,120.017)"><g id="g3059" transform="translate(0,-787.71)"><text id="text3061" transform="matrix(1,0,0,-1,0,787.71)"><tspan id="tspan3063" x="0" y="0" style="font-size:9.9630003px;font-variant:normal;font-weight:400;writing-mode:lr-tb;fill:#000;fill-opacity:1;fill-rule:nonzero;stroke:none;font-family:CMMI10;-inkscape-font-specification:CMMI10">w</tspan></text><text id="text3065" transform="matrix(1,0,0,-1,7.132,786.216)"><tspan id="tspan3067" x="0" y="0" style="font-size:6.97399998px;font-variant:normal;font-weight:400;writing-mode:lr-tb;fill:#000;fill-opacity:1;fill-rule:nonzero;stroke:none;font-family:CMMI7;-inkscape-font-specification:CMMI7">p</tspan></text></g></g><g id="g3069"><path id="path3071" d="m -14.3484,106.876 c 0,15.886 -12.8779,28.764 -28.7636,28.764 -15.8857,0 -28.7636,-12.878 -28.7636,-28.764 0,-15.8857 12.8779,-28.7636 28.7636,-28.7636 15.8857,0 28.7636,12.8779 28.7636,28.7636 z" style="fill:none;stroke:#000;stroke-width:.40000001;stroke-linecap:butt;stroke-linejoin:miter;stroke-miterlimit:10;stroke-opacity:1;stroke-dasharray:none"/></g></g><g id="g3073"><g id="g3075"><path id="path3077" d="m 7.06326,106.6 c 0,0.552 -0.44772,1 -1,1 -0.55228,0 -1,-0.448 -1,-1 0,-0.552 0.44772,-1 1,-1 0.55228,0 1,0.448 1,1 z" style="fill:#000;fill-opacity:1;fill-rule:evenodd;stroke:#000;stroke-width:.40000001;stroke-linecap:butt;stroke-linejoin:miter;stroke-miterlimit:10;stroke-opacity:1;stroke-dasharray:none"/></g><g id="g3079" transform="translate(-5.62168,121.653)"><g id="g3081" transform="translate(0,-787.71)"><text id="text3083" transform="matrix(1,0,0,-1,0,787.71)"><tspan id="tspan3085" x="0" y="0" style="font-size:9.9630003px;font-variant:normal;font-weight:400;writing-mode:lr-tb;fill:#000;fill-opacity:1;fill-rule:nonzero;stroke:none;font-family:CMMI10;-inkscape-font-specification:CMMI10">w</tspan></text><text id="text3087" transform="matrix(1,0,0,-1,7.132,786.216)"><tspan id="tspan3089" x="0" y="0" style="font-size:6.97399998px;font-variant:normal;font-weight:400;writing-mode:lr-tb;fill:#000;fill-opacity:1;fill-rule:nonzero;stroke:none;font-family:CMMI7;-inkscape-font-specification:CMMI7">z</tspan></text></g></g><g id="g3091"><path id="path3093" d="m 51.6511,106.6 c 0,25.177 -20.4104,45.588 -45.58784,45.588 -25.17746,0 -45.58776,-20.411 -45.58776,-45.588 0,-25.1774 20.4103,-45.5878 45.58776,-45.5878 25.17744,0 45.58784,20.4104 45.58784,45.5878 z" style="fill:none;stroke:#000;stroke-width:.40000001;stroke-linecap:butt;stroke-linejoin:miter;stroke-miterlimit:10;stroke-opacity:1;stroke-dasharray:none"/></g><g id="g3095" transform="translate(7.21468,99.9408)"><g id="g3097" transform="translate(0,-787.711)"><text id="text3099" transform="matrix(1,0,0,-1,0,787.711)"><tspan id="tspan3101" x="0" y="0" style="font-size:9.9630003px;font-variant:normal;font-weight:400;writing-mode:lr-tb;fill:#000;fill-opacity:1;fill-rule:nonzero;stroke:none;font-family:CMMI10;-inkscape-font-specification:CMMI10">z</tspan></text></g></g></g><g id="g3103"><path id="path3105" d="m -141.956,106.6 c 0,0.552 -0.448,1 -1,1 -0.552,0 -1,-0.448 -1,-1 0,-0.552 0.448,-1 1,-1 0.552,0 1,0.448 1,1 z" style="fill:#000;fill-opacity:1;fill-rule:evenodd;stroke:#000;stroke-width:.40000001;stroke-linecap:butt;stroke-linejoin:miter;stroke-miterlimit:10;stroke-opacity:1;stroke-dasharray:none"/></g><g id="g3107" transform="translate(-123.775,114.363)"><g id="g3109" transform="translate(0,-787.71)"><text id="text3111" transform="matrix(1,0,0,-1,0,787.71)"><tspan id="tspan3113" x="0" y="0" style="font-size:9.9630003px;font-variant:normal;font-weight:400;writing-mode:lr-tb;fill:#000;fill-opacity:1;fill-rule:nonzero;stroke:none;font-family:CMMI10;-inkscape-font-specification:CMMI10">w</tspan></text><text id="text3115" transform="matrix(1,0,0,-1,7.132,786.216)"><tspan id="tspan3117" x="0" y="0" style="font-size:6.97399998px;font-variant:normal;font-weight:400;writing-mode:lr-tb;fill:#000;fill-opacity:1;fill-rule:nonzero;stroke:none;font-family:CMMI7;-inkscape-font-specification:CMMI7">z</tspan></text></g></g><g id="g3119"><path id="path3121" d="m -97.3682,106.6 c 0,25.177 -20.4108,45.588 -45.5878,45.588 -25.177,0 -45.588,-20.411 -45.588,-45.588 0,-25.1774 20.411,-45.5878 45.588,-45.5878 25.177,0 45.5878,20.4104 45.5878,45.5878 z" style="fill:none;stroke:#000;stroke-width:.40000001;stroke-linecap:butt;stroke-linejoin:miter;stroke-miterlimit:10;stroke-opacity:1;stroke-dasharray:none"/></g><g id="g3123" transform="translate(-141.805,99.9408)"><g id="g3125" transform="translate(0,-787.711)"><text id="text3127" transform="matrix(1,0,0,-1,0,787.711)"><tspan id="tspan3129" x="0" y="0" style="font-size:9.9630003px;font-variant:normal;font-weight:400;writing-mode:lr-tb;fill:#000;fill-opacity:1;fill-rule:nonzero;stroke:none;font-family:CMMI10;-inkscape-font-specification:CMMI10">z</tspan></text></g></g><g id="g3131"><path id="path3133" d="m -142.956,106.6 29.482,34.772" style="fill:none;stroke:#000;stroke-width:.40000001;stroke-linecap:butt;stroke-linejoin:miter;stroke-miterlimit:10;stroke-opacity:1;stroke-dasharray:1,3;stroke-dashoffset:0"/><g id="g3135"><path id="path3137" d="m -113.474,141.372 -6.307,-3.83 3.56,-3.018 2.747,6.848 z" style="fill:#000;fill-opacity:1;fill-rule:evenodd;stroke:#000;stroke-width:.40000001;stroke-linecap:butt;stroke-linejoin:miter;stroke-miterlimit:10;stroke-opacity:1;stroke-dasharray:none"/></g><g id="g3139"><path id="path3141" d="m -142.956,106.6 6.307,3.83 -3.56,3.018 -2.747,-6.848 z" style="fill:#000;fill-opacity:1;fill-rule:evenodd;stroke:#000;stroke-width:.40000001;stroke-linecap:butt;stroke-linejoin:miter;stroke-miterlimit:10;stroke-opacity:1;stroke-dasharray:none"/></g></g><g id="g3143"><path id="path3145" d="m -173.009,106.876 22.026,18.498" style="fill:none;stroke:#000;stroke-width:.40000001;stroke-linecap:butt;stroke-linejoin:miter;stroke-miterlimit:10;stroke-opacity:1;stroke-dasharray:1,3;stroke-dashoffset:0"/><g id="g3147"><path id="path3149" d="m -150.983,125.374 -6.861,-2.715 3.001,-3.574 3.86,6.289 z" style="fill:#000;fill-opacity:1;fill-rule:evenodd;stroke:#000;stroke-width:.40000001;stroke-linecap:butt;stroke-linejoin:miter;stroke-miterlimit:10;stroke-opacity:1;stroke-dasharray:none"/></g><g id="g3151"><path id="path3153" d="m -173.009,106.876 6.861,2.715 -3.001,3.574 -3.86,-6.289 z" style="fill:#000;fill-opacity:1;fill-rule:evenodd;stroke:#000;stroke-width:.40000001;stroke-linecap:butt;stroke-linejoin:miter;stroke-miterlimit:10;stroke-opacity:1;stroke-dasharray:none"/></g></g><g id="g3155"><path id="path3157" d="m -172.009,106.876 c 0,0.552 -0.448,1 -1,1 -0.552,0 -1,-0.448 -1,-1 0,-0.552 0.448,-1 1,-1 0.552,0 1,0.448 1,1 z" style="fill:#000;fill-opacity:1;fill-rule:evenodd;stroke:#000;stroke-width:.40000001;stroke-linecap:butt;stroke-linejoin:miter;stroke-miterlimit:10;stroke-opacity:1;stroke-dasharray:none"/></g><g id="g3159" transform="translate(-185.551,98.1483)"><g id="g3161" transform="translate(0,-787.71)"><text id="text3163" transform="matrix(1,0,0,-1,0,787.71)"><tspan id="tspan3165" x="0" y="0" style="font-size:9.9630003px;font-variant:normal;font-weight:400;writing-mode:lr-tb;fill:#000;fill-opacity:1;fill-rule:nonzero;stroke:none;font-family:CMMI10;-inkscape-font-specification:CMMI10">p</tspan></text></g></g><g id="g3167" transform="translate(-179.328,120.017)"><g id="g3169" transform="translate(0,-787.71)"><text id="text3171" transform="matrix(1,0,0,-1,0,787.71)"><tspan id="tspan3173" x="0" y="0" style="font-size:9.9630003px;font-variant:normal;font-weight:400;writing-mode:lr-tb;fill:#000;fill-opacity:1;fill-rule:nonzero;stroke:none;font-family:CMMI10;-inkscape-font-specification:CMMI10">w</tspan></text><text id="text3175" transform="matrix(1,0,0,-1,7.132,786.216)"><tspan id="tspan3177" x="0" y="0" style="font-size:6.97399998px;font-variant:normal;font-weight:400;writing-mode:lr-tb;fill:#000;fill-opacity:1;fill-rule:nonzero;stroke:none;font-family:CMMI7;-inkscape-font-specification:CMMI7">p</tspan></text></g></g><g id="g3179"><path id="path3181" d="m -144.245,106.876 c 0,15.886 -12.878,28.764 -28.764,28.764 -15.886,0 -28.764,-12.878 -28.764,-28.764 0,-15.8857 12.878,-28.7636 28.764,-28.7636 15.886,0 28.764,12.8779 28.764,28.7636 z" style="fill:none;stroke:#000;stroke-width:.40000001;stroke-linecap:butt;stroke-linejoin:miter;stroke-miterlimit:10;stroke-opacity:1;stroke-dasharray:none"/></g><g id="g3183"><path id="path3185" d="m 178.071,106.6 c 0,0.552 -0.448,1 -1,1 -0.552,0 -1,-0.448 -1,-1 0,-0.552 0.448,-1 1,-1 0.552,0 1,0.448 1,1 z" style="fill:#000;fill-opacity:1;fill-rule:evenodd;stroke:#000;stroke-width:.40000001;stroke-linecap:butt;stroke-linejoin:miter;stroke-miterlimit:10;stroke-opacity:1;stroke-dasharray:none"/></g><g id="g3187" transform="translate(186.504,120.843)"><g id="g3189" transform="translate(0,-787.71)"><text id="text3191" transform="matrix(1,0,0,-1,0,787.71)"><tspan id="tspan3193" x="0" y="0" style="font-size:9.9630003px;font-variant:normal;font-weight:400;writing-mode:lr-tb;fill:#000;fill-opacity:1;fill-rule:nonzero;stroke:none;font-family:CMMI10;-inkscape-font-specification:CMMI10">w</tspan></text><text id="text3195" transform="matrix(1,0,0,-1,7.132,786.216)"><tspan id="tspan3197" x="0" y="0" style="font-size:6.97399998px;font-variant:normal;font-weight:400;writing-mode:lr-tb;fill:#000;fill-opacity:1;fill-rule:nonzero;stroke:none;font-family:CMMI7;-inkscape-font-specification:CMMI7">z</tspan></text></g></g><g id="g3199"><path id="path3201" d="m 222.659,106.6 c 0,25.177 -20.411,45.588 -45.588,45.588 -25.177,0 -45.588,-20.411 -45.588,-45.588 0,-25.1774 20.411,-45.5878 45.588,-45.5878 25.177,0 45.588,20.4104 45.588,45.5878 z" style="fill:none;stroke:#000;stroke-width:.40000001;stroke-linecap:butt;stroke-linejoin:miter;stroke-miterlimit:10;stroke-opacity:1;stroke-dasharray:none"/></g><g id="g3203" transform="translate(178.222,99.9408)"><g id="g3205" transform="translate(0,-787.711)"><text id="text3207" transform="matrix(1,0,0,-1,0,787.711)"><tspan id="tspan3209" x="0" y="0" style="font-size:9.9630003px;font-variant:normal;font-weight:400;writing-mode:lr-tb;fill:#000;fill-opacity:1;fill-rule:nonzero;stroke:none;font-family:CMMI10;-inkscape-font-specification:CMMI10">z</tspan></text></g></g><g id="g3211"><path id="path3213" d="m 107.405,106.876 c 0,0.552 -0.448,1 -1,1 -0.552,0 -1,-0.448 -1,-1 0,-0.552 0.448,-1 1,-1 0.552,0 1,0.448 1,1 z" style="fill:#000;fill-opacity:1;fill-rule:evenodd;stroke:#000;stroke-width:.40000001;stroke-linecap:butt;stroke-linejoin:miter;stroke-miterlimit:10;stroke-opacity:1;stroke-dasharray:none"/></g><g id="g3215" transform="translate(93.8634,98.1483)"><g id="g3217" transform="translate(0,-787.71)"><text id="text3219" transform="matrix(1,0,0,-1,0,787.71)"><tspan id="tspan3221" x="0" y="0" style="font-size:9.9630003px;font-variant:normal;font-weight:400;writing-mode:lr-tb;fill:#000;fill-opacity:1;fill-rule:nonzero;stroke:none;font-family:CMMI10;-inkscape-font-specification:CMMI10">p</tspan></text></g></g><g id="g3223" transform="translate(87.9023,115.967)"><g id="g3225" transform="translate(0,-787.71)"><text id="text3227" transform="matrix(1,0,0,-1,0,787.71)"><tspan id="tspan3229" x="0" y="0" style="font-size:9.9630003px;font-variant:normal;font-weight:400;writing-mode:lr-tb;fill:#000;fill-opacity:1;fill-rule:nonzero;stroke:none;font-family:CMMI10;-inkscape-font-specification:CMMI10">w</tspan></text><text id="text3231" transform="matrix(1,0,0,-1,7.132,786.216)"><tspan id="tspan3233" x="0" y="0" style="font-size:6.97399998px;font-variant:normal;font-weight:400;writing-mode:lr-tb;fill:#000;fill-opacity:1;fill-rule:nonzero;stroke:none;font-family:CMMI7;-inkscape-font-specification:CMMI7">p</tspan></text></g></g><g id="g3235"><path id="path3237" d="m 135.169,106.876 c 0,15.886 -12.878,28.764 -28.764,28.764 -15.8857,0 -28.7636,-12.878 -28.7636,-28.764 0,-15.8857 12.8779,-28.7636 28.7636,-28.7636 15.886,0 28.764,12.8779 28.764,28.7636 z" style="fill:none;stroke:#000;stroke-width:.40000001;stroke-linecap:butt;stroke-linejoin:miter;stroke-miterlimit:10;stroke-opacity:1;stroke-dasharray:none"/></g><g id="g3239"><path id="path3241" d="m 177.071,106.6 9.069,44.677" style="fill:none;stroke:#000;stroke-width:.40000001;stroke-linecap:butt;stroke-linejoin:miter;stroke-miterlimit:10;stroke-opacity:1;stroke-dasharray:1,3;stroke-dashoffset:0"/><g id="g3243"><path id="path3245" d="m 186.14,151.277 -3.679,-6.396 4.573,-0.928 -0.894,7.324 z" style="fill:#000;fill-opacity:1;fill-rule:evenodd;stroke:#000;stroke-width:.40000001;stroke-linecap:butt;stroke-linejoin:miter;stroke-miterlimit:10;stroke-opacity:1;stroke-dasharray:none"/></g><g id="g3247"><path id="path3249" d="m 177.071,106.6 3.679,6.396 -4.573,0.928 0.894,-7.324 z" style="fill:#000;fill-opacity:1;fill-rule:evenodd;stroke:#000;stroke-width:.40000001;stroke-linecap:butt;stroke-linejoin:miter;stroke-miterlimit:10;stroke-opacity:1;stroke-dasharray:none"/></g></g><g id="g3251"><path id="path3253" d="m 106.405,106.876 7.908,27.655" style="fill:none;stroke:#000;stroke-width:.40000001;stroke-linecap:butt;stroke-linejoin:miter;stroke-miterlimit:10;stroke-opacity:1;stroke-dasharray:1,3;stroke-dashoffset:0"/><g id="g3255"><path id="path3257" d="m 114.313,134.531 -4.168,-6.089 4.487,-1.283 -0.319,7.372 z" style="fill:#000;fill-opacity:1;fill-rule:evenodd;stroke:#000;stroke-width:.40000001;stroke-linecap:butt;stroke-linejoin:miter;stroke-miterlimit:10;stroke-opacity:1;stroke-dasharray:none"/></g><g id="g3259"><path id="path3261" d="m 106.405,106.876 4.168,6.089 -4.487,1.283 0.319,-7.372 z" style="fill:#000;fill-opacity:1;fill-rule:evenodd;stroke:#000;stroke-width:.40000001;stroke-linecap:butt;stroke-linejoin:miter;stroke-miterlimit:10;stroke-opacity:1;stroke-dasharray:none"/></g></g><g id="g3263"><path id="path3265" d="m -178.534,135.104 -38.337,-7.934" style="fill:none;stroke:#000;stroke-width:.80000001;stroke-linecap:butt;stroke-linejoin:miter;stroke-miterlimit:10;stroke-opacity:1;stroke-dasharray:4;stroke-dashoffset:0"/></g><g id="g3267"><path id="path3269" d="m -178.534,135.104 20.957,22.846" style="fill:none;stroke:#000;stroke-width:1.20000005;stroke-linecap:butt;stroke-linejoin:miter;stroke-miterlimit:10;stroke-opacity:1;stroke-dasharray:4;stroke-dashoffset:0"/></g><g id="g3271"><path id="path3273" d="M 132.931,117.999 116.964,149.04" style="fill:none;stroke:#000;stroke-width:1.20000005;stroke-linecap:butt;stroke-linejoin:miter;stroke-miterlimit:10;stroke-opacity:1;stroke-dasharray:4;stroke-dashoffset:0"/></g><g id="g3275"><path id="path3277" d="m 132.931,117.999 11.65,35.091" style="fill:none;stroke:#000;stroke-width:1.20000005;stroke-linecap:butt;stroke-linejoin:miter;stroke-miterlimit:10;stroke-opacity:1;stroke-dasharray:4;stroke-dashoffset:0"/></g><g id="g3279"><path id="path3281" d="m -165.323,149.506 c -7.954,7.296 -20.317,6.763 -27.613,-1.191 -4.247,-4.63 -6.009,-11.019 -4.736,-17.171" style="fill:none;stroke:#000;stroke-width:1.20000005;stroke-linecap:butt;stroke-linejoin:miter;stroke-miterlimit:10;stroke-opacity:1;stroke-dasharray:4;stroke-dashoffset:0"/><g id="g3283"><path id="path3285" d="m -197.672,131.144 0.867,7.328 -4.57,-0.946 3.703,-6.382 z" style="fill:#000;fill-opacity:1;fill-rule:evenodd;stroke:#000;stroke-width:1.20000005;stroke-linecap:butt;stroke-linejoin:miter;stroke-miterlimit:10;stroke-opacity:1;stroke-dasharray:none"/></g><g id="g3287"><path id="path3289" d="m -165.323,149.506 -3.581,6.451 -3.155,-3.439 6.736,-3.012 z" style="fill:#000;fill-opacity:1;fill-rule:evenodd;stroke:#000;stroke-width:1.20000005;stroke-linecap:butt;stroke-linejoin:miter;stroke-miterlimit:10;stroke-opacity:1;stroke-dasharray:none"/></g></g><g id="g3291"><path id="path3293" d="m 140.383,140.445 c -6.033,2.003 -12.617,1.493 -18.27,-1.414" style="fill:none;stroke:#000;stroke-width:1.20000005;stroke-linecap:butt;stroke-linejoin:miter;stroke-miterlimit:10;stroke-opacity:1;stroke-dasharray:4;stroke-dashoffset:0"/><g id="g3295"><path id="path3297" d="m 122.113,139.031 7.292,1.127 -2.134,4.15 -5.158,-5.277 z" style="fill:#000;fill-opacity:1;fill-rule:evenodd;stroke:#000;stroke-width:1.20000005;stroke-linecap:butt;stroke-linejoin:miter;stroke-miterlimit:10;stroke-opacity:1;stroke-dasharray:none"/></g><g id="g3299"><path id="path3301" d="m 140.383,140.445 -5.908,4.42 -1.471,-4.429 7.379,0.009 z" style="fill:#000;fill-opacity:1;fill-rule:evenodd;stroke:#000;stroke-width:1.20000005;stroke-linecap:butt;stroke-linejoin:miter;stroke-miterlimit:10;stroke-opacity:1;stroke-dasharray:none"/></g></g><g id="g3303" transform="translate(-206.311,162.061)"><g id="g3305" transform="translate(0,-784.528)"><text id="text3307" transform="matrix(1,0,0,-1,0,784.528)"><tspan id="tspan3309" x="0 10.521 16.549" y="0" style="font-size:9.9630003px;font-variant:normal;font-weight:400;writing-mode:lr-tb;fill:#000;fill-opacity:1;fill-rule:nonzero;stroke:none;font-family:CMMI10;-inkscape-font-specification:CMMI10">&gt;π/</tspan></text><text id="text3311" transform="matrix(1,0,0,-1,21.534,784.528)"><tspan id="tspan3313" x="0" y="0" style="font-size:9.9630003px;font-variant:normal;font-weight:400;writing-mode:lr-tb;fill:#000;fill-opacity:1;fill-rule:nonzero;stroke:none;font-family:CMR10;-inkscape-font-specification:CMR10">2</tspan></text></g></g><g id="g3315" transform="translate(120.213,161.251)"><g id="g3317" transform="translate(0,-784.528)"><text id="text3319" transform="matrix(1,0,0,-1,0,784.528)"><tspan id="tspan3321" x="0 10.521 16.549" y="0" style="font-size:9.9630003px;font-variant:normal;font-weight:400;writing-mode:lr-tb;fill:#000;fill-opacity:1;fill-rule:nonzero;stroke:none;font-family:CMMI10;-inkscape-font-specification:CMMI10">&lt;π/</tspan></text><text id="text3323" transform="matrix(1,0,0,-1,21.534,784.528)"><tspan id="tspan3325" x="0" y="0" style="font-size:9.9630003px;font-variant:normal;font-weight:400;writing-mode:lr-tb;fill:#000;fill-opacity:1;fill-rule:nonzero;stroke:none;font-family:CMR10;-inkscape-font-specification:CMR10">2</tspan></text></g></g><g id="g3327" transform="translate(-201.438,34.83)"><g id="g3329" transform="translate(0,-785.192)"><text id="text3331" transform="matrix(1,0,0,-1,0,785.192)"><tspan id="tspan3333" x="0 7.751" y="0" style="font-size:9.9630003px;font-variant:normal;font-weight:400;writing-mode:lr-tb;fill:#000;fill-opacity:1;fill-rule:nonzero;stroke:none;font-family:CMR10;-inkscape-font-specification:CMR10">ON</tspan></text><g id="g3335" transform="translate(15.818,785.192)"><g id="g3337"><path id="path3339" d="m 0,0.199 2.989,0" style="fill:none;stroke:#000;stroke-width:.398;stroke-linecap:butt;stroke-linejoin:miter;stroke-miterlimit:10;stroke-opacity:1;stroke-dasharray:none"/></g><g id="g3341" transform="translate(-15.818,-785.192)"><text id="text3343" transform="matrix(1,0,0,-1,18.807,785.192)"><tspan id="tspan3345" x="0 7.054 14.805 22.277 29.75 37.361 44.136" y="0" style="font-size:9.9630003px;font-variant:normal;font-weight:400;writing-mode:lr-tb;fill:#000;fill-opacity:1;fill-rule:nonzero;stroke:none;font-family:CMR10;-inkscape-font-specification:CMR10">BOUNDED</tspan></text><g id="g3347" transform="translate(71.156,785.192)"><g id="g3349"><path id="path3351" d="m 0,0.199 2.989,0" style="fill:none;stroke:#000;stroke-width:.398;stroke-linecap:butt;stroke-linejoin:miter;stroke-miterlimit:10;stroke-opacity:1;stroke-dasharray:none"/></g><g id="g3353" transform="translate(-71.156,-785.192)"><text id="text3355" transform="matrix(1,0,0,-1,74.144,785.192)"><tspan id="tspan3357" x="0 5.539 9.136 16.748" y="0" style="font-size:9.9630003px;font-variant:normal;font-weight:400;writing-mode:lr-tb;fill:#000;fill-opacity:1;fill-rule:nonzero;stroke:none;font-family:CMR10;-inkscape-font-specification:CMR10">SIDE</tspan></text></g></g></g></g></g></g><g id="g3359" transform="translate(-55.233,34.83)"><g id="g3361" transform="translate(0,-785.192)"><text id="text3363" transform="matrix(1,0,0,-1,0,785.192)"><tspan id="tspan3365" x="0 7.751" y="0" style="font-size:9.9630003px;font-variant:normal;font-weight:400;writing-mode:lr-tb;fill:#000;fill-opacity:1;fill-rule:nonzero;stroke:none;font-family:CMR10;-inkscape-font-specification:CMR10">ON</tspan></text><g id="g3367" transform="translate(15.818,785.192)"><g id="g3369"><path id="path3371" d="m 0,0.199 2.989,0" style="fill:none;stroke:#000;stroke-width:.398;stroke-linecap:butt;stroke-linejoin:miter;stroke-miterlimit:10;stroke-opacity:1;stroke-dasharray:none"/></g><g id="g3373" transform="translate(-15.818,-785.192)"><text id="text3375" transform="matrix(1,0,0,-1,18.807,785.192)"><tspan id="tspan3377" x="0 7.054 14.805 22.277 29.75 37.082 44.555 51.06" y="0" style="font-size:9.9630003px;font-variant:normal;font-weight:400;writing-mode:lr-tb;fill:#000;fill-opacity:1;fill-rule:nonzero;stroke:none;font-family:CMR10;-inkscape-font-specification:CMR10">BOUNDARY</tspan></text></g></g></g></g><g id="g3379" transform="translate(105.593,34.83)"><g id="g3381" transform="translate(0,-785.192)"><text id="text3383" transform="matrix(1,0,0,-1,0,785.192)"><tspan id="tspan3385" x="0 7.751" y="0" style="font-size:9.9630003px;font-variant:normal;font-weight:400;writing-mode:lr-tb;fill:#000;fill-opacity:1;fill-rule:nonzero;stroke:none;font-family:CMR10;-inkscape-font-specification:CMR10">ON</tspan></text><g id="g3387" transform="translate(15.818,785.192)"><g id="g3389"><path id="path3391" d="m 0,0.199 2.989,0" style="fill:none;stroke:#000;stroke-width:.398;stroke-linecap:butt;stroke-linejoin:miter;stroke-miterlimit:10;stroke-opacity:1;stroke-dasharray:none"/></g><g id="g3393" transform="translate(-15.818,-785.192)"><text id="text3395" transform="matrix(1,0,0,-1,18.807,785.192)"><tspan id="tspan3397" x="0 7.472 14.944 21.998 29.75 37.222 44.694 52.306 59.081" y="0" style="font-size:9.9630003px;font-variant:normal;font-weight:400;writing-mode:lr-tb;fill:#000;fill-opacity:1;fill-rule:nonzero;stroke:none;font-family:CMR10;-inkscape-font-specification:CMR10">UNBOUNDED</tspan></text><g id="g3399" transform="translate(86.1,785.192)"><g id="g3401"><path id="path3403" d="m 0,0.199 2.989,0" style="fill:none;stroke:#000;stroke-width:.398;stroke-linecap:butt;stroke-linejoin:miter;stroke-miterlimit:10;stroke-opacity:1;stroke-dasharray:none"/></g><g id="g3405" transform="translate(-86.1,-785.192)"><text id="text3407" transform="matrix(1,0,0,-1,89.088,785.192)"><tspan id="tspan3409" x="0 5.539 9.136 16.748" y="0" style="font-size:9.9630003px;font-variant:normal;font-weight:400;writing-mode:lr-tb;fill:#000;fill-opacity:1;fill-rule:nonzero;stroke:none;font-family:CMR10;-inkscape-font-specification:CMR10">SIDE</tspan></text></g></g></g></g></g></g><g id="g3411"><path id="path3413" d="m -31.0962,133.009 17.288,26.561" style="fill:none;stroke:#000;stroke-width:1.20000005;stroke-linecap:butt;stroke-linejoin:miter;stroke-miterlimit:10;stroke-opacity:1;stroke-dasharray:4;stroke-dashoffset:0"/></g><g id="g3415"><path id="path3417" d="M -31.0962,133.009 -56.8575,148.23" style="fill:none;stroke:#000;stroke-width:1.20000005;stroke-linecap:butt;stroke-linejoin:miter;stroke-miterlimit:10;stroke-opacity:1;stroke-dasharray:4;stroke-dashoffset:0"/></g><g id="g3419"><path id="path3421" d="m -20.4275,149.4 c -9.0525,5.892 -21.1676,3.33 -27.0597,-5.722 -0.1543,-0.237 -0.3033,-0.477 -0.4472,-0.721" style="fill:none;stroke:#000;stroke-width:1.20000005;stroke-linecap:butt;stroke-linejoin:miter;stroke-miterlimit:10;stroke-opacity:1;stroke-dasharray:4;stroke-dashoffset:0"/><g id="g3423"><path id="path3425" d="m -47.9342,142.957 5.5696,4.84 -4.0179,2.374 -1.5517,-7.214 z" style="fill:#000;fill-opacity:1;fill-rule:evenodd;stroke:#000;stroke-width:1.20000005;stroke-linecap:butt;stroke-linejoin:miter;stroke-miterlimit:10;stroke-opacity:1;stroke-dasharray:none"/></g><g id="g3427"><path id="path3429" d="m -20.4275,149.4 -4.5939,5.774 -2.5457,-3.911 7.1396,-1.863 z" style="fill:#000;fill-opacity:1;fill-rule:evenodd;stroke:#000;stroke-width:1.20000005;stroke-linecap:butt;stroke-linejoin:miter;stroke-miterlimit:10;stroke-opacity:1;stroke-dasharray:none"/></g></g><g id="g3431" transform="translate(-47.9228,162.871)"><g id="g3433" transform="translate(0,-784.528)"><text id="text3435" transform="matrix(1,0,0,-1,0,784.528)"><tspan id="tspan3437" x="0 6.038" y="0" style="font-size:9.9630003px;font-variant:normal;font-weight:400;writing-mode:lr-tb;fill:#000;fill-opacity:1;fill-rule:nonzero;stroke:none;font-family:CMMI10;-inkscape-font-specification:CMMI10">π/</tspan></text><text id="text3439" transform="matrix(1,0,0,-1,11.018,784.528)"><tspan id="tspan3441" x="0" y="0" style="font-size:9.9630003px;font-variant:normal;font-weight:400;writing-mode:lr-tb;fill:#000;fill-opacity:1;fill-rule:nonzero;stroke:none;font-family:CMR10;-inkscape-font-specification:CMR10">2</tspan></text></g></g></g></g></svg>