<svg xmlns="http://www.w3.org/2000/svg" xmlns:cc="http://web.resource.org/cc/" xmlns:svg="http://www.w3.org/2000/svg" xmlns:xlink="http://www.w3.org/1999/xlink" id="svg11300" width="48" height="48" version="1.0"><defs id="defs3"><linearGradient id="linearGradient4214"><stop style="stop-color:#000;stop-opacity:1" id="stop4216" offset="0"/><stop style="stop-color:#000;stop-opacity:0" id="stop4218" offset="1"/></linearGradient><linearGradient id="XMLID_2_" x1="-.07" x2="122.113" y1="25.541" y2="25.541" gradientTransform="matrix(-0.2706977,0.1446251,-0.1502412,-0.2812096,36.632009,11.666724)" gradientUnits="userSpaceOnUse"><stop style="stop-color:#555;stop-opacity:1" id="stop4" offset="0"/><stop style="stop-color:#323232;stop-opacity:1" id="stop6" offset="1"/></linearGradient><linearGradient id="linearGradient2591"><stop style="stop-color:#73d216" id="stop2593" offset="0"/><stop style="stop-color:#4e9a06" id="stop2595" offset="1"/></linearGradient><linearGradient id="linearGradient8662"><stop id="stop8664" offset="0" style="stop-color:#000;stop-opacity:1"/><stop id="stop8666" offset="1" style="stop-color:#000;stop-opacity:0"/></linearGradient><radialGradient id="radialGradient2253" cx="24.837" cy="36.421" r="15.645" fx="24.837" fy="36.421" gradientTransform="matrix(1,0,0,0.536723,0,16.87306)" gradientUnits="userSpaceOnUse" xlink:href="#linearGradient8662"/><linearGradient id="linearGradient2212" x1="-.07" x2="122.113" y1="25.541" y2="25.541" gradientTransform="matrix(0.2706977,-0.1446251,0.1502412,0.2812096,8.3389857,32.770591)" gradientUnits="userSpaceOnUse" xlink:href="#linearGradient2591"/><linearGradient id="linearGradient4212" x1="-.07" x2="122.113" y1="25.541" y2="25.541" gradientTransform="matrix(-0.2706977,0.1446251,-0.1502412,-0.2812096,36.632009,11.666724)" gradientUnits="userSpaceOnUse" xlink:href="#linearGradient2591"/></defs><metadata id="metadata4"/><g id="layer1"><path id="path8660" d="M 40.481863 36.421127 A 15.644737 8.3968935 0 1 1 9.1923885,36.421127 A 15.644737 8.3968935 0 1 1 40.481863 36.421127 z" transform="matrix(1.1151181,-0.305532,0.3723672,0.5976558,-23.064239,26.693437)" style="opacity:.29946522;color:#000;fill:url(#radialGradient2253);fill-opacity:1;fill-rule:evenodd;stroke:none;stroke-width:1;stroke-linecap:butt;stroke-linejoin:miter;marker:none;marker-start:none;marker-mid:none;marker-end:none;stroke-miterlimit:10;stroke-dasharray:none;stroke-dashoffset:0;stroke-opacity:1;visibility:visible;display:inline;overflow:visible"/><path style="fill:url(#linearGradient4212);fill-opacity:1;stroke:#3a7304;stroke-opacity:1" id="path8" d="M 3.5762942,29.327333 L 16.068497,22.608327 C 16.068497,22.608327 11.236809,19.995651 11.748627,20.272375 C 15.449962,12.804004 24.47628,10.006176 31.910228,14.025311 C 32.869674,12.089205 33.829241,10.152675 34.788839,8.2168481 C 24.162078,2.4720104 11.259208,6.4697916 5.9674122,17.147268 L 1.6157001,14.794711 L 3.5762942,29.327333 z"/><path style="fill:navy;fill-opacity:1;stroke:#000;stroke-width:.60000002;stroke-linecap:butt;stroke-linejoin:miter;stroke-miterlimit:4;stroke-dasharray:none;stroke-opacity:1" id="rect2273" d="M 23.465999,9.1779573 L 33.671137,33.751781 L 34.275709,42.579142 L 22.670925,36.677371 L 11.577228,10.931146 L 13.365623,2.5091673 L 23.465999,9.1779573 z"/><path id="path2210" d="M 41.394701,15.109982 L 28.902498,21.828988 C 28.902498,21.828988 33.734186,24.441664 33.222368,24.16494 C 29.521033,31.633311 20.494715,34.431139 13.060767,30.412004 C 12.101321,32.34811 11.141754,34.28464 10.182156,36.220467 C 20.808917,41.965305 33.711787,37.967524 39.003583,27.290047 L 43.355295,29.642604 L 41.394701,15.109982 z" style="fill:url(#linearGradient2212);fill-opacity:1;stroke:#3a7304;stroke-opacity:1"/></g></svg>