<svg xmlns="http://www.w3.org/2000/svg" xmlns:cc="http://web.resource.org/cc/" xmlns:svg="http://www.w3.org/2000/svg" xmlns:xlink="http://www.w3.org/1999/xlink" id="svg2" width="600" height="600" version="1.0"><defs id="defs4"><linearGradient id="linearGradient3162"><stop style="stop-color:#1f4eff;stop-opacity:1" id="stop3164" offset="0"/><stop style="stop-color:#000;stop-opacity:0" id="stop3166" offset="1"/></linearGradient><linearGradient id="linearGradient3168" x1="47.098" x2="609.174" y1="487.448" y2="117.448" gradientUnits="userSpaceOnUse" xlink:href="#linearGradient3162"/><linearGradient id="linearGradient3175" x1="47.098" x2="609.174" y1="487.448" y2="117.448" gradientUnits="userSpaceOnUse" xlink:href="#linearGradient3162"/><linearGradient id="linearGradient3184" x1="47.098" x2="609.174" y1="487.448" y2="117.448" gradientTransform="translate(-4.2857143,-47.857143)" gradientUnits="userSpaceOnUse" xlink:href="#linearGradient3162"/><linearGradient id="linearGradient3193" x1="47.098" x2="609.174" y1="487.448" y2="117.448" gradientTransform="translate(-4.2857143,-47.857143)" gradientUnits="userSpaceOnUse" xlink:href="#linearGradient3162"/><linearGradient id="linearGradient3146" x1="47.098" x2="609.174" y1="487.448" y2="117.448" gradientTransform="matrix(1.0159723,0,0,1.172144,-18.187276,-82.316631)" gradientUnits="userSpaceOnUse" xlink:href="#linearGradient3162"/><linearGradient id="linearGradient3160" x1="47.098" x2="609.174" y1="487.448" y2="117.448" gradientTransform="matrix(1.0159723,0,0,1.172144,-18.187276,-82.316631)" gradientUnits="userSpaceOnUse" xlink:href="#linearGradient3162"/></defs><metadata id="metadata7"/><g id="layer1"><g id="g3153" transform="translate(2.1428571,-0.7142857)"><path id="path2180" d="M 3.5835599,497.0574 C 3.5835599,497.0574 -11.005782,321.17442 176.8656,224.00691 C 345.52236,136.77726 338.69864,16.716857 338.69864,16.716857 L 592.95144,131.09635 C 592.95144,131.09635 568.64178,309.62855 385.76677,398.3766 C 294.32926,442.75062 301.49038,584.80768 300.80799,584.60668 L 3.5835599,497.0574 z" style="fill:url(#linearGradient3160);fill-opacity:1;fill-rule:evenodd;stroke:#000;stroke-width:10;stroke-linecap:round;stroke-linejoin:miter;stroke-miterlimit:4;stroke-dasharray:none;stroke-opacity:1"/><path id="path2183" d="M 91.918625,523.07703 C 161.78497,382.35474 125.01899,360.06528 253.31904,288.06213 C 344.39339,236.9504 373.16298,149.39519 423.41056,54.825799" style="fill:none;fill-rule:evenodd;stroke:#000;stroke-width:10;stroke-linecap:round;stroke-linejoin:miter;stroke-miterlimit:4;stroke-dasharray:none;stroke-opacity:1"/><path id="path2189" d="M 180.60157,549.19914 C 180.60157,549.19914 208.98236,371.40028 351.21848,313.63035 C 472.97195,264.17952 534.63257,104.8607 534.63257,104.8607" style="fill:none;fill-rule:evenodd;stroke:#000;stroke-width:10;stroke-linecap:round;stroke-linejoin:miter;stroke-miterlimit:4;stroke-dasharray:none;stroke-opacity:1"/><path id="path3177" d="M 63.090508,317.88682 C 63.090508,317.88682 160.66223,282.01439 243.69333,338.51948 C 326.72444,395.02458 356.27108,419.19355 356.27108,419.19355" style="fill:none;fill-rule:evenodd;stroke:#000;stroke-width:10;stroke-linecap:round;stroke-linejoin:miter;stroke-miterlimit:4;stroke-dasharray:none;stroke-opacity:1"/><path id="path3179" d="M 250.31969,174.7178 C 250.31969,174.7178 330.14609,182.25301 354.81969,193.97445 C 379.4933,205.69589 421.8678,271.41001 465.63022,287.1132 C 509.39263,302.8164 509.39263,302.8164 509.39263,302.8164" style="fill:none;fill-rule:evenodd;stroke:#000;stroke-width:10;stroke-linecap:round;stroke-linejoin:miter;stroke-miterlimit:4;stroke-dasharray:none;stroke-opacity:1"/></g></g></svg>