<svg xmlns="http://www.w3.org/2000/svg" xmlns:cc="http://web.resource.org/cc/" xmlns:svg="http://www.w3.org/2000/svg" xmlns:xlink="http://www.w3.org/1999/xlink" id="svg11300" width="48" height="48" version="1.0"><defs id="defs3"><linearGradient id="linearGradient2591"><stop style="stop-color:#73d216" id="stop2593" offset="0"/><stop style="stop-color:#4e9a06" id="stop2595" offset="1"/></linearGradient><linearGradient id="linearGradient8662"><stop id="stop8664" offset="0" style="stop-color:#000;stop-opacity:1"/><stop id="stop8666" offset="1" style="stop-color:#000;stop-opacity:0"/></linearGradient><radialGradient id="radialGradient2253" cx="24.837" cy="36.421" r="15.645" fx="24.837" fy="36.421" gradientTransform="matrix(1,0,0,0.536723,0,16.87306)" gradientUnits="userSpaceOnUse" xlink:href="#linearGradient8662"/><radialGradient id="radialGradient2277" cx="22.292" cy="32.798" r="16.956" fx="22.292" fy="32.798" gradientTransform="matrix(-0.5871988,0.5392198,0.6525272,0.7105881,12.376796,4.9356871)" gradientUnits="userSpaceOnUse" xlink:href="#linearGradient2591"/></defs><metadata id="metadata4"/><g id="layer1"><path id="path8660" d="M 40.481863 36.421127 A 15.644737 8.3968935 0 1 1 9.1923885,36.421127 A 15.644737 8.3968935 0 1 1 40.481863 36.421127 z" transform="matrix(1.526579,-0.4925951,0.5097648,0.9635726,-31.747181,13.769802)" style="opacity:.29946522;color:#000;fill:url(#radialGradient2253);fill-opacity:1;fill-rule:evenodd;stroke:none;stroke-width:1;stroke-linecap:butt;stroke-linejoin:miter;marker:none;marker-start:none;marker-mid:none;marker-end:none;stroke-miterlimit:10;stroke-dasharray:none;stroke-dashoffset:0;stroke-opacity:1;visibility:visible;display:inline;overflow:visible"/><path style="color:#000;fill:url(#radialGradient2277);fill-opacity:1;fill-rule:evenodd;stroke:#3a7304;stroke-width:.94567013;stroke-linecap:round;stroke-linejoin:round;marker:none;marker-start:none;marker-mid:none;marker-end:none;stroke-miterlimit:10;stroke-dasharray:none;stroke-dashoffset:0;stroke-opacity:1;visibility:visible;display:inline;overflow:visible" id="path2173" d="M 18.593761,17.375149 L 29.463854,29.212448 L 20.420105,37.517248 L 25.885744,43.469211 L 1.1690944,44.460047 L 4.2648682,19.758428 L 9.6361601,25.607649 L 18.593761,17.375149 z"/><path style="fill:navy;fill-opacity:1;stroke:#000;stroke-width:.69893335;stroke-linecap:butt;stroke-linejoin:miter;stroke-miterlimit:4;stroke-opacity:1;stroke-dasharray:none" id="rect2273" d="M 16.209641,-6.8346353 L 45.067204,-3.320717 L 56.465845,1.604697 L 52.622595,11.714304 L 22.52373,8.5133874 L 10.850841,0.98396036 L 16.209641,-6.8346353 z" transform="matrix(0.7459833,0.6659647,-0.9950298,9.9577731e-2,0,0)"/><path id="path8643" d="M 18.549753,17.415561 L 29.419846,29.25286 L 38.463595,20.94806 L 43.929233,26.900023 L 47.018243,2.3571525 L 22.142846,3.3412285 L 27.514138,9.1904502 L 18.549753,17.415561 z" style="color:#000;fill:#59ab0a;fill-opacity:1;fill-rule:evenodd;stroke:#3a7304;stroke-width:.94567013;stroke-linecap:round;stroke-linejoin:round;marker:none;marker-start:none;marker-mid:none;marker-end:none;stroke-miterlimit:10;stroke-dasharray:none;stroke-dashoffset:0;stroke-opacity:1;visibility:visible;display:inline;overflow:visible"/></g></svg>