<svg xmlns="http://www.w3.org/2000/svg" xmlns:svg="http://www.w3.org/2000/svg" id="svg2" width="426.246" height="311.288" preserveAspectRatio="xMinYMin meet" version="1.1" viewBox="0 0 426.246 311.288"><metadata id="metadata7"/><g id="layer1" transform="translate(-70.659422,-219.69024)"><g id="g3123" transform="matrix(0.72771879,0,0,0.72771879,21.962045,141.85256)"><path id="path3205" d="M 90.14493,509.68102 250.44928,353.82595 469.52174,351.30421 623.47826,511.98537 z" style="fill:#f2f2f2;stroke:#fff;stroke-width:1px;stroke-linecap:butt;stroke-linejoin:miter;stroke-opacity:1"/><g id="g2991" transform="matrix(1,0,0,-1,-11.971084,717.86852)"><path style="fill:#000;stroke:#000;stroke-width:.58980083px;stroke-linecap:butt;stroke-linejoin:miter;stroke-opacity:1" id="path2985" d="m 273.82723,366.9719 c 8.7378,0 196.74824,0 196.74824,0 l -36.04338,8.50656 0,-5.32284 -160.64914,0 z"/></g><g style="fill:red" id="g3066" transform="matrix(-1,0,0,1,730.50854,-10.158768)"><path id="path3068" d="m 273.82723,366.9719 c 8.7378,0 196.74824,0 196.74824,0 l -36.04338,8.50656 0,-5.32284 -160.64914,0 z" style="fill:red;stroke:#000;stroke-width:.58980083px;stroke-linecap:butt;stroke-linejoin:miter;stroke-opacity:1"/></g><path id="path3082" d="m 194.2029,346.56509 c 0,4.80248 -3.89318,8.69566 -8.69565,8.69566 -4.80248,0 -8.69565,-3.89318 -8.69565,-8.69566 0,-4.80247 3.89317,-8.69565 8.69565,-8.69565 4.80247,0 8.69565,3.89318 8.69565,8.69565 z" transform="translate(63.043478,5.0724638)" style="fill:#000"/><path style="fill:#fff;stroke:#000" id="path3092" d="m 194.2029,346.56509 c 0,4.80248 -3.89318,8.69566 -8.69565,8.69566 -4.80248,0 -8.69565,-3.89318 -8.69565,-8.69566 0,-4.80247 3.89317,-8.69565 8.69565,-8.69565 4.80247,0 8.69565,3.89318 8.69565,8.69565 z" transform="translate(-95.652174,163.04348)"/><path id="path3094" d="m 194.2029,346.56509 c 0,4.80248 -3.89318,8.69566 -8.69565,8.69566 -4.80248,0 -8.69565,-3.89318 -8.69565,-8.69566 0,-4.80247 3.89317,-8.69565 8.69565,-8.69565 4.80247,0 8.69565,3.89318 8.69565,8.69565 z" transform="translate(284.23188,3.6231879)" style="fill:#fff;stroke:#000"/><g style="fill:gray;stroke:gray" id="g3100"><g style="fill:gray;stroke:gray" id="g3054" transform="matrix(0.70215305,-0.71202605,-0.71202605,-0.70215305,547.77294,793.48718)"><path style="fill:gray;stroke:gray;stroke-width:.58980083px;stroke-linecap:butt;stroke-linejoin:miter;stroke-opacity:1" id="path3056" d="m 273.82723,366.9719 c 8.7378,0 196.74824,0 196.74824,0 l -36.04338,8.50656 0,-5.32284 -160.64914,0 z"/></g><g style="fill:gray;stroke:gray" id="g3096" transform="matrix(-0.70215305,0.71202605,0.71202605,0.70215305,549.26588,-247.53998)"><path id="path3098" d="m 273.82723,366.9719 c 8.7378,0 196.74824,0 196.74824,0 l -36.04338,8.50656 0,-5.32284 -160.64914,0 z" style="fill:gray;stroke:gray;stroke-width:.58980083px;stroke-linecap:butt;stroke-linejoin:miter;stroke-opacity:1"/></g></g><g style="fill:#666;stroke:gray" id="g3108" transform="matrix(0.70215305,-0.71202605,-0.71202605,-0.70215305,168.0628,950.73356)"><path style="fill:#666;stroke:gray;stroke-width:.58980083px;stroke-linecap:butt;stroke-linejoin:miter;stroke-opacity:1" id="path3110" d="m 273.82723,366.9719 c 8.7378,0 196.74824,0 196.74824,0 l -36.04338,8.50656 0,-5.32284 -160.64914,0 z"/></g><g id="g3112" transform="matrix(-0.70215305,0.71202605,0.71202605,0.70215305,169.55574,-90.2936)"><path id="path3114" d="m 273.82723,366.9719 c 8.7378,0 196.74824,0 196.74824,0 l -36.04338,8.50656 0,-5.32284 -160.64914,0 z" style="fill:#000;stroke:#000;stroke-width:.58980083px;stroke-linecap:butt;stroke-linejoin:miter;stroke-opacity:1"/></g><g style="fill:gray;stroke:gray" id="g3116" transform="matrix(0,-1,1,0,-100.54114,820.04374)"><g style="fill:gray;stroke:gray" id="g3118" transform="matrix(0.70215305,-0.71202605,-0.71202605,-0.70215305,547.77294,793.48718)"><path style="fill:gray;stroke:gray;stroke-width:.58980083px;stroke-linecap:butt;stroke-linejoin:miter;stroke-opacity:1" id="path3120" d="m 273.82723,366.9719 c 8.7378,0 196.74824,0 196.74824,0 l -36.04338,8.50656 0,-5.32284 -160.64914,0 z"/></g><g style="fill:gray;stroke:gray" id="g3122" transform="matrix(-0.70215305,0.71202605,0.71202605,0.70215305,549.26588,-247.53998)"><path id="path3124" d="m 273.82723,366.9719 c 8.7378,0 196.74824,0 196.74824,0 l -36.04338,8.50656 0,-5.32284 -160.64914,0 z" style="fill:gray;stroke:gray;stroke-width:.58980083px;stroke-linecap:butt;stroke-linejoin:miter;stroke-opacity:1"/></g></g><g id="g3128" transform="matrix(-0.71202605,-0.70215305,-0.70215305,0.71202605,1068.3084,432.41573)"><path style="fill:#000;stroke:#000;stroke-width:.58980083px;stroke-linecap:butt;stroke-linejoin:miter;stroke-opacity:1" id="path3130" d="m 273.82723,366.9719 c 8.7378,0 196.74824,0 196.74824,0 l -36.04338,8.50656 0,-5.32284 -160.64914,0 z"/></g><g style="fill:gray;stroke:gray" id="g3132" transform="matrix(0.71202605,0.70215305,0.70215305,-0.71202605,27.2812,430.92279)"><path id="path3134" d="m 273.82723,366.9719 c 8.7378,0 196.74824,0 196.74824,0 l -36.04338,8.50656 0,-5.32284 -160.64914,0 z" style="fill:gray;stroke:gray;stroke-width:.58980083px;stroke-linecap:butt;stroke-linejoin:miter;stroke-opacity:1"/></g><g id="g3144" transform="matrix(-0.70710678,0.70710678,-0.70710678,-0.70710678,830.85197,45.524599)" style="fill:gray;stroke:gray"><g id="g3146" transform="matrix(0.70215305,-0.71202605,-0.71202605,-0.70215305,547.77294,793.48718)" style="fill:gray;stroke:gray"><path id="path3148" d="m 273.82723,366.9719 c 8.7378,0 196.74824,0 196.74824,0 l -36.04338,8.50656 0,-5.32284 -160.64914,0 z" style="fill:gray;stroke:gray;stroke-width:.58980083px;stroke-linecap:butt;stroke-linejoin:miter;stroke-opacity:1"/></g><g id="g3150" transform="matrix(-0.70215305,0.71202605,0.71202605,0.70215305,549.26588,-247.53998)" style="fill:gray;stroke:gray"><path style="fill:gray;stroke:gray;stroke-width:.58980083px;stroke-linecap:butt;stroke-linejoin:miter;stroke-opacity:1" id="path3152" d="m 273.82723,366.9719 c 8.7378,0 196.74824,0 196.74824,0 l -36.04338,8.50656 0,-5.32284 -160.64914,0 z"/></g></g><g style="fill:gray;stroke:gray" id="g3154" transform="matrix(-0.53729961,0.84339144,-0.84339144,-0.53729961,969.83907,-73.409147)"><g style="fill:gray;stroke:gray" id="g3156" transform="matrix(0.70215305,-0.71202605,-0.71202605,-0.70215305,547.77294,793.48718)"><path style="fill:gray;stroke:gray;stroke-width:.58980083px;stroke-linecap:butt;stroke-linejoin:miter;stroke-opacity:1" id="path3158" d="m 273.82723,366.9719 c 8.7378,0 196.74824,0 196.74824,0 l -36.04338,8.50656 0,-5.32284 -160.64914,0 z"/></g><g style="fill:gray;stroke:gray" id="g3160" transform="matrix(-0.70215305,0.71202605,0.71202605,0.70215305,549.26588,-247.53998)"><path id="path3162" d="m 273.82723,366.9719 c 8.7378,0 196.74824,0 196.74824,0 l -36.04338,8.50656 0,-5.32284 -160.64914,0 z" style="fill:gray;stroke:gray;stroke-width:.58980083px;stroke-linecap:butt;stroke-linejoin:miter;stroke-opacity:1"/></g></g><path id="path3164" d="m 194.2029,346.56509 c 0,4.80248 -3.89318,8.69566 -8.69565,8.69566 -4.80248,0 -8.69565,-3.89318 -8.69565,-8.69566 0,-4.80247 3.89317,-8.69565 8.69565,-8.69565 4.80247,0 8.69565,3.89318 8.69565,8.69565 z" transform="translate(-91.304348,-152.89855)" style="fill:#fff;stroke:#000"/><path style="fill:#fff;stroke:#000" id="path3166" d="m 194.2029,346.56509 c 0,4.80248 -3.89318,8.69566 -8.69565,8.69566 -4.80248,0 -8.69565,-3.89318 -8.69565,-8.69566 0,-4.80247 3.89317,-8.69565 8.69565,-8.69565 4.80247,0 8.69565,3.89318 8.69565,8.69565 z" transform="translate(66.666666,-216.66667)"/><path id="path3168" d="m 194.2029,346.56509 c 0,4.80248 -3.89318,8.69566 -8.69565,8.69566 -4.80248,0 -8.69565,-3.89318 -8.69565,-8.69566 0,-4.80247 3.89317,-8.69565 8.69565,-8.69565 4.80247,0 8.69565,3.89318 8.69565,8.69565 z" transform="translate(66.666666,-216.66667)" style="fill:#fff;stroke:#000"/><path style="fill:#fff;stroke:#000" id="path3170" d="m 194.2029,346.56509 c 0,4.80248 -3.89318,8.69566 -8.69565,8.69566 -4.80248,0 -8.69565,-3.89318 -8.69565,-8.69566 0,-4.80247 3.89317,-8.69565 8.69565,-8.69565 4.80247,0 8.69565,3.89318 8.69565,8.69565 z" transform="translate(236.95652,-212.31884)"/><path id="path3172" d="m 194.2029,346.56509 c 0,4.80248 -3.89318,8.69566 -8.69565,8.69566 -4.80248,0 -8.69565,-3.89318 -8.69565,-8.69566 0,-4.80247 3.89317,-8.69565 8.69565,-8.69565 4.80247,0 8.69565,3.89318 8.69565,8.69565 z" transform="translate(444.2029,-150)" style="fill:#fff;stroke:#000"/><path style="fill:#fff;stroke:#000" id="path3174" d="m 194.2029,346.56509 c 0,4.80248 -3.89318,8.69566 -8.69565,8.69566 -4.80248,0 -8.69565,-3.89318 -8.69565,-8.69566 0,-4.80247 3.89317,-8.69565 8.69565,-8.69565 4.80247,0 8.69565,3.89318 8.69565,8.69565 z" transform="translate(438.4058,165.21739)"/><text id="text3207" x="346.087" y="383" xml:space="preserve" style="font-size:40px;font-style:normal;font-weight:400;line-height:125%;letter-spacing:0;word-spacing:0;fill:#000;fill-opacity:1;stroke:none;font-family:Sans"><tspan style="font-size:19.23820114px;font-style:normal;font-variant:normal;font-weight:400;font-stretch:normal;text-align:start;line-height:125%;writing-mode:lr-tb;text-anchor:start;font-family:Sans;-inkscape-font-specification:Sans" id="tspan3209" x="346.087" y="383">h</tspan></text><text id="text3211" x="311" y="334.362" xml:space="preserve" style="font-size:40px;font-style:normal;font-variant:normal;font-weight:400;font-stretch:normal;text-align:start;line-height:125%;letter-spacing:0;word-spacing:0;writing-mode:lr-tb;text-anchor:start;fill:#000;fill-opacity:1;stroke:none;font-family:Arial;-inkscape-font-specification:Arial"><tspan style="font-size:19.23820114px;font-style:normal;font-variant:normal;font-weight:400;font-stretch:normal;text-align:start;line-height:125%;writing-mode:lr-tb;text-anchor:start;font-family:Arial;-inkscape-font-specification:Arial" id="tspan3213" x="311" y="334.362">opposite(h)</tspan></text><text id="text3217" x="181" y="444.362" xml:space="preserve" style="font-size:20px;font-style:normal;font-variant:normal;font-weight:400;font-stretch:normal;text-align:start;line-height:125%;letter-spacing:0;word-spacing:0;writing-mode:lr-tb;text-anchor:start;fill:#000;fill-opacity:1;stroke:none;font-family:Sans;-inkscape-font-specification:Sans"><tspan style="font-size:19.23820114px;font-style:normal;font-variant:normal;font-weight:400;font-stretch:normal;text-align:start;line-height:125%;writing-mode:lr-tb;text-anchor:start;font-family:Arial;-inkscape-font-specification:Arial" id="tspan3219" x="181" y="444.362">next(h)</tspan></text><text id="text3221" x="486" y="444.362" xml:space="preserve" style="font-size:20px;font-style:normal;font-variant:normal;font-weight:400;font-stretch:normal;text-align:start;line-height:125%;letter-spacing:0;word-spacing:0;writing-mode:lr-tb;text-anchor:start;fill:#000;fill-opacity:1;stroke:none;font-family:Sans;-inkscape-font-specification:Sans"><tspan style="font-size:19.23820114px;font-style:normal;font-variant:normal;font-weight:400;font-stretch:normal;text-align:start;line-height:125%;writing-mode:lr-tb;text-anchor:start;font-family:Arial;-inkscape-font-specification:Arial" id="tspan3223" x="486" y="444.362">prev(h)</tspan></text><flowRoot style="font-size:20px;font-style:normal;font-variant:normal;font-weight:400;font-stretch:normal;text-align:start;line-height:125%;letter-spacing:0;word-spacing:0;writing-mode:lr-tb;text-anchor:start;fill:#000;fill-opacity:1;stroke:none;font-family:Sans;-inkscape-font-specification:Sans" id="flowRoot3225" xml:space="preserve"><flowRegion id="flowRegion3227"><rect id="rect3229" width="85" height="130" x="466" y="411.362"/></flowRegion><flowPara id="flowPara3231"/></flowRoot><text id="text3233" x="319" y="475.362" xml:space="preserve" style="font-size:20px;font-style:normal;font-variant:normal;font-weight:400;font-stretch:normal;text-align:start;line-height:125%;letter-spacing:0;word-spacing:0;writing-mode:lr-tb;text-anchor:start;fill:#000;fill-opacity:1;stroke:none;font-family:Sans;-inkscape-font-specification:Sans"><tspan style="font-size:19.23820114px;font-style:normal;font-variant:normal;font-weight:400;font-stretch:normal;text-align:start;line-height:125%;writing-mode:lr-tb;text-anchor:start;font-family:Arial;-inkscape-font-specification:Arial" id="tspan3235" x="319" y="475.362">face(h)</tspan></text><text id="text3237" x="170" y="354.362" xml:space="preserve" style="font-size:20px;font-style:normal;font-variant:normal;font-weight:400;font-stretch:normal;text-align:start;line-height:125%;letter-spacing:0;word-spacing:0;writing-mode:lr-tb;text-anchor:start;fill:#000;fill-opacity:1;stroke:none;font-family:Sans;-inkscape-font-specification:Sans"><tspan style="font-size:19.23820114px;font-style:normal;font-variant:normal;font-weight:400;font-stretch:normal;text-align:start;line-height:125%;writing-mode:lr-tb;text-anchor:start;font-family:Arial;-inkscape-font-specification:Arial" id="tspan3239" x="170" y="354.362">target(h)</tspan></text><flowRoot style="font-size:16px;font-style:normal;font-variant:normal;font-weight:400;font-stretch:normal;text-align:start;line-height:125%;letter-spacing:0;word-spacing:0;writing-mode:lr-tb;text-anchor:start;fill:#000;fill-opacity:1;stroke:none;font-family:Arial;-inkscape-font-specification:Arial" id="flowRoot3050" xml:space="preserve"><flowRegion id="flowRegion3052"><rect id="rect3054" width="81" height="36" x="76" y="224.275"/></flowRegion><flowPara id="flowPara3056"/></flowRoot></g></g></svg>