<svg xmlns="http://www.w3.org/2000/svg" xmlns:svg="http://www.w3.org/2000/svg" id="svg3976" width="586.25" height="215" version="1.1" xml:space="preserve"><metadata id="metadata3982"/><defs id="defs3980"><clipPath id="clipPath4048" clipPathUnits="userSpaceOnUse"><path id="path4050" d="M 0,1720 0,0 l 4690,0 0,1720 -4690,0 z m 3646,-928.199 41.4,-77.399 171,92.399 -175.2,-44.399 133.8,121.801 -171,-92.402 z" clip-rule="evenodd"/></clipPath></defs><g id="g3984" transform="matrix(1.25,0,0,-1.25,0,215)"><g id="g3986" transform="scale(0.1,0.1)"><path style="fill:none;stroke:#000;stroke-opacity:1;stroke-width:4.5;stroke-linecap:butt;stroke-linejoin:miter;stroke-miterlimit:10;stroke-dasharray:none" id="path3988" d="M 3920.8,1264.6 3262.6,168.402"/><path style="fill:none;stroke:#000;stroke-opacity:1;stroke-width:4.5;stroke-linecap:butt;stroke-linejoin:miter;stroke-miterlimit:10;stroke-dasharray:none" id="path3990" d="M 3262.6,1264.6 3920.8,168.402"/><path style="fill:none;stroke:#000;stroke-opacity:1;stroke-width:4.5;stroke-linecap:butt;stroke-linejoin:miter;stroke-miterlimit:10;stroke-dasharray:none" id="path3992" d="m 2933.2,716.203 1315.8,0"/><path style="fill:none;stroke:#000;stroke-opacity:1;stroke-width:4.5;stroke-linecap:butt;stroke-linejoin:miter;stroke-miterlimit:10;stroke-dasharray:none" id="path3994" d="M 3920.8,1264.6 4359.4,1154.8 4249,716.203"/><path style="fill:none;stroke:#000;stroke-opacity:1;stroke-width:4.5;stroke-linecap:butt;stroke-linejoin:miter;stroke-miterlimit:10;stroke-dasharray:none" id="path3996" d="m 3920.8,168.402 438.6,109.801 -110.4,438"/><path style="fill:none;stroke:#000;stroke-opacity:1;stroke-width:4.5;stroke-linecap:butt;stroke-linejoin:miter;stroke-miterlimit:10;stroke-dasharray:none" id="path3998" d="M 3262.6,1264.6 2824,1154.8 2933.2,716.203"/><path style="fill:none;stroke:#000;stroke-opacity:1;stroke-width:4.5;stroke-linecap:butt;stroke-linejoin:miter;stroke-miterlimit:10;stroke-dasharray:none" id="path4000" d="m 3262.6,168.402 -438.6,109.801 109.2,438"/><path style="fill:none;stroke:#000;stroke-opacity:1;stroke-width:4.5;stroke-linecap:butt;stroke-linejoin:miter;stroke-miterlimit:10;stroke-dasharray:none" id="path4002" d="m 3262.6,1264.6 328.8,329.4 329.4,-329.4"/><path style="fill:none;stroke:#000;stroke-opacity:1;stroke-width:4.5;stroke-linecap:butt;stroke-linejoin:miter;stroke-miterlimit:10;stroke-dasharray:none" id="path4004" d="m 188.203,475.602 590.398,0 0,588.602 -590.398,0 0,-588.602 z"/><path style="fill:none;stroke:#000;stroke-opacity:1;stroke-width:4.5;stroke-linecap:butt;stroke-linejoin:miter;stroke-miterlimit:10;stroke-dasharray:none" id="path4006" d="m 1520.8,215.203 589.801,0 0,1178.4 -589.801,0 0,-1178.4 z"/><g id="g4008" transform="scale(10,10)"><text id="text4010" transform="matrix(1,0,0,-1,358,15.8203)"><tspan style="fill:#000;fill-opacity:1;fill-rule:nonzero;stroke:none;font-family:Times New Roman;font-variant:normal;font-weight:400;font-size:39.6;writing-mode:lr;-inkscape-font-specification:Times-Roman" id="tspan4012" x="0" y="0">.</tspan><tspan style="fill:#000;fill-opacity:1;fill-rule:nonzero;stroke:none;font-family:Times New Roman;font-variant:normal;font-weight:400;font-size:39.6;writing-mode:lr;-inkscape-font-specification:Times-Roman" id="tspan4014" x="14.16" y="-3">.</tspan><tspan style="fill:#000;fill-opacity:1;fill-rule:nonzero;stroke:none;font-family:Times New Roman;font-variant:normal;font-weight:400;font-size:39.6;writing-mode:lr;-inkscape-font-specification:Times-Roman" id="tspan4016" x="-14.04" y="-3.18">.</tspan></text></g><path style="fill:none;stroke:#000;stroke-opacity:1;stroke-width:4.5;stroke-linecap:butt;stroke-linejoin:miter;stroke-miterlimit:10;stroke-dasharray:none" id="path4018" d="m 1520.8,803.801 589.8,0"/><path style="fill:#fff;fill-opacity:1;fill-rule:evenodd;stroke:none" id="path4020" d="m 4359.4,716.199 c 0,-64.613 -52.38,-116.996 -117,-116.996 -64.61,0 -116.99,52.383 -116.99,116.996 0,64.613 52.38,116.996 116.99,116.996 64.62,0 117,-52.383 117,-116.996"/><path style="fill:#fff;fill-opacity:1;fill-rule:evenodd;stroke:none" id="path4022" d="m 4469.2,1154.8 c 0,-64.62 -52.38,-117 -117,-117 -64.61,0 -116.99,52.38 -116.99,117 0,64.61 52.38,116.99 116.99,116.99 64.62,0 117,-52.38 117,-116.99"/><path style="fill:#fff;fill-opacity:1;fill-rule:evenodd;stroke:none" id="path4024" d="m 4030,1264.6 c 0,-64.62 -52.39,-117 -117,-117 -64.61,0 -117,52.38 -117,117 0,64.61 52.39,116.99 117,116.99 64.61,0 117,-52.38 117,-116.99"/><path style="fill:#fff;fill-opacity:1;fill-rule:evenodd;stroke:none" id="path4026" d="m 3372.4,168.398 c 0,-64.613 -52.38,-116.9957 -117,-116.9957 -64.61,0 -116.99,52.3827 -116.99,116.9957 0,64.614 52.38,116.997 116.99,116.997 64.62,0 117,-52.383 117,-116.997"/><path style="fill:#fff;fill-opacity:1;fill-rule:evenodd;stroke:none" id="path4028" d="m 3701.8,1594 c 0,-64.62 -52.39,-117 -117,-117 -64.61,0 -117,52.38 -117,117 0,64.61 52.39,116.99 117,116.99 64.61,0 117,-52.38 117,-116.99"/><path style="fill:#fff;fill-opacity:1;fill-rule:evenodd;stroke:none" id="path4030" d="m 542.797,757 c 0,-24.188 -19.609,-43.797 -43.797,-43.797 -24.188,0 -43.797,19.609 -43.797,43.797 0,24.188 19.609,43.797 43.797,43.797 24.188,0 43.797,-19.609 43.797,-43.797"/><path style="fill:none;stroke:red;stroke-opacity:1;stroke-width:4.5;stroke-linecap:butt;stroke-linejoin:miter;stroke-miterlimit:10;stroke-dasharray:none" id="path4032" d="m 542.797,757 c 0,-24.188 -19.609,-43.797 -43.797,-43.797 -24.188,0 -43.797,19.609 -43.797,43.797 0,24.188 19.609,43.797 43.797,43.797 24.188,0 43.797,-19.609 43.797,-43.797 z"/><path style="fill:#fff;fill-opacity:1;fill-rule:evenodd;stroke:none" id="path4034" d="m 1860.4,803.199 c 0,-24.187 -19.61,-43.797 -43.8,-43.797 -24.19,0 -43.8,19.61 -43.8,43.797 0,24.188 19.61,43.797 43.8,43.797 24.19,0 43.8,-19.609 43.8,-43.797"/><path style="fill:none;stroke:red;stroke-opacity:1;stroke-width:4.5;stroke-linecap:butt;stroke-linejoin:miter;stroke-miterlimit:10;stroke-dasharray:none" id="path4036" d="m 1860.4,803.199 c 0,-24.187 -19.61,-43.797 -43.8,-43.797 -24.19,0 -43.8,19.61 -43.8,43.797 0,24.188 19.61,43.797 43.8,43.797 24.19,0 43.8,-19.609 43.8,-43.797 z"/><path style="fill:#fff;fill-opacity:1;fill-rule:evenodd;stroke:none" id="path4038" d="m 3631,725.199 c 0,-24.187 -19.61,-43.797 -43.8,-43.797 -24.18,0 -43.79,19.61 -43.79,43.797 0,24.188 19.61,43.797 43.79,43.797 24.19,0 43.8,-19.609 43.8,-43.797"/><path style="fill:none;stroke:red;stroke-opacity:1;stroke-width:4.5;stroke-linecap:butt;stroke-linejoin:miter;stroke-miterlimit:10;stroke-dasharray:none" id="path4040" d="m 3631,725.199 c 0,-24.187 -19.61,-43.797 -43.8,-43.797 -24.18,0 -43.79,19.61 -43.79,43.797 0,24.188 19.61,43.797 43.79,43.797 24.19,0 43.8,-19.609 43.8,-43.797 z"/><path style="fill:#fff;fill-opacity:1;fill-rule:evenodd;stroke:none" id="path4042" d="m 305.199,1064.2 c 0,-64.614 -52.383,-116.997 -116.996,-116.997 -64.613,0 -116.996,52.383 -116.996,116.997 0,64.61 52.383,117 116.996,117 64.613,0 116.996,-52.39 116.996,-117"/><g id="g4044"><g id="g4046" clip-path="url(#clipPath4048)"><path style="fill:none;stroke:#a1a1a1;stroke-opacity:1;stroke-width:4.5;stroke-linecap:butt;stroke-linejoin:miter;stroke-miterlimit:10;stroke-dasharray:none" id="path4052" d="M 4136.2,1360 4125.4,998.801 3674.8,757.004"/></g></g><path style="fill:#a1a1a1;fill-opacity:1;fill-rule:evenodd;stroke:none" id="path4054" d="m 3817,884.203 -133.8,-121.801 175.2,44.399 -41.4,77.402"/><path style="fill:none;stroke:#a1a1a1;stroke-opacity:1;stroke-width:4.5;stroke-linecap:butt;stroke-linejoin:miter;stroke-miterlimit:10;stroke-dasharray:none" id="path4056" d="m 3817,884.203 -133.8,-121.801 175.2,44.399 -41.4,77.402 z"/><path style="fill:#fff;fill-opacity:1;fill-rule:evenodd;stroke:none" id="path4058" d="m 4469.2,278.199 c 0,-64.613 -52.38,-116.996 -117,-116.996 -64.61,0 -116.99,52.383 -116.99,116.996 0,64.613 52.38,116.996 116.99,116.996 64.62,0 117,-52.383 117,-116.996"/><path style="fill:#fff;fill-opacity:1;fill-rule:evenodd;stroke:none" id="path4060" d="m 886.598,482.199 c 0,-64.613 -52.383,-116.996 -116.996,-116.996 -64.614,0 -116.997,52.383 -116.997,116.996 0,64.613 52.383,116.996 116.997,116.996 64.613,0 116.996,-52.383 116.996,-116.996"/><path style="fill:#fff;fill-opacity:1;fill-rule:evenodd;stroke:none" id="path4062" d="m 896.797,1074.4 c 0,-64.61 -52.383,-116.998 -116.996,-116.998 -64.613,0 -116.996,52.388 -116.996,116.998 0,64.61 52.383,116.99 116.996,116.99 64.613,0 116.996,-52.38 116.996,-116.99"/><path style="fill:#fff;fill-opacity:1;fill-rule:evenodd;stroke:none" id="path4064" d="m 1642.6,1393.6 c 0,-64.62 -52.39,-117 -117,-117 -64.61,0 -116.99,52.38 -116.99,117 0,64.61 52.38,116.99 116.99,116.99 64.61,0 117,-52.38 117,-116.99"/><path style="fill:#fff;fill-opacity:1;fill-rule:evenodd;stroke:none" id="path4066" d="m 1642.6,231.398 c 0,-64.613 -52.39,-116.996 -117,-116.996 -64.61,0 -116.99,52.383 -116.99,116.996 0,64.614 52.38,116.997 116.99,116.997 64.61,0 117,-52.383 117,-116.997"/><path style="fill:#fff;fill-opacity:1;fill-rule:evenodd;stroke:none" id="path4068" d="m 2224.6,231.398 c 0,-64.613 -52.39,-116.996 -117,-116.996 -64.61,0 -116.99,52.383 -116.99,116.996 0,64.614 52.38,116.997 116.99,116.997 64.61,0 117,-52.383 117,-116.997"/><path style="fill:#fff;fill-opacity:1;fill-rule:evenodd;stroke:none" id="path4070" d="m 2212.6,801.398 c 0,-64.613 -52.39,-116.996 -117,-116.996 -64.61,0 -116.99,52.383 -116.99,116.996 0,64.614 52.38,116.997 116.99,116.997 64.61,0 117,-52.383 117,-116.997"/><path style="fill:#fff;fill-opacity:1;fill-rule:evenodd;stroke:none" id="path4072" d="m 2212.6,1403.8 c 0,-64.62 -52.39,-117 -117,-117 -64.61,0 -116.99,52.38 -116.99,117 0,64.61 52.38,116.99 116.99,116.99 64.61,0 117,-52.38 117,-116.99"/><path style="fill:#fff;fill-opacity:1;fill-rule:evenodd;stroke:none" id="path4074" d="m 1642.6,801.398 c 0,-64.613 -52.39,-116.996 -117,-116.996 -64.61,0 -116.99,52.383 -116.99,116.996 0,64.614 52.38,116.997 116.99,116.997 64.61,0 117,-52.383 117,-116.997"/><path style="fill:#fff;fill-opacity:1;fill-rule:evenodd;stroke:none" id="path4076" d="m 3382.6,1254.4 c 0,-64.61 -52.39,-117 -117,-117 -64.61,0 -116.99,52.39 -116.99,117 0,64.61 52.38,116.99 116.99,116.99 64.61,0 117,-52.38 117,-116.99"/><path style="fill:#fff;fill-opacity:1;fill-rule:evenodd;stroke:none" id="path4078" d="m 2943.4,1144.6 c 0,-64.62 -52.38,-117 -117,-117 -64.61,0 -116.99,52.38 -116.99,117 0,64.61 52.38,116.99 116.99,116.99 64.62,0 117,-52.38 117,-116.99"/><path style="fill:#fff;fill-opacity:1;fill-rule:evenodd;stroke:none" id="path4080" d="m 3021.4,728.199 c 0,-64.613 -52.38,-116.996 -117,-116.996 -64.61,0 -116.99,52.383 -116.99,116.996 0,64.613 52.38,116.996 116.99,116.996 64.62,0 117,-52.383 117,-116.996"/><path style="fill:#fff;fill-opacity:1;fill-rule:evenodd;stroke:none" id="path4082" d="m 2911.6,289 c 0,-64.613 -52.39,-116.996 -117,-116.996 -64.61,0 -116.99,52.383 -116.99,116.996 0,64.613 52.38,116.996 116.99,116.996 64.61,0 117,-52.383 117,-116.996"/><path style="fill:#fff;fill-opacity:1;fill-rule:evenodd;stroke:none" id="path4084" d="m 4019.2,168.398 c 0,-64.613 -52.38,-116.9957 -117,-116.9957 -64.61,0 -116.99,52.3827 -116.99,116.9957 0,64.614 52.38,116.997 116.99,116.997 64.62,0 117,-52.383 117,-116.997"/><path style="fill:#fff;fill-opacity:1;fill-rule:evenodd;stroke:none" id="path4086" d="m 305.199,472.598 c 0,-64.614 -52.383,-116.996 -116.996,-116.996 -64.613,0 -116.996,52.382 -116.996,116.996 0,64.613 52.383,116.996 116.996,116.996 64.613,0 116.996,-52.383 116.996,-116.996"/><g id="g4088" transform="scale(10,10)"><text id="text4090" transform="matrix(1,0,0,-1,73.4801,101.92)"><tspan style="fill:#000;fill-opacity:1;fill-rule:nonzero;stroke:none;font-family:Helvetica;font-variant:normal;font-weight:400;font-size:17.1;writing-mode:lr;-inkscape-font-specification:Helvetica" id="tspan4092" x="0" y="0">1</tspan><tspan style="fill:#000;fill-opacity:1;fill-rule:nonzero;stroke:none;font-family:Helvetica;font-variant:normal;font-weight:400;font-size:17.1;writing-mode:lr;-inkscape-font-specification:Helvetica" id="tspan4094" x="132.36" y="27.3">6</tspan><tspan style="fill:#000;fill-opacity:1;fill-rule:nonzero;stroke:none;font-family:Helvetica;font-variant:normal;font-weight:400;font-size:17.1;writing-mode:lr;-inkscape-font-specification:Helvetica" id="tspan4096" x="134.22" y="84.42">1</tspan><tspan style="fill:#000;fill-opacity:1;fill-rule:nonzero;stroke:none;font-family:Helvetica;font-variant:normal;font-weight:400;font-size:17.1;writing-mode:lr;-inkscape-font-specification:Helvetica" id="tspan4098" x="214.32" y="34.62">6</tspan><tspan style="fill:#000;fill-opacity:1;fill-rule:nonzero;stroke:none;font-family:Helvetica;font-variant:normal;font-weight:400;font-size:17.1;writing-mode:lr;-inkscape-font-specification:Helvetica" id="tspan4100" x="358.92" y="79.86">1</tspan><tspan style="fill:#000;fill-opacity:1;fill-rule:nonzero;stroke:none;font-family:Helvetica;font-variant:normal;font-weight:400;font-size:17.1;writing-mode:lr;-inkscape-font-specification:Helvetica" id="tspan4102" x="330.3 339.807 349.315 354.069 364.055 368.809 378.317" y="-43.26">4n − 7n</tspan><tspan style="fill:#000;fill-opacity:1;fill-rule:nonzero;stroke:none;font-family:Helvetica;font-variant:normal;font-weight:400;font-size:17.1;writing-mode:lr;-inkscape-font-specification:Helvetica" id="tspan4104" x="206.28" y="79.079">1</tspan><tspan style="fill:#000;fill-opacity:1;fill-rule:nonzero;stroke:none;font-family:Helvetica;font-variant:normal;font-weight:400;font-size:17.1;writing-mode:lr;-inkscape-font-specification:Helvetica" id="tspan4106" x="247.26" y="90.659">6</tspan><tspan style="fill:#000;fill-opacity:1;fill-rule:nonzero;stroke:none;font-family:Helvetica;font-variant:normal;font-weight:400;font-size:17.1;writing-mode:lr;-inkscape-font-specification:Helvetica" id="tspan4108" x="313.44" y="90.779">6</tspan><tspan style="fill:#000;fill-opacity:1;fill-rule:nonzero;stroke:none;font-family:Helvetica;font-variant:normal;font-weight:400;font-size:17.1;writing-mode:lr;-inkscape-font-specification:Helvetica" id="tspan4110" x="281.46" y="-49.921">1</tspan><tspan style="fill:#000;fill-opacity:1;fill-rule:nonzero;stroke:none;font-family:Helvetica;font-variant:normal;font-weight:400;font-size:17.1;writing-mode:lr;-inkscape-font-specification:Helvetica" id="tspan4112" x="248.1" y="-19.861">6</tspan><tspan style="fill:#000;fill-opacity:1;fill-rule:nonzero;stroke:none;font-family:Helvetica;font-variant:normal;font-weight:400;font-size:17.1;writing-mode:lr;-inkscape-font-specification:Helvetica" id="tspan4114" x="206.16" y="-6.541">1</tspan><tspan style="fill:#000;fill-opacity:1;fill-rule:nonzero;stroke:none;font-family:Helvetica;font-variant:normal;font-weight:400;font-size:17.1;writing-mode:lr;-inkscape-font-specification:Helvetica" id="tspan4116" x="347.16" y="35.819">6</tspan><tspan style="fill:#000;fill-opacity:1;fill-rule:nonzero;stroke:none;font-family:Helvetica;font-variant:normal;font-weight:400;font-size:17.1;writing-mode:lr;-inkscape-font-specification:Helvetica" id="tspan4118" x="357.6" y="-8.341">1</tspan><tspan style="fill:#000;fill-opacity:1;fill-rule:nonzero;stroke:none;font-family:Helvetica;font-variant:normal;font-weight:400;font-size:17.1;writing-mode:lr;-inkscape-font-specification:Helvetica" id="tspan4120" x="314.46" y="-18.841">6</tspan><tspan style="fill:#000;fill-opacity:1;fill-rule:nonzero;stroke:none;font-family:Helvetica;font-variant:normal;font-weight:400;font-size:17.1;writing-mode:lr;-inkscape-font-specification:Helvetica" id="tspan4122" x="131.88" y="-33.541">1</tspan><tspan style="fill:#000;fill-opacity:1;fill-rule:nonzero;stroke:none;font-family:Helvetica;font-variant:normal;font-weight:400;font-size:17.1;writing-mode:lr;-inkscape-font-specification:Helvetica" id="tspan4124" x="74.94" y="-32.221">1</tspan><tspan style="fill:#000;fill-opacity:1;fill-rule:nonzero;stroke:none;font-family:Helvetica;font-variant:normal;font-weight:400;font-size:17.1;writing-mode:lr;-inkscape-font-specification:Helvetica" id="tspan4126" x="74.88" y="28.259">6</tspan><tspan style="fill:#000;fill-opacity:1;fill-rule:nonzero;stroke:none;font-family:Helvetica;font-variant:normal;font-weight:400;font-size:17.1;writing-mode:lr;-inkscape-font-specification:Helvetica" id="tspan4128" x="74.4" y="85.799">1</tspan><tspan style="fill:#000;fill-opacity:1;fill-rule:nonzero;stroke:none;font-family:Helvetica;font-variant:normal;font-weight:400;font-size:17.1;writing-mode:lr;-inkscape-font-specification:Helvetica" id="tspan4130" x="-.18" y="60.539">1</tspan><tspan style="fill:#000;fill-opacity:1;fill-rule:nonzero;stroke:none;font-family:Helvetica;font-variant:normal;font-weight:400;font-size:17.1;writing-mode:lr;-inkscape-font-specification:Helvetica" id="tspan4132" x="-60.06" y="1.319">1</tspan></text><text id="text4134" transform="matrix(1,0,0,-1,421.00024,155.56086)"><tspan style="fill:#000;fill-opacity:1;fill-rule:nonzero;stroke:none;font-family:Helvetica;font-variant:normal;font-weight:400;font-size:10.8;writing-mode:lr;-inkscape-font-specification:Helvetica" id="tspan4136" x="0" y="0">2</tspan></text><text id="text4138" transform="matrix(1,0,0,-1,14.980236,40.360858)"><tspan style="fill:#000;fill-opacity:1;fill-rule:nonzero;stroke:none;font-family:Helvetica;font-variant:normal;font-weight:400;font-size:17.1;writing-mode:lr;-inkscape-font-specification:Helvetica" id="tspan4140" x="0" y="0">1</tspan></text></g></g></g></svg>