<svg xmlns="http://www.w3.org/2000/svg" xmlns:svg="http://www.w3.org/2000/svg" id="svg4142" width="760" height="90" version="1.1" xml:space="preserve"><metadata id="metadata4148"/><defs id="defs4146"><clipPath id="clipPath4196" clipPathUnits="userSpaceOnUse"><path id="path4198" d="M 0,720 0,0 6080,0 6080,720 0,720 z m 3409,-416.004 0,54 -84,0 63,-27 -63,-27 84,0 z" clip-rule="evenodd"/></clipPath><clipPath id="clipPath4224" clipPathUnits="userSpaceOnUse"><path id="path4226" d="M 0,720 0,0 6080,0 6080,720 0,720 z m 789.996,-83.004 0,-54 84,0 -63,27 63,27 -84,0 z" clip-rule="evenodd"/></clipPath></defs><g id="g4150" transform="matrix(1.25,0,0,-1.25,0,90)"><g id="g4152" transform="scale(0.1,0.1)"><path style="fill:#e6e6e6;fill-opacity:1;fill-rule:evenodd;stroke:none" id="path4154" d="m 78.9961,654.996 2385.0039,0 -135,-584.9921 -2133.004,9"/><path style="fill:#e6e6e6;fill-opacity:1;fill-rule:evenodd;stroke:none" id="path4156" d="m 3634,659.797 2385,0 -135,-584.9962 -2133,9"/><g id="g4158" transform="scale(10,10)"><text id="text4160" transform="matrix(1,0,0,-1,491.2,51.9996)"><tspan style="fill:red;fill-opacity:1;fill-rule:nonzero;stroke:none;font-family:Helvetica;font-variant:normal;font-weight:400;font-size:18.9;writing-mode:lr;-inkscape-font-specification:Helvetica" id="tspan4162" x="0 10.508 21.017" y="0">ept</tspan></text></g><path style="fill:none;stroke:#000;stroke-opacity:1;stroke-width:4.5;stroke-linecap:butt;stroke-linejoin:miter;stroke-miterlimit:10;stroke-dasharray:none" id="path4164" d="m 5524,659.797 540,0"/><path style="fill:none;stroke:#000;stroke-opacity:1;stroke-width:4.5;stroke-linecap:butt;stroke-linejoin:miter;stroke-miterlimit:10;stroke-dasharray:none" id="path4166" d="m 4831,654.996 0,-629.9921"/><path style="fill:none;stroke:#000;stroke-opacity:1;stroke-width:4.5;stroke-linecap:butt;stroke-linejoin:miter;stroke-miterlimit:10;stroke-dasharray:none" id="path4168" d="m 4354,321.996 981,0"/><path style="fill:none;stroke:#000;stroke-opacity:1;stroke-width:4.5;stroke-linecap:butt;stroke-linejoin:miter;stroke-miterlimit:10;stroke-dasharray:none" id="path4170" d="M 5344,312.996 5515,16.0039"/><path style="fill:none;stroke:#000;stroke-opacity:1;stroke-width:4.5;stroke-linecap:butt;stroke-linejoin:miter;stroke-miterlimit:10;stroke-dasharray:none" id="path4172" d="M 4345,312.996 4174,7.00391"/><g id="g4174" transform="scale(10,10)"><text id="text4176" transform="matrix(1,0,0,-1,295,16.9004)"><tspan style="fill:#000;fill-opacity:1;fill-rule:nonzero;stroke:none;font-family:Times New Roman;font-variant:normal;font-weight:400;font-size:13.5;writing-mode:lr;-inkscape-font-specification:Times-Roman" id="tspan4178" x="0 7.506 17.253" y="0">PQQ</tspan></text></g><g id="g4180" transform="scale(10,10)"><text id="text4182" transform="matrix(1,0,0,-1,124,46.5996)"><tspan style="fill:#87cfff;fill-opacity:1;fill-rule:nonzero;stroke:none;font-family:Helvetica;font-variant:normal;font-weight:400;font-size:18.9;writing-mode:lr;-inkscape-font-specification:Helvetica" id="tspan4184" x="0" y="0">e</tspan></text></g><g id="g4186" transform="scale(10,10)"><text id="text4188" transform="matrix(1,0,0,-1,423.7,51.9996)"><tspan style="fill:red;fill-opacity:1;fill-rule:nonzero;stroke:none;font-family:Helvetica;font-variant:normal;font-weight:400;font-size:18.9;writing-mode:lr;-inkscape-font-specification:Helvetica" id="tspan4190" x="0 9.45 19.958" y="0">vpt</tspan></text></g><g id="g4192"><g id="g4194" clip-path="url(#clipPath4196)"><path style="fill:none;stroke:#000;stroke-opacity:1;stroke-width:18;stroke-linecap:butt;stroke-linejoin:miter;stroke-miterlimit:10;stroke-dasharray:none" id="path4200" d="m 2761,330.996 639,0"/></g></g><path style="fill:#000;fill-opacity:1;fill-rule:evenodd;stroke:none" id="path4202" d="m 3325,303.996 63,27 -63,27 0,-54"/><path style="fill:none;stroke:#000;stroke-opacity:1;stroke-width:9;stroke-linecap:butt;stroke-linejoin:miter;stroke-miterlimit:10;stroke-dasharray:none" id="path4204" d="m 3325,303.996 63,27 -63,27 0,-54 z"/><path style="fill:none;stroke:#000;stroke-opacity:1;stroke-width:4.5;stroke-linecap:butt;stroke-linejoin:miter;stroke-miterlimit:10;stroke-dasharray:none" id="path4206" d="m 573.996,654.996 1395.004,0"/><path style="fill:none;stroke:#000;stroke-opacity:1;stroke-width:4.5;stroke-linecap:butt;stroke-linejoin:miter;stroke-miterlimit:10;stroke-dasharray:none" id="path4208" d="m 573.996,654.996 -405,-629.9921"/><path style="fill:none;stroke:#000;stroke-opacity:1;stroke-width:4.5;stroke-linecap:butt;stroke-linejoin:miter;stroke-miterlimit:10;stroke-dasharray:none" id="path4210" d="m 573.996,654.996 405,-629.9921"/><path style="fill:none;stroke:#000;stroke-opacity:1;stroke-width:4.5;stroke-linecap:butt;stroke-linejoin:miter;stroke-miterlimit:10;stroke-dasharray:none" id="path4212" d="m 573.996,654.996 -566.99991,0"/><path style="fill:none;stroke:#000;stroke-opacity:1;stroke-width:4.5;stroke-linecap:butt;stroke-linejoin:miter;stroke-miterlimit:10;stroke-dasharray:none" id="path4214" d="M 1969,654.996 1609,25.0039"/><path style="fill:none;stroke:#000;stroke-opacity:1;stroke-width:4.5;stroke-linecap:butt;stroke-linejoin:miter;stroke-miterlimit:10;stroke-dasharray:none" id="path4216" d="M 1969,654.996 2374,25.0039"/><path style="fill:none;stroke:#000;stroke-opacity:1;stroke-width:4.5;stroke-linecap:butt;stroke-linejoin:miter;stroke-miterlimit:10;stroke-dasharray:none" id="path4218" d="m 1969,654.996 540,0"/><g id="g4220"><g id="g4222" clip-path="url(#clipPath4224)"><path style="fill:none;stroke:#87cfff;stroke-opacity:1;stroke-width:18;stroke-linecap:butt;stroke-linejoin:miter;stroke-miterlimit:10;stroke-dasharray:none" id="path4228" d="m 1789,609.996 -990.004,0"/></g></g><path style="fill:#87cfff;fill-opacity:1;fill-rule:evenodd;stroke:none" id="path4230" d="m 873.996,636.996 -63,-27 63,-27 0,54"/><path style="fill:none;stroke:#87cfff;stroke-opacity:1;stroke-width:9;stroke-linecap:butt;stroke-linejoin:miter;stroke-miterlimit:10;stroke-dasharray:none" id="path4232" d="m 873.996,636.996 -63,-27 63,-27 0,54 z"/><path style="fill:none;stroke:#000;stroke-opacity:1;stroke-width:4.5;stroke-linecap:butt;stroke-linejoin:miter;stroke-miterlimit:10;stroke-dasharray:none" id="path4234" d="m 4129,659.797 1395,0"/><path style="fill:none;stroke:#000;stroke-opacity:1;stroke-width:4.5;stroke-linecap:butt;stroke-linejoin:miter;stroke-miterlimit:10;stroke-dasharray:none" id="path4236" d="M 4129,659.797 3724,29.8008"/><path style="fill:none;stroke:#000;stroke-opacity:1;stroke-width:4.5;stroke-linecap:butt;stroke-linejoin:miter;stroke-miterlimit:10;stroke-dasharray:none" id="path4238" d="M 4129,659.797 4534,29.8008"/><path style="fill:none;stroke:#000;stroke-opacity:1;stroke-width:4.5;stroke-linecap:butt;stroke-linejoin:miter;stroke-miterlimit:10;stroke-dasharray:none" id="path4240" d="m 4129,659.797 -567,0"/><path style="fill:none;stroke:#000;stroke-opacity:1;stroke-width:4.5;stroke-linecap:butt;stroke-linejoin:miter;stroke-miterlimit:10;stroke-dasharray:none" id="path4242" d="M 5524,659.797 5164,29.8008"/><path style="fill:none;stroke:#000;stroke-opacity:1;stroke-width:4.5;stroke-linecap:butt;stroke-linejoin:miter;stroke-miterlimit:10;stroke-dasharray:none" id="path4244" d="M 5524,659.797 5929,29.8008"/><path style="fill:#fff;fill-opacity:1;fill-rule:evenodd;stroke:none" id="path4246" d="m 5568.99,659.797 c 0,-24.848 -20.15,-44.996 -44.99,-44.996 -24.85,0 -45,20.148 -45,44.996 0,24.848 20.15,44.996 45,44.996 24.84,0 44.99,-20.148 44.99,-44.996"/><path style="fill:none;stroke:#000;stroke-opacity:1;stroke-width:4.5;stroke-linecap:butt;stroke-linejoin:miter;stroke-miterlimit:10;stroke-dasharray:none" id="path4248" d="m 5568.99,659.797 c 0,-24.848 -20.15,-44.996 -44.99,-44.996 -24.85,0 -45,20.148 -45,44.996 0,24.848 20.15,44.996 45,44.996 24.84,0 44.99,-20.148 44.99,-44.996 z"/><path style="fill:#fff;fill-opacity:1;fill-rule:evenodd;stroke:none" id="path4250" d="M 5379.99,312.996 C 5379.99,288.148 5359.84,268 5335,268 c -24.85,0 -45,20.148 -45,44.996 0,24.848 20.15,44.996 45,44.996 24.84,0 44.99,-20.148 44.99,-44.996"/><path style="fill:none;stroke:#000;stroke-opacity:1;stroke-width:4.5;stroke-linecap:butt;stroke-linejoin:miter;stroke-miterlimit:10;stroke-dasharray:none" id="path4252" d="M 5379.99,312.996 C 5379.99,288.148 5359.84,268 5335,268 c -24.85,0 -45,20.148 -45,44.996 0,24.848 20.15,44.996 45,44.996 24.84,0 44.99,-20.148 44.99,-44.996 z"/><path style="fill:#fff;fill-opacity:1;fill-rule:evenodd;stroke:none" id="path4254" d="M 4884.99,321.996 C 4884.99,297.148 4864.84,277 4840,277 c -24.85,0 -45,20.148 -45,44.996 0,24.848 20.15,44.996 45,44.996 24.84,0 44.99,-20.148 44.99,-44.996"/><path style="fill:none;stroke:#000;stroke-opacity:1;stroke-width:4.5;stroke-linecap:butt;stroke-linejoin:miter;stroke-miterlimit:10;stroke-dasharray:none" id="path4256" d="M 4884.99,321.996 C 4884.99,297.148 4864.84,277 4840,277 c -24.85,0 -45,20.148 -45,44.996 0,24.848 20.15,44.996 45,44.996 24.84,0 44.99,-20.148 44.99,-44.996 z"/><path style="fill:#fff;fill-opacity:1;fill-rule:evenodd;stroke:none" id="path4258" d="M 4875.99,654.996 C 4875.99,630.148 4855.84,610 4831,610 c -24.85,0 -45,20.148 -45,44.996 0,24.848 20.15,44.996 45,44.996 24.84,0 44.99,-20.148 44.99,-44.996"/><path style="fill:none;stroke:red;stroke-opacity:1;stroke-width:18;stroke-linecap:butt;stroke-linejoin:miter;stroke-miterlimit:10;stroke-dasharray:none" id="path4260" d="M 4875.99,654.996 C 4875.99,630.148 4855.84,610 4831,610 c -24.85,0 -45,20.148 -45,44.996 0,24.848 20.15,44.996 45,44.996 24.84,0 44.99,-20.148 44.99,-44.996 z"/><path style="fill:#fff;fill-opacity:1;fill-rule:evenodd;stroke:none" id="path4262" d="m 4173.99,659.797 c 0,-24.848 -20.15,-44.996 -44.99,-44.996 -24.85,0 -45,20.148 -45,44.996 0,24.848 20.15,44.996 45,44.996 24.84,0 44.99,-20.148 44.99,-44.996"/><path style="fill:none;stroke:red;stroke-opacity:1;stroke-width:18;stroke-linecap:butt;stroke-linejoin:miter;stroke-miterlimit:10;stroke-dasharray:none" id="path4264" d="m 4173.99,659.797 c 0,-24.848 -20.15,-44.996 -44.99,-44.996 -24.85,0 -45,20.148 -45,44.996 0,24.848 20.15,44.996 45,44.996 24.84,0 44.99,-20.148 44.99,-44.996 z"/><path style="fill:#fff;fill-opacity:1;fill-rule:evenodd;stroke:none" id="path4266" d="M 2013.99,654.996 C 2013.99,630.148 1993.84,610 1969,610 c -24.85,0 -45,20.148 -45,44.996 0,24.848 20.15,44.996 45,44.996 24.84,0 44.99,-20.148 44.99,-44.996"/><path style="fill:none;stroke:#000;stroke-opacity:1;stroke-width:4.5;stroke-linecap:butt;stroke-linejoin:miter;stroke-miterlimit:10;stroke-dasharray:none" id="path4268" d="M 2013.99,654.996 C 2013.99,630.148 1993.84,610 1969,610 c -24.85,0 -45,20.148 -45,44.996 0,24.848 20.15,44.996 45,44.996 24.84,0 44.99,-20.148 44.99,-44.996 z"/><path style="fill:#fff;fill-opacity:1;fill-rule:evenodd;stroke:none" id="path4270" d="M 618.992,654.996 C 618.992,630.148 598.844,610 573.996,610 549.148,610 529,630.148 529,654.996 c 0,24.848 20.148,44.996 44.996,44.996 24.848,0 44.996,-20.148 44.996,-44.996"/><path style="fill:none;stroke:#000;stroke-opacity:1;stroke-width:4.5;stroke-linecap:butt;stroke-linejoin:miter;stroke-miterlimit:10;stroke-dasharray:none" id="path4272" d="M 618.992,654.996 C 618.992,630.148 598.844,610 573.996,610 549.148,610 529,630.148 529,654.996 c 0,24.848 20.148,44.996 44.996,44.996 24.848,0 44.996,-20.148 44.996,-44.996 z"/><path style="fill:#fff;fill-opacity:1;fill-rule:evenodd;stroke:none" id="path4274" d="M 4389.99,321.996 C 4389.99,297.148 4369.84,277 4345,277 c -24.85,0 -45,20.148 -45,44.996 0,24.848 20.15,44.996 45,44.996 24.84,0 44.99,-20.148 44.99,-44.996"/><path style="fill:none;stroke:#000;stroke-opacity:1;stroke-width:4.5;stroke-linecap:butt;stroke-linejoin:miter;stroke-miterlimit:10;stroke-dasharray:none" id="path4276" d="M 4389.99,321.996 C 4389.99,297.148 4369.84,277 4345,277 c -24.85,0 -45,20.148 -45,44.996 0,24.848 20.15,44.996 45,44.996 24.84,0 44.99,-20.148 44.99,-44.996 z"/></g></g></svg>