<svg xmlns="http://www.w3.org/2000/svg" xmlns:svg="http://www.w3.org/2000/svg" id="svg4278" width="508.75" height="182.5" version="1.1" xml:space="preserve"><metadata id="metadata4284"/><defs id="defs4282"><clipPath id="clipPath4294" clipPathUnits="userSpaceOnUse"><path id="path4296" d="M 0,1460 0,0 l 4070,0 0,1460 -4070,0 z m 2337.4,-739.605 0,54 -84,0 63,-27 -63,-27 84,0 z" clip-rule="evenodd"/></clipPath><clipPath id="clipPath4324" clipPathUnits="userSpaceOnUse"><path id="path4326" d="M 0,1460 0,0 l 4070,0 0,1460 -4070,0 z m 1091.8,-1151.203 0,27 -86.4,0.601 48,-13.8 -48,-13.2 86.4,-0.601 z" clip-rule="evenodd"/></clipPath></defs><g id="g4286" transform="matrix(1.25,0,0,-1.25,0,182.5)"><g id="g4288" transform="scale(0.1,0.1)"><g id="g4290"><g id="g4292" clip-path="url(#clipPath4294)"><path style="fill:none;stroke:#000;stroke-opacity:1;stroke-width:18;stroke-linecap:butt;stroke-linejoin:miter;stroke-miterlimit:10;stroke-dasharray:none" id="path4298" d="m 1689.4,747.395 639,0"/></g></g><path style="fill:#000;fill-opacity:1;fill-rule:evenodd;stroke:none" id="path4300" d="m 2253.4,720.395 63,27 -63,27 0,-54"/><path style="fill:none;stroke:#000;stroke-opacity:1;stroke-width:9;stroke-linecap:butt;stroke-linejoin:miter;stroke-miterlimit:10;stroke-dasharray:none" id="path4302" d="m 2253.4,720.395 63,27 -63,27 0,-54 z"/><g id="g4304" transform="scale(10,10)"><text id="text4306" transform="matrix(1,0,0,-1,184.96,56.8598)"><tspan style="fill:#000;fill-opacity:1;fill-rule:nonzero;stroke:none;font-family:Times New Roman;font-variant:normal;font-weight:400;font-size:13.5;writing-mode:lr;-inkscape-font-specification:Times-Roman" id="tspan4308" x="0 9.747 19.494" y="0">DQQ</tspan></text></g><path style="fill:none;stroke:#cecece;stroke-opacity:1;stroke-width:4.5;stroke-linecap:butt;stroke-linejoin:miter;stroke-miterlimit:10;stroke-dasharray:none" id="path4310" d="M 3787,1446.99 3787,52"/><path style="fill:none;stroke:#000;stroke-opacity:1;stroke-width:4.5;stroke-linecap:butt;stroke-linejoin:miter;stroke-miterlimit:10;stroke-dasharray:none" id="path4312" d="M 6.99609,1176.99 1627,1176.99"/><path style="fill:none;stroke:#000;stroke-opacity:1;stroke-width:4.5;stroke-linecap:butt;stroke-linejoin:miter;stroke-miterlimit:10;stroke-dasharray:none" id="path4314" d="M 231.996,1401.99 231.996,7"/><path style="fill:none;stroke:#000;stroke-opacity:1;stroke-width:4.5;stroke-linecap:butt;stroke-linejoin:miter;stroke-miterlimit:10;stroke-dasharray:none" id="path4316" d="M 6.99609,232 1627,232"/><path style="fill:none;stroke:#000;stroke-opacity:1;stroke-width:4.5;stroke-linecap:butt;stroke-linejoin:miter;stroke-miterlimit:10;stroke-dasharray:none" id="path4318" d="M 1357,1446.99 1357,52"/><g id="g4320"><g id="g4322" clip-path="url(#clipPath4324)"><path style="fill:none;stroke:#87cfff;stroke-opacity:1;stroke-width:9;stroke-linecap:butt;stroke-linejoin:miter;stroke-miterlimit:10;stroke-dasharray:none" id="path4328" d="m 436.598,322 646.202,0"/></g></g><path style="fill:#87cfff;fill-opacity:1;fill-rule:evenodd;stroke:none" id="path4330" d="m 1005.4,309.398 48,13.2 -48,13.8 0,-27"/><path style="fill:none;stroke:#87cfff;stroke-opacity:1;stroke-width:15.3;stroke-linecap:butt;stroke-linejoin:miter;stroke-miterlimit:10;stroke-dasharray:none" id="path4332" d="m 1005.4,309.398 48,13.2 -48,13.8 0,-27 z"/><path style="fill:none;stroke:#000;stroke-opacity:1;stroke-width:4.5;stroke-linecap:butt;stroke-linejoin:miter;stroke-miterlimit:10;stroke-dasharray:none" id="path4334" d="M 2887,1221.99 2887,142"/><path style="fill:none;stroke:#000;stroke-opacity:1;stroke-width:4.5;stroke-linecap:butt;stroke-linejoin:miter;stroke-miterlimit:10;stroke-dasharray:none" id="path4336" d="m 2572,412 1305,0"/><path style="fill:none;stroke:#000;stroke-opacity:1;stroke-width:4.5;stroke-linecap:butt;stroke-linejoin:miter;stroke-miterlimit:10;stroke-dasharray:none" id="path4338" d="M 3562,1221.99 3562,142"/><path style="fill:none;stroke:#000;stroke-opacity:1;stroke-width:4.5;stroke-linecap:butt;stroke-linejoin:miter;stroke-miterlimit:10;stroke-dasharray:none" id="path4340" d="m 2572,951.992 1305,0"/><g id="g4342" transform="scale(10,10)"><text id="text4344" transform="matrix(1,0,0,-1,68.1996,41.2)"><tspan style="fill:#87cfff;fill-opacity:1;fill-rule:nonzero;stroke:none;font-family:Helvetica;font-variant:normal;font-weight:400;font-size:18.9;writing-mode:lr;-inkscape-font-specification:Helvetica" id="tspan4346" x="0 10.508" y="0">he</tspan></text></g><g id="g4348" transform="scale(10,10)"><text id="text4350" transform="matrix(1,0,0,-1,333.7,50.2)"><tspan style="fill:red;fill-opacity:1;fill-rule:nonzero;stroke:none;font-family:Helvetica;font-variant:normal;font-weight:400;font-size:18.9;writing-mode:lr;-inkscape-font-specification:Helvetica" id="tspan4352" x="0 10.508" y="0">pt</tspan></text></g><path style="fill:none;stroke:#cecece;stroke-opacity:1;stroke-width:4.5;stroke-linecap:butt;stroke-linejoin:miter;stroke-miterlimit:10;stroke-dasharray:none" id="path4354" d="m 2437,1176.99 1620,0"/><path style="fill:none;stroke:#cecece;stroke-opacity:1;stroke-width:4.5;stroke-linecap:butt;stroke-linejoin:miter;stroke-miterlimit:10;stroke-dasharray:none" id="path4356" d="M 2662,1401.99 2662,7"/><path style="fill:none;stroke:#cecece;stroke-opacity:1;stroke-width:4.5;stroke-linecap:butt;stroke-linejoin:miter;stroke-miterlimit:10;stroke-dasharray:none" id="path4358" d="m 2437,232 1620,0"/><path style="fill:#fff;fill-opacity:1;fill-rule:evenodd;stroke:none" id="path4360" d="m 282.395,231.996 c 0,-27.832 -22.567,-50.398 -50.399,-50.398 -27.832,0 -50.398,22.566 -50.398,50.398 0,27.832 22.566,50.399 50.398,50.399 27.832,0 50.399,-22.567 50.399,-50.399"/><path style="fill:none;stroke:#000;stroke-opacity:1;stroke-width:4.5;stroke-linecap:butt;stroke-linejoin:miter;stroke-miterlimit:10;stroke-dasharray:none" id="path4362" d="m 282.395,231.996 c 0,-27.832 -22.567,-50.398 -50.399,-50.398 -27.832,0 -50.398,22.566 -50.398,50.398 0,27.832 22.566,50.399 50.398,50.399 27.832,0 50.399,-22.567 50.399,-50.399 z"/><path style="fill:#fff;fill-opacity:1;fill-rule:evenodd;stroke:none" id="path4364" d="m 3837.39,1176.99 c 0,-27.83 -22.56,-50.4 -50.39,-50.4 -27.84,0 -50.4,22.57 -50.4,50.4 0,27.83 22.56,50.4 50.4,50.4 27.83,0 50.39,-22.57 50.39,-50.4"/><path style="fill:none;stroke:#cecece;stroke-opacity:1;stroke-width:4.5;stroke-linecap:butt;stroke-linejoin:miter;stroke-miterlimit:10;stroke-dasharray:none" id="path4366" d="m 3837.39,1176.99 c 0,-27.83 -22.56,-50.4 -50.39,-50.4 -27.84,0 -50.4,22.57 -50.4,50.4 0,27.83 22.56,50.4 50.4,50.4 27.83,0 50.39,-22.57 50.39,-50.4 z"/><path style="fill:#fff;fill-opacity:1;fill-rule:evenodd;stroke:none" id="path4368" d="m 3837.39,231.996 c 0,-27.832 -22.56,-50.398 -50.39,-50.398 -27.84,0 -50.4,22.566 -50.4,50.398 0,27.832 22.56,50.399 50.4,50.399 27.83,0 50.39,-22.567 50.39,-50.399"/><path style="fill:none;stroke:#cecece;stroke-opacity:1;stroke-width:4.5;stroke-linecap:butt;stroke-linejoin:miter;stroke-miterlimit:10;stroke-dasharray:none" id="path4370" d="m 3837.39,231.996 c 0,-27.832 -22.56,-50.398 -50.39,-50.398 -27.84,0 -50.4,22.566 -50.4,50.398 0,27.832 22.56,50.399 50.4,50.399 27.83,0 50.39,-22.567 50.39,-50.399 z"/><path style="fill:#fff;fill-opacity:1;fill-rule:evenodd;stroke:none" id="path4372" d="m 2712.39,231.996 c 0,-27.832 -22.56,-50.398 -50.39,-50.398 -27.84,0 -50.4,22.566 -50.4,50.398 0,27.832 22.56,50.399 50.4,50.399 27.83,0 50.39,-22.567 50.39,-50.399"/><path style="fill:none;stroke:#cecece;stroke-opacity:1;stroke-width:4.5;stroke-linecap:butt;stroke-linejoin:miter;stroke-miterlimit:10;stroke-dasharray:none" id="path4374" d="m 2712.39,231.996 c 0,-27.832 -22.56,-50.398 -50.39,-50.398 -27.84,0 -50.4,22.566 -50.4,50.398 0,27.832 22.56,50.399 50.4,50.399 27.83,0 50.39,-22.567 50.39,-50.399 z"/><path style="fill:#fff;fill-opacity:1;fill-rule:evenodd;stroke:none" id="path4376" d="m 2937.39,951.992 c 0,-27.832 -22.56,-50.398 -50.39,-50.398 -27.84,0 -50.4,22.566 -50.4,50.398 0,27.832 22.56,50.398 50.4,50.398 27.83,0 50.39,-22.566 50.39,-50.398"/><path style="fill:none;stroke:#000;stroke-opacity:1;stroke-width:4.5;stroke-linecap:butt;stroke-linejoin:miter;stroke-miterlimit:10;stroke-dasharray:none" id="path4378" d="m 2937.39,951.992 c 0,-27.832 -22.56,-50.398 -50.39,-50.398 -27.84,0 -50.4,22.566 -50.4,50.398 0,27.832 22.56,50.398 50.4,50.398 27.83,0 50.39,-22.566 50.39,-50.398 z"/><path style="fill:#fff;fill-opacity:1;fill-rule:evenodd;stroke:none" id="path4380" d="m 2937.39,411.996 c 0,-27.832 -22.56,-50.398 -50.39,-50.398 -27.84,0 -50.4,22.566 -50.4,50.398 0,27.832 22.56,50.399 50.4,50.399 27.83,0 50.39,-22.567 50.39,-50.399"/><path style="fill:none;stroke:#000;stroke-opacity:1;stroke-width:4.5;stroke-linecap:butt;stroke-linejoin:miter;stroke-miterlimit:10;stroke-dasharray:none" id="path4382" d="m 2937.39,411.996 c 0,-27.832 -22.56,-50.398 -50.39,-50.398 -27.84,0 -50.4,22.566 -50.4,50.398 0,27.832 22.56,50.399 50.4,50.399 27.83,0 50.39,-22.567 50.39,-50.399 z"/><path style="fill:#fff;fill-opacity:1;fill-rule:evenodd;stroke:none" id="path4384" d="m 3612.39,951.992 c 0,-27.832 -22.56,-50.398 -50.39,-50.398 -27.84,0 -50.4,22.566 -50.4,50.398 0,27.832 22.56,50.398 50.4,50.398 27.83,0 50.39,-22.566 50.39,-50.398"/><path style="fill:none;stroke:#000;stroke-opacity:1;stroke-width:4.5;stroke-linecap:butt;stroke-linejoin:miter;stroke-miterlimit:10;stroke-dasharray:none" id="path4386" d="m 3612.39,951.992 c 0,-27.832 -22.56,-50.398 -50.39,-50.398 -27.84,0 -50.4,22.566 -50.4,50.398 0,27.832 22.56,50.398 50.4,50.398 27.83,0 50.39,-22.566 50.39,-50.398 z"/><path style="fill:#fff;fill-opacity:1;fill-rule:evenodd;stroke:none" id="path4388" d="m 3612.39,411.996 c 0,-27.832 -22.56,-50.398 -50.39,-50.398 -27.84,0 -50.4,22.566 -50.4,50.398 0,27.832 22.56,50.399 50.4,50.399 27.83,0 50.39,-22.567 50.39,-50.399"/><path style="fill:none;stroke:red;stroke-opacity:1;stroke-width:18;stroke-linecap:butt;stroke-linejoin:miter;stroke-miterlimit:10;stroke-dasharray:none" id="path4390" d="m 3612.39,411.996 c 0,-27.832 -22.56,-50.398 -50.39,-50.398 -27.84,0 -50.4,22.566 -50.4,50.398 0,27.832 22.56,50.399 50.4,50.399 27.83,0 50.39,-22.567 50.39,-50.399 z"/><path style="fill:#fff;fill-opacity:1;fill-rule:evenodd;stroke:none" id="path4392" d="m 282.395,1176.99 c 0,-27.83 -22.567,-50.4 -50.399,-50.4 -27.832,0 -50.398,22.57 -50.398,50.4 0,27.83 22.566,50.4 50.398,50.4 27.832,0 50.399,-22.57 50.399,-50.4"/><path style="fill:none;stroke:#000;stroke-opacity:1;stroke-width:4.5;stroke-linecap:butt;stroke-linejoin:miter;stroke-miterlimit:10;stroke-dasharray:none" id="path4394" d="m 282.395,1176.99 c 0,-27.83 -22.567,-50.4 -50.399,-50.4 -27.832,0 -50.398,22.57 -50.398,50.4 0,27.83 22.566,50.4 50.398,50.4 27.832,0 50.399,-22.57 50.399,-50.4 z"/><path style="fill:#fff;fill-opacity:1;fill-rule:evenodd;stroke:none" id="path4396" d="m 1407.39,1176.99 c 0,-27.83 -22.56,-50.4 -50.39,-50.4 -27.84,0 -50.4,22.57 -50.4,50.4 0,27.83 22.56,50.4 50.4,50.4 27.83,0 50.39,-22.57 50.39,-50.4"/><path style="fill:none;stroke:#000;stroke-opacity:1;stroke-width:4.5;stroke-linecap:butt;stroke-linejoin:miter;stroke-miterlimit:10;stroke-dasharray:none" id="path4398" d="m 1407.39,1176.99 c 0,-27.83 -22.56,-50.4 -50.39,-50.4 -27.84,0 -50.4,22.57 -50.4,50.4 0,27.83 22.56,50.4 50.4,50.4 27.83,0 50.39,-22.57 50.39,-50.4 z"/><path style="fill:#fff;fill-opacity:1;fill-rule:evenodd;stroke:none" id="path4400" d="m 1407.39,231.996 c 0,-27.832 -22.56,-50.398 -50.39,-50.398 -27.84,0 -50.4,22.566 -50.4,50.398 0,27.832 22.56,50.399 50.4,50.399 27.83,0 50.39,-22.567 50.39,-50.399"/><path style="fill:none;stroke:#000;stroke-opacity:1;stroke-width:4.5;stroke-linecap:butt;stroke-linejoin:miter;stroke-miterlimit:10;stroke-dasharray:none" id="path4402" d="m 1407.39,231.996 c 0,-27.832 -22.56,-50.398 -50.39,-50.398 -27.84,0 -50.4,22.566 -50.4,50.398 0,27.832 22.56,50.399 50.4,50.399 27.83,0 50.39,-22.567 50.39,-50.399 z"/><path style="fill:#fff;fill-opacity:1;fill-rule:evenodd;stroke:none" id="path4404" d="m 2712.39,1176.99 c 0,-27.83 -22.56,-50.4 -50.39,-50.4 -27.84,0 -50.4,22.57 -50.4,50.4 0,27.83 22.56,50.4 50.4,50.4 27.83,0 50.39,-22.57 50.39,-50.4"/><path style="fill:none;stroke:#cecece;stroke-opacity:1;stroke-width:4.5;stroke-linecap:butt;stroke-linejoin:miter;stroke-miterlimit:10;stroke-dasharray:none" id="path4406" d="m 2712.39,1176.99 c 0,-27.83 -22.56,-50.4 -50.39,-50.4 -27.84,0 -50.4,22.57 -50.4,50.4 0,27.83 22.56,50.4 50.4,50.4 27.83,0 50.39,-22.57 50.39,-50.4 z"/></g></g></svg>