<svg xmlns="http://www.w3.org/2000/svg" xmlns:svg="http://www.w3.org/2000/svg" id="svg4408" width="760" height="88.75" version="1.1" xml:space="preserve"><metadata id="metadata4414"/><defs id="defs4412"><clipPath id="clipPath4460" clipPathUnits="userSpaceOnUse"><path id="path4462" d="M 0,710 0,0 6080,0 6080,710 0,710 z m 3409,-424.004 0,54 -84,0 63,-27 -63,-27 84,0 z" clip-rule="evenodd"/></clipPath><clipPath id="clipPath4488" clipPathUnits="userSpaceOnUse"><path id="path4490" d="M 0,710 0,0 6080,0 6080,710 0,710 z m 789.996,-91.004 0,-54 84,0 -63,27 63,27 -84,0 z" clip-rule="evenodd"/></clipPath></defs><g id="g4416" transform="matrix(1.25,0,0,-1.25,0,88.75)"><g id="g4418" transform="scale(0.1,0.1)"><path style="fill:#e6e6e6;fill-opacity:1;fill-rule:evenodd;stroke:none" id="path4420" d="m 78.9961,636.996 2385.0039,0 -135,-584.9921 -2133.004,9"/><path style="fill:#e6e6e6;fill-opacity:1;fill-rule:evenodd;stroke:none" id="path4422" d="m 3634,641.797 2385,0 -135,-584.9962 -2133,9"/><g id="g4424" transform="scale(10,10)"><text id="text4426" transform="matrix(1,0,0,-1,421.9,50.1996)"><tspan style="fill:red;fill-opacity:1;fill-rule:nonzero;stroke:none;font-family:Helvetica;font-variant:normal;font-weight:400;font-size:18.9;writing-mode:lr;-inkscape-font-specification:Helvetica" id="tspan4428" x="0 9.45 19.958" y="0">vpt</tspan></text></g><path style="fill:none;stroke:#000;stroke-opacity:1;stroke-width:4.5;stroke-linecap:butt;stroke-linejoin:miter;stroke-miterlimit:10;stroke-dasharray:none" id="path4430" d="m 5524,641.797 540,0"/><path style="fill:none;stroke:#000;stroke-opacity:1;stroke-width:4.5;stroke-linecap:butt;stroke-linejoin:miter;stroke-miterlimit:10;stroke-dasharray:none" id="path4432" d="m 4408,196.004 864,0"/><path style="fill:none;stroke:#000;stroke-opacity:1;stroke-width:4.5;stroke-linecap:butt;stroke-linejoin:miter;stroke-miterlimit:10;stroke-dasharray:none" id="path4434" d="M 5272,196.004 4822,645.996"/><path style="fill:none;stroke:#000;stroke-opacity:1;stroke-width:4.5;stroke-linecap:butt;stroke-linejoin:miter;stroke-miterlimit:10;stroke-dasharray:none" id="path4436" d="M 4861,630.996 4411,181.004"/><g id="g4438" transform="scale(10,10)"><text id="text4440" transform="matrix(1,0,0,-1,295,15.1004)"><tspan style="fill:#000;fill-opacity:1;fill-rule:nonzero;stroke:none;font-family:Times New Roman;font-variant:normal;font-weight:400;font-size:13.5;writing-mode:lr;-inkscape-font-specification:Times-Roman" id="tspan4442" x="0 7.506 15.755" y="0">PTQ</tspan></text></g><g id="g4444" transform="scale(10,10)"><text id="text4446" transform="matrix(1,0,0,-1,124,44.7996)"><tspan style="fill:#87cfff;fill-opacity:1;fill-rule:nonzero;stroke:none;font-family:Helvetica;font-variant:normal;font-weight:400;font-size:18.9;writing-mode:lr;-inkscape-font-specification:Helvetica" id="tspan4448" x="0" y="0">e</tspan></text></g><g id="g4450" transform="scale(10,10)"><text id="text4452" transform="matrix(1,0,0,-1,498.4,50.1996)"><tspan style="fill:red;fill-opacity:1;fill-rule:nonzero;stroke:none;font-family:Helvetica;font-variant:normal;font-weight:400;font-size:18.9;writing-mode:lr;-inkscape-font-specification:Helvetica" id="tspan4454" x="0 10.508 21.017" y="0">ept</tspan></text></g><g id="g4456"><g id="g4458" clip-path="url(#clipPath4460)"><path style="fill:none;stroke:#000;stroke-opacity:1;stroke-width:18;stroke-linecap:butt;stroke-linejoin:miter;stroke-miterlimit:10;stroke-dasharray:none" id="path4464" d="m 2761,312.996 639,0"/></g></g><path style="fill:#000;fill-opacity:1;fill-rule:evenodd;stroke:none" id="path4466" d="m 3325,285.996 63,27 -63,27 0,-54"/><path style="fill:none;stroke:#000;stroke-opacity:1;stroke-width:9;stroke-linecap:butt;stroke-linejoin:miter;stroke-miterlimit:10;stroke-dasharray:none" id="path4468" d="m 3325,285.996 63,27 -63,27 0,-54 z"/><path style="fill:none;stroke:#000;stroke-opacity:1;stroke-width:4.5;stroke-linecap:butt;stroke-linejoin:miter;stroke-miterlimit:10;stroke-dasharray:none" id="path4470" d="m 573.996,636.996 1395.004,0"/><path style="fill:none;stroke:#000;stroke-opacity:1;stroke-width:4.5;stroke-linecap:butt;stroke-linejoin:miter;stroke-miterlimit:10;stroke-dasharray:none" id="path4472" d="M 573.996,636.996 168.996,7.00391"/><path style="fill:none;stroke:#000;stroke-opacity:1;stroke-width:4.5;stroke-linecap:butt;stroke-linejoin:miter;stroke-miterlimit:10;stroke-dasharray:none" id="path4474" d="m 573.996,636.996 405,-629.99209"/><path style="fill:none;stroke:#000;stroke-opacity:1;stroke-width:4.5;stroke-linecap:butt;stroke-linejoin:miter;stroke-miterlimit:10;stroke-dasharray:none" id="path4476" d="m 573.996,636.996 -566.99991,0"/><path style="fill:none;stroke:#000;stroke-opacity:1;stroke-width:4.5;stroke-linecap:butt;stroke-linejoin:miter;stroke-miterlimit:10;stroke-dasharray:none" id="path4478" d="M 1969,636.996 1609,7.00391"/><path style="fill:none;stroke:#000;stroke-opacity:1;stroke-width:4.5;stroke-linecap:butt;stroke-linejoin:miter;stroke-miterlimit:10;stroke-dasharray:none" id="path4480" d="M 1969,636.996 2374,7.00391"/><path style="fill:none;stroke:#000;stroke-opacity:1;stroke-width:4.5;stroke-linecap:butt;stroke-linejoin:miter;stroke-miterlimit:10;stroke-dasharray:none" id="path4482" d="m 1969,636.996 540,0"/><g id="g4484"><g id="g4486" clip-path="url(#clipPath4488)"><path style="fill:none;stroke:#87cfff;stroke-opacity:1;stroke-width:18;stroke-linecap:butt;stroke-linejoin:miter;stroke-miterlimit:10;stroke-dasharray:none" id="path4492" d="m 1789,591.996 -990.004,0"/></g></g><path style="fill:#87cfff;fill-opacity:1;fill-rule:evenodd;stroke:none" id="path4494" d="m 873.996,618.996 -63,-27 63,-27 0,54"/><path style="fill:none;stroke:#87cfff;stroke-opacity:1;stroke-width:9;stroke-linecap:butt;stroke-linejoin:miter;stroke-miterlimit:10;stroke-dasharray:none" id="path4496" d="m 873.996,618.996 -63,-27 63,-27 0,54 z"/><path style="fill:none;stroke:#000;stroke-opacity:1;stroke-width:4.5;stroke-linecap:butt;stroke-linejoin:miter;stroke-miterlimit:10;stroke-dasharray:none" id="path4498" d="m 4129,641.797 1395,0"/><path style="fill:none;stroke:#000;stroke-opacity:1;stroke-width:4.5;stroke-linecap:butt;stroke-linejoin:miter;stroke-miterlimit:10;stroke-dasharray:none" id="path4500" d="M 4129,641.797 3724,11.8008"/><path style="fill:none;stroke:#000;stroke-opacity:1;stroke-width:4.5;stroke-linecap:butt;stroke-linejoin:miter;stroke-miterlimit:10;stroke-dasharray:none" id="path4502" d="M 4129,641.797 4534,11.8008"/><path style="fill:none;stroke:#000;stroke-opacity:1;stroke-width:4.5;stroke-linecap:butt;stroke-linejoin:miter;stroke-miterlimit:10;stroke-dasharray:none" id="path4504" d="m 4129,641.797 -567,0"/><path style="fill:none;stroke:#000;stroke-opacity:1;stroke-width:4.5;stroke-linecap:butt;stroke-linejoin:miter;stroke-miterlimit:10;stroke-dasharray:none" id="path4506" d="M 5524,641.797 5164,11.8008"/><path style="fill:none;stroke:#000;stroke-opacity:1;stroke-width:4.5;stroke-linecap:butt;stroke-linejoin:miter;stroke-miterlimit:10;stroke-dasharray:none" id="path4508" d="M 5524,641.797 5929,11.8008"/><path style="fill:#fff;fill-opacity:1;fill-rule:evenodd;stroke:none" id="path4510" d="m 5307.99,205 c 0,-24.848 -20.15,-44.996 -44.99,-44.996 -24.85,0 -45,20.148 -45,44.996 0,24.848 20.15,44.996 45,44.996 24.84,0 44.99,-20.148 44.99,-44.996"/><path style="fill:none;stroke:#000;stroke-opacity:1;stroke-width:4.5;stroke-linecap:butt;stroke-linejoin:miter;stroke-miterlimit:10;stroke-dasharray:none" id="path4512" d="m 5307.99,205 c 0,-24.848 -20.15,-44.996 -44.99,-44.996 -24.85,0 -45,20.148 -45,44.996 0,24.848 20.15,44.996 45,44.996 24.84,0 44.99,-20.148 44.99,-44.996 z"/><path style="fill:#fff;fill-opacity:1;fill-rule:evenodd;stroke:none" id="path4514" d="m 4173.99,641.797 c 0,-24.848 -20.15,-44.996 -44.99,-44.996 -24.85,0 -45,20.148 -45,44.996 0,24.848 20.15,44.996 45,44.996 24.84,0 44.99,-20.148 44.99,-44.996"/><path style="fill:none;stroke:red;stroke-opacity:1;stroke-width:18;stroke-linecap:butt;stroke-linejoin:miter;stroke-miterlimit:10;stroke-dasharray:none" id="path4516" d="m 4173.99,641.797 c 0,-24.848 -20.15,-44.996 -44.99,-44.996 -24.85,0 -45,20.148 -45,44.996 0,24.848 20.15,44.996 45,44.996 24.84,0 44.99,-20.148 44.99,-44.996 z"/><path style="fill:#fff;fill-opacity:1;fill-rule:evenodd;stroke:none" id="path4518" d="m 4470.99,178 c 0,-24.848 -20.15,-44.996 -44.99,-44.996 -24.85,0 -45,20.148 -45,44.996 0,24.848 20.15,44.996 45,44.996 24.84,0 44.99,-20.148 44.99,-44.996"/><path style="fill:none;stroke:#000;stroke-opacity:1;stroke-width:4.5;stroke-linecap:butt;stroke-linejoin:miter;stroke-miterlimit:10;stroke-dasharray:none" id="path4520" d="m 4470.99,178 c 0,-24.848 -20.15,-44.996 -44.99,-44.996 -24.85,0 -45,20.148 -45,44.996 0,24.848 20.15,44.996 45,44.996 24.84,0 44.99,-20.148 44.99,-44.996 z"/><path style="fill:#fff;fill-opacity:1;fill-rule:evenodd;stroke:none" id="path4522" d="M 4875.99,636.996 C 4875.99,612.148 4855.84,592 4831,592 c -24.85,0 -45,20.148 -45,44.996 0,24.848 20.15,44.996 45,44.996 24.84,0 44.99,-20.148 44.99,-44.996"/><path style="fill:none;stroke:red;stroke-opacity:1;stroke-width:18;stroke-linecap:butt;stroke-linejoin:miter;stroke-miterlimit:10;stroke-dasharray:none" id="path4524" d="M 4875.99,636.996 C 4875.99,612.148 4855.84,592 4831,592 c -24.85,0 -45,20.148 -45,44.996 0,24.848 20.15,44.996 45,44.996 24.84,0 44.99,-20.148 44.99,-44.996 z"/><path style="fill:#fff;fill-opacity:1;fill-rule:evenodd;stroke:none" id="path4526" d="M 2013.99,636.996 C 2013.99,612.148 1993.84,592 1969,592 c -24.85,0 -45,20.148 -45,44.996 0,24.848 20.15,44.996 45,44.996 24.84,0 44.99,-20.148 44.99,-44.996"/><path style="fill:none;stroke:#000;stroke-opacity:1;stroke-width:4.5;stroke-linecap:butt;stroke-linejoin:miter;stroke-miterlimit:10;stroke-dasharray:none" id="path4528" d="M 2013.99,636.996 C 2013.99,612.148 1993.84,592 1969,592 c -24.85,0 -45,20.148 -45,44.996 0,24.848 20.15,44.996 45,44.996 24.84,0 44.99,-20.148 44.99,-44.996 z"/><path style="fill:#fff;fill-opacity:1;fill-rule:evenodd;stroke:none" id="path4530" d="M 618.992,636.996 C 618.992,612.148 598.844,592 573.996,592 549.148,592 529,612.148 529,636.996 c 0,24.848 20.148,44.996 44.996,44.996 24.848,0 44.996,-20.148 44.996,-44.996"/><path style="fill:none;stroke:#000;stroke-opacity:1;stroke-width:4.5;stroke-linecap:butt;stroke-linejoin:miter;stroke-miterlimit:10;stroke-dasharray:none" id="path4532" d="M 618.992,636.996 C 618.992,612.148 598.844,592 573.996,592 549.148,592 529,612.148 529,636.996 c 0,24.848 20.148,44.996 44.996,44.996 24.848,0 44.996,-20.148 44.996,-44.996 z"/><path style="fill:#fff;fill-opacity:1;fill-rule:evenodd;stroke:none" id="path4534" d="m 5568.99,641.797 c 0,-24.848 -20.15,-44.996 -44.99,-44.996 -24.85,0 -45,20.148 -45,44.996 0,24.848 20.15,44.996 45,44.996 24.84,0 44.99,-20.148 44.99,-44.996"/><path style="fill:none;stroke:#000;stroke-opacity:1;stroke-width:4.5;stroke-linecap:butt;stroke-linejoin:miter;stroke-miterlimit:10;stroke-dasharray:none" id="path4536" d="m 5568.99,641.797 c 0,-24.848 -20.15,-44.996 -44.99,-44.996 -24.85,0 -45,20.148 -45,44.996 0,24.848 20.15,44.996 45,44.996 24.84,0 44.99,-20.148 44.99,-44.996 z"/></g></g></svg>