<svg xmlns="http://www.w3.org/2000/svg" xmlns:svg="http://www.w3.org/2000/svg" id="svg3790" width="766.25" height="492.5" version="1.1" xml:space="preserve"><metadata id="metadata3796"/><g id="g3798" transform="matrix(1.25,0,0,-1.25,0,492.5)"><g id="g3800" transform="scale(0.1,0.1)"><g id="g3802" transform="scale(10,10)"><text id="text3804" transform="matrix(1,0,0,-1,474.48,4.76016)"><tspan style="fill:#000;fill-opacity:1;fill-rule:nonzero;stroke:none;font-family:Helvetica;font-variant:normal;font-weight:400;font-size:15.3;writing-mode:lr;-inkscape-font-specification:Helvetica" id="tspan3806" x="0 10.205 18.712 23.807 28.06 36.567 44.217 53.152 61.659 70.166 78.673 -206.64 -196.435 -187.928 -179.421 -170.915 -161.979 -153.472 -144.966 -136.459 -424.62 -415.272 -406.765 -399.115 -390.608 -386.355 -377.42 -368.913 -360.406 -351.899" y="0">Vertex−nodeEdge−nodeFacet−node</tspan></text></g><path style="fill:none;stroke:#000;stroke-opacity:1;stroke-width:4.5;stroke-linecap:round;stroke-linejoin:round;stroke-miterlimit:10;stroke-dasharray:none" id="path3808" d="M 887.398,3043.4 1476,2861.6 l 316.8,543 -588,90.6 -317.402,-451.8 z"/><path style="fill:none;stroke:#000;stroke-opacity:1;stroke-width:4.5;stroke-linecap:round;stroke-linejoin:round;stroke-miterlimit:10;stroke-dasharray:none" id="path3810" d="m 887.398,3043.4 -543.601,-181.8 -316.8009,498.6 543.6019,135 316.8,-451.8 z"/><path style="fill:none;stroke:#000;stroke-opacity:1;stroke-width:4.5;stroke-linecap:round;stroke-linejoin:round;stroke-miterlimit:10;stroke-dasharray:none" id="path3812" d="m 3067.2,3043.4 0,-543.6 589.8,-226.8 0,588.6 -589.8,181.8 z"/><path style="fill:none;stroke:#000;stroke-opacity:1;stroke-width:4.5;stroke-linecap:round;stroke-linejoin:round;stroke-miterlimit:10;stroke-dasharray:none" id="path3814" d="m 3067.2,3043.4 0,-543.6 -542.4,-180.6 0,542.4 542.4,181.8 z"/><path style="fill:none;stroke:#000;stroke-opacity:1;stroke-width:4.5;stroke-linecap:round;stroke-linejoin:round;stroke-miterlimit:10;stroke-dasharray:none" id="path3816" d="m 3067.2,3043.4 317.4,451.8 -317.4,408.6 -316.8,-408.6 316.8,-451.8 z"/><path style="fill:none;stroke:#000;stroke-opacity:1;stroke-width:4.5;stroke-linecap:round;stroke-linejoin:round;stroke-miterlimit:10;stroke-dasharray:none" id="path3818" d="m 3067.2,3043.4 589.8,-181.8 316.8,543 -589.2,90.6 -317.4,-451.8 z"/><path style="fill:none;stroke:#000;stroke-opacity:1;stroke-width:4.5;stroke-linecap:round;stroke-linejoin:round;stroke-miterlimit:10;stroke-dasharray:none" id="path3820" d="m 3067.2,3043.4 -542.4,-181.8 -316.8,498.6 542.4,135 316.8,-451.8 z"/><path style="fill:none;stroke:#000;stroke-opacity:1;stroke-width:4.5;stroke-linecap:round;stroke-linejoin:round;stroke-miterlimit:10;stroke-dasharray:none" id="path3822" d="M 3048,1034.6 2505,853.402 2187.6,1351.4 2730.6,1487 3048,1034.6 z"/><path style="fill:none;stroke:#000;stroke-opacity:1;stroke-width:4.5;stroke-linecap:round;stroke-linejoin:round;stroke-miterlimit:10;stroke-dasharray:none" id="path3824" d="M 3048,1034.6 3364.8,1487 3048,1894.4 2730.6,1487 3048,1034.6 z"/><path style="fill:none;stroke:#000;stroke-opacity:1;stroke-width:4.5;stroke-linecap:round;stroke-linejoin:round;stroke-miterlimit:10;stroke-dasharray:none" id="path3826" d="m 3048,1034.6 0,-543.596 589.2,-226.203 0,588.601 L 3048,1034.6 z"/><path style="fill:none;stroke:#000;stroke-opacity:1;stroke-width:4.5;stroke-linecap:round;stroke-linejoin:round;stroke-miterlimit:10;stroke-dasharray:none" id="path3828" d="M 3048,1034.6 3637.2,853.402 3954,1396.4 3364.8,1487 3048,1034.6 z"/><path style="fill:none;stroke:#000;stroke-opacity:1;stroke-width:4.5;stroke-linecap:round;stroke-linejoin:round;stroke-miterlimit:10;stroke-dasharray:none" id="path3830" d="m 3048,1034.6 0,-543.596 -543,-181.801 0,544.199 543,181.198 z"/><path style="fill:none;stroke:#000;stroke-opacity:1;stroke-width:4.5;stroke-linecap:round;stroke-linejoin:round;stroke-miterlimit:10;stroke-dasharray:none" id="path3832" d="m 887.398,3043.4 0,-543.6 L 1476,2273 l 0,588.6 -588.602,181.8 z"/><path style="fill:none;stroke:#000;stroke-opacity:1;stroke-width:4.5;stroke-linecap:round;stroke-linejoin:round;stroke-miterlimit:10;stroke-dasharray:none" id="path3834" d="m 887.398,3043.4 0,-543.6 -543.601,-180.6 0,542.4 543.601,181.8 z"/><path style="fill:none;stroke:#000;stroke-opacity:1;stroke-width:4.5;stroke-linecap:round;stroke-linejoin:round;stroke-miterlimit:10;stroke-dasharray:none" id="path3836" d="m 887.398,3043.4 317.402,451.8 -317.402,408.6 -316.8,-408.6 316.8,-451.8 z"/><path style="fill:none;stroke:#000;stroke-opacity:1;stroke-width:4.5;stroke-linecap:round;stroke-linejoin:round;stroke-miterlimit:10;stroke-dasharray:none" id="path3838" d="M 5171.4,1034.6 4629,853.402 4311,1351.4 4854,1487 5171.4,1034.6 z"/><path style="fill:none;stroke:#000;stroke-opacity:1;stroke-width:4.5;stroke-linecap:round;stroke-linejoin:round;stroke-miterlimit:10;stroke-dasharray:none" id="path3840" d="M 5171.4,1034.6 5488.2,1487 5171.4,1894.4 4854,1487 5171.4,1034.6 z"/><path style="fill:none;stroke:#000;stroke-opacity:1;stroke-width:4.5;stroke-linecap:round;stroke-linejoin:round;stroke-miterlimit:10;stroke-dasharray:none" id="path3842" d="m 5171.4,1034.6 0,-543.596 588.6,-226.203 0,588.601 -588.6,181.198 z"/><path style="fill:none;stroke:#000;stroke-opacity:1;stroke-width:4.5;stroke-linecap:round;stroke-linejoin:round;stroke-miterlimit:10;stroke-dasharray:none" id="path3844" d="M 5171.4,1034.6 5760,853.402 6076.8,1396.4 5488.2,1487 5171.4,1034.6 z"/><path style="fill:none;stroke:#000;stroke-opacity:1;stroke-width:4.5;stroke-linecap:round;stroke-linejoin:round;stroke-miterlimit:10;stroke-dasharray:none" id="path3846" d="m 5171.4,1034.6 0,-543.596 -542.4,-181.801 0,544.199 542.4,181.198 z"/><path style="fill:none;stroke:#dfdfdf;stroke-opacity:1;stroke-width:4.5;stroke-linecap:round;stroke-linejoin:round;stroke-miterlimit:10;stroke-dasharray:none" id="path3848" d="M 868.199,1034.6 1185,1487 868.199,1894.4 550.797,1487 868.199,1034.6 z"/><path style="fill:none;stroke:#000;stroke-opacity:1;stroke-width:4.5;stroke-linecap:round;stroke-linejoin:round;stroke-miterlimit:10;stroke-dasharray:none" id="path3850" d="M 868.199,1034.6 324.598,853.402 7.19922,1351.4 550.797,1487 868.199,1034.6 z"/><path style="fill:none;stroke:#000;stroke-opacity:1;stroke-width:4.5;stroke-linecap:round;stroke-linejoin:round;stroke-miterlimit:10;stroke-dasharray:none" id="path3852" d="m 868.199,1034.6 0,-543.596 588.001,-226.203 0,588.601 -588.001,181.198 z"/><path style="fill:none;stroke:#000;stroke-opacity:1;stroke-width:4.5;stroke-linecap:round;stroke-linejoin:round;stroke-miterlimit:10;stroke-dasharray:none" id="path3854" d="M 868.199,1034.6 1456.2,853.402 1772.4,1396.4 1185,1487 868.199,1034.6 z"/><path style="fill:none;stroke:#000;stroke-opacity:1;stroke-width:4.5;stroke-linecap:round;stroke-linejoin:round;stroke-miterlimit:10;stroke-dasharray:none" id="path3856" d="m 868.199,1034.6 0,-543.596 -543.601,-181.801 0,544.199 543.601,181.198 z"/><path style="fill:none;stroke:#000;stroke-opacity:1;stroke-width:4.5;stroke-linecap:round;stroke-linejoin:round;stroke-miterlimit:10;stroke-dasharray:none" id="path3858" d="m 3048,1034.6 0,-543.596 589.2,-226.203 0,588.601 L 3048,1034.6 z"/><path style="fill:none;stroke:#000;stroke-opacity:1;stroke-width:4.5;stroke-linecap:round;stroke-linejoin:round;stroke-miterlimit:10;stroke-dasharray:none" id="path3860" d="m 3048,1034.6 0,-543.596 -543,-181.801 0,544.199 543,181.198 z"/><path style="fill:none;stroke:#000;stroke-opacity:1;stroke-width:4.5;stroke-linecap:round;stroke-linejoin:round;stroke-miterlimit:10;stroke-dasharray:none" id="path3862" d="m 1048.8,1260.8 -344.402,435"/><path style="fill:none;stroke:#000;stroke-opacity:1;stroke-width:4.5;stroke-linecap:round;stroke-linejoin:round;stroke-miterlimit:10;stroke-dasharray:none" id="path3864" d="M 686.996,1260.8 1030.8,1704.2"/><path style="fill:none;stroke:#000;stroke-opacity:1;stroke-width:4.5;stroke-linecap:round;stroke-linejoin:round;stroke-miterlimit:10;stroke-dasharray:none" id="path3866" d="M 868.199,1034.6 324.598,853.402 7.19922,1351.4 550.797,1487 868.199,1034.6 z"/><path style="fill:none;stroke:#000;stroke-opacity:1;stroke-width:4.5;stroke-linecap:round;stroke-linejoin:round;stroke-miterlimit:10;stroke-dasharray:none" id="path3868" d="m 868.199,1034.6 0,-543.596 588.001,-226.203 0,588.601 -588.001,181.198 z"/><path style="fill:none;stroke:#000;stroke-opacity:1;stroke-width:4.5;stroke-linecap:round;stroke-linejoin:round;stroke-miterlimit:10;stroke-dasharray:none" id="path3870" d="M 868.199,1034.6 1456.2,853.402 1772.4,1396.4 1185,1487 868.199,1034.6 z"/><path style="fill:none;stroke:#000;stroke-opacity:1;stroke-width:4.5;stroke-linecap:round;stroke-linejoin:round;stroke-miterlimit:10;stroke-dasharray:none" id="path3872" d="m 4899.6,401.004 0,543"/><path style="fill:none;stroke:#000;stroke-opacity:1;stroke-width:4.5;stroke-linecap:round;stroke-linejoin:round;stroke-miterlimit:10;stroke-dasharray:none" id="path3874" d="m 4629,581.602 542.4,181.199"/><path style="fill:none;stroke:#000;stroke-opacity:1;stroke-width:4.5;stroke-linecap:round;stroke-linejoin:round;stroke-miterlimit:10;stroke-dasharray:none" id="path3876" d="M 5171.4,762.801 5760,536.602"/><path style="fill:none;stroke:#000;stroke-opacity:1;stroke-width:4.5;stroke-linecap:round;stroke-linejoin:round;stroke-miterlimit:10;stroke-dasharray:none" id="path3878" d="M 4899.6,944.004 4582.2,1396.4"/><path style="fill:none;stroke:#000;stroke-opacity:1;stroke-width:4.5;stroke-linecap:round;stroke-linejoin:round;stroke-miterlimit:10;stroke-dasharray:none" id="path3880" d="m 4492.2,1079.6 498.6,181.2"/><path style="fill:none;stroke:#000;stroke-opacity:1;stroke-width:4.5;stroke-linecap:round;stroke-linejoin:round;stroke-miterlimit:10;stroke-dasharray:none" id="path3882" d="m 5443.2,401.004 0,543"/><path style="fill:none;stroke:#000;stroke-opacity:1;stroke-width:4.5;stroke-linecap:round;stroke-linejoin:round;stroke-miterlimit:10;stroke-dasharray:none" id="path3884" d="M 5443.2,944.004 5760,1441.4"/><path style="fill:none;stroke:#000;stroke-opacity:1;stroke-width:4.5;stroke-linecap:round;stroke-linejoin:round;stroke-miterlimit:10;stroke-dasharray:none" id="path3886" d="m 5352,1260.8 543.6,-136.2"/><path style="fill:none;stroke:#000;stroke-opacity:1;stroke-width:4.5;stroke-linecap:round;stroke-linejoin:round;stroke-miterlimit:10;stroke-dasharray:none" id="path3888" d="m 5352,1260.8 -343.2,435"/><path style="fill:none;stroke:#000;stroke-opacity:1;stroke-width:4.5;stroke-linecap:round;stroke-linejoin:round;stroke-miterlimit:10;stroke-dasharray:none" id="path3890" d="m 4990.8,1260.8 344.4,443.4"/><path style="fill:none;stroke:#000;stroke-opacity:1;stroke-width:4.5;stroke-linecap:round;stroke-linejoin:round;stroke-miterlimit:10;stroke-dasharray:none" id="path3892" d="M 5171.4,1034.6 4629,853.402 4311,1351.4 4854,1487 5171.4,1034.6 z"/><path style="fill:none;stroke:#000;stroke-opacity:1;stroke-width:4.5;stroke-linecap:round;stroke-linejoin:round;stroke-miterlimit:10;stroke-dasharray:none" id="path3894" d="M 5171.4,1034.6 5488.2,1487 5171.4,1894.4 4854,1487 5171.4,1034.6 z"/><path style="fill:none;stroke:#000;stroke-opacity:1;stroke-width:4.5;stroke-linecap:round;stroke-linejoin:round;stroke-miterlimit:10;stroke-dasharray:none" id="path3896" d="m 5171.4,1034.6 0,-543.596 588.6,-226.203 0,588.601 -588.6,181.198 z"/><path style="fill:none;stroke:#000;stroke-opacity:1;stroke-width:4.5;stroke-linecap:round;stroke-linejoin:round;stroke-miterlimit:10;stroke-dasharray:none" id="path3898" d="M 5171.4,1034.6 5760,853.402 6076.8,1396.4 5488.2,1487 5171.4,1034.6 z"/><path style="fill:none;stroke:#000;stroke-opacity:1;stroke-width:4.5;stroke-linecap:round;stroke-linejoin:round;stroke-miterlimit:10;stroke-dasharray:none" id="path3900" d="m 5171.4,1034.6 0,-543.596 -542.4,-181.801 0,544.199 542.4,181.198 z"/><path style="fill:none;stroke:#000;stroke-opacity:1;stroke-width:4.5;stroke-linecap:round;stroke-linejoin:round;stroke-miterlimit:10;stroke-dasharray:none" id="path3902" d="m 1048.8,1260.8 543,-136.2"/><path style="fill:none;stroke:#000;stroke-opacity:1;stroke-width:4.5;stroke-linecap:round;stroke-linejoin:round;stroke-miterlimit:10;stroke-dasharray:none" id="path3904" d="M 2776.2,944.004 2458.8,1396.4"/><path style="fill:none;stroke:#000;stroke-opacity:1;stroke-width:4.5;stroke-linecap:round;stroke-linejoin:round;stroke-miterlimit:10;stroke-dasharray:none" id="path3906" d="m 2369.4,1079.6 498,181.2"/><path style="fill:none;stroke:#000;stroke-opacity:1;stroke-width:4.5;stroke-linecap:round;stroke-linejoin:round;stroke-miterlimit:10;stroke-dasharray:none" id="path3908" d="m 3320.4,401.004 0,543"/><path style="fill:none;stroke:#000;stroke-opacity:1;stroke-width:4.5;stroke-linecap:round;stroke-linejoin:round;stroke-miterlimit:10;stroke-dasharray:none" id="path3910" d="M 3320.4,944.004 3637.2,1441.4"/><path style="fill:none;stroke:#000;stroke-opacity:1;stroke-width:4.5;stroke-linecap:round;stroke-linejoin:round;stroke-miterlimit:10;stroke-dasharray:none" id="path3912" d="m 3229.2,1260.8 543,-136.2"/><path style="fill:none;stroke:#000;stroke-opacity:1;stroke-width:4.5;stroke-linecap:round;stroke-linejoin:round;stroke-miterlimit:10;stroke-dasharray:none" id="path3914" d="m 3229.2,1260.8 -343.2,435"/><path style="fill:none;stroke:#000;stroke-opacity:1;stroke-width:4.5;stroke-linecap:round;stroke-linejoin:round;stroke-miterlimit:10;stroke-dasharray:none" id="path3916" d="m 2867.4,1260.8 344.4,443.4"/><path style="fill:none;stroke:#000;stroke-opacity:1;stroke-width:4.5;stroke-linecap:round;stroke-linejoin:round;stroke-miterlimit:10;stroke-dasharray:none" id="path3918" d="M 3048,1034.6 2505,853.402 2187.6,1351.4 2730.6,1487 3048,1034.6 z"/><path style="fill:none;stroke:#000;stroke-opacity:1;stroke-width:4.5;stroke-linecap:round;stroke-linejoin:round;stroke-miterlimit:10;stroke-dasharray:none" id="path3920" d="M 3048,1034.6 3364.8,1487 3048,1894.4 2730.6,1487 3048,1034.6 z"/><path style="fill:none;stroke:#000;stroke-opacity:1;stroke-width:4.5;stroke-linecap:round;stroke-linejoin:round;stroke-miterlimit:10;stroke-dasharray:none" id="path3922" d="M 3048,1034.6 3637.2,853.402 3954,1396.4 3364.8,1487 3048,1034.6 z"/><path style="fill:none;stroke:#000;stroke-opacity:1;stroke-width:4.5;stroke-linecap:round;stroke-linejoin:round;stroke-miterlimit:10;stroke-dasharray:none" id="path3924" d="m 868.199,1034.6 0,-543.596 -543.601,-181.801 0,544.199 543.601,181.198 z"/><path style="fill:none;stroke:#000;stroke-opacity:1;stroke-width:4.5;stroke-linecap:round;stroke-linejoin:round;stroke-miterlimit:10;stroke-dasharray:none" id="path3926" d="M 868.199,1034.6 1185,1487 868.199,1894.4 550.797,1487 868.199,1034.6 z"/><path style="fill:none;stroke:#000;stroke-opacity:1;stroke-width:4.5;stroke-linecap:round;stroke-linejoin:round;stroke-miterlimit:10;stroke-dasharray:none" id="path3928" d="M 3048,762.801 3637.2,536.602"/><path style="fill:none;stroke:#000;stroke-opacity:1;stroke-width:4.5;stroke-linecap:round;stroke-linejoin:round;stroke-miterlimit:10;stroke-dasharray:none" id="path3930" d="m 2505,581.602 543,181.199"/><path style="fill:none;stroke:#000;stroke-opacity:1;stroke-width:4.5;stroke-linecap:round;stroke-linejoin:round;stroke-miterlimit:10;stroke-dasharray:none" id="path3932" d="m 2776.2,401.004 0,543"/><path style="fill:none;stroke:#000;stroke-opacity:1;stroke-width:4.5;stroke-linecap:round;stroke-linejoin:round;stroke-miterlimit:10;stroke-dasharray:none" id="path3934" d="m 596.398,401.004 0,543"/><path style="fill:none;stroke:#000;stroke-opacity:1;stroke-width:4.5;stroke-linecap:round;stroke-linejoin:round;stroke-miterlimit:10;stroke-dasharray:none" id="path3936" d="M 324.598,581.602 868.199,762.801"/><path style="fill:none;stroke:#000;stroke-opacity:1;stroke-width:4.5;stroke-linecap:round;stroke-linejoin:round;stroke-miterlimit:10;stroke-dasharray:none" id="path3938" d="M 868.199,762.801 1456.2,536.602"/><path style="fill:none;stroke:#000;stroke-opacity:1;stroke-width:4.5;stroke-linecap:round;stroke-linejoin:round;stroke-miterlimit:10;stroke-dasharray:none" id="path3940" d="M 596.398,944.004 278.996,1396.4"/><path style="fill:none;stroke:#000;stroke-opacity:1;stroke-width:4.5;stroke-linecap:round;stroke-linejoin:round;stroke-miterlimit:10;stroke-dasharray:none" id="path3942" d="m 188.398,1079.6 498.598,181.2"/><path style="fill:none;stroke:#000;stroke-opacity:1;stroke-width:4.5;stroke-linecap:round;stroke-linejoin:round;stroke-miterlimit:10;stroke-dasharray:none" id="path3944" d="m 1139.4,401.004 0,543"/><path style="fill:none;stroke:#000;stroke-opacity:1;stroke-width:4.5;stroke-linecap:round;stroke-linejoin:round;stroke-miterlimit:10;stroke-dasharray:none" id="path3946" d="M 1139.4,944.004 1456.2,1441.4"/><path style="fill:none;stroke:#00f;stroke-opacity:1;stroke-width:27;stroke-linecap:round;stroke-linejoin:round;stroke-miterlimit:10;stroke-dasharray:none" id="path3948" d="m 5190.6,3043.4 -543,-181.8 -316.2,498.6 542.4,135 316.8,-451.8 z"/><path style="fill:#fff;fill-opacity:1;fill-rule:evenodd;stroke:none" id="path3950" d="m 3271.2,1281.8 c 0,-25.18 -20.42,-45.6 -45.6,-45.6 -25.18,0 -45.6,20.42 -45.6,45.6 0,25.18 20.42,45.59 45.6,45.59 25.18,0 45.6,-20.41 45.6,-45.59"/><path style="fill:none;stroke:red;stroke-opacity:1;stroke-width:18;stroke-linecap:round;stroke-linejoin:round;stroke-miterlimit:10;stroke-dasharray:none" id="path3952" d="m 3271.2,1281.8 c 0,-25.18 -20.42,-45.6 -45.6,-45.6 -25.18,0 -45.6,20.42 -45.6,45.6 0,25.18 20.42,45.59 45.6,45.59 25.18,0 45.6,-20.41 45.6,-45.59 z"/><path style="fill:#fff;fill-opacity:1;fill-rule:evenodd;stroke:none" id="path3954" d="m 5216.39,1034.6 c 0,-25.18 -20.41,-45.6 -45.59,-45.6 -25.18,0 -45.6,20.42 -45.6,45.6 0,25.18 20.42,45.6 45.6,45.6 25.18,0 45.59,-20.42 45.59,-45.6"/><path style="fill:none;stroke:red;stroke-opacity:1;stroke-width:18;stroke-linecap:round;stroke-linejoin:round;stroke-miterlimit:10;stroke-dasharray:none" id="path3956" d="m 5216.39,1034.6 c 0,-25.18 -20.41,-45.6 -45.59,-45.6 -25.18,0 -45.6,20.42 -45.6,45.6 0,25.18 20.42,45.6 45.6,45.6 25.18,0 45.59,-20.42 45.59,-45.6 z"/><path style="fill:none;stroke:#00f;stroke-opacity:1;stroke-width:27;stroke-linecap:round;stroke-linejoin:round;stroke-miterlimit:10;stroke-dasharray:none" id="path3958" d="m 1211.4,3496.4 579.6,-91.8 -321,-544.8 -585.602,183.6 327.002,453 z"/><path style="fill:none;stroke:#00f;stroke-opacity:1;stroke-width:27;stroke-linecap:round;stroke-linejoin:round;stroke-miterlimit:10;stroke-dasharray:none" id="path3960" d="m 3065.4,3050 591,-190.2 321,544.8 -596.4,91.8 -315.6,-446.4 z"/><path style="fill:none;stroke:#00f;stroke-opacity:1;stroke-width:27;stroke-linecap:round;stroke-linejoin:round;stroke-miterlimit:10;stroke-dasharray:none" id="path3962" d="m 3065.4,3043.4 -316.2,459 321.6,407.4 304.2,-407.4"/><path style="fill:none;stroke:#00f;stroke-opacity:1;stroke-width:27;stroke-linecap:round;stroke-linejoin:round;stroke-miterlimit:10;stroke-dasharray:none" id="path3964" d="m 5190.6,3043.4 317.4,451.8 -317.4,408.6 -316.8,-408.6 316.8,-451.8 z"/><path style="fill:none;stroke:#00f;stroke-opacity:1;stroke-width:27;stroke-linecap:round;stroke-linejoin:round;stroke-miterlimit:10;stroke-dasharray:none" id="path3966" d="m 5190.6,3043.4 589.2,-181.8 316.8,543 -588.6,90.6 -317.4,-451.8 z"/><path style="fill:none;stroke:#00f;stroke-opacity:1;stroke-width:27;stroke-linecap:round;stroke-linejoin:round;stroke-miterlimit:10;stroke-dasharray:none" id="path3968" d="m 5190.6,3043.4 0,-543.6 589.2,-226.8 0,588.6 -589.2,181.8 z"/><path style="fill:none;stroke:#00f;stroke-opacity:1;stroke-width:27;stroke-linecap:round;stroke-linejoin:round;stroke-miterlimit:10;stroke-dasharray:none" id="path3970" d="m 5190.6,3043.4 0,-543.6 -543,-180.6 0,542.4 543,181.8 z"/><path style="fill:#fff;fill-opacity:1;fill-rule:evenodd;stroke:none" id="path3972" d="m 1343.39,1195.4 c 0,-25.18 -20.41,-45.6 -45.59,-45.6 -25.18,0 -45.6,20.42 -45.6,45.6 0,25.18 20.42,45.6 45.6,45.6 25.18,0 45.59,-20.42 45.59,-45.6"/><path style="fill:none;stroke:red;stroke-opacity:1;stroke-width:18;stroke-linecap:round;stroke-linejoin:round;stroke-miterlimit:10;stroke-dasharray:none" id="path3974" d="m 1343.39,1195.4 c 0,-25.18 -20.41,-45.6 -45.59,-45.6 -25.18,0 -45.6,20.42 -45.6,45.6 0,25.18 20.42,45.6 45.6,45.6 25.18,0 45.59,-20.42 45.59,-45.6 z"/></g></g></svg>