<svg xmlns="http://www.w3.org/2000/svg" xmlns:svg="http://www.w3.org/2000/svg" id="svg3318" width="922.5" height="473.75" version="1.1" xml:space="preserve"><metadata id="metadata3324"/><defs id="defs3322"><clipPath id="clipPath3380" clipPathUnits="userSpaceOnUse"><path id="path3382" d="M 0,3790 0,0 l 7380,0 0,3790 -7380,0 z m 6551,-2118 54,0 0,136.8 -27,-108 -27,108 0,-136.8 z" clip-rule="evenodd"/></clipPath><clipPath id="clipPath3394" clipPathUnits="userSpaceOnUse"><path id="path3396" d="M 0,3790 0,0 l 7380,0 0,3790 -7380,0 z m 4616,-2118 54,0 0,136.8 -27,-108 -27,108 0,-136.8 z" clip-rule="evenodd"/></clipPath><clipPath id="clipPath3408" clipPathUnits="userSpaceOnUse"><path id="path3410" d="M 0,3790 0,0 l 7380,0 0,3790 -7380,0 z m 2771,-2118 54,0 0,136.8 -27,-108 -27,108 0,-136.8 z" clip-rule="evenodd"/></clipPath><clipPath id="clipPath3422" clipPathUnits="userSpaceOnUse"><path id="path3424" d="M 0,3790 0,0 l 7380,0 0,3790 -7380,0 z m 790.996,-2118 54,0 0,136.8 -27,-108 -27,108 0,-136.8 z" clip-rule="evenodd"/></clipPath></defs><g id="g3326" transform="matrix(1.25,0,0,-1.25,0,473.75)"><g id="g3328" transform="scale(0.1,0.1)"><g id="g3330" transform="scale(10,10)"><text id="text3332" transform="matrix(1,0,0,-1,473.3,190.6)"><tspan style="fill:#000;fill-opacity:1;fill-rule:nonzero;stroke:none;font-family:Helvetica;font-variant:normal;font-weight:400;font-size:16.2;writing-mode:lr;-inkscape-font-specification:Helvetica" id="tspan3334" x="0 11.696 24.3" y="0">DQQ</tspan></text></g><path style="fill:none;stroke:#000;stroke-opacity:1;stroke-width:9;stroke-linecap:round;stroke-linejoin:round;stroke-miterlimit:10;stroke-dasharray:none" id="path3336" d="m 822.797,2966.2 0,-511.8 -511.801,-170.4 0,511.8 511.801,170.4 z"/><path style="fill:none;stroke:#000;stroke-opacity:1;stroke-width:9;stroke-linecap:round;stroke-linejoin:round;stroke-miterlimit:10;stroke-dasharray:none" id="path3338" d="m 822.797,2966.2 298.203,426 -298.203,384 -298.199,-384 298.199,-426 z"/><path style="fill:none;stroke:#000;stroke-opacity:1;stroke-width:9;stroke-linecap:round;stroke-linejoin:round;stroke-miterlimit:10;stroke-dasharray:none" id="path3340" d="M 822.797,2966.2 1377.2,2795.8 1675.4,3307 1121,3392.2 822.797,2966.2 z"/><path style="fill:none;stroke:#000;stroke-opacity:1;stroke-width:9;stroke-linecap:round;stroke-linejoin:round;stroke-miterlimit:10;stroke-dasharray:none" id="path3342" d="M 822.797,2966.2 310.996,2795.8 12.7969,3264.4 524.598,3392.2 822.797,2966.2 z"/><path style="fill:none;stroke:#000;stroke-opacity:1;stroke-width:18;stroke-linecap:butt;stroke-linejoin:round;stroke-miterlimit:10;stroke-dasharray:none" id="path3344" d="m 2800.4,3745.6 -766.2,-556.8 292.8,-900 947.4,0 292.2,900 -766.2,556.8 z"/><path style="fill:none;stroke:#000;stroke-opacity:1;stroke-width:9;stroke-linecap:round;stroke-linejoin:round;stroke-miterlimit:10;stroke-dasharray:none" id="path3346" d="m 2798,3748.6 0,-857.4"/><path style="fill:none;stroke:#000;stroke-opacity:1;stroke-width:9;stroke-linecap:round;stroke-linejoin:round;stroke-miterlimit:10;stroke-dasharray:none" id="path3348" d="M 3560.6,3176.8 2798,2891.2"/><path style="fill:none;stroke:#000;stroke-opacity:1;stroke-width:9;stroke-linecap:round;stroke-linejoin:round;stroke-miterlimit:10;stroke-dasharray:none" id="path3350" d="M 3274.4,2271.4 2798,2891.2"/><path style="fill:none;stroke:#000;stroke-opacity:1;stroke-width:9;stroke-linecap:round;stroke-linejoin:round;stroke-miterlimit:10;stroke-dasharray:none" id="path3352" d="M 2321.6,2271.4 2798,2891.2"/><path style="fill:none;stroke:#000;stroke-opacity:1;stroke-width:9;stroke-linecap:round;stroke-linejoin:round;stroke-miterlimit:10;stroke-dasharray:none" id="path3354" d="m 2798,2891.2 -762.6,285.6"/><path style="fill:none;stroke:#000;stroke-opacity:1;stroke-width:18;stroke-linecap:round;stroke-linejoin:round;stroke-miterlimit:10;stroke-dasharray:none" id="path3356" d="m 4667.6,3362.8 400.2,-286.2 -171.6,-458.4 -457.8,0 -171.6,458.4 400.8,286.2 z"/><path style="fill:none;stroke:#e6e6e6;stroke-opacity:1;stroke-width:36;stroke-linecap:round;stroke-linejoin:round;stroke-miterlimit:10;stroke-dasharray:none" id="path3358" d="M 4662.8,1162.6 5063,876.402 4891.4,418.004 l -457.8,0 -171.6,458.398 400.8,286.198 z"/><path style="fill:none;stroke:#e6e6e6;stroke-opacity:1;stroke-width:36;stroke-linecap:round;stroke-linejoin:round;stroke-miterlimit:10;stroke-dasharray:none" id="path3360" d="m 4490.6,1505.8 343.8,0"/><path style="fill:none;stroke:#e6e6e6;stroke-opacity:1;stroke-width:36;stroke-linecap:round;stroke-linejoin:round;stroke-miterlimit:10;stroke-dasharray:none" id="path3362" d="M 4834.4,1505.8 4662.8,1162.6 5063,876.402 5349.8,1162.6"/><path style="fill:none;stroke:#e6e6e6;stroke-opacity:1;stroke-width:36;stroke-linecap:butt;stroke-linejoin:round;stroke-miterlimit:10;stroke-dasharray:none" id="path3364" d="M 6580.4,1518.4 5814.2,961.602 6107,61.6016 l 947.4,0 292.2,900.0004 -766.2,556.798 z"/><path style="fill:none;stroke:#e6e6e6;stroke-opacity:1;stroke-width:36;stroke-linecap:round;stroke-linejoin:round;stroke-miterlimit:10;stroke-dasharray:none" id="path3366" d="m 6578,1521.4 0,-857.396"/><path style="fill:none;stroke:#e6e6e6;stroke-opacity:1;stroke-width:36;stroke-linecap:round;stroke-linejoin:round;stroke-miterlimit:10;stroke-dasharray:none" id="path3368" d="M 7340.6,949.602 6578,664.004"/><path style="fill:none;stroke:#e6e6e6;stroke-opacity:1;stroke-width:36;stroke-linecap:round;stroke-linejoin:round;stroke-miterlimit:10;stroke-dasharray:none" id="path3370" d="M 7054.4,44.2031 6578,664.004"/><path style="fill:none;stroke:#e6e6e6;stroke-opacity:1;stroke-width:36;stroke-linecap:round;stroke-linejoin:round;stroke-miterlimit:10;stroke-dasharray:none" id="path3372" d="M 6101.6,44.2031 6578,664.004"/><path style="fill:none;stroke:#e6e6e6;stroke-opacity:1;stroke-width:36;stroke-linecap:round;stroke-linejoin:round;stroke-miterlimit:10;stroke-dasharray:none" id="path3374" d="M 6578,664.004 5815.4,949.602"/><g id="g3376"><g id="g3378" clip-path="url(#clipPath3380)"><path style="fill:none;stroke:#000;stroke-opacity:1;stroke-width:18;stroke-linecap:butt;stroke-linejoin:miter;stroke-miterlimit:10;stroke-dasharray:none" id="path3384" d="m 6578,2176 0,-495"/></g></g><path style="fill:#000;fill-opacity:1;fill-rule:evenodd;stroke:none" id="path3386" d="m 6551,1808.8 27,-108 27,108 -54,0"/><path style="fill:none;stroke:#000;stroke-opacity:1;stroke-width:9;stroke-linecap:butt;stroke-linejoin:miter;stroke-miterlimit:10;stroke-dasharray:none" id="path3388" d="m 6551,1808.8 27,-108 27,108 -54,0 z"/><g id="g3390"><g id="g3392" clip-path="url(#clipPath3394)"><path style="fill:none;stroke:#000;stroke-opacity:1;stroke-width:18;stroke-linecap:butt;stroke-linejoin:miter;stroke-miterlimit:10;stroke-dasharray:none" id="path3398" d="m 4643,2176 0,-495"/></g></g><path style="fill:#000;fill-opacity:1;fill-rule:evenodd;stroke:none" id="path3400" d="m 4616,1808.8 27,-108 27,108 -54,0"/><path style="fill:none;stroke:#000;stroke-opacity:1;stroke-width:9;stroke-linecap:butt;stroke-linejoin:miter;stroke-miterlimit:10;stroke-dasharray:none" id="path3402" d="m 4616,1808.8 27,-108 27,108 -54,0 z"/><g id="g3404"><g id="g3406" clip-path="url(#clipPath3408)"><path style="fill:none;stroke:#000;stroke-opacity:1;stroke-width:18;stroke-linecap:butt;stroke-linejoin:miter;stroke-miterlimit:10;stroke-dasharray:none" id="path3412" d="m 2798,2176 0,-495"/></g></g><path style="fill:#000;fill-opacity:1;fill-rule:evenodd;stroke:none" id="path3414" d="m 2771,1808.8 27,-108 27,108 -54,0"/><path style="fill:none;stroke:#000;stroke-opacity:1;stroke-width:9;stroke-linecap:butt;stroke-linejoin:miter;stroke-miterlimit:10;stroke-dasharray:none" id="path3416" d="m 2771,1808.8 27,-108 27,108 -54,0 z"/><g id="g3418"><g id="g3420" clip-path="url(#clipPath3422)"><path style="fill:none;stroke:#000;stroke-opacity:1;stroke-width:18;stroke-linecap:butt;stroke-linejoin:miter;stroke-miterlimit:10;stroke-dasharray:none" id="path3426" d="m 817.996,2176 0,-495"/></g></g><path style="fill:#000;fill-opacity:1;fill-rule:evenodd;stroke:none" id="path3428" d="m 790.996,1808.8 27,-108 27,108 -54,0"/><path style="fill:none;stroke:#000;stroke-opacity:1;stroke-width:9;stroke-linecap:butt;stroke-linejoin:miter;stroke-miterlimit:10;stroke-dasharray:none" id="path3430" d="m 790.996,1808.8 27,-108 27,108 -54,0 z"/><g id="g3432" transform="scale(10,10)"><text id="text3434" transform="matrix(1,0,0,-1,666.8,190.6)"><tspan style="fill:#000;fill-opacity:1;fill-rule:nonzero;stroke:none;font-family:Helvetica;font-variant:normal;font-weight:400;font-size:16.2;writing-mode:lr;-inkscape-font-specification:Helvetica" id="tspan3436" x="0 10.805 19.813 25.207 29.711" y="0">Sqrt3</tspan></text></g><path style="fill:none;stroke:#e6e6e6;stroke-opacity:1;stroke-width:36;stroke-linecap:round;stroke-linejoin:round;stroke-miterlimit:10;stroke-dasharray:none" id="path3438" d="m 4834.4,1505.8 515.4,-343.2"/><path style="fill:none;stroke:#e6e6e6;stroke-opacity:1;stroke-width:36;stroke-linecap:round;stroke-linejoin:round;stroke-miterlimit:10;stroke-dasharray:none" id="path3440" d="M 3975.2,1162.6 4262,876.402 4662.8,1162.6 4490.6,1505.8"/><path style="fill:none;stroke:#e6e6e6;stroke-opacity:1;stroke-width:36;stroke-linecap:round;stroke-linejoin:round;stroke-miterlimit:10;stroke-dasharray:none" id="path3442" d="m 3975.2,1162.6 515.4,343.2"/><path style="fill:none;stroke:#e6e6e6;stroke-opacity:1;stroke-width:36;stroke-linecap:round;stroke-linejoin:round;stroke-miterlimit:10;stroke-dasharray:none" id="path3444" d="m 4089.8,246.402 343.8,171.602 -171.6,458.398 -343.8,0"/><path style="fill:none;stroke:#e6e6e6;stroke-opacity:1;stroke-width:36;stroke-linecap:round;stroke-linejoin:round;stroke-miterlimit:10;stroke-dasharray:none" id="path3446" d="m 3918.2,876.402 57,286.198"/><path style="fill:none;stroke:#e6e6e6;stroke-opacity:1;stroke-width:36;stroke-linecap:round;stroke-linejoin:round;stroke-miterlimit:10;stroke-dasharray:none" id="path3448" d="m 4089.8,246.402 -171.6,630"/><path style="fill:none;stroke:#e6e6e6;stroke-opacity:1;stroke-width:36;stroke-linecap:round;stroke-linejoin:round;stroke-miterlimit:10;stroke-dasharray:none" id="path3450" d="m 5006,74.8008 -114.6,343.2032 -457.8,0 L 4319,74.8008"/><path style="fill:none;stroke:#e6e6e6;stroke-opacity:1;stroke-width:36;stroke-linecap:round;stroke-linejoin:round;stroke-miterlimit:10;stroke-dasharray:none" id="path3452" d="m 4319,74.8008 687,0"/><path style="fill:none;stroke:#e6e6e6;stroke-opacity:1;stroke-width:36;stroke-linecap:round;stroke-linejoin:round;stroke-miterlimit:10;stroke-dasharray:none" id="path3454" d="M 4319,74.8008 4089.8,246.402"/><path style="fill:none;stroke:#e6e6e6;stroke-opacity:1;stroke-width:36;stroke-linecap:round;stroke-linejoin:round;stroke-miterlimit:10;stroke-dasharray:none" id="path3456" d="M 5235.2,246.402 5006,74.8008"/><path style="fill:none;stroke:#e6e6e6;stroke-opacity:1;stroke-width:36;stroke-linecap:round;stroke-linejoin:round;stroke-miterlimit:10;stroke-dasharray:none" id="path3458" d="m 5235.2,246.402 171.6,630"/><path style="fill:none;stroke:#e6e6e6;stroke-opacity:1;stroke-width:36;stroke-linecap:round;stroke-linejoin:round;stroke-miterlimit:10;stroke-dasharray:none" id="path3460" d="m 5406.8,876.402 -343.8,0 -171.6,-458.398 343.8,-171.602"/><path style="fill:none;stroke:#e6e6e6;stroke-opacity:1;stroke-width:36;stroke-linecap:round;stroke-linejoin:round;stroke-miterlimit:10;stroke-dasharray:none" id="path3462" d="m 5349.8,1162.6 57,-286.198"/><path style="fill:none;stroke:#000;stroke-opacity:1;stroke-width:18;stroke-linecap:round;stroke-linejoin:round;stroke-miterlimit:10;stroke-dasharray:none" id="path3464" d="m 4839.2,3706 -171.6,-343.2 400.2,-286.2 286.8,286.2"/><path style="fill:none;stroke:#000;stroke-opacity:1;stroke-width:18;stroke-linecap:round;stroke-linejoin:round;stroke-miterlimit:10;stroke-dasharray:none" id="path3466" d="m 5411.6,3076.6 -343.8,0 -171.6,-458.4 343.8,-171.6"/><path style="fill:none;stroke:#000;stroke-opacity:1;stroke-width:18;stroke-linecap:round;stroke-linejoin:round;stroke-miterlimit:10;stroke-dasharray:none" id="path3468" d="m 5010.8,2275 -114.6,343.2 -457.8,0 -114.6,-343.2"/><path style="fill:none;stroke:#000;stroke-opacity:1;stroke-width:18;stroke-linecap:round;stroke-linejoin:round;stroke-miterlimit:10;stroke-dasharray:none" id="path3470" d="m 4094.6,2446.6 343.8,171.6 -171.6,458.4 -343.8,0"/><path style="fill:none;stroke:#000;stroke-opacity:1;stroke-width:18;stroke-linecap:round;stroke-linejoin:round;stroke-miterlimit:10;stroke-dasharray:none" id="path3472" d="m 3980,3362.8 286.8,-286.2 400.8,286.2 -172.2,343.2"/><path style="fill:none;stroke:#000;stroke-opacity:1;stroke-width:18;stroke-linecap:round;stroke-linejoin:round;stroke-miterlimit:10;stroke-dasharray:none" id="path3474" d="m 4839.2,3706 515.4,-343.2"/><path style="fill:none;stroke:#000;stroke-opacity:1;stroke-width:18;stroke-linecap:round;stroke-linejoin:round;stroke-miterlimit:10;stroke-dasharray:none" id="path3476" d="m 5240,2446.6 171.6,630"/><path style="fill:none;stroke:#000;stroke-opacity:1;stroke-width:18;stroke-linecap:round;stroke-linejoin:round;stroke-miterlimit:10;stroke-dasharray:none" id="path3478" d="m 4323.8,2275 687,0"/><path style="fill:none;stroke:#000;stroke-opacity:1;stroke-width:18;stroke-linecap:round;stroke-linejoin:round;stroke-miterlimit:10;stroke-dasharray:none" id="path3480" d="m 4094.6,2446.6 -171.6,630"/><path style="fill:none;stroke:#000;stroke-opacity:1;stroke-width:18;stroke-linecap:round;stroke-linejoin:round;stroke-miterlimit:10;stroke-dasharray:none" id="path3482" d="M 3980,3362.8 4495.4,3706"/><path style="fill:none;stroke:#000;stroke-opacity:1;stroke-width:18;stroke-linecap:round;stroke-linejoin:round;stroke-miterlimit:10;stroke-dasharray:none" id="path3484" d="m 4495.4,3706 343.8,0"/><path style="fill:none;stroke:#000;stroke-opacity:1;stroke-width:18;stroke-linecap:round;stroke-linejoin:round;stroke-miterlimit:10;stroke-dasharray:none" id="path3486" d="m 5354.6,3362.8 57,-286.2"/><path style="fill:none;stroke:#000;stroke-opacity:1;stroke-width:18;stroke-linecap:round;stroke-linejoin:round;stroke-miterlimit:10;stroke-dasharray:none" id="path3488" d="M 5240,2446.6 5010.8,2275"/><path style="fill:none;stroke:#000;stroke-opacity:1;stroke-width:18;stroke-linecap:round;stroke-linejoin:round;stroke-miterlimit:10;stroke-dasharray:none" id="path3490" d="m 4323.8,2275 -229.2,171.6"/><path style="fill:none;stroke:#000;stroke-opacity:1;stroke-width:18;stroke-linecap:round;stroke-linejoin:round;stroke-miterlimit:10;stroke-dasharray:none" id="path3492" d="m 3923,3076.6 57,286.2"/><path style="fill:none;stroke:#000;stroke-opacity:1;stroke-width:18;stroke-linecap:butt;stroke-linejoin:round;stroke-miterlimit:10;stroke-dasharray:none" id="path3494" d="m 6580.4,3745.6 -766.2,-556.8 292.8,-900 947.4,0 292.2,900 -766.2,556.8 z"/><path style="fill:none;stroke:#000;stroke-opacity:1;stroke-width:9;stroke-linecap:round;stroke-linejoin:round;stroke-miterlimit:10;stroke-dasharray:none" id="path3496" d="m 6578,3748.6 0,-857.4"/><path style="fill:none;stroke:#000;stroke-opacity:1;stroke-width:9;stroke-linecap:round;stroke-linejoin:round;stroke-miterlimit:10;stroke-dasharray:none" id="path3498" d="M 7340.6,3176.8 6578,2891.2"/><path style="fill:none;stroke:#000;stroke-opacity:1;stroke-width:9;stroke-linecap:round;stroke-linejoin:round;stroke-miterlimit:10;stroke-dasharray:none" id="path3500" d="m 822.797,2966.2 0,-511.8 554.403,-213 0,554.4 -554.403,170.4 z"/><path style="fill:none;stroke:#000;stroke-opacity:1;stroke-width:9;stroke-linecap:round;stroke-linejoin:round;stroke-miterlimit:10;stroke-dasharray:none" id="path3502" d="M 7054.4,2271.4 6578,2891.2"/><path style="fill:none;stroke:#000;stroke-opacity:1;stroke-width:9;stroke-linecap:round;stroke-linejoin:round;stroke-miterlimit:10;stroke-dasharray:none" id="path3504" d="M 6101.6,2271.4 6578,2891.2"/><path style="fill:none;stroke:#000;stroke-opacity:1;stroke-width:9;stroke-linecap:round;stroke-linejoin:round;stroke-miterlimit:10;stroke-dasharray:none" id="path3506" d="m 6578,2891.2 -762.6,285.6"/><path style="fill:none;stroke:#e6e6e6;stroke-opacity:1;stroke-width:36;stroke-linecap:butt;stroke-linejoin:round;stroke-miterlimit:10;stroke-dasharray:none" id="path3508" d="M 2800.4,1518.4 2034.2,961.602 2327,61.6016 l 947.4,0 292.2,900.0004 -766.2,556.798 z"/><path style="fill:none;stroke:#e6e6e6;stroke-opacity:1;stroke-width:36;stroke-linecap:round;stroke-linejoin:round;stroke-miterlimit:10;stroke-dasharray:none" id="path3510" d="m 2798,1521.4 0,-857.396"/><path style="fill:none;stroke:#e6e6e6;stroke-opacity:1;stroke-width:36;stroke-linecap:round;stroke-linejoin:round;stroke-miterlimit:10;stroke-dasharray:none" id="path3512" d="M 3560.6,949.602 2798,664.004"/><path style="fill:none;stroke:#e6e6e6;stroke-opacity:1;stroke-width:36;stroke-linecap:round;stroke-linejoin:round;stroke-miterlimit:10;stroke-dasharray:none" id="path3514" d="M 3274.4,44.2031 2798,664.004"/><path style="fill:none;stroke:#e6e6e6;stroke-opacity:1;stroke-width:36;stroke-linecap:round;stroke-linejoin:round;stroke-miterlimit:10;stroke-dasharray:none" id="path3516" d="M 2321.6,44.2031 2798,664.004"/><path style="fill:none;stroke:#e6e6e6;stroke-opacity:1;stroke-width:9;stroke-linecap:round;stroke-linejoin:round;stroke-miterlimit:10;stroke-dasharray:none" id="path3518" d="M 822.797,737.801 310.996,567.402 12.7969,1037.2 523.996,1165 822.797,737.801 z"/><path style="fill:none;stroke:#e6e6e6;stroke-opacity:1;stroke-width:9;stroke-linecap:round;stroke-linejoin:round;stroke-miterlimit:10;stroke-dasharray:none" id="path3520" d="M 822.797,737.801 1121.6,1165 822.797,1548.4 523.996,1165 822.797,737.801 z"/><path style="fill:none;stroke:#e6e6e6;stroke-opacity:1;stroke-width:9;stroke-linecap:round;stroke-linejoin:round;stroke-miterlimit:10;stroke-dasharray:none" id="path3522" d="m 822.797,737.801 0,-511.199 554.403,-213.0004 0,553.8004 -554.403,170.399 z"/><path style="fill:none;stroke:#e6e6e6;stroke-opacity:1;stroke-width:9;stroke-linecap:round;stroke-linejoin:round;stroke-miterlimit:10;stroke-dasharray:none" id="path3524" d="M 822.797,737.801 1377.2,567.402 1675.4,1079.8 1121.6,1165 822.797,737.801 z"/><path style="fill:none;stroke:#e6e6e6;stroke-opacity:1;stroke-width:9;stroke-linecap:round;stroke-linejoin:round;stroke-miterlimit:10;stroke-dasharray:none" id="path3526" d="m 822.797,737.801 0,-511.199 -511.801,-170.3989 0,511.1989 511.801,170.399 z"/><g id="g3528" transform="scale(10,10)"><text id="text3530" transform="matrix(1,0,0,-1,90.7996,190.6)"><tspan style="fill:#000;fill-opacity:1;fill-rule:nonzero;stroke:none;font-family:Helvetica;font-variant:normal;font-weight:400;font-size:16.2;writing-mode:lr;-inkscape-font-specification:Helvetica" id="tspan3532" x="0 10.805 23.409 202.5 213.305 223.204" y="0">PQQPTQ</tspan></text></g><path style="fill:none;stroke:#e6e6e6;stroke-opacity:1;stroke-width:36;stroke-linecap:round;stroke-linejoin:round;stroke-miterlimit:10;stroke-dasharray:none" id="path3534" d="M 2798,664.004 2035.4,949.602"/><path style="fill:#fff;fill-opacity:1;fill-rule:evenodd;stroke:none" id="path3536" d="m 6573.2,344.801 0,-283.1994"/><path style="fill:none;stroke:#000;stroke-opacity:1;stroke-width:9;stroke-linecap:round;stroke-linejoin:round;stroke-miterlimit:10;stroke-dasharray:none" id="path3538" d="m 6573.2,344.801 0,-283.1994"/><path style="fill:#fff;fill-opacity:1;fill-rule:evenodd;stroke:none" id="path3540" d="m 6200,560.801 -333,-117"/><path style="fill:none;stroke:#000;stroke-opacity:1;stroke-width:9;stroke-linecap:round;stroke-linejoin:round;stroke-miterlimit:10;stroke-dasharray:none" id="path3542" d="m 6200,560.801 -333,-117"/><path style="fill:#fff;fill-opacity:1;fill-rule:evenodd;stroke:none" id="path3544" d="m 6353,1028.8 225,477"/><path style="fill:none;stroke:#000;stroke-opacity:1;stroke-width:9;stroke-linecap:round;stroke-linejoin:round;stroke-miterlimit:10;stroke-dasharray:none" id="path3546" d="m 6353,1028.8 225,477"/><path style="fill:#fff;fill-opacity:1;fill-rule:evenodd;stroke:none" id="path3548" d="m 6803,1028.8 -225,477"/><path style="fill:none;stroke:#000;stroke-opacity:1;stroke-width:9;stroke-linecap:round;stroke-linejoin:round;stroke-miterlimit:10;stroke-dasharray:none" id="path3550" d="m 6803,1028.8 -225,477"/><path style="fill:none;stroke:#000;stroke-opacity:1;stroke-width:9;stroke-linecap:round;stroke-linejoin:round;stroke-miterlimit:10;stroke-dasharray:none" id="path3552" d="m 566.598,141.402 0,511.2"/><path style="fill:none;stroke:#000;stroke-opacity:1;stroke-width:9;stroke-linecap:round;stroke-linejoin:round;stroke-miterlimit:10;stroke-dasharray:none" id="path3554" d="M 310.996,311.801 822.797,482.203"/><path style="fill:none;stroke:#000;stroke-opacity:1;stroke-width:9;stroke-linecap:round;stroke-linejoin:round;stroke-miterlimit:10;stroke-dasharray:none" id="path3556" d="m 822.797,482.203 554.403,-213"/><path style="fill:none;stroke:#000;stroke-opacity:1;stroke-width:9;stroke-linecap:round;stroke-linejoin:round;stroke-miterlimit:10;stroke-dasharray:none" id="path3558" d="M 566.598,652.602 268.398,1079.8"/><path style="fill:none;stroke:#000;stroke-opacity:1;stroke-width:9;stroke-linecap:round;stroke-linejoin:round;stroke-miterlimit:10;stroke-dasharray:none" id="path3560" d="m 183.199,781.004 468.598,171"/><path style="fill:none;stroke:#000;stroke-opacity:1;stroke-width:9;stroke-linecap:round;stroke-linejoin:round;stroke-miterlimit:10;stroke-dasharray:none" id="path3562" d="m 1079,141.402 0,511.2"/><path style="fill:none;stroke:#000;stroke-opacity:1;stroke-width:9;stroke-linecap:round;stroke-linejoin:round;stroke-miterlimit:10;stroke-dasharray:none" id="path3564" d="M 993.797,952.004 1505,824.203"/><path style="fill:none;stroke:#000;stroke-opacity:1;stroke-width:9;stroke-linecap:round;stroke-linejoin:round;stroke-miterlimit:10;stroke-dasharray:none" id="path3566" d="m 993.797,952.004 -324,409.196"/><path style="fill:none;stroke:#000;stroke-opacity:1;stroke-width:9;stroke-linecap:round;stroke-linejoin:round;stroke-miterlimit:10;stroke-dasharray:none" id="path3568" d="m 651.797,952.004 324,416.996"/><path style="fill:none;stroke:#000;stroke-opacity:1;stroke-width:9;stroke-linecap:round;stroke-linejoin:round;stroke-miterlimit:10;stroke-dasharray:none" id="path3570" d="M 822.797,737.801 310.996,567.402 12.7969,1037.2 523.996,1165 822.797,737.801 z"/><path style="fill:none;stroke:#000;stroke-opacity:1;stroke-width:9;stroke-linecap:round;stroke-linejoin:round;stroke-miterlimit:10;stroke-dasharray:none" id="path3572" d="M 822.797,737.801 1121.6,1165 822.797,1548.4 523.996,1165 822.797,737.801 z"/><path style="fill:none;stroke:#000;stroke-opacity:1;stroke-width:9;stroke-linecap:round;stroke-linejoin:round;stroke-miterlimit:10;stroke-dasharray:none" id="path3574" d="m 822.797,737.801 0,-511.199 554.403,-213.0004 0,553.8004 -554.403,170.399 z"/><path style="fill:none;stroke:#000;stroke-opacity:1;stroke-width:9;stroke-linecap:round;stroke-linejoin:round;stroke-miterlimit:10;stroke-dasharray:none" id="path3576" d="M 822.797,737.801 1377.2,567.402 1675.4,1079.8 1121.6,1165 822.797,737.801 z"/><path style="fill:none;stroke:#000;stroke-opacity:1;stroke-width:9;stroke-linecap:round;stroke-linejoin:round;stroke-miterlimit:10;stroke-dasharray:none" id="path3578" d="m 822.797,737.801 0,-511.199 -511.801,-170.3989 0,511.1989 511.801,170.399 z"/><path style="fill:none;stroke:#000;stroke-opacity:1;stroke-width:9;stroke-linecap:round;stroke-linejoin:round;stroke-miterlimit:10;stroke-dasharray:none" id="path3580" d="M 1079,652.602 1377.2,1122.4"/><path style="fill:none;stroke:#000;stroke-opacity:1;stroke-width:9;stroke-linecap:round;stroke-linejoin:round;stroke-miterlimit:10;stroke-dasharray:none" id="path3582" d="m 2798,1521.4 0,-857.396"/><path style="fill:none;stroke:#000;stroke-opacity:1;stroke-width:9;stroke-linecap:round;stroke-linejoin:round;stroke-miterlimit:10;stroke-dasharray:none" id="path3584" d="M 3560.6,949.602 2798,664.004"/><path style="fill:none;stroke:#000;stroke-opacity:1;stroke-width:9;stroke-linecap:round;stroke-linejoin:round;stroke-miterlimit:10;stroke-dasharray:none" id="path3586" d="M 3270.2,56.8008 2798,664.004"/><path style="fill:none;stroke:#000;stroke-opacity:1;stroke-width:9;stroke-linecap:round;stroke-linejoin:round;stroke-miterlimit:10;stroke-dasharray:none" id="path3588" d="M 2325.2,52.6016 2798,664.004"/><path style="fill:none;stroke:#000;stroke-opacity:1;stroke-width:9;stroke-linecap:round;stroke-linejoin:round;stroke-miterlimit:10;stroke-dasharray:none" id="path3590" d="M 2798,664.004 2035.4,949.602"/><path style="fill:none;stroke:#000;stroke-opacity:1;stroke-width:9;stroke-linecap:round;stroke-linejoin:round;stroke-miterlimit:10;stroke-dasharray:none" id="path3592" d="m 2798,1073.8 360,180 0,-449.999 -360,269.999 z"/><path style="fill:none;stroke:#000;stroke-opacity:1;stroke-width:9;stroke-linecap:round;stroke-linejoin:round;stroke-miterlimit:10;stroke-dasharray:none" id="path3594" d="m 2798,1073.8 -360,171 0,-440.999 360,269.999 z"/><path style="fill:none;stroke:#000;stroke-opacity:1;stroke-width:9;stroke-linecap:round;stroke-linejoin:round;stroke-miterlimit:10;stroke-dasharray:none" id="path3596" d="m 2438,799.602 153,-409.801 -409.8,103.801 256.8,306 z"/><path style="fill:none;stroke:#000;stroke-opacity:1;stroke-width:9;stroke-linecap:round;stroke-linejoin:round;stroke-miterlimit:10;stroke-dasharray:none" id="path3598" d="m 2595.2,385.602 414,4.199 L 2798,61.6016 2595.2,385.602 z"/><path style="fill:none;stroke:#000;stroke-opacity:1;stroke-width:9;stroke-linecap:round;stroke-linejoin:round;stroke-miterlimit:10;stroke-dasharray:none" id="path3600" d="m 3014,380.801 144,423 261,-315 -405,-108 z"/><path style="fill:none;stroke:#000;stroke-opacity:1;stroke-width:9;stroke-linecap:butt;stroke-linejoin:round;stroke-miterlimit:10;stroke-dasharray:none" id="path3602" d="M 2800.4,1518.4 2034.2,961.602 2327,61.6016 l 947.4,0 292.2,900.0004 -766.2,556.798 z"/><path style="fill:none;stroke:#000;stroke-opacity:1;stroke-width:9;stroke-linecap:round;stroke-linejoin:round;stroke-miterlimit:10;stroke-dasharray:none" id="path3604" d="m 4575.2,1433.8 180,0 -90,-135 -90,135 z"/><path style="fill:none;stroke:#000;stroke-opacity:1;stroke-width:9;stroke-linecap:round;stroke-linejoin:round;stroke-miterlimit:10;stroke-dasharray:none" id="path3606" d="m 5038.4,173.801 81,58.801 -139.2,76.199 58.2,-135 z"/><path style="fill:none;stroke:#000;stroke-opacity:1;stroke-width:9;stroke-linecap:round;stroke-linejoin:round;stroke-miterlimit:10;stroke-dasharray:none" id="path3608" d="m 4210.4,227.801 81,-54 58.8,135 -139.8,-81 z"/><path style="fill:none;stroke:#000;stroke-opacity:1;stroke-width:9;stroke-linecap:round;stroke-linejoin:round;stroke-miterlimit:10;stroke-dasharray:none" id="path3610" d="m 4026.2,1024.6 -30,-88.799 129,-6 -99,94.799 z"/><path style="fill:none;stroke:#000;stroke-opacity:1;stroke-width:9;stroke-linecap:round;stroke-linejoin:round;stroke-miterlimit:10;stroke-dasharray:none" id="path3612" d="m 4111.4,1145.8 328.8,243 112.2,-193.2 -274.2,-206.998 -166.8,157.198 z"/><path style="fill:none;stroke:#000;stroke-opacity:1;stroke-width:9;stroke-linecap:round;stroke-linejoin:round;stroke-miterlimit:10;stroke-dasharray:none" id="path3614" d="m 4017.2,799.602 193.2,0 130.8,-351 -180,-94.801 -144,445.801 z"/><path style="fill:none;stroke:#000;stroke-opacity:1;stroke-width:9;stroke-linecap:round;stroke-linejoin:round;stroke-miterlimit:10;stroke-dasharray:none" id="path3616" d="m 4498.4,340.602 331.8,1.199 78,-207 -477,-1.199 67.2,207 z"/><path style="fill:none;stroke:#000;stroke-opacity:1;stroke-width:9;stroke-linecap:round;stroke-linejoin:round;stroke-miterlimit:10;stroke-dasharray:none" id="path3618" d="m 5128.4,799.602 184.8,0 -130.8,-450 -184.2,99 130.2,351 z"/><path style="fill:none;stroke:#000;stroke-opacity:1;stroke-width:9;stroke-linecap:round;stroke-linejoin:round;stroke-miterlimit:10;stroke-dasharray:none" id="path3620" d="m 4773.2,1199.8 108,193.8 328.2,-238.8 -162,-153 -274.2,198 z"/><path style="fill:none;stroke:#000;stroke-opacity:1;stroke-width:9;stroke-linecap:round;stroke-linejoin:round;stroke-miterlimit:10;stroke-dasharray:none" id="path3622" d="m 4665.2,983.801 225,-180 -90,-270 -270,0 -90,270 225,180 z"/><path style="fill:none;stroke:#000;stroke-opacity:1;stroke-width:9;stroke-linecap:round;stroke-linejoin:round;stroke-miterlimit:10;stroke-dasharray:none" id="path3624" d="m 5317.4,1046.8 27,-121.198 -148.2,0 121.2,121.198 z"/><path style="fill:none;stroke:#000;stroke-opacity:1;stroke-width:9;stroke-linecap:round;stroke-linejoin:round;stroke-miterlimit:10;stroke-dasharray:none" id="path3626" d="m 4444.4,1388.8 130.8,45"/><path style="fill:none;stroke:#000;stroke-opacity:1;stroke-width:9;stroke-linecap:round;stroke-linejoin:round;stroke-miterlimit:10;stroke-dasharray:none" id="path3628" d="m 4551.2,1196.8 117,105"/><path style="fill:none;stroke:#000;stroke-opacity:1;stroke-width:9;stroke-linecap:round;stroke-linejoin:round;stroke-miterlimit:10;stroke-dasharray:none" id="path3630" d="m 4668.2,1295.8 108,-99"/><path style="fill:none;stroke:#000;stroke-opacity:1;stroke-width:9;stroke-linecap:round;stroke-linejoin:round;stroke-miterlimit:10;stroke-dasharray:none" id="path3632" d="m 4758.2,1433.8 126,-42"/><path style="fill:none;stroke:#000;stroke-opacity:1;stroke-width:9;stroke-linecap:round;stroke-linejoin:round;stroke-miterlimit:10;stroke-dasharray:none" id="path3634" d="m 5211.2,1151.8 105,-105"/><path style="fill:none;stroke:#000;stroke-opacity:1;stroke-width:9;stroke-linecap:round;stroke-linejoin:round;stroke-miterlimit:10;stroke-dasharray:none" id="path3636" d="m 5343.2,926.801 -30,-126"/><path style="fill:none;stroke:#000;stroke-opacity:1;stroke-width:9;stroke-linecap:round;stroke-linejoin:round;stroke-miterlimit:10;stroke-dasharray:none" id="path3638" d="m 5046.2,1001.8 153,-74.999"/><path style="fill:none;stroke:#000;stroke-opacity:1;stroke-width:9;stroke-linecap:round;stroke-linejoin:round;stroke-miterlimit:10;stroke-dasharray:none" id="path3640" d="m 5193.2,926.801 -63,-129"/><path style="fill:none;stroke:#000;stroke-opacity:1;stroke-width:9;stroke-linecap:round;stroke-linejoin:round;stroke-miterlimit:10;stroke-dasharray:none" id="path3642" d="m 4110.2,1145.8 -84,-117"/><path style="fill:none;stroke:#000;stroke-opacity:1;stroke-width:9;stroke-linecap:round;stroke-linejoin:round;stroke-miterlimit:10;stroke-dasharray:none" id="path3644" d="m 4125.2,934.602 153,58.199"/><path style="fill:none;stroke:#000;stroke-opacity:1;stroke-width:9;stroke-linecap:round;stroke-linejoin:round;stroke-miterlimit:10;stroke-dasharray:none" id="path3646" d="m 3993.2,932.801 27,-132"/><path style="fill:none;stroke:#000;stroke-opacity:1;stroke-width:9;stroke-linecap:round;stroke-linejoin:round;stroke-miterlimit:10;stroke-dasharray:none" id="path3648" d="m 4125.2,929.801 84,-129"/><path style="fill:none;stroke:#000;stroke-opacity:1;stroke-width:9;stroke-linecap:round;stroke-linejoin:round;stroke-miterlimit:10;stroke-dasharray:none" id="path3650" d="m 4161.2,353.801 48,-129"/><path style="fill:none;stroke:#000;stroke-opacity:1;stroke-width:9;stroke-linecap:round;stroke-linejoin:round;stroke-miterlimit:10;stroke-dasharray:none" id="path3652" d="m 4341.2,452.801 9,-141"/><path style="fill:none;stroke:#000;stroke-opacity:1;stroke-width:9;stroke-linecap:round;stroke-linejoin:round;stroke-miterlimit:10;stroke-dasharray:none" id="path3654" d="m 4353.2,308.801 144,30"/><path style="fill:none;stroke:#000;stroke-opacity:1;stroke-width:9;stroke-linecap:round;stroke-linejoin:round;stroke-miterlimit:10;stroke-dasharray:none" id="path3656" d="m 4293.2,170.801 141,-36"/><path style="fill:none;stroke:#000;stroke-opacity:1;stroke-width:9;stroke-linecap:round;stroke-linejoin:round;stroke-miterlimit:10;stroke-dasharray:none" id="path3658" d="m 4830.2,344.801 150,-33"/><path style="fill:none;stroke:#000;stroke-opacity:1;stroke-width:9;stroke-linecap:round;stroke-linejoin:round;stroke-miterlimit:10;stroke-dasharray:none" id="path3660" d="m 4983.2,305.801 18,144"/><path style="fill:none;stroke:#000;stroke-opacity:1;stroke-width:9;stroke-linecap:round;stroke-linejoin:round;stroke-miterlimit:10;stroke-dasharray:none" id="path3662" d="m 5181.2,350.801 -63,-117"/><path style="fill:none;stroke:#000;stroke-opacity:1;stroke-width:9;stroke-linecap:round;stroke-linejoin:round;stroke-miterlimit:10;stroke-dasharray:none" id="path3664" d="m 5040.2,176.801 -129,-42"/><path style="fill:none;stroke:#000;stroke-opacity:1;stroke-width:9;stroke-linecap:round;stroke-linejoin:round;stroke-miterlimit:10;stroke-dasharray:none" id="path3666" d="m 4278.2,989.801 165,-189"/><path style="fill:none;stroke:#000;stroke-opacity:1;stroke-width:9;stroke-linecap:round;stroke-linejoin:round;stroke-miterlimit:10;stroke-dasharray:none" id="path3668" d="m 4443.2,800.801 -234,0"/><path style="fill:none;stroke:#000;stroke-opacity:1;stroke-width:9;stroke-linecap:round;stroke-linejoin:round;stroke-miterlimit:10;stroke-dasharray:none" id="path3670" d="m 4338.2,449.801 192,84"/><path style="fill:none;stroke:#000;stroke-opacity:1;stroke-width:9;stroke-linecap:round;stroke-linejoin:round;stroke-miterlimit:10;stroke-dasharray:none" id="path3672" d="m 4530.2,533.801 -33,-195"/><path style="fill:none;stroke:#000;stroke-opacity:1;stroke-width:9;stroke-linecap:round;stroke-linejoin:round;stroke-miterlimit:10;stroke-dasharray:none" id="path3674" d="m 4836.2,341.801 -33,195"/><path style="fill:none;stroke:#000;stroke-opacity:1;stroke-width:9;stroke-linecap:round;stroke-linejoin:round;stroke-miterlimit:10;stroke-dasharray:none" id="path3676" d="m 4803.2,536.801 195,-87"/><path style="fill:none;stroke:#000;stroke-opacity:1;stroke-width:9;stroke-linecap:round;stroke-linejoin:round;stroke-miterlimit:10;stroke-dasharray:none" id="path3678" d="m 5133.2,800.801 -243,0"/><path style="fill:none;stroke:#000;stroke-opacity:1;stroke-width:9;stroke-linecap:round;stroke-linejoin:round;stroke-miterlimit:10;stroke-dasharray:none" id="path3680" d="m 4890.2,800.801 159,200.999"/><path style="fill:none;stroke:#000;stroke-opacity:1;stroke-width:9;stroke-linecap:round;stroke-linejoin:round;stroke-miterlimit:10;stroke-dasharray:none" id="path3682" d="m 4776.2,1196.8 -111,-215.999"/><path style="fill:none;stroke:#000;stroke-opacity:1;stroke-width:9;stroke-linecap:round;stroke-linejoin:round;stroke-miterlimit:10;stroke-dasharray:none" id="path3684" d="m 4665.2,980.801 -114,212.999"/><path style="fill:#fff;fill-opacity:1;fill-rule:evenodd;stroke:none" id="path3686" d="m 6803,1028.8 549,-71.999"/><path style="fill:none;stroke:#000;stroke-opacity:1;stroke-width:9;stroke-linecap:round;stroke-linejoin:round;stroke-miterlimit:10;stroke-dasharray:none" id="path3688" d="m 6803,1028.8 549,-71.999"/><path style="fill:#fff;fill-opacity:1;fill-rule:evenodd;stroke:none" id="path3690" d="M 6947,560.801 7046,65.8008"/><path style="fill:none;stroke:#000;stroke-opacity:1;stroke-width:9;stroke-linecap:round;stroke-linejoin:round;stroke-miterlimit:10;stroke-dasharray:none" id="path3692" d="M 6947,560.801 7046,65.8008"/><path style="fill:#fff;fill-opacity:1;fill-rule:evenodd;stroke:none" id="path3694" d="m 6956,560.801 396,396"/><path style="fill:none;stroke:#000;stroke-opacity:1;stroke-width:9;stroke-linecap:round;stroke-linejoin:round;stroke-miterlimit:10;stroke-dasharray:none" id="path3696" d="m 6956,560.801 396,396"/><path style="fill:#fff;fill-opacity:1;fill-rule:evenodd;stroke:none" id="path3698" d="M 6578,353.801 6101,61.6016"/><path style="fill:none;stroke:#000;stroke-opacity:1;stroke-width:9;stroke-linecap:round;stroke-linejoin:round;stroke-miterlimit:10;stroke-dasharray:none" id="path3700" d="M 6578,353.801 6101,61.6016"/><path style="fill:#fff;fill-opacity:1;fill-rule:evenodd;stroke:none" id="path3702" d="M 6578,353.801 7046,65.8008"/><path style="fill:none;stroke:#000;stroke-opacity:1;stroke-width:9;stroke-linecap:round;stroke-linejoin:round;stroke-miterlimit:10;stroke-dasharray:none" id="path3704" d="M 6578,353.801 7046,65.8008"/><path style="fill:#fff;fill-opacity:1;fill-rule:evenodd;stroke:none" id="path3706" d="m 6200,560.801 -387,387"/><path style="fill:none;stroke:#000;stroke-opacity:1;stroke-width:9;stroke-linecap:round;stroke-linejoin:round;stroke-miterlimit:10;stroke-dasharray:none" id="path3708" d="m 6200,560.801 -387,387"/><path style="fill:#fff;fill-opacity:1;fill-rule:evenodd;stroke:none" id="path3710" d="M 6209,560.801 6101,56.8008"/><path style="fill:none;stroke:#000;stroke-opacity:1;stroke-width:9;stroke-linecap:round;stroke-linejoin:round;stroke-miterlimit:10;stroke-dasharray:none" id="path3712" d="M 6209,560.801 6101,56.8008"/><path style="fill:#fff;fill-opacity:1;fill-rule:evenodd;stroke:none" id="path3714" d="M 6353,1028.8 5808.2,952.602"/><path style="fill:none;stroke:#000;stroke-opacity:1;stroke-width:9;stroke-linecap:round;stroke-linejoin:round;stroke-miterlimit:10;stroke-dasharray:none" id="path3716" d="M 6353,1028.8 5808.2,952.602"/><path style="fill:#fff;fill-opacity:1;fill-rule:evenodd;stroke:none" id="path3718" d="M 6578,659.801 6353,1028.8"/><path style="fill:none;stroke:#000;stroke-opacity:1;stroke-width:9;stroke-linecap:round;stroke-linejoin:round;stroke-miterlimit:10;stroke-dasharray:none" id="path3720" d="M 6578,659.801 6353,1028.8"/><path style="fill:#fff;fill-opacity:1;fill-rule:evenodd;stroke:none" id="path3722" d="M 6578,668.801 6803,1028.8"/><path style="fill:none;stroke:#000;stroke-opacity:1;stroke-width:9;stroke-linecap:round;stroke-linejoin:round;stroke-miterlimit:10;stroke-dasharray:none" id="path3724" d="M 6578,668.801 6803,1028.8"/><path style="fill:#fff;fill-opacity:1;fill-rule:evenodd;stroke:none" id="path3726" d="M 6573.2,664.602 6956,551.801"/><path style="fill:none;stroke:#000;stroke-opacity:1;stroke-width:9;stroke-linecap:round;stroke-linejoin:round;stroke-miterlimit:10;stroke-dasharray:none" id="path3728" d="M 6573.2,664.602 6956,551.801"/><path style="fill:#fff;fill-opacity:1;fill-rule:evenodd;stroke:none" id="path3730" d="m 6578,668.801 -378,-108"/><path style="fill:none;stroke:#000;stroke-opacity:1;stroke-width:9;stroke-linecap:round;stroke-linejoin:round;stroke-miterlimit:10;stroke-dasharray:none" id="path3732" d="m 6578,668.801 -378,-108"/><path style="fill:#fff;fill-opacity:1;fill-rule:evenodd;stroke:none" id="path3734" d="m 6578,344.801 0,324"/><path style="fill:none;stroke:#000;stroke-opacity:1;stroke-width:9;stroke-linecap:round;stroke-linejoin:round;stroke-miterlimit:10;stroke-dasharray:none" id="path3736" d="m 6578,344.801 0,324"/><path style="fill:#fff;fill-opacity:1;fill-rule:evenodd;stroke:none" id="path3738" d="m 6353,1028.8 450,0"/><path style="fill:none;stroke:#000;stroke-opacity:1;stroke-width:9;stroke-linecap:round;stroke-linejoin:round;stroke-miterlimit:10;stroke-dasharray:none" id="path3740" d="m 6353,1028.8 450,0"/><path style="fill:#fff;fill-opacity:1;fill-rule:evenodd;stroke:none" id="path3742" d="M 6348.2,1028.8 6200,560.801"/><path style="fill:none;stroke:#000;stroke-opacity:1;stroke-width:9;stroke-linecap:round;stroke-linejoin:round;stroke-miterlimit:10;stroke-dasharray:none" id="path3744" d="M 6348.2,1028.8 6200,560.801"/><path style="fill:#fff;fill-opacity:1;fill-rule:evenodd;stroke:none" id="path3746" d="m 6200,565.602 378,-225"/><path style="fill:none;stroke:#000;stroke-opacity:1;stroke-width:9;stroke-linecap:round;stroke-linejoin:round;stroke-miterlimit:10;stroke-dasharray:none" id="path3748" d="m 6200,565.602 378,-225"/><path style="fill:#fff;fill-opacity:1;fill-rule:evenodd;stroke:none" id="path3750" d="m 6578,340.602 378,211.199"/><path style="fill:none;stroke:#000;stroke-opacity:1;stroke-width:9;stroke-linecap:round;stroke-linejoin:round;stroke-miterlimit:10;stroke-dasharray:none" id="path3752" d="m 6578,340.602 378,211.199"/><path style="fill:#fff;fill-opacity:1;fill-rule:evenodd;stroke:none" id="path3754" d="M 6956,551.801 6803,1024.6"/><path style="fill:none;stroke:#000;stroke-opacity:1;stroke-width:9;stroke-linecap:round;stroke-linejoin:round;stroke-miterlimit:10;stroke-dasharray:none" id="path3756" d="M 6956,551.801 6803,1024.6"/><path style="fill:#fff;fill-opacity:1;fill-rule:evenodd;stroke:none" id="path3758" d="m 6353,1028.8 -202.8,283.8"/><path style="fill:none;stroke:#000;stroke-opacity:1;stroke-width:9;stroke-linecap:round;stroke-linejoin:round;stroke-miterlimit:10;stroke-dasharray:none" id="path3760" d="m 6353,1028.8 -202.8,283.8"/><path style="fill:#fff;fill-opacity:1;fill-rule:evenodd;stroke:none" id="path3762" d="m 6803,1024.6 220.2,288"/><path style="fill:none;stroke:#000;stroke-opacity:1;stroke-width:9;stroke-linecap:round;stroke-linejoin:round;stroke-miterlimit:10;stroke-dasharray:none" id="path3764" d="m 6803,1024.6 220.2,288"/><path style="fill:#fff;fill-opacity:1;fill-rule:evenodd;stroke:none" id="path3766" d="m 6956,551.801 319.2,-108"/><path style="fill:none;stroke:#000;stroke-opacity:1;stroke-width:9;stroke-linecap:round;stroke-linejoin:round;stroke-miterlimit:10;stroke-dasharray:none" id="path3768" d="m 6956,551.801 319.2,-108"/><path style="fill:#fff;fill-opacity:1;fill-rule:evenodd;stroke:none" id="path3770" d="m 6838.99,1028.8 c 0,-19.88 -16.11,-35.999 -35.99,-35.999 -19.88,0 -36,16.119 -36,35.999 0,19.88 16.12,35.99 36,35.99 19.88,0 35.99,-16.11 35.99,-35.99"/><path style="fill:none;stroke:#000;stroke-opacity:1;stroke-width:4.5;stroke-linecap:round;stroke-linejoin:round;stroke-miterlimit:10;stroke-dasharray:none" id="path3772" d="m 6838.99,1028.8 c 0,-19.88 -16.11,-35.999 -35.99,-35.999 -19.88,0 -36,16.119 -36,35.999 0,19.88 16.12,35.99 36,35.99 19.88,0 35.99,-16.11 35.99,-35.99 z"/><path style="fill:#fff;fill-opacity:1;fill-rule:evenodd;stroke:none" id="path3774" d="m 6991.99,551.797 c 0,-19.879 -16.11,-35.996 -35.99,-35.996 -19.88,0 -36,16.117 -36,35.996 0,19.879 16.12,35.996 36,35.996 19.88,0 35.99,-16.117 35.99,-35.996"/><path style="fill:none;stroke:#000;stroke-opacity:1;stroke-width:4.5;stroke-linecap:round;stroke-linejoin:round;stroke-miterlimit:10;stroke-dasharray:none" id="path3776" d="m 6991.99,551.797 c 0,-19.879 -16.11,-35.996 -35.99,-35.996 -19.88,0 -36,16.117 -36,35.996 0,19.879 16.12,35.996 36,35.996 19.88,0 35.99,-16.117 35.99,-35.996 z"/><path style="fill:#fff;fill-opacity:1;fill-rule:evenodd;stroke:none" id="path3778" d="m 6609.2,344.797 c 0,-19.879 -16.12,-35.996 -36,-35.996 -19.88,0 -36,16.117 -36,35.996 0,19.879 16.12,35.996 36,35.996 19.88,0 36,-16.117 36,-35.996"/><path style="fill:none;stroke:#000;stroke-opacity:1;stroke-width:4.5;stroke-linecap:round;stroke-linejoin:round;stroke-miterlimit:10;stroke-dasharray:none" id="path3780" d="m 6609.2,344.797 c 0,-19.879 -16.12,-35.996 -36,-35.996 -19.88,0 -36,16.117 -36,35.996 0,19.879 16.12,35.996 36,35.996 19.88,0 36,-16.117 36,-35.996 z"/><path style="fill:#fff;fill-opacity:1;fill-rule:evenodd;stroke:none" id="path3782" d="m 6235.99,560.797 c 0,-19.879 -16.11,-35.996 -35.99,-35.996 -19.88,0 -36,16.117 -36,35.996 0,19.879 16.12,35.996 36,35.996 19.88,0 35.99,-16.117 35.99,-35.996"/><path style="fill:none;stroke:#000;stroke-opacity:1;stroke-width:4.5;stroke-linecap:round;stroke-linejoin:round;stroke-miterlimit:10;stroke-dasharray:none" id="path3784" d="m 6235.99,560.797 c 0,-19.879 -16.11,-35.996 -35.99,-35.996 -19.88,0 -36,16.117 -36,35.996 0,19.879 16.12,35.996 36,35.996 19.88,0 35.99,-16.117 35.99,-35.996 z"/><path style="fill:#fff;fill-opacity:1;fill-rule:evenodd;stroke:none" id="path3786" d="m 6388.99,1028.8 c 0,-19.88 -16.11,-35.999 -35.99,-35.999 -19.88,0 -36,16.119 -36,35.999 0,19.88 16.12,35.99 36,35.99 19.88,0 35.99,-16.11 35.99,-35.99"/><path style="fill:none;stroke:#000;stroke-opacity:1;stroke-width:4.5;stroke-linecap:round;stroke-linejoin:round;stroke-miterlimit:10;stroke-dasharray:none" id="path3788" d="m 6388.99,1028.8 c 0,-19.88 -16.11,-35.999 -35.99,-35.999 -19.88,0 -36,16.119 -36,35.999 0,19.88 16.12,35.99 36,35.99 19.88,0 35.99,-16.11 35.99,-35.99 z"/></g></g></svg>