<svg xmlns="http://www.w3.org/2000/svg" xmlns:xlink="http://www.w3.org/1999/xlink" width="9.2in" height="432" viewBox="-5472 -17 10992 5455"><g style="stroke-width:.025in;fill:none"><polyline points="5183 5414 5355 3876 3378 2058 2656 3193 5183 5414" style="stroke:#000;stroke-width:16;stroke-linejoin:round;stroke-linecap:butt;fill:#fff"/><polyline points="3378 2058 1408 2441 206 3627 2656 3193 3378 2058" style="stroke:#000;stroke-width:16;stroke-linejoin:round;stroke-linecap:butt;fill:#fff"/><polyline points="3244 1834 3198 5 2293 680 2475 2921 3244 1834" style="stroke:#000;stroke-width:16;stroke-linejoin:round;stroke-linecap:butt;fill:gray"/><polyline points="5496 3770 3507 1930 3493 114 5496 3770" style="stroke:#000;stroke-width:16;stroke-linejoin:round;stroke-linecap:butt;fill:#ddd"/><polyline points="3493 114 5496 3770 5357 5297 2684 824 3493 114" style="stroke:#000;stroke-width:16;stroke-linejoin:round;stroke-linecap:butt;fill:#ddd"/><polyline points="5183 5414 206 3627 2656 3193 5183 5414" style="stroke:#000;stroke-width:16;stroke-linejoin:round;stroke-linecap:butt;fill:#fff"/><polyline points="2293 680 2475 2921 5 3373 2293 680" style="stroke:#000;stroke-width:16;stroke-linejoin:round;stroke-linecap:butt;fill:gray"/><polyline points="-3165 1061 -3081 2309 -5202 2722 -4969 949 -3165 1065" style="stroke:#000;stroke-width:8;stroke-linejoin:round;stroke-linecap:butt;fill:gray"/><polyline points="-3048 2583 -5018 2951 -2522 3876 -3044 2575" style="stroke:#000;stroke-width:8;stroke-linejoin:round;stroke-linecap:butt;fill:#ddd"/><polyline points="-2240 3771 -1329 2541 -1923 1147 -2945 1080 -2769 2384 -2240 3777" style="stroke:#000;stroke-width:8;stroke-linejoin:round;stroke-linecap:butt;fill:#fff"/><polyline points="5357 5297 5496 3770 5357 5297" style="stroke:#000;stroke-width:16;stroke-linejoin:round;stroke-linecap:butt;fill:#ddd"/><polyline points="2812 3044 2684 824 5357 5297 2812 3044" style="stroke:#000;stroke-width:16;stroke-linejoin:round;stroke-linecap:butt;fill:#ddd"/><circle cx="-2939" cy="2433" r="136" style="fill:#000;stroke:#000;stroke-width:8"/><circle cx="-2306" cy="4040" r="136" style="fill:#000;stroke:#000;stroke-width:8"/><circle cx="-1145" cy="2488" r="136" style="fill:#000;stroke:#000;stroke-width:8"/><circle cx="-1794" cy="1026" r="136" style="fill:#000;stroke:#000;stroke-width:8"/><circle cx="-3059" cy="928" r="136" style="fill:#000;stroke:#000;stroke-width:8"/><circle cx="-5093" cy="815" r="136" style="fill:#000;stroke:#000;stroke-width:8"/><circle cx="-5328" cy="2879" r="136" style="fill:#000;stroke:#000;stroke-width:8"/><polyline points="-2939 2243 -3053 1139" style="stroke:#000;stroke-width:63;stroke-linejoin:miter;stroke-linecap:butt"/><polyline points="-2388 3824 -2855 2603" style="stroke:#000;stroke-width:63;stroke-linejoin:miter;stroke-linecap:butt"/><polyline points="-5098 2833 -3129 2458" style="stroke:#000;stroke-width:63;stroke-linejoin:miter;stroke-linecap:butt"/><polyline points="-4888 822 -3288 922" style="stroke:#000;stroke-width:63;stroke-linejoin:miter;stroke-linecap:butt"/><polyline points="-2891 966 -1964 1030" style="stroke:#000;stroke-width:63;stroke-linejoin:miter;stroke-linecap:butt"/><polyline points="-1713 1190 -1244 2333" style="stroke:#000;stroke-width:63;stroke-linejoin:miter;stroke-linecap:butt"/><polyline points="-1214 2676 -2129 3904" style="stroke:#000;stroke-width:63;stroke-linejoin:miter;stroke-linecap:butt"/><polyline points="-5117 1005 -5348 2646" style="stroke:#000;stroke-width:63;stroke-linejoin:miter;stroke-linecap:butt"/><polyline points="-5177 3027 -2519 4034" style="stroke:#000;stroke-width:63;stroke-linejoin:miter;stroke-linecap:butt"/><polyline points="-3004 1576 -2857 1571" style="stroke:#000;stroke-width:8;stroke-linejoin:miter;stroke-linecap:butt"/><polyline points="-2662 3019 -2500 2980" style="stroke:#000;stroke-width:8;stroke-linejoin:miter;stroke-linecap:butt"/><polyline points="-2809 2408 -2643 2373" style="stroke:#000;stroke-width:8;stroke-linejoin:miter;stroke-linecap:butt"/><polyline points="-4022 2633 -3992 2848" style="stroke:#000;stroke-width:8;stroke-linejoin:miter;stroke-linecap:butt"/><circle cx="2563" cy="3159" r="158" style="fill:#000;stroke:#000;stroke-width:8"/><polyline points="2553 3078 2800 2717" style="stroke:#000;stroke-width:63;stroke-linejoin:miter;stroke-linecap:butt"/><polyline points="2570 3055 3301 1983" style="stroke:#000;stroke-width:63;stroke-linejoin:miter;stroke-linecap:butt;stroke-dasharray:20 20"/><polyline points="4569 1025 4029 1572" style="stroke:#5a5a5a;stroke-width:8;stroke-linejoin:miter;stroke-linecap:butt;stroke-dasharray:10 10"/><polyline points="4045 1488 4012 1589 4112 1554" style="stroke:#5a5a5a;stroke-width:8;stroke-miterlimit:8"/><polyline points="3880 190 3063 370" style="stroke:#5a5a5a;stroke-width:8;stroke-linejoin:miter;stroke-linecap:butt;stroke-dasharray:10 10"/><polyline points="3123 308 3041 375 3143 401" style="stroke:#5a5a5a;stroke-width:8;stroke-miterlimit:8"/><text x="-4227" y="1728" fill="#000" font-family="Times" font-size="240" font-style="normal" font-weight="bold" text-anchor="start" xml:space="preserve">f1</text><text x="-2829" y="1643" fill="#000" font-family="Times" font-size="240" font-style="normal" font-weight="bold" text-anchor="start" xml:space="preserve">e1</text><text x="-2492" y="3011" fill="#000" font-family="Times" font-size="240" font-style="normal" font-weight="bold" text-anchor="start" xml:space="preserve">e3</text><text x="-3523" y="3190" fill="#000" font-family="Times" font-size="240" font-style="normal" font-weight="bold" text-anchor="start" xml:space="preserve">f3</text><text x="-4113" y="3041" fill="#000" font-family="Times" font-size="240" font-style="normal" font-weight="bold" text-anchor="start" xml:space="preserve">e2</text><text x="-2682" y="2346" fill="#000" font-family="Times" font-size="240" font-style="normal" font-weight="bold" text-anchor="start" xml:space="preserve">v1</text><text x="-2169" y="2203" fill="#000" font-family="Times" font-size="240" font-style="normal" font-weight="bold" text-anchor="start" xml:space="preserve">f2</text><text x="4062" y="2843" fill="#000" font-family="Times" font-size="278" font-style="normal" font-weight="bold" text-anchor="start" xml:space="preserve">vol2</text><text x="3005" y="2740" fill="#000" font-family="Times" font-size="278" font-style="normal" font-weight="bold" text-anchor="start" xml:space="preserve">e4</text><text x="1373" y="2565" fill="#000" font-family="Times" font-size="278" font-style="normal" font-weight="bold" text-anchor="start" xml:space="preserve">vol1</text><text x="2370" y="4165" fill="#000" font-family="Times" font-size="278" font-style="normal" font-weight="bold" text-anchor="start" xml:space="preserve">vol3</text><text x="2330" y="3622" fill="#000" font-family="Times" font-size="278" font-style="normal" font-weight="bold" text-anchor="start" xml:space="preserve">v2</text><text x="4599" y="1000" fill="#000" font-family="Times" font-size="278" font-style="normal" font-weight="bold" text-anchor="start" xml:space="preserve">f5</text><text x="3942" y="263" fill="#000" font-family="Times" font-size="278" font-style="normal" font-weight="bold" text-anchor="start" xml:space="preserve">f4</text></g></svg>