<svg xmlns="http://www.w3.org/2000/svg" xmlns:xlink="http://www.w3.org/1999/xlink" width="816" height="4.7in" viewBox="-2 -296 10209 5681"><g style="stroke-width:.025in;fill:none"><polyline points="7575 2682 9748 2892" style="stroke:#000;stroke-width:8;stroke-linejoin:round;stroke-linecap:butt"/><polyline points="9523 2988 9770 2894 9546 2753" style="stroke:#000;stroke-width:8;stroke-miterlimit:8"/><polyline points="995 2648 3174 2858" style="stroke:#000;stroke-width:8;stroke-linejoin:round;stroke-linecap:butt"/><polyline points="2950 2955 3196 2860 2973 2720" style="stroke:#000;stroke-width:8;stroke-miterlimit:8"/><polyline points="2045 3044 2081 2753" style="stroke:#9f9f9f;stroke-width:8;stroke-linejoin:round;stroke-linecap:butt"/><polyline points="8690 3025 8657 2787" style="stroke:#9f9f9f;stroke-width:8;stroke-linejoin:round;stroke-linecap:butt"/><polyline points="3158 3153 969 2937" style="stroke:#535353;stroke-width:8;stroke-linejoin:round;stroke-linecap:butt"/><polyline points="1192 2840 946 2935 1169 3075" style="stroke:#535353;stroke-width:8;stroke-miterlimit:8"/><polyline points="9803 3135 7614 2919" style="stroke:#535353;stroke-width:8;stroke-linejoin:round;stroke-linecap:butt"/><polyline points="7838 2823 7592 2917 7815 3057" style="stroke:#535353;stroke-width:8;stroke-miterlimit:8"/><polyline points="7512 666 7574 2665" style="stroke:#000;stroke-width:8;stroke-linejoin:round;stroke-linecap:butt"/><polyline points="7449 2455 7575 2687 7686 2448" style="stroke:#000;stroke-width:8;stroke-miterlimit:8"/><polyline points="937 622 994 2597" style="stroke:#000;stroke-width:32;stroke-linejoin:round;stroke-linecap:butt"/><polyline points="871 2452 996 2685 1106 2446" style="stroke:#000;stroke-width:8;stroke-miterlimit:8"/><polyline points="704 1751 965 1669" style="stroke:#9f9f9f;stroke-width:8;stroke-linejoin:round;stroke-linecap:butt"/><polyline points="7350 1732 7544 1709" style="stroke:#9f9f9f;stroke-width:8;stroke-linejoin:round;stroke-linecap:butt"/><polyline points="741 2734 665 713" style="stroke:#535353;stroke-width:8;stroke-linejoin:round;stroke-linecap:butt"/><polyline points="790 922 664 691 555 931" style="stroke:#535353;stroke-width:8;stroke-miterlimit:8"/><polyline points="7386 2717 7311 696" style="stroke:#535353;stroke-width:8;stroke-linejoin:round;stroke-linecap:butt"/><polyline points="7436 904 7310 674 7201 913" style="stroke:#535353;stroke-width:8;stroke-miterlimit:8"/><polyline points="8809 1690 8664 1807" style="stroke:#9f9f9f;stroke-width:8;stroke-linejoin:round;stroke-linecap:butt"/><polyline points="3191 2860 3283 855" style="stroke:#000;stroke-width:32;stroke-linejoin:round;stroke-linecap:butt"/><polyline points="3394 1007 3288 767 3159 997" style="stroke:#000;stroke-width:8;stroke-miterlimit:8"/><polyline points="9911 2787 10012 740" style="stroke:#000;stroke-width:8;stroke-linejoin:round;stroke-linecap:butt"/><polyline points="10119 958 10013 718 9883 946" style="stroke:#000;stroke-width:8;stroke-miterlimit:8"/><polyline points="3435 1991 3238 1868" style="stroke:#9f9f9f;stroke-width:8;stroke-linejoin:round;stroke-linecap:butt"/><polyline points="685 3544 460 3334" style="stroke:#9f9f9f;stroke-width:8;stroke-linejoin:round;stroke-linecap:butt"/><polyline points="9961 1790 10081 1973" style="stroke:#9f9f9f;stroke-width:8;stroke-linejoin:round;stroke-linecap:butt"/><polyline points="7332 3525 7106 3316" style="stroke:#9f9f9f;stroke-width:8;stroke-linejoin:round;stroke-linecap:butt"/><polyline points="953 2936 438 4099" style="stroke:#535353;stroke-width:8;stroke-linejoin:round;stroke-linecap:butt"/><polyline points="416 3857 429 4120 632 3952" style="stroke:#535353;stroke-width:8;stroke-miterlimit:8"/><polyline points="7598 2918 7037 4191" style="stroke:#535353;stroke-width:8;stroke-linejoin:round;stroke-linecap:butt"/><polyline points="7015 3948 7027 4212 7230 4044" style="stroke:#535353;stroke-width:8;stroke-miterlimit:8"/><polyline points="143 4007 733 2749" style="stroke:#535353;stroke-width:8;stroke-linejoin:round;stroke-linecap:butt"/><polyline points="749 2991 743 2728 536 2891" style="stroke:#535353;stroke-width:8;stroke-miterlimit:8"/><polyline points="3492 920 3383 2977" style="stroke:#535353;stroke-width:8;stroke-linejoin:round;stroke-linecap:butt"/><polyline points="3276 2756 3382 2999 3511 2769" style="stroke:#535353;stroke-width:8;stroke-miterlimit:8"/><polyline points="6790 3989 7379 2731" style="stroke:#535353;stroke-width:8;stroke-linejoin:round;stroke-linecap:butt"/><polyline points="7395 2973 7388 2710 7182 2873" style="stroke:#535353;stroke-width:8;stroke-miterlimit:8"/><polyline points="10139 902 10029 2959" style="stroke:#535353;stroke-width:8;stroke-linejoin:round;stroke-linecap:butt"/><polyline points="9922 2739 10028 2981 10158 2751" style="stroke:#535353;stroke-width:8;stroke-miterlimit:8"/><polyline points="3286 805 953 622" style="stroke:#000;stroke-width:8;stroke-linejoin:round;stroke-linecap:butt"/><polyline points="1174 521 931 621 1156 756" style="stroke:#000;stroke-width:8;stroke-miterlimit:8"/><polyline points="10013 724 7670 540" style="stroke:#000;stroke-width:8;stroke-linejoin:round;stroke-linecap:butt"/><polyline points="7891 439 7648 539 7874 675" style="stroke:#000;stroke-width:8;stroke-miterlimit:8"/><polyline points="2882 4371 3153 3169" style="stroke:#535353;stroke-width:8;stroke-linejoin:round;stroke-linecap:butt"/><polyline points="3222 3402 3159 3147 2992 3351" style="stroke:#535353;stroke-width:8;stroke-miterlimit:8"/><polyline points="9500 4483 9799 3151" style="stroke:#535353;stroke-width:8;stroke-linejoin:round;stroke-linecap:butt"/><polyline points="9867 3384 9804 3129 9637 3333" style="stroke:#535353;stroke-width:8;stroke-miterlimit:8"/><polyline points="2060 596 2099 713" style="stroke:#9f9f9f;stroke-width:8;stroke-linejoin:round;stroke-linecap:butt"/><polyline points="3252 3623 3016 3790" style="stroke:#9f9f9f;stroke-width:8;stroke-linejoin:round;stroke-linecap:butt"/><polyline points="9662 3772 9898 3604" style="stroke:#9f9f9f;stroke-width:8;stroke-linejoin:round;stroke-linecap:butt"/><polyline points="8819 629 8706 577" style="stroke:#9f9f9f;stroke-width:8;stroke-linejoin:round;stroke-linecap:butt"/><polyline points="3383 2994 3107 4318" style="stroke:#535353;stroke-width:8;stroke-linejoin:round;stroke-linecap:butt"/><polyline points="3035 4085 3103 4340 3266 4133" style="stroke:#535353;stroke-width:8;stroke-miterlimit:8"/><polyline points="10029 2976 9754 4300" style="stroke:#535353;stroke-width:8;stroke-linejoin:round;stroke-linecap:butt"/><polyline points="9681 4067 9750 4322 9912 4115" style="stroke:#535353;stroke-width:8;stroke-miterlimit:8"/><polyline points="877 507 3253 686" style="stroke:#535353;stroke-width:8;stroke-linejoin:round;stroke-linecap:butt"/><polyline points="3030 787 3275 687 3048 552" style="stroke:#535353;stroke-width:8;stroke-miterlimit:8"/><polyline points="7523 489 9900 668" style="stroke:#535353;stroke-width:8;stroke-linejoin:round;stroke-linecap:butt"/><polyline points="9677 769 9922 669 9695 534" style="stroke:#535353;stroke-width:8;stroke-miterlimit:8"/><polyline points="7030 4206 9483 4481" style="stroke:#535353;stroke-width:8;stroke-linejoin:round;stroke-linecap:butt"/><polyline points="9257 4574 9505 4483 9283 4340" style="stroke:#535353;stroke-width:8;stroke-miterlimit:8"/><polyline points="443 4094 2895 4369" style="stroke:#535353;stroke-width:8;stroke-linejoin:round;stroke-linecap:butt"/><polyline points="2669 4461 2917 4371 2696 4227" style="stroke:#535353;stroke-width:8;stroke-miterlimit:8"/><polyline points="8122 4348 8250 4345" style="stroke:#9f9f9f;stroke-width:8;stroke-linejoin:round;stroke-linecap:butt"/><polyline points="7311 680 6666 1764" style="stroke:#535353;stroke-width:8;stroke-linejoin:round;stroke-linecap:butt"/><polyline points="6675 1520 6656 1783 6877 1640" style="stroke:#535353;stroke-width:8;stroke-miterlimit:8"/><polyline points="7230 996 7004 1195" style="stroke:#9f9f9f;stroke-width:8;stroke-linejoin:round;stroke-linecap:butt"/><polyline points="665 698 19 1783" style="stroke:#535353;stroke-width:8;stroke-linejoin:round;stroke-linecap:butt"/><polyline points="28 1539 9 1802 230 1659" style="stroke:#535353;stroke-width:8;stroke-miterlimit:8"/><polyline points="583 1015 359 1213" style="stroke:#9f9f9f;stroke-width:8;stroke-linejoin:round;stroke-linecap:butt"/><polyline points="1558 4308 1704 4254" style="stroke:#9f9f9f;stroke-width:8;stroke-linejoin:round;stroke-linecap:butt"/><polyline points="9563 4513 6902 4209" style="stroke:#000;stroke-width:8;stroke-linejoin:round;stroke-linecap:butt"/><polyline points="7127 4116 6880 4207 7101 4350" style="stroke:#000;stroke-width:8;stroke-miterlimit:8"/><polyline points="6894 1572 7514 502" style="stroke:#535353;stroke-width:8;stroke-linejoin:round;stroke-linecap:butt"/><polyline points="7509 746 7526 483 7306 627" style="stroke:#535353;stroke-width:8;stroke-miterlimit:8"/><polyline points="248 1591 869 520" style="stroke:#535353;stroke-width:8;stroke-linejoin:round;stroke-linecap:butt"/><polyline points="864 764 880 501 660 645" style="stroke:#535353;stroke-width:8;stroke-miterlimit:8"/><polyline points="2830 4452 329 4171" style="stroke:#000;stroke-width:8;stroke-linejoin:round;stroke-linecap:butt"/><polyline points="554 4077 307 4169 528 4311" style="stroke:#000;stroke-width:8;stroke-miterlimit:8"/><polyline points="6659 1779 6789 3972" style="stroke:#535353;stroke-width:8;stroke-linejoin:round;stroke-linecap:butt"/><polyline points="6657 3765 6789 3994 6892 3752" style="stroke:#535353;stroke-width:8;stroke-miterlimit:8"/><polyline points="12 1798 142 3990" style="stroke:#535353;stroke-width:8;stroke-linejoin:round;stroke-linecap:butt"/><polyline points="10 3783 142 4012 245 3770" style="stroke:#535353;stroke-width:8;stroke-miterlimit:8"/><polyline points="10006 1446 9770 1203" style="stroke:#9f9f9f;stroke-width:8;stroke-linejoin:round;stroke-linecap:butt"/><polyline points="6824 3143 6727 2925" style="stroke:#9f9f9f;stroke-width:8;stroke-linejoin:round;stroke-linecap:butt"/><polyline points="3359 1465 3124 1222" style="stroke:#9f9f9f;stroke-width:8;stroke-linejoin:round;stroke-linecap:butt"/><polyline points="9854 2067 10135 918" style="stroke:#535353;stroke-width:8;stroke-linejoin:round;stroke-linecap:butt"/><polyline points="10198 1152 10140 896 9969 1097" style="stroke:#535353;stroke-width:8;stroke-miterlimit:8"/><polyline points="3207 2086 3488 936" style="stroke:#535353;stroke-width:8;stroke-linejoin:round;stroke-linecap:butt"/><polyline points="3551 1170 3493 914 3322 1114" style="stroke:#535353;stroke-width:8;stroke-miterlimit:8"/><polyline points="256 3099 80 2944" style="stroke:#9f9f9f;stroke-width:8;stroke-linejoin:round;stroke-linecap:butt"/><polyline points="9917 669 9603 1794" style="stroke:#535353;stroke-width:8;stroke-linejoin:round;stroke-linecap:butt"/><polyline points="9546 1556 9596 1816 9773 1619" style="stroke:#535353;stroke-width:8;stroke-miterlimit:8"/><polyline points="6887 4208 6759 2007" style="stroke:#000;stroke-width:8;stroke-linejoin:round;stroke-linecap:butt"/><polyline points="6890 2213 6759 1985 6654 2226" style="stroke:#000;stroke-width:8;stroke-miterlimit:8"/><polyline points="3270 687 2957 1812" style="stroke:#535353;stroke-width:8;stroke-linejoin:round;stroke-linecap:butt"/><polyline points="2899 1574 2951 1834 3127 1637" style="stroke:#535353;stroke-width:8;stroke-miterlimit:8"/><polyline points="313 4170 191 1958" style="stroke:#000;stroke-width:8;stroke-linejoin:round;stroke-linecap:butt"/><polyline points="320 2163 190 1935 85 2177" style="stroke:#000;stroke-width:8;stroke-miterlimit:8"/><polyline points="9764 2894 7548 702" style="stroke:#000;stroke-width:32;stroke-linejoin:round;stroke-linecap:butt"/><polyline points="7706 724 7505 659 7572 858" style="stroke:#000;stroke-width:32;stroke-miterlimit:8"/><polyline points="7654 540 9887 2763" style="stroke:#000;stroke-width:16;stroke-linejoin:round;stroke-linecap:butt"/><polyline points="9718 2728 9920 2795 9851 2595" style="stroke:#000;stroke-width:16;stroke-miterlimit:8"/><polyline points="8343 3484 8455 3329 6955 1889" style="stroke:#000;stroke-width:32;stroke-linejoin:round;stroke-linecap:butt"/><polyline points="7112 1909 6911 1847 6981 2046" style="stroke:#000;stroke-width:32;stroke-miterlimit:8"/><polyline points="6759 1991 8330 3481" style="stroke:#000;stroke-width:16;stroke-linejoin:round;stroke-linecap:butt"/><polyline points="8161 3451 8364 3513 8291 3314" style="stroke:#000;stroke-width:16;stroke-miterlimit:8"/><polyline points="7575 2780 7740 2654" style="stroke:#9f9f9f;stroke-width:8;stroke-linejoin:round;stroke-linecap:butt"/><polyline points="9752 4317 9853 2082" style="stroke:#535353;stroke-width:8;stroke-linejoin:round;stroke-linecap:butt"/><polyline points="9961 2301 9854 2060 9724 2290" style="stroke:#535353;stroke-width:8;stroke-miterlimit:8"/><polyline points="3105 4334 3206 2101" style="stroke:#535353;stroke-width:8;stroke-linejoin:round;stroke-linecap:butt"/><polyline points="3314 2320 3207 2079 3078 2309" style="stroke:#535353;stroke-width:8;stroke-miterlimit:8"/><polyline points="9801 3235 9602 3282" style="stroke:#9f9f9f;stroke-width:8;stroke-linejoin:round;stroke-linecap:butt"/><polyline points="3155 3253 2870 3363" style="stroke:#9f9f9f;stroke-width:8;stroke-linejoin:round;stroke-linecap:butt"/><polyline points="2912 2187 2830 4435" style="stroke:#000;stroke-width:8;stroke-linejoin:round;stroke-linecap:butt"/><polyline points="2720 4217 2829 4457 2955 4225" style="stroke:#000;stroke-width:8;stroke-miterlimit:8"/><polyline points="9649 2101 9563 4509" style="stroke:#000;stroke-width:8;stroke-linejoin:round;stroke-linecap:butt"/><polyline points="9451 4290 9562 4531 9688 4299" style="stroke:#000;stroke-width:8;stroke-miterlimit:8"/><polyline points="9600 1811 6910 1572" style="stroke:#535353;stroke-width:8;stroke-linejoin:round;stroke-linecap:butt"/><polyline points="7132 1474 6888 1571 7111 1709" style="stroke:#535353;stroke-width:8;stroke-miterlimit:8"/><polyline points="2954 1828 264 1591" style="stroke:#535353;stroke-width:8;stroke-linejoin:round;stroke-linecap:butt"/><polyline points="487 1492 242 1590 466 1728" style="stroke:#535353;stroke-width:8;stroke-miterlimit:8"/><polyline points="8266 1975 8229 1690" style="stroke:#9f9f9f;stroke-width:8;stroke-linejoin:round;stroke-linecap:butt"/><polyline points="1534 2061 1584 1709" style="stroke:#9f9f9f;stroke-width:8;stroke-linejoin:round;stroke-linecap:butt"/><polyline points="191 1942 2860 2183" style="stroke:#000;stroke-width:32;stroke-linejoin:round;stroke-linecap:butt"/><polyline points="2703 2286 2949 2191 2724 2052" style="stroke:#000;stroke-width:8;stroke-miterlimit:8"/><polyline points="6918 1855 9632 2100" style="stroke:#000;stroke-width:8;stroke-linejoin:round;stroke-linecap:butt"/><polyline points="9408 2197 9654 2101 9429 1963" style="stroke:#000;stroke-width:8;stroke-miterlimit:8"/><path style="stroke:#000;stroke-width:16;stroke-linecap:butt" d="M 3715,839 A 5907 5907 0 0 1 7023 659"/><polygon points="6596 731 7013 657 6659 423 6704 593 6596 731" style="stroke:#000;stroke-width:8;stroke-miterlimit:8;fill:#fff"/><path style="stroke:#000;stroke-width:16;stroke-linecap:butt" d="M 6690,4078 A 3284 3284 0 0 1 3412 4191"/><polygon points="3843 4220 3421 4195 3709 4503 3704 4328 3843 4220" style="stroke:#000;stroke-width:8;stroke-miterlimit:8;fill:#fff"/><text x="4179" y="4923" fill="#000" font-family="Times" font-size="227" font-style="normal" font-weight="normal" text-anchor="start" xml:space="preserve">cm.remove_cell&lt;1&gt;(dh4)</text><text x="4383" y="5285" fill="#000" font-family="Times" font-size="227" font-style="normal" font-weight="normal" text-anchor="start" xml:space="preserve">cm.remove_cell&lt;1&gt;(dh5)</text><text x="2726" y="316" fill="#000" font-family="Times" font-size="227" font-style="normal" font-weight="normal" text-anchor="start" xml:space="preserve">dh5=cm.insert_cell_1_in_cell_2(dh2,dh3)</text><text x="2374" y="-53" fill="#000" font-family="Times" font-size="227" font-style="normal" font-weight="normal" text-anchor="start" xml:space="preserve">dh4=cm.insert_dangling_cell_1_in_cell_2(dh1)</text><text x="995" y="1339" fill="#000" font-family="Times" font-size="252" font-style="normal" font-weight="normal" text-anchor="start" xml:space="preserve">dh2</text><text x="2663" y="1208" fill="#000" font-family="Times" font-size="252" font-style="normal" font-weight="normal" text-anchor="start" xml:space="preserve">dh3</text><text x="1716" y="2409" fill="#000" font-family="Times" font-size="252" font-style="normal" font-weight="normal" text-anchor="start" xml:space="preserve">dh1</text><text x="7748" y="2598" fill="#000" font-family="Times" font-size="252" font-style="normal" font-weight="normal" text-anchor="start" xml:space="preserve">dh4</text><text x="7606" y="1511" fill="#000" font-family="Times" font-size="252" font-style="normal" font-weight="normal" text-anchor="start" xml:space="preserve">dh5</text></g></svg>