<svg xmlns="http://www.w3.org/2000/svg" xmlns:ev="http://www.w3.org/2001/xml-events" xmlns:xlink="http://www.w3.org/1999/xlink" width="709.176" height="377.697" class="st13" color-interpolation-filters="sRGB" viewBox="0 0 531.882 283.272" xml:space="preserve"><style type="text/css">.st1{stroke:#000;stroke-width:1}.st2{fill:#000;font-family:Calibri;font-size:1.00001em;font-weight:700}.st3{fill:none;stroke:#000;stroke-width:.75}.st4{font-size:1em}.st5{visibility:visible}.st6,.st7{filter:url(#filter_2)}.st6{fill:none;stroke:#5b9bd5;stroke-opacity:.22}.st7{fill:#5b9bd5;font-family:Calibri;font-size:1.00001em;font-weight:700;opacity:.219608}.st8,.st9{stroke:#000}.st8{marker-end:url(#mrkr4-37);stroke-linecap:round;stroke-linejoin:round;stroke-width:1}.st9{fill:#000;fill-opacity:1;stroke-opacity:1;stroke-width:.28409090909091}.st10{fill:none;stroke:none;stroke-width:.25}.st11,.st12{stroke-dasharray:1,2}.st11{fill:#5b9bd5;fill-opacity:.25;filter:url(#filter_2);stroke:#5b9bd5;stroke-opacity:.25}.st12{fill:#fff;stroke:#000;stroke-width:1}.st13{fill:none;fill-rule:evenodd;font-size:12px;overflow:visible;stroke-linecap:square;stroke-miterlimit:3}</style><defs id="Markers"><g id="lend4"><path d="M 2 1 L 0 0 L 2 -1 L 2 1" style="stroke:none"/></g><marker id="mrkr4-37" class="st9" markerUnits="strokeWidth" orient="auto" overflow="visible" refX="-7.04"><use transform="scale(-3.52,-3.52)" xlink:href="#lend4"/></marker></defs><defs id="Filters"><filter id="filter_2"><feGaussianBlur stdDeviation="2"/></filter></defs><g><title>页-1</title><g id="group62-1" transform="translate(27.3932,-18.75)"><title>工作表.62</title><g id="group55-2"><title>工作表.55</title><g id="shape34-3" transform="translate(-120.28,53.8701) rotate(-90) scale(-1,1)"><title>侧边大括号</title><desc>seeding</desc><path d="M0 276.19 A7.0865 7.0865 -180 0 0 7.09 283.27 L58.46 283.27 A7.0865 7.0865 0 0 1 65.55 290.36 A7.0865 7.0865 0 0 1 72.64 283.27 L124.02 283.27 A7.0865 7.0865 -180 0 0 131.1 276.19" class="st1"/><text x="301.17" y="69.15" class="st2" transform="rotate(-90) scale(-1,1)">seeding</text></g><g id="shape1-7" transform="translate(36.3963,-208.189)"><title>圆角矩形</title><desc>start #proxies = 1</desc><path d="M18.79 283.27 L82.49 283.27 A18.7913 18.7913 -180 0 0 101.28 264.48 A18.7913 18.7913 -180 0 0 82.49 245.69 L18.79 245.69 A18.7913 18.7913 -180 0 0 0 264.48 A18.7913 18.7913 -180 0 0 18.79 283.27 Z" class="st3"/><text x="38.99" y="260.88" class="st2">start<tspan x="20.69" class="st4" dy="1.2em">#</tspan>proxies = 1</text></g><g id="shape2-11" transform="translate(55.3857,0)"><title>圆角矩形.2</title><desc>end</desc><path d="M9.34 283.27 L53.96 283.27 A9.33629 9.33629 -180 0 0 63.3 273.94 A9.33629 9.33629 -180 0 0 53.96 264.6 L9.34 264.6 A9.33629 9.33629 -180 0 0 0 273.94 A9.33629 9.33629 -180 0 0 9.34 283.27 Z" class="st3"/><text x="22.19" y="277.54" class="st2">end</text></g><g id="shape4-14" transform="translate(23.7367,-149.55)"><title>矩形</title><desc>add proxy seeds #proxies += k</desc><g id="shadow4-15" class="st5" transform="matrix(1,0,0,1,0.345598,1.97279)"><rect width="126.596" height="37.583" x="0" y="245.689" class="st6"/><text x="22.96" y="260.88" class="st7">add proxy seeds<tspan x="30.52" class="st4" dy="1.2em">#</tspan>proxies += k</text></g><rect width="126.596" height="37.583" x="0" y="245.689" class="st3"/><text x="22.96" y="260.88" class="st2">add proxy seeds<tspan x="30.52" class="st4" dy="1.2em">#</tspan>proxies += k</text></g><g id="shape6-24" transform="translate(42.7261,-84.8192)"><title>菱形</title><desc>stop criteria</desc><g id="shadow6-25" class="st5"><path d="M44.31 283.27 L88.62 268.54 L44.31 253.81 L0 268.54 L44.31 283.27 Z" class="st6" transform="matrix(1,0,0,1,0.345598,1.97279)"/><text x="14.25" y="272.14" class="st7" transform="matrix(1,0,0,1,0.345598,1.97279)">stop criteria</text></g><path d="M44.31 283.27 L88.62 268.54 L44.31 253.81 L0 268.54 L44.31 283.27 Z" class="st3"/><text x="14.25" y="272.14" class="st2">stop criteria</text></g><g id="shape11-32" transform="translate(79.948,-208.189)"><title>动态连接线</title><path d="M7.09 283.27 L7.09 297.29" class="st8"/></g><g id="shape13-38" transform="translate(79.948,-149.55)"><title>动态连接线.13</title><path d="M7.09 283.27 L7.09 311.5" class="st8"/></g><g id="shape15-43" transform="translate(79.948,-84.8192)"><title>动态连接线.15</title><path d="M7.09 283.27 L7.09 299.97" class="st8"/></g><g id="shape17-48" transform="translate(42.7261,-99.5492)"><title>动态连接线.17</title><path d="M0 283.27 L-29.62 283.27 L-29.62 214.48 L-26.03 214.48" class="st8"/></g><g id="shape19-53" transform="translate(68.0453,-65.5139)"><title>工作表.19</title><desc>yes</desc><rect width="63.298" height="22.33" x="0" y="260.942" class="st10"/><text x="23.39" y="275.71" class="st2">yes</text></g><g id="shape20-56" transform="translate(0,-83.0967)"><title>工作表.20</title><desc>no</desc><rect width="56.177" height="22.33" x="0" y="260.942" class="st10"/><text x="21.64" y="275.71" class="st2">no</text></g><g id="shape22-59" transform="translate(72.0122,-124.064)"><title>工作表.22</title><desc>relaxation</desc><rect width="90.98" height="22.33" x="0" y="260.942" class="st10"/><text x="20.18" y="275.71" class="st2">relaxation</text></g><g id="shape27-62" transform="translate(30.0665,-42.4096)"><title>矩形.27</title><desc>clustering iteration</desc><g id="shadow27-63" class="st5" transform="matrix(1,0,0,1,0.345598,1.97279)"><rect width="113.936" height="18.673" x="0" y="264.599" class="st6"/><text x="9.57" y="277.54" class="st7">clustering iteration</text></g><rect width="113.936" height="18.673" x="0" y="264.599" class="st3"/><text x="9.57" y="277.54" class="st2">clustering iteration</text></g><g id="shape28-70" transform="translate(79.948,-42.4096)"><title>动态连接线.28</title><path d="M7.09 283.27 L7.09 299.97" class="st8"/></g><g id="shape36-75" transform="translate(-120.28,198.791) rotate(-90) scale(-1,1)"><title>侧边大括号.36</title><desc>clustering</desc><path d="M0 276.19 A7.0865 7.0865 -180 0 0 7.09 283.27 L19.84 283.27 A7.0865 7.0865 0 0 1 26.93 290.36 A7.0865 7.0865 0 0 1 34.02 283.27 L51.02 283.27 A7.0865 7.0865 -180 0 0 58.11 276.19" class="st1"/><text x="295.99" y="30.53" class="st2" transform="rotate(-90) scale(-1,1)">clustering</text></g></g><g id="group60-79" transform="translate(222.41,-18.1004)"><title>工作表.60</title><g id="shape41-80" transform="translate(26.5748,461.663) rotate(180)"><title>普通箭头</title><g id="shadow41-81" class="st5"><path d="M0 283.27 L12.4 256.7 L12.4 269.98 L26.57 269.98 L26.57 283.27 L26.57 296.56 L12.4 296.56 L12.4 309.85 L0 283.27 Z" class="st11" transform="matrix(1,0,0,1,-0.345598,-1.97279)"/></g><path d="M0 283.27 L12.4 256.7 L12.4 269.98 L26.57 269.98 L26.57 283.27 L26.57 296.56 L12.4 296.56 L12.4 309.85 L0 283.27 Z" class="st12"/></g><g id="shape43-85" transform="translate(33.6614,-58.5827)"><title>矩形.43</title><desc>add</desc><g id="shadow43-86" class="st5" transform="matrix(1,0,0,1,0.345598,1.97279)"><rect width="70.866" height="34.016" x="0" y="249.257" class="st6"/><text x="26.03" y="269.86" class="st7">add</text></g><rect width="70.866" height="34.016" x="0" y="249.257" class="st3"/><text x="26.03" y="269.86" class="st2">add</text></g><g id="shape44-93" transform="translate(33.6614,-175.748)"><title>矩形.44</title><desc>merge</desc><g id="shadow44-94" class="st5" transform="matrix(1,0,0,1,0.345598,1.97279)"><rect width="70.866" height="34.016" x="0" y="249.257" class="st6"/><text x="19.53" y="269.86" class="st7">merge</text></g><rect width="70.866" height="34.016" x="0" y="249.257" class="st3"/><text x="19.53" y="269.86" class="st2">merge</text></g><g id="shape45-101" transform="translate(33.6614,-117.165)"><title>矩形.45</title><desc>split</desc><g id="shadow45-102" class="st5" transform="matrix(1,0,0,1,0.345598,1.97279)"><rect width="70.866" height="34.016" x="0" y="249.257" class="st6"/><text x="24.79" y="269.86" class="st7">split</text></g><rect width="70.866" height="34.016" x="0" y="249.257" class="st3"/><text x="24.79" y="269.86" class="st2">split</text></g><g id="shape47-109" transform="translate(33.6614,5.68434E-014)"><title>矩形.47</title><desc>teleport</desc><g id="shadow47-110" class="st5" transform="matrix(1,0,0,1,0.345598,1.97279)"><rect width="70.866" height="34.016" x="0" y="249.257" class="st6"/><text x="15.18" y="269.86" class="st7">teleport</text></g><rect width="70.866" height="34.016" x="0" y="249.257" class="st3"/><text x="15.18" y="269.86" class="st2">teleport</text></g></g><g id="group61-117" transform="translate(335.796,-18.1004)"><title>工作表.61</title><g id="shape50-118" transform="translate(33.6614,-175.748)"><title>矩形.50</title><desc>find basic anchors</desc><g id="shadow50-119" class="st5" transform="matrix(1,0,0,1,0.345598,1.97279)"><rect width="113.386" height="34.016" x="0" y="249.257" class="st6"/><text x="11.94" y="269.86" class="st7">find basic anchors</text></g><rect width="113.386" height="34.016" x="0" y="249.257" class="st3"/><text x="11.94" y="269.86" class="st2">find basic anchors</text></g><g id="shape51-126" transform="translate(33.6614,-117.165)"><title>矩形.51</title><desc>subdivision anchors</desc><g id="shadow51-127" class="st5" transform="matrix(1,0,0,1,0.345598,1.97279)"><rect width="113.386" height="34.016" x="0" y="249.257" class="st6"/><text x="7.52" y="269.86" class="st7">subdivision anchors</text></g><rect width="113.386" height="34.016" x="0" y="249.257" class="st3"/><text x="7.52" y="269.86" class="st2">subdivision anchors</text></g><g id="shape52-134" transform="translate(33.6614,-58.5827)"><title>矩形.52</title><desc>additional anchors</desc><g id="shadow52-135" class="st5" transform="matrix(1,0,0,1,0.345598,1.97279)"><rect width="113.386" height="34.016" x="0" y="249.257" class="st6"/><text x="10.36" y="269.86" class="st7">additional anchors</text></g><rect width="113.386" height="34.016" x="0" y="249.257" class="st3"/><text x="10.36" y="269.86" class="st2">additional anchors</text></g><g id="shape53-142" transform="translate(33.6614,5.68434E-014)"><title>矩形.53</title><desc>discrete triangulation</desc><g id="shadow53-143" class="st5" transform="matrix(1,0,0,1,0.345598,1.97279)"><rect width="113.386" height="34.016" x="0" y="249.257" class="st6"/><text x="36.84" y="262.66" class="st7">discrete <tspan x="24.33" class="st4" dy="1.2em">triangulation</tspan></text></g><rect width="113.386" height="34.016" x="0" y="249.257" class="st3"/><text x="36.84" y="262.66" class="st2">discrete <tspan x="24.33" class="st4" dy="1.2em">triangulation</tspan></text></g><g id="shape56-152" transform="translate(83.2677,-175.748)"><title>动态连接线</title><path d="M7.09 283.27 L7.09 300.8" class="st8"/></g><g id="shape57-157" transform="translate(83.2677,-117.165)"><title>动态连接线.57</title><path d="M7.09 283.27 L7.09 300.8" class="st8"/></g><g id="shape58-162" transform="translate(83.2677,-58.5827)"><title>动态连接线.58</title><path d="M7.09 283.27 L7.09 300.8" class="st8"/></g><g id="shape59-167" transform="translate(26.5748,461.663) rotate(180)"><title>普通箭头.59</title><g id="shadow59-168" class="st5"><path d="M0 283.27 L12.4 256.7 L12.4 269.98 L26.57 269.98 L26.57 283.27 L26.57 296.56 L12.4 296.56 L12.4 309.85 L0 283.27 Z" class="st11" transform="matrix(1,0,0,1,-0.345598,-1.97279)"/></g><path d="M0 283.27 L12.4 256.7 L12.4 269.98 L26.57 269.98 L26.57 283.27 L26.57 296.56 L12.4 296.56 L12.4 309.85 L0 283.27 Z" class="st12"/></g></g></g></g></svg>