<svg xmlns="http://www.w3.org/2000/svg" xmlns:svg="http://www.w3.org/2000/svg" id="svg542" width="804" height="812.532" version="1.1" viewBox="-845 -221 419.305 422.506"><metadata id="metadata548"/><g id="Categories" transform="matrix(0.47041914,0,0,0.47041914,-446.82205,-147.83507)"><g id="g8"><rect id="rect2" width="884.908" height="174.061" x="-843.215" y="-153.634" rx="0" ry="0" style="fill:#fff;fill-opacity:1;stroke:#000;stroke-width:2;stroke-opacity:1"/></g><g id="g16"><rect id="rect10" width="884.908" height="245.128" x="-843.215" y="41.229" rx="0" ry="0" style="fill:#fff;fill-opacity:1;stroke:#000;stroke-width:2;stroke-opacity:1"/></g><g id="g24"><rect id="rect18" width="884.908" height="139.673" x="-843.215" y="307.619" rx="0" ry="0" style="fill:#fff;fill-opacity:1;stroke:#000;stroke-width:2;stroke-opacity:1"/></g><g id="g32"><rect id="rect26" width="884.908" height="87.404" x="-843.215" y="466.719" rx="0" ry="0" style="fill:#fff;fill-opacity:1;stroke:#000;stroke-width:2;stroke-opacity:1"/></g><g id="g40"><rect id="rect34" width="884.908" height="163.515" x="-843.215" y="577.218" rx="0" ry="0" style="fill:#fff;fill-opacity:1;stroke:#000;stroke-width:2;stroke-opacity:1"/></g><text id="text52" x="-833.494" y="-136.837" font-size="12.8" style="font-style:normal;font-weight:400;font-size:12.80000019px;font-family:sans-serif;text-anchor:start;fill:#000;fill-opacity:1;stroke:none"><tspan id="tspan50" x="-833.494" y="-136.837">Input</tspan></text><text id="text56" x="-833.494" y="57.259" font-size="12.8" style="font-style:normal;font-weight:400;font-size:12.80000019px;font-family:sans-serif;text-anchor:start;fill:#000;fill-opacity:1;stroke:none"><tspan id="tspan54" x="-833.494" y="57.259">Preprocessing</tspan></text><text id="text60" x="-833.494" y="325.976" font-size="12.8" style="font-style:normal;font-weight:400;font-size:12.80000019px;font-family:sans-serif;text-anchor:start;fill:#000;fill-opacity:1;stroke:none"><tspan id="tspan58" x="-833.494" y="325.976">Reconstruction</tspan></text><text id="text64" x="-833.494" y="485.768" font-size="12.8" style="font-style:normal;font-weight:400;font-size:12.80000019px;font-family:sans-serif;text-anchor:start;fill:#000;fill-opacity:1;stroke:none"><tspan id="tspan62" x="-833.494" y="485.768">Postprocessing</tspan></text><text id="text68" x="-833.494" y="593.672" font-size="12.8" style="font-style:normal;font-weight:400;font-size:12.80000019px;font-family:sans-serif;text-anchor:start;fill:#000;fill-opacity:1;stroke:none"><tspan id="tspan66" x="-833.494" y="593.672">Output</tspan></text></g><g id="Boxes" transform="matrix(0.47041914,0,0,0.47041914,-446.82205,-147.83507)"><g id="g111"><line id="line107" x1="-700.257" x2="-700.257" y1="-80.096" y2="-56.388" style="fill:none;stroke:#000;stroke-width:2;stroke-opacity:1"/><polygon id="polygon109" points="-700.257 -48.888 -705.257 -58.888 -700.257 -56.388 -695.257 -58.888" style="fill:#000;fill-opacity:1;fill-rule:evenodd;stroke:#000;stroke-width:2;stroke-opacity:1"/></g><g id="g117"><line id="line113" x1="-498.39" x2="-498.39" y1="-80.096" y2="-56.388" style="fill:none;stroke:#000;stroke-width:2;stroke-opacity:1"/><polygon id="polygon115" points="-498.39 -48.888 -503.39 -58.888 -498.39 -56.388 -493.39 -58.888" style="fill:#000;fill-opacity:1;fill-rule:evenodd;stroke:#000;stroke-width:2;stroke-opacity:1"/></g><g id="g123"><line id="line119" x1="-691.048" x2="-629.171" y1="-6.66" y2="127.662" style="fill:none;stroke:#000;stroke-width:2;stroke-opacity:1"/><polygon id="polygon121" points="-626.033 134.474 -634.759 127.483 -629.171 127.662 -625.676 123.299" style="fill:#000;fill-opacity:1;fill-rule:evenodd;stroke:#000;stroke-width:2;stroke-opacity:1"/></g><g id="g129"><line id="line125" x1="-511.088" x2="-597.115" y1="-6.66" y2="128.781" style="fill:none;stroke:#000;stroke-width:2;stroke-opacity:1"/><polygon id="polygon127" points="-601.136 135.112 -599.995 123.99 -597.115 128.781 -591.554 129.351" style="fill:#000;fill-opacity:1;fill-rule:evenodd;stroke:#000;stroke-width:2;stroke-opacity:1"/></g><g id="g135"><line id="line131" x1="-573.03" x2="-519.588" y1="157.564" y2="157.564" style="fill:none;stroke:#000;stroke-width:2;stroke-opacity:1"/><polygon id="polygon133" points="-512.088 157.564 -522.088 162.564 -519.588 157.564 -522.088 152.564" style="fill:#000;fill-opacity:1;fill-rule:evenodd;stroke:#000;stroke-width:2;stroke-opacity:1"/></g><g id="g141"><line id="line137" x1="-367.574" x2="-327.975" y1="157.564" y2="157.564" style="fill:none;stroke:#000;stroke-width:2;stroke-opacity:1"/><polygon id="polygon139" points="-320.475 157.564 -330.475 162.564 -327.975 157.564 -330.475 152.564" style="fill:#000;fill-opacity:1;fill-rule:evenodd;stroke:#000;stroke-width:2;stroke-opacity:1"/></g><g id="g147"><line id="line143" x1="-621.179" x2="-666.946" y1="179.02" y2="348.833" style="fill:none;stroke:#000;stroke-width:2;stroke-opacity:1"/><polygon id="polygon145" points="-668.898 356.075 -671.123 345.118 -666.946 348.833 -661.468 347.721" style="fill:#000;fill-opacity:1;fill-rule:evenodd;stroke:#000;stroke-width:2;stroke-opacity:1"/></g><g id="g153"><line id="line149" x1="-594.566" x2="-399.757" y1="176.319" y2="351.72" style="fill:none;stroke:#000;stroke-width:2;stroke-opacity:1"/><polygon id="polygon151" points="-394.183 356.738 -404.96 353.763 -399.757 351.72 -398.269 346.331" style="fill:#000;fill-opacity:1;fill-rule:evenodd;stroke:#000;stroke-width:2;stroke-opacity:1"/></g><g id="g159"><line id="line155" x1="-632.675" x2="-436.966" y1="398.225" y2="490.943" style="fill:none;stroke:#000;stroke-width:2;stroke-opacity:1"/><polygon id="polygon157" points="-430.188 494.155 -441.366 494.392 -436.966 490.943 -437.084 485.355" style="fill:#000;fill-opacity:1;fill-rule:evenodd;stroke:#000;stroke-width:2;stroke-opacity:1"/></g><g id="g165"><line id="line161" x1="-374.696" x2="-392.053" y1="398.225" y2="477.267" style="fill:none;stroke:#000;stroke-width:2;stroke-opacity:1"/><polygon id="polygon163" points="-393.661 484.592 -396.4 473.752 -392.053 477.267 -386.633 475.897" style="fill:#000;fill-opacity:1;fill-rule:evenodd;stroke:#000;stroke-width:2;stroke-opacity:1"/></g><g id="g171"><line id="line167" x1="-215.457" x2="-114.537" y1="185.646" y2="349.938" style="fill:none;stroke:#000;stroke-width:2;stroke-opacity:1"/><polygon id="polygon169" points="-110.611 356.329 -120.106 350.425 -114.537 349.938 -111.585 345.191" style="fill:#000;fill-opacity:1;fill-rule:evenodd;stroke:#000;stroke-width:2;stroke-opacity:1"/></g><g id="g177"><line id="line173" x1="-424.342" x2="-549.308" y1="525.258" y2="605.801" style="fill:none;stroke:#000;stroke-width:2;stroke-opacity:1"/><polygon id="polygon175" points="-555.613 609.864 -549.916 600.244 -549.308 605.801 -544.498 608.65" style="fill:#000;fill-opacity:1;fill-rule:evenodd;stroke:#000;stroke-width:2;stroke-opacity:1"/></g><g id="g183"><line id="line179" x1="-589.372" x2="-590.46" y1="651.073" y2="676.446" style="fill:none;stroke:#000;stroke-width:2;stroke-opacity:1"/><polygon id="polygon181" points="-590.781 683.94 -595.348 673.735 -590.46 676.446 -585.357 674.163" style="fill:#000;fill-opacity:1;fill-rule:evenodd;stroke:#000;stroke-width:2;stroke-opacity:1"/></g><g id="g191"><line id="line185" x1="-694.468" x2="-662.429" y1="136.9" y2="145.272" style="fill:none;stroke:#000;stroke-width:2;stroke-opacity:1"/><polygon id="polygon187" points="-701.725 135.003 -690.786 132.694 -694.468 136.9 -693.314 142.369" style="fill:#000;fill-opacity:1;fill-rule:evenodd;stroke:#000;stroke-width:2;stroke-opacity:1"/><polygon id="polygon189" points="-655.173 147.169 -666.112 149.478 -662.429 145.272 -663.584 139.803" style="fill:#000;fill-opacity:1;fill-rule:evenodd;stroke:#000;stroke-width:2;stroke-opacity:1"/></g><g id="g199"><line id="line193" x1="-697.574" x2="-664.87" y1="172.426" y2="166.511" style="fill:none;stroke:#000;stroke-width:2;stroke-opacity:1"/><polygon id="polygon195" points="-704.954 173.761 -696.004 167.061 -697.574 172.426 -694.224 176.901" style="fill:#000;fill-opacity:1;fill-rule:evenodd;stroke:#000;stroke-width:2;stroke-opacity:1"/><polygon id="polygon197" points="-657.49 165.177 -666.44 171.876 -664.87 166.511 -668.22 162.036" style="fill:#000;fill-opacity:1;fill-rule:evenodd;stroke:#000;stroke-width:2;stroke-opacity:1"/></g><g id="g207"><line id="line201" x1="-696.909" x2="-646.598" y1="219.775" y2="181.377" style="fill:none;stroke:#000;stroke-width:2;stroke-opacity:1"/><polygon id="polygon203" points="-702.871 224.325 -697.956 214.283 -696.909 219.775 -691.889 222.233" style="fill:#000;fill-opacity:1;fill-rule:evenodd;stroke:#000;stroke-width:2;stroke-opacity:1"/><polygon id="polygon205" points="-640.636 176.826 -645.552 186.868 -646.598 181.377 -651.618 178.919" style="fill:#000;fill-opacity:1;fill-rule:evenodd;stroke:#000;stroke-width:2;stroke-opacity:1"/></g><g id="g215"><line id="line209" x1="-150.854" x2="-115.389" y1="140.523" y2="133.14" style="fill:none;stroke:#000;stroke-width:2;stroke-opacity:1"/><polygon id="polygon211" points="-158.197 142.052 -149.426 135.119 -150.854 140.523 -147.388 144.909" style="fill:#000;fill-opacity:1;fill-rule:evenodd;stroke:#000;stroke-width:2;stroke-opacity:1"/><polygon id="polygon213" points="-108.046 131.611 -116.817 138.545 -115.389 133.14 -118.855 128.755" style="fill:#000;fill-opacity:1;fill-rule:evenodd;stroke:#000;stroke-width:2;stroke-opacity:1"/></g><g id="g223"><line id="line217" x1="-144.037" x2="-103.308" y1="169.69" y2="175.259" style="fill:none;stroke:#000;stroke-width:2;stroke-opacity:1"/><polygon id="polygon219" points="-151.468 168.674 -140.883 165.075 -144.037 169.69 -142.238 174.982" style="fill:#000;fill-opacity:1;fill-rule:evenodd;stroke:#000;stroke-width:2;stroke-opacity:1"/><polygon id="polygon221" points="-95.877 176.276 -106.462 179.875 -103.308 175.259 -105.108 169.967" style="fill:#000;fill-opacity:1;fill-rule:evenodd;stroke:#000;stroke-width:2;stroke-opacity:1"/></g><g id="g231"><line id="line225" x1="-182.191" x2="-125.154" y1="187.241" y2="220.75" style="fill:none;stroke:#000;stroke-width:2;stroke-opacity:1"/><polygon id="polygon227" points="-188.658 183.442 -177.503 184.196 -182.191 187.241 -182.569 192.819" style="fill:#000;fill-opacity:1;fill-rule:evenodd;stroke:#000;stroke-width:2;stroke-opacity:1"/><polygon id="polygon229" points="-118.687 224.549 -129.842 223.795 -125.154 220.75 -124.776 215.173" style="fill:#000;fill-opacity:1;fill-rule:evenodd;stroke:#000;stroke-width:2;stroke-opacity:1"/></g><g id="g239"><line id="line233" x1="-594.13" x2="-446.121" y1="508.928" y2="508.928" style="fill:none;stroke:#000;stroke-width:2;stroke-opacity:1"/><polygon id="polygon235" points="-601.63 508.928 -591.63 503.928 -594.13 508.928 -591.63 513.928" style="fill:#000;fill-opacity:1;fill-rule:evenodd;stroke:#000;stroke-width:2;stroke-opacity:1"/><polygon id="polygon237" points="-438.621 508.928 -448.621 513.928 -446.121 508.928 -448.621 503.928" style="fill:#000;fill-opacity:1;fill-rule:evenodd;stroke:#000;stroke-width:2;stroke-opacity:1"/></g><g id="g247"><line id="line241" x1="-204.71" x2="-351.885" y1="507.457" y2="508.571" style="fill:none;stroke:#000;stroke-width:2;stroke-opacity:1"/><polygon id="polygon243" points="-197.21 507.4 -207.172 512.476 -204.71 507.457 -207.248 502.476" style="fill:#000;fill-opacity:1;fill-rule:evenodd;stroke:#000;stroke-width:2;stroke-opacity:1"/><polygon id="polygon245" points="-359.384 508.628 -349.423 503.552 -351.885 508.571 -349.347 513.552" style="fill:#000;fill-opacity:1;fill-rule:evenodd;stroke:#000;stroke-width:2;stroke-opacity:1"/></g><g id="g253"><line id="line249" x1="-297.822" x2="-297.823" y1="-80.096" y2="-56.388" style="fill:none;stroke:#000;stroke-width:2;stroke-opacity:1"/><polygon id="polygon251" points="-297.823 -48.888 -302.822 -58.888 -297.823 -56.388 -292.822 -58.888" style="fill:#000;fill-opacity:1;fill-rule:evenodd;stroke:#000;stroke-width:2;stroke-opacity:1"/></g><g id="g259"><line id="line255" x1="-96.668" x2="-96.668" y1="-80.096" y2="-56.388" style="fill:none;stroke:#000;stroke-width:2;stroke-opacity:1"/><polygon id="polygon257" points="-96.668 -48.888 -101.668 -58.888 -96.668 -56.388 -91.668 -58.888" style="fill:#000;fill-opacity:1;fill-rule:evenodd;stroke:#000;stroke-width:2;stroke-opacity:1"/></g><g id="g265"><line id="line261" x1="-204.667" x2="-205.754" y1="653.237" y2="678.609" style="fill:none;stroke:#000;stroke-width:2;stroke-opacity:1"/><polygon id="polygon263" points="-206.076 686.102 -210.643 675.897 -205.754 678.609 -200.652 676.325" style="fill:#000;fill-opacity:1;fill-rule:evenodd;stroke:#000;stroke-width:2;stroke-opacity:1"/></g><g id="g271"><line id="line267" x1="-143.324" x2="-359.929" y1="398.225" y2="492.009" style="fill:none;stroke:#000;stroke-width:2;stroke-opacity:1"/><polygon id="polygon269" points="-366.812 494.989 -359.622 486.428 -359.929 492.009 -355.649 495.604" style="fill:#000;fill-opacity:1;fill-rule:evenodd;stroke:#000;stroke-width:2;stroke-opacity:1"/></g><g id="g279"><line id="line273" x1="-282.662" x2="-261.637" y1="218.169" y2="192.662" style="fill:none;stroke:#000;stroke-width:2;stroke-opacity:1"/><polygon id="polygon275" points="-287.433 223.956 -284.93 213.059 -282.662 218.169 -277.214 219.42" style="fill:#000;fill-opacity:1;fill-rule:evenodd;stroke:#000;stroke-width:2;stroke-opacity:1"/><polygon id="polygon277" points="-256.867 186.874 -259.369 197.771 -261.637 192.662 -267.086 191.41" style="fill:#000;fill-opacity:1;fill-rule:evenodd;stroke:#000;stroke-width:2;stroke-opacity:1"/></g><g id="g285"><line id="line281" x1="-373.503" x2="-243.438" y1="525.168" y2="607.997" style="fill:none;stroke:#000;stroke-width:2;stroke-opacity:1"/><polygon id="polygon283" points="-237.112 612.026 -248.232 610.872 -243.438 607.997 -242.861 602.437" style="fill:#000;fill-opacity:1;fill-rule:evenodd;stroke:#000;stroke-width:2;stroke-opacity:1"/></g><g id="g293"><rect id="rect287" width="166.35" height="38" x="-180.33" y="359.235" rx="0" ry="0" style="fill:#f89797;fill-opacity:1;stroke:#000;stroke-width:2;stroke-opacity:1"/><text id="text291" x="-97.155" y="382.135" font-size="12.8" style="font-style:normal;font-weight:400;font-size:12.80000019px;font-family:sans-serif;text-anchor:middle;fill:#000;fill-opacity:1;stroke:none"><tspan id="tspan289" x="-97.155" y="382.135">Poisson reconstruction</tspan></text></g><g id="g301"><rect id="rect295" width="220" height="38" x="-784.87" y="359.235" rx="0" ry="0" style="fill:#f89797;fill-opacity:1;stroke:#000;stroke-width:2;stroke-opacity:1"/><text id="text299" x="-674.87" y="382.135" font-size="12.8" style="font-style:normal;font-weight:400;font-size:12.80000019px;font-family:sans-serif;text-anchor:middle;fill:#000;fill-opacity:1;stroke:none"><tspan id="tspan297" x="-674.87" y="382.135">Advancing front reconstruction</tspan></text></g><g id="g309"><rect id="rect303" width="195.15" height="38" x="-467.882" y="359.235" rx="0" ry="0" style="fill:#f89797;fill-opacity:1;stroke:#000;stroke-width:2;stroke-opacity:1"/><text id="text307" x="-370.307" y="382.135" font-size="12.8" style="font-style:normal;font-weight:400;font-size:12.80000019px;font-family:sans-serif;text-anchor:middle;fill:#000;fill-opacity:1;stroke:none"><tspan id="tspan305" x="-370.307" y="382.135">Scale space reconstruction</tspan></text></g><g id="g317"><rect id="rect311" width="140.3" height="38" x="-508.876" y="138.564" rx="0" ry="0" style="fill:#febcf8;fill-opacity:1;stroke:#000;stroke-width:2;stroke-opacity:1"/><text id="text315" x="-438.726" y="161.464" font-size="12.8" style="font-style:normal;font-weight:400;font-size:12.80000019px;font-family:sans-serif;text-anchor:middle;fill:#000;fill-opacity:1;stroke:none"><tspan id="tspan313" x="-438.726" y="161.464">Normal estimation</tspan></text></g><g id="g325"><rect id="rect319" width="108.85" height="38" x="-816.864" y="165.157" rx="0" ry="0" style="fill:#febcf8;fill-opacity:1;stroke:#000;stroke-width:2;stroke-opacity:1"/><text id="text323" x="-762.439" y="188.057" font-size="12.8" style="font-style:normal;font-weight:400;font-size:12.80000019px;font-family:sans-serif;text-anchor:middle;fill:#000;fill-opacity:1;stroke:none"><tspan id="tspan321" x="-762.439" y="188.057">Simplification</tspan></text></g><g id="g333"><rect id="rect327" width="91.2" height="38" x="-776.43" y="226.663" rx="0" ry="0" style="fill:#febcf8;fill-opacity:1;stroke:#000;stroke-width:2;stroke-opacity:1"/><text id="text331" x="-730.83" y="249.563" font-size="12.8" style="font-style:normal;font-weight:400;font-size:12.80000019px;font-family:sans-serif;text-anchor:middle;fill:#000;fill-opacity:1;stroke:none"><tspan id="tspan329" x="-730.83" y="249.563">Smoothing</tspan></text></g><g id="g341"><ellipse id="ellipse335" cx="-615.397" cy="157.564" rx="41.373" ry="20.687" style="fill:#90ee90;fill-opacity:1;stroke:#000;stroke-width:2;stroke-opacity:1"/><text id="text339" x="-615.397" y="161.464" font-size="12.8" style="font-style:normal;font-weight:400;font-size:12.80000019px;font-family:sans-serif;text-anchor:middle;fill:#000;fill-opacity:1;stroke:none"><tspan id="tspan337" x="-615.397" y="161.464">Points</tspan></text></g><g id="g349"><ellipse id="ellipse343" cx="-232.708" cy="157.564" rx="84.544" ry="27.781" style="fill:#90ee90;fill-opacity:1;stroke:#000;stroke-width:2;stroke-opacity:1"/><text id="text347" x="-232.708" y="161.464" font-size="12.8" style="font-style:normal;font-weight:400;font-size:12.80000019px;font-family:sans-serif;text-anchor:middle;fill:#000;fill-opacity:1;stroke:none"><tspan id="tspan345" x="-232.708" y="161.464">Points with normals</tspan></text></g><g id="g357"><rect id="rect351" width="121.65" height="38" x="-826.527" y="99.284" rx="0" ry="0" style="fill:#febcf8;fill-opacity:1;stroke:#000;stroke-width:2;stroke-opacity:1"/><text id="text355" x="-765.702" y="122.184" font-size="12.8" style="font-style:normal;font-weight:400;font-size:12.80000019px;font-family:sans-serif;text-anchor:middle;fill:#000;fill-opacity:1;stroke:none"><tspan id="tspan353" x="-765.702" y="122.184">Outlier removal</tspan></text></g><g id="g365"><rect id="rect359" width="108.85" height="38" x="-92.67" y="165.157" rx="0" ry="0" style="fill:#febcf8;fill-opacity:1;stroke:#000;stroke-width:2;stroke-opacity:1"/><text id="text363" x="-38.245" y="188.057" font-size="12.8" style="font-style:normal;font-weight:400;font-size:12.80000019px;font-family:sans-serif;text-anchor:middle;fill:#000;fill-opacity:1;stroke:none"><tspan id="tspan361" x="-38.245" y="188.057">Simplification</tspan></text></g><g id="g373"><rect id="rect367" width="91.2" height="38" x="-128.347" y="226.663" rx="0" ry="0" style="fill:#febcf8;fill-opacity:1;stroke:#000;stroke-width:2;stroke-opacity:1"/><text id="text371" x="-82.747" y="249.563" font-size="12.8" style="font-style:normal;font-weight:400;font-size:12.80000019px;font-family:sans-serif;text-anchor:middle;fill:#000;fill-opacity:1;stroke:none"><tspan id="tspan369" x="-82.747" y="249.563">Smoothing</tspan></text></g><g id="g381"><rect id="rect375" width="121.65" height="38" x="-104.852" y="99.284" rx="0" ry="0" style="fill:#febcf8;fill-opacity:1;stroke:#000;stroke-width:2;stroke-opacity:1"/><text id="text379" x="-44.027" y="122.184" font-size="12.8" style="font-style:normal;font-weight:400;font-size:12.80000019px;font-family:sans-serif;text-anchor:middle;fill:#000;fill-opacity:1;stroke:none"><tspan id="tspan377" x="-44.027" y="122.184">Outlier removal</tspan></text></g><g id="g389"><rect id="rect383" width="142.4" height="38" x="-376.525" y="226.663" rx="0" ry="0" style="fill:#febcf8;fill-opacity:1;stroke:#000;stroke-width:2;stroke-opacity:1"/><text id="text387" x="-305.325" y="249.563" font-size="12.8" style="font-style:normal;font-weight:400;font-size:12.80000019px;font-family:sans-serif;text-anchor:middle;fill:#000;fill-opacity:1;stroke:none"><tspan id="tspan385" x="-305.325" y="249.563">Normal orientation</tspan></text></g><g id="g397"><polygon id="polygon391" points="-731.339 -121.061 -654.616 -121.061 -669.174 -81.061 -745.898 -81.061" style="fill:orange;fill-opacity:1;fill-rule:evenodd;stroke:#000;stroke-width:2;stroke-opacity:1"/><text id="text395" x="-700.257" y="-97.161" font-size="12.8" style="font-style:normal;font-weight:400;font-size:12.80000019px;font-family:sans-serif;text-anchor:middle;fill:#000;fill-opacity:1;stroke:none"><tspan id="tspan393" x="-700.257" y="-97.161">XYZ file</tspan></text></g><g id="g405"><polygon id="polygon399" points="-529.197 -121.061 -453.024 -121.061 -467.582 -81.061 -543.756 -81.061" style="fill:orange;fill-opacity:1;fill-rule:evenodd;stroke:#000;stroke-width:2;stroke-opacity:1"/><text id="text403" x="-498.39" y="-97.161" font-size="12.8" style="font-style:normal;font-weight:400;font-size:12.80000019px;font-family:sans-serif;text-anchor:middle;fill:#000;fill-opacity:1;stroke:none"><tspan id="tspan401" x="-498.39" y="-97.161">OFF file</tspan></text></g><g id="g413"><rect id="rect407" width="124.85" height="38" x="-762.682" y="-45.651" rx="0" ry="0" style="fill:#a0eaff;fill-opacity:1;stroke:#000;stroke-width:2;stroke-opacity:1"/><text id="text411" x="-700.257" y="-22.751" font-size="12.8" style="font-style:normal;font-weight:400;font-size:12.80000019px;font-family:sans-serif;text-anchor:middle;fill:#000;fill-opacity:1;stroke:none"><tspan id="tspan409" x="-700.257" y="-22.751">read_xyz_points</tspan></text></g><g id="g421"><rect id="rect415" width="119.6" height="38" x="-558.19" y="-45.651" rx="0" ry="0" style="fill:#a0eaff;fill-opacity:1;stroke:#000;stroke-width:2;stroke-opacity:1"/><text id="text419" x="-498.39" y="-22.751" font-size="12.8" style="font-style:normal;font-weight:400;font-size:12.80000019px;font-family:sans-serif;text-anchor:middle;fill:#000;fill-opacity:1;stroke:none"><tspan id="tspan417" x="-498.39" y="-22.751">read_off_points</tspan></text></g><g id="g429"><polygon id="polygon423" points="-331.679 -121.061 -249.406 -121.061 -263.964 -81.061 -346.238 -81.061" style="fill:orange;fill-opacity:1;fill-rule:evenodd;stroke:#000;stroke-width:2;stroke-opacity:1"/><text id="text427" x="-297.822" y="-97.161" font-size="12.8" style="font-style:normal;font-weight:400;font-size:12.80000019px;font-family:sans-serif;text-anchor:middle;fill:#000;fill-opacity:1;stroke:none"><tspan id="tspan425" x="-297.822" y="-97.161">PLY file</tspan></text></g><g id="g437"><rect id="rect431" width="122.25" height="38" x="-358.948" y="-45.651" rx="0" ry="0" style="fill:#a0eaff;fill-opacity:1;stroke:#000;stroke-width:2;stroke-opacity:1"/><text id="text435" x="-297.823" y="-22.751" font-size="12.8" style="font-style:normal;font-weight:400;font-size:12.80000019px;font-family:sans-serif;text-anchor:middle;fill:#000;fill-opacity:1;stroke:none"><tspan id="tspan433" x="-297.823" y="-22.751">read_ply_points</tspan></text></g><g id="g445"><polygon id="polygon439" points="-141.876 -121.061 -36.902 -121.061 -51.461 -81.061 -156.435 -81.061" style="fill:orange;fill-opacity:1;fill-rule:evenodd;stroke:#000;stroke-width:2;stroke-opacity:1"/><text id="text443" x="-96.668" y="-97.161" font-size="12.8" style="font-style:normal;font-weight:400;font-size:12.80000019px;font-family:sans-serif;text-anchor:middle;fill:#000;fill-opacity:1;stroke:none"><tspan id="tspan441" x="-96.668" y="-97.161">LAS/LAZ file</tspan></text></g><g id="g453"><rect id="rect447" width="121" height="38" x="-157.168" y="-45.651" rx="0" ry="0" style="fill:#a0eaff;fill-opacity:1;stroke:#000;stroke-width:2;stroke-opacity:1"/><text id="text451" x="-96.668" y="-22.751" font-size="12.8" style="font-style:normal;font-weight:400;font-size:12.80000019px;font-family:sans-serif;text-anchor:middle;fill:#000;fill-opacity:1;stroke:none"><tspan id="tspan449" x="-96.668" y="-22.751">read_las_points</tspan></text></g><g id="g461"><ellipse id="ellipse455" cx="-399.005" cy="508.928" rx="36.395" ry="21.348" style="fill:#90ee90;fill-opacity:1;stroke:#000;stroke-width:2;stroke-opacity:1"/><text id="text459" x="-399.005" y="512.828" font-size="12.8" style="font-style:normal;font-weight:400;font-size:12.80000019px;font-family:sans-serif;text-anchor:middle;fill:#000;fill-opacity:1;stroke:none"><tspan id="tspan457" x="-399.005" y="512.828">Mesh</tspan></text></g><g id="g469"><rect id="rect463" width="106.187" height="38" x="-711.054" y="489.928" rx="0" ry="0" style="fill:#febcf8;fill-opacity:1;stroke:#000;stroke-width:2;stroke-opacity:1"/><text id="text467" x="-657.96" y="512.828" font-size="12.8" style="font-style:normal;font-weight:400;font-size:12.80000019px;font-family:sans-serif;text-anchor:middle;fill:#000;fill-opacity:1;stroke:none"><tspan id="tspan465" x="-657.96" y="512.828">Hole filling</tspan></text></g><g id="g477"><rect id="rect471" width="106.187" height="38" x="-193.984" y="487.974" rx="0" ry="0" style="fill:#febcf8;fill-opacity:1;stroke:#000;stroke-width:2;stroke-opacity:1"/><text id="text475" x="-140.89" y="510.874" font-size="12.8" style="font-style:normal;font-weight:400;font-size:12.80000019px;font-family:sans-serif;text-anchor:middle;fill:#000;fill-opacity:1;stroke:none"><tspan id="tspan473" x="-140.89" y="510.874">Remeshing</tspan></text></g><g id="g485"><polygon id="polygon479" points="-622.585 687.18 -546.412 687.18 -560.97 727.18 -637.144 727.18" style="fill:orange;fill-opacity:1;fill-rule:evenodd;stroke:#000;stroke-width:2;stroke-opacity:1"/><text id="text483" x="-591.778" y="711.08" font-size="12.8" style="font-style:normal;font-weight:400;font-size:12.80000019px;font-family:sans-serif;text-anchor:middle;fill:#000;fill-opacity:1;stroke:none"><tspan id="tspan481" x="-591.778" y="711.08">OFF file</tspan></text></g><g id="g493"><rect id="rect487" width="77.5" height="38" x="-627.264" y="612.07" rx="0" ry="0" style="fill:#a0eaff;fill-opacity:1;stroke:#000;stroke-width:2;stroke-opacity:1"/><text id="text491" x="-588.514" y="634.97" font-size="12.8" style="font-style:normal;font-weight:400;font-size:12.80000019px;font-family:sans-serif;text-anchor:middle;fill:#000;fill-opacity:1;stroke:none"><tspan id="tspan489" x="-588.514" y="634.97">write_off</tspan></text></g><g id="g501"><polygon id="polygon495" points="-237.879 689.342 -161.706 689.342 -176.264 729.342 -252.438 729.342" style="fill:orange;fill-opacity:1;fill-rule:evenodd;stroke:#000;stroke-width:2;stroke-opacity:1"/><text id="text499" x="-207.072" y="713.242" font-size="12.8" style="font-style:normal;font-weight:400;font-size:12.80000019px;font-family:sans-serif;text-anchor:middle;fill:#000;fill-opacity:1;stroke:none"><tspan id="tspan497" x="-207.072" y="713.242">PLY file</tspan></text></g><g id="g509"><rect id="rect503" width="79.85" height="38" x="-243.734" y="614.234" rx="0" ry="0" style="fill:#a0eaff;fill-opacity:1;stroke:#000;stroke-width:2;stroke-opacity:1"/><text id="text507" x="-203.809" y="637.134" font-size="12.8" style="font-style:normal;font-weight:400;font-size:12.80000019px;font-family:sans-serif;text-anchor:middle;fill:#000;fill-opacity:1;stroke:none"><tspan id="tspan505" x="-203.809" y="637.134">write_ply</tspan></text></g><g id="g515"><line id="line511" x1="-290.757" x2="-246.041" y1="-6.66" y2="119.843" style="fill:none;stroke:#000;stroke-width:2;stroke-opacity:1"/><polygon id="polygon513" points="-243.542 126.914 -251.588 119.152 -246.041 119.843 -242.16 115.819" style="fill:#000;fill-opacity:1;fill-rule:evenodd;stroke:#000;stroke-width:2;stroke-opacity:1"/></g><g id="g521"><line id="line517" x1="-469.558" x2="-277.713" y1="-6.66" y2="126.358" style="fill:none;stroke:#000;stroke-width:2;stroke-opacity:1"/><polygon id="polygon519" points="-271.55 130.632 -282.617 129.043 -277.713 126.358 -276.919 120.825" style="fill:#000;fill-opacity:1;fill-rule:evenodd;stroke:#000;stroke-width:2;stroke-opacity:1"/></g><g id="g527"><line id="line523" x1="-649.518" x2="-296.849" y1="-6.66" y2="132.292" style="fill:none;stroke:#000;stroke-width:2;stroke-opacity:1"/><polygon id="polygon525" points="-289.871 135.041 -301.008 136.027 -296.849 132.292 -297.342 126.724" style="fill:#000;fill-opacity:1;fill-rule:evenodd;stroke:#000;stroke-width:2;stroke-opacity:1"/></g><g id="g533"><line id="line529" x1="-332.286" x2="-579.092" y1="-6.66" y2="136.505" style="fill:none;stroke:#000;stroke-width:2;stroke-opacity:1"/><polygon id="polygon531" points="-585.58 140.268 -579.439 130.925 -579.092 136.505 -574.421 139.575" style="fill:#000;fill-opacity:1;fill-rule:evenodd;stroke:#000;stroke-width:2;stroke-opacity:1"/></g><g id="g539"><line id="line535" x1="-152.961" x2="-571.546" y1="-6.66" y2="141.991" style="fill:none;stroke:#000;stroke-width:2;stroke-opacity:1"/><polygon id="polygon537" points="-578.613 144.501 -570.863 136.443 -571.546 141.991 -567.516 145.866" style="fill:#000;fill-opacity:1;fill-rule:evenodd;stroke:#000;stroke-width:2;stroke-opacity:1"/></g></g></svg>